<svg xmlns="http://www.w3.org/2000/svg" width="102" height="27" fill="none" viewBox="0 0 102 27">
    <path fill="url(#a)" d="M1.729 19.74c2.847 0 4.181 1.223 5.87 2.772 1.883 1.726 4.016 3.682 8.208 3.682s6.325-1.956 8.208-3.682c1.689-1.549 3.023-2.772 5.87-2.772s4.181 1.223 5.87 2.772c1.883 1.726 4.015 3.682 8.208 3.682 4.192 0 6.325-1.956 8.207-3.682 1.689-1.549 3.023-2.772 5.87-2.772 2.846 0 4.18 1.223 5.87 2.772 1.882 1.726 4.015 3.682 8.207 3.682 4.192 0 6.325-1.956 8.207-3.682 1.689-1.549 3.023-2.772 5.87-2.772 2.846 0 4.18 1.223 5.87 2.772 1.882 1.726 4.015 3.682 8.207 3.682a1.729 1.729 0 1 0 0-3.457c-2.847 0-4.18-1.224-5.87-2.773-1.882-1.726-4.015-3.682-8.207-3.682-4.192 0-6.325 1.956-8.207 3.682-1.69 1.549-3.024 2.773-5.87 2.773-2.847 0-4.18-1.224-5.87-2.773-1.882-1.726-4.015-3.682-8.207-3.682-4.192 0-6.325 1.956-8.207 3.682-1.69 1.549-3.024 2.772-5.87 2.772-2.847 0-4.181-1.223-5.87-2.772-1.883-1.726-4.016-3.682-8.208-3.682s-6.325 1.956-8.207 3.681c-1.69 1.55-3.024 2.773-5.871 2.773-2.847 0-4.181-1.224-5.87-2.773-1.883-1.725-4.016-3.681-8.208-3.681a1.729 1.729 0 1 0 0 3.458z"/>
    <path fill="url(#b)" d="M1.73 3.458c2.846 0 4.18 1.224 5.87 2.773 1.882 1.726 4.015 3.682 8.207 3.682 4.193 0 6.326-1.956 8.208-3.682 1.69-1.55 3.023-2.773 5.87-2.773s4.181 1.224 5.87 2.773c1.883 1.726 4.016 3.682 8.208 3.682s6.325-1.956 8.207-3.682c1.69-1.55 3.024-2.773 5.87-2.773 2.847 0 4.18 1.224 5.87 2.773.216.197.431.395.65.59a1.73 1.73 0 0 0 2.301-2.58c-.207-.185-.41-.372-.614-.558C64.365 1.957 62.232 0 58.04 0c-4.191 0-6.325 1.956-8.207 3.682-1.689 1.549-3.023 2.772-5.87 2.772s-4.18-1.223-5.87-2.772C36.21 1.957 34.077 0 29.885 0c-4.191 0-6.325 1.956-8.207 3.681-1.69 1.55-3.024 2.773-5.87 2.773-2.847 0-4.182-1.224-5.871-2.773C8.055 1.957 5.92.001 1.729.001a1.729 1.729 0 1 0 0 3.457z"/>
    <path fill="url(#c)" d="M69.652 9.653c.77.172 1.6.26 2.465.26 4.192 0 6.325-1.956 8.207-3.682 1.689-1.55 3.023-2.773 5.87-2.773 2.846 0 4.18 1.224 5.87 2.773 1.882 1.726 4.015 3.682 8.207 3.682a1.729 1.729 0 1 0 0-3.458c-2.847 0-4.18-1.224-5.87-2.773C92.52 1.956 90.386 0 86.194 0c-4.192 0-6.325 1.956-8.207 3.682-1.69 1.55-3.024 2.773-5.87 2.773-.621 0-1.181-.058-1.711-.176a1.73 1.73 0 0 0-.754 3.374z"/>
    <defs>
        <linearGradient id="a" x1="51" x2="51" y1="26.194" y2="16.282" gradientUnits="userSpaceOnUse">
            <stop stop-color="#4556CB"/>
            <stop offset="1" stop-color="#4556CB" stop-opacity="0"/>
        </linearGradient>
        <linearGradient id="b" x1="33.72" x2="33.72" y1="9.913" y2=".001" gradientUnits="userSpaceOnUse">
            <stop stop-color="#4556CB"/>
            <stop offset="1" stop-color="#4556CB" stop-opacity="0"/>
        </linearGradient>
        <linearGradient id="c" x1="85.15" x2="85.15" y1="9.913" gradientUnits="userSpaceOnUse">
            <stop stop-color="#4556CB"/>
            <stop offset="1" stop-color="#4556CB" stop-opacity="0"/>
        </linearGradient>
    </defs>
</svg>
