<svg width="202" height="21" viewBox="0 0 202 21" fill="none" xmlns="http://www.w3.org/2000/svg">
<path d="M197.947 13.3277C192.329 13.3277 189.696 10.9134 186.363 7.85677C182.649 4.45149 178.44 0.591797 170.169 0.591797C161.897 0.591797 157.688 4.45149 153.974 7.85677C150.641 10.9134 148.008 13.3277 142.391 13.3277C136.774 13.3277 134.141 10.9134 130.808 7.85677C127.094 4.45149 122.885 0.591797 114.614 0.591797C106.342 0.591797 102.133 4.45149 98.4194 7.85716C95.0868 10.9138 92.4539 13.3277 86.8372 13.3277C81.2208 13.3277 78.5883 10.9134 75.2553 7.85716C71.5419 4.45188 67.3331 0.591797 59.0618 0.591797C50.7906 0.591797 46.5818 4.45149 42.868 7.85677C39.5354 10.9134 36.9025 13.3277 31.2857 13.3277C25.669 13.3277 23.0361 10.9134 19.7031 7.85677C15.9893 4.45188 11.7805 0.591797 3.50926 0.591797C1.62481 0.591797 0.0980759 2.11932 0.0980759 4.00298C0.0980759 5.88663 1.62481 7.41416 3.50926 7.41416C9.12603 7.41416 11.7589 9.82848 15.0915 12.8847C18.8049 16.29 23.0141 20.1501 31.2857 20.1501C39.557 20.1501 43.7658 16.2904 47.4796 12.8855C50.8122 9.82887 53.4451 7.41455 59.0618 7.41455C64.6782 7.41455 67.3107 9.82887 70.6437 12.8851C74.3571 16.2904 78.5659 20.1505 86.8372 20.1505C95.1084 20.1505 99.3172 16.2912 103.031 12.8859C106.364 9.82927 108.997 7.41494 114.614 7.41494C120.23 7.41494 122.863 9.82926 126.196 12.8855C129.91 16.2908 134.119 20.1509 142.391 20.1509C150.662 20.1509 154.871 16.2916 158.585 12.8863C161.919 9.82966 164.551 7.41534 170.169 7.41534C175.786 7.41534 178.419 9.82966 181.752 12.8863C185.466 16.2916 189.675 20.1509 197.947 20.1509C199.831 20.1509 201.358 18.6233 201.358 16.7397C201.358 14.8552 199.831 13.3277 197.947 13.3277Z" fill="url(#paint0_linear)"/>
<defs>
<linearGradient id="paint0_linear" x1="100.728" y1="0.591797" x2="100.728" y2="20.1509" gradientUnits="userSpaceOnUse">
<stop stop-color="#922E9D"/>
<stop offset="1" stop-color="#4556CB"/>
</linearGradient>
</defs>
</svg>
