<svg width="96" height="10" viewBox="0 0 96 10" fill="none" xmlns="http://www.w3.org/2000/svg">
<path d="M93.4344 6.73091C90.8019 6.73091 89.5678 5.59944 88.0056 4.16695C86.2653 2.57106 84.2927 0.762207 80.4161 0.762207C76.5396 0.762207 74.567 2.57106 72.8265 4.16695C71.2645 5.59944 70.0306 6.73091 67.3981 6.73091C64.7656 6.73091 63.5317 5.59944 61.9697 4.16695C60.2292 2.57106 58.2568 0.762207 54.3802 0.762207C50.5037 0.762207 48.5313 2.57106 46.7908 4.16713C45.229 5.59962 43.9951 6.73091 41.3627 6.73091C38.7306 6.73091 37.4969 5.59944 35.9349 4.16713C34.1946 2.57124 32.2222 0.762207 28.3458 0.762207C24.4695 0.762207 22.497 2.57106 20.7565 4.16695C19.1947 5.59944 17.9608 6.73091 15.3285 6.73091C12.6962 6.73091 11.4623 5.59944 9.90029 4.16695C8.15979 2.57124 6.18735 0.762207 2.311 0.762207C1.42786 0.762207 0.712349 1.47808 0.712349 2.36086C0.712349 3.24364 1.42786 3.95952 2.311 3.95952C4.94332 3.95952 6.17722 5.09099 7.73903 6.5233C9.47935 8.11919 11.452 9.92822 15.3285 9.92822C19.2048 9.92822 21.1773 8.11937 22.9178 6.52367C24.4796 5.09118 25.7135 3.9597 28.3458 3.9597C30.9779 3.9597 32.2117 5.09118 33.7736 6.52348C35.514 8.11937 37.4864 9.92841 41.3627 9.92841C45.2391 9.92841 47.2115 8.11974 48.952 6.52385C50.514 5.09136 51.7479 3.95989 54.3802 3.95989C57.0126 3.95989 58.2465 5.09136 59.8084 6.52367C61.549 8.11956 63.5216 9.92859 67.3979 9.92859C71.2743 9.92859 73.2469 8.11993 74.9874 6.52403C76.5498 5.09155 77.7835 3.96007 80.4161 3.96007C83.0486 3.96007 84.2827 5.09155 85.8449 6.52403C87.5852 8.11993 89.5579 9.92859 93.4344 9.92859C94.3175 9.92859 95.033 9.21271 95.033 8.32994C95.0332 7.44679 94.3175 6.73091 93.4344 6.73091Z" fill="url(#paint0_linear)"/>
<defs>
<linearGradient id="paint0_linear" x1="47.8727" y1="0.762207" x2="47.8727" y2="9.92859" gradientUnits="userSpaceOnUse">
<stop stop-color="#922E9D"/>
<stop offset="1" stop-color="#4556CB"/>
</linearGradient>
</defs>
</svg>
