<svg width="178" height="247" viewBox="0 140 178 247" fill="none" xmlns="http://www.w3.org/2000/svg">
<path d="M126.566 231.362L59.5902 231.362C28.7928 231.488 3.8307 202.51 3.8307 166.758L3.8307 78.3653C3.8307 37.0936 32.683 3.59961 68.2351 3.59961L135.677 3.59961" stroke="white" stroke-width="7" stroke-miterlimit="10" stroke-dasharray="12.15 12.15"/>
<path d="M144.639 245.224L146.425 231.956C146.454 231.737 146.624 231.563 146.843 231.529L160.886 229.334C161.459 229.245 161.446 228.416 160.871 228.344L146.856 226.592C146.631 226.564 146.453 226.388 146.423 226.163L144.646 213.091C144.591 212.686 145.018 212.39 145.378 212.583L176.844 229.445C177.203 229.637 177.194 230.155 176.828 230.335L145.354 245.739C144.995 245.915 144.586 245.62 144.639 245.224Z" fill="#4556CB"/>
</svg>
