<svg width="139" height="399" viewBox="0 0 139 399" fill="none" xmlns="http://www.w3.org/2000/svg">
<path d="M9.46696 3.64385L77.8261 3.64385C109.26 3.51581 134.738 33.0925 134.738 69.5832L134.738 305.552C134.738 347.676 105.289 381.862 69.0026 381.862L0.16687 381.862" stroke="white" stroke-width="7" stroke-miterlimit="10" stroke-dasharray="12.15 12.15"/>
<path d="M60.5242 365.774L58.7384 379.042C58.7088 379.262 58.5387 379.435 58.32 379.47L44.2767 381.664C43.7042 381.753 43.7169 382.582 44.2919 382.654L58.307 384.406C58.532 384.434 58.7099 384.61 58.7404 384.835L60.517 397.907C60.572 398.312 60.1452 398.608 59.7854 398.415L28.3189 381.553C27.9597 381.361 27.9692 380.843 28.3352 380.663L59.8088 365.259C60.1677 365.083 60.5775 365.378 60.5242 365.774Z" fill="#4556CB"/>
</svg>
