<svg width="62" height="61" viewBox="0 0 62 61" fill="none" xmlns="http://www.w3.org/2000/svg">
<path d="M36.8256 30.3579C36.8256 27.203 34.2518 24.6455 31.0768 24.6455C27.9018 24.6455 25.3281 27.203 25.3281 30.3579C25.3281 33.5128 27.9018 36.0703 31.0768 36.0703C34.2518 36.0703 36.8256 33.5128 36.8256 30.3579Z" stroke="#922E9D"/>
<path d="M44.5211 40.4679C44.2447 41.212 43.8039 41.8855 43.231 42.4383C42.6746 43.0076 41.9973 43.4456 41.248 43.7202C40.6403 43.9548 39.7274 44.2339 38.046 44.31C36.227 44.3924 35.6817 44.4102 31.0768 44.4102C26.4715 44.4102 25.9262 44.3929 24.1077 44.3104C22.4263 44.2339 21.5129 43.9548 20.9057 43.7202C20.1564 43.4456 19.4786 43.0076 18.9227 42.4383C18.3498 41.8855 17.909 41.2124 17.6322 40.4679C17.3962 39.864 17.1152 38.9564 17.0387 37.2856C16.9557 35.4786 16.9379 34.9367 16.9379 30.3605C16.9379 25.7847 16.9557 25.2428 17.0387 23.4354C17.1152 21.7646 17.3962 20.8574 17.6322 20.2536C17.909 19.509 18.3494 18.836 18.9222 18.2831C19.4786 17.7139 20.1559 17.2758 20.9052 17.0012C21.5129 16.7662 22.4263 16.4871 24.1077 16.411C25.9262 16.3286 26.4711 16.3113 31.0764 16.3113C35.6821 16.3113 36.2275 16.3286 38.0455 16.411C39.727 16.4871 40.6403 16.7662 41.248 17.0012C42.7521 17.5777 43.9409 18.759 44.5211 20.2536C44.7571 20.8574 45.038 21.7646 45.115 23.4354C45.198 25.2428 45.2154 25.7847 45.2154 30.3605C45.2154 34.9367 45.198 35.4786 45.115 37.2856C45.0385 38.9564 44.7575 39.864 44.5211 40.4679V40.4679ZM31.0768 21.561C26.1856 21.561 22.2205 25.5006 22.2205 30.3609C22.2205 35.2213 26.1856 39.1609 31.0768 39.1609C35.9677 39.1609 39.9327 35.2213 39.9327 30.3609C39.9327 25.5006 35.9677 21.561 31.0768 21.561ZM40.2829 37.4523C39.1399 37.4523 38.2132 38.3731 38.2132 39.5088C38.2132 40.6445 39.1399 41.5653 40.2829 41.5653C41.4258 41.5653 42.3525 40.6445 42.3525 39.5088C42.352 38.3731 41.4258 37.4523 40.2829 37.4523Z" stroke="#922E9D"/>
<path d="M31.0768 60.2051C14.492 60.2051 1.04272 46.8408 1.04272 30.3607C1.04272 13.8806 14.492 0.516304 31.0768 0.516304C47.6617 0.516304 61.1109 13.8806 61.1109 30.3607C61.1109 46.8408 47.6617 60.2051 31.0768 60.2051ZM48.2189 23.2953C48.1355 21.471 47.8436 20.2255 47.4174 19.1353C46.5215 16.8334 44.6902 15.0136 42.3735 14.1233C41.2769 13.6998 40.023 13.4102 38.1876 13.3269C36.3485 13.2435 35.7609 13.2235 31.0773 13.2235C26.3932 13.2235 25.8061 13.2435 23.9665 13.3269C22.1311 13.4102 20.8773 13.6998 19.7806 14.1233C18.6294 14.5537 17.5872 15.2281 16.7257 16.1002C15.8485 16.9559 15.1698 17.9919 14.7367 19.1353C14.3105 20.2251 14.0186 21.471 13.9352 23.2949C13.8504 25.1228 13.8307 25.7066 13.8307 30.3607C13.8307 35.0148 13.8504 35.5986 13.9347 37.4261C14.0181 39.2503 14.3096 40.4958 14.7358 41.586C15.1689 42.7295 15.848 43.7655 16.7257 44.6212C17.5868 45.4933 18.6294 46.1677 19.7801 46.598C20.8773 47.0216 22.1307 47.3112 23.9665 47.3945C25.8056 47.4779 26.3932 47.4979 31.0768 47.4979C35.7605 47.4979 36.348 47.4779 38.1871 47.3941C40.023 47.3112 41.2764 47.0216 42.3735 46.5985C43.5243 46.1682 44.5669 45.4933 45.4284 44.6212C46.3056 43.7651 46.9848 42.7295 47.4174 41.586C47.8441 40.4958 48.1355 39.2503 48.2194 37.4261C48.3033 35.5986 48.323 35.0148 48.323 30.3607C48.323 25.7066 48.3033 25.1228 48.2189 23.2953V23.2953Z" stroke="#922E9D"/>
</svg>
