<svg xmlns="http://www.w3.org/2000/svg" width="38" height="38" fill="none" viewBox="0 0 38 38">
    <g clip-path="url(#a)">
        <path fill="#41B4E6" d="M19 38c10.493 0 19-8.506 19-19C38 8.507 29.493 0 19 0 8.506 0 0 8.507 0 19c0 10.494 8.506 19 19 19z"/>
        <path fill="#0091C8" d="M38 19c0-.463-.017-.922-.05-1.376l-7.875-7.875-22.15 8.714 8.475 8.475.11.4.145-.145-.144.145 9.375 9.375C32.976 33.955 38 27.065 38 19z"/>
        <path fill="#fff" d="M17.155 21.768l8.586 6.483L30.076 9.75 7.924 18.463l6.74 2.232 12.302-8.251-9.811 9.324z"/>
        <path fill="#D2D2D7" d="M14.665 20.695l1.846 6.643.644-5.57 9.811-9.324-12.301 8.251z"/>
        <path fill="#B9B9BE" d="M19.945 23.875l-3.434 3.463.644-5.57 2.79 2.107z"/>
    </g>
    <defs>
        <clipPath id="a">
            <path fill="#fff" d="M0 0h38v38H0z"/>
        </clipPath>
    </defs>
</svg>
