<svg width="62" height="64" viewBox="0 0 62 64" fill="none" xmlns="http://www.w3.org/2000/svg">
<path d="M31.3842 1C14.796 1 1.34863 14.8315 1.34863 31.8937C1.34863 48.9559 14.796 62.7874 31.3842 62.7874C47.9724 62.7874 61.4198 48.9559 61.4198 31.8937C61.4198 14.8315 47.9724 1 31.3842 1ZM42.8429 16.7329L38.6886 16.7348C35.4309 16.7348 34.801 18.327 34.801 20.6633V25.8148H42.5694L42.5657 33.8836H34.8016V54.5898H26.699V33.8836H19.9255V25.8148H26.699V19.8643C26.699 12.9586 30.801 9.19766 36.7897 9.19766L42.8435 9.20714V16.7329H42.8429Z" stroke="#922E9D"/>
</svg>
