<svg width="79" height="80" viewBox="0 0 79 80" fill="none" xmlns="http://www.w3.org/2000/svg">
<g clip-path="url(#clip0)">
<path d="M48.6412 29.688C47.9061 29.688 47.1887 29.7648 46.4958 29.9094V6.1575C46.4958 4.97447 47.4582 4.01211 48.6412 4.01211C49.8243 4.01211 50.7866 4.97447 50.7866 6.1575V20.8177C50.7866 21.6641 51.4728 22.3502 52.3191 22.3502C53.1653 22.3502 53.8515 21.6641 53.8515 20.8177V6.1575C53.8515 3.28452 51.5142 0.947266 48.6412 0.947266C45.7683 0.947266 43.431 3.28452 43.431 6.1575V31.0795C40.2802 32.8911 38.1521 36.2892 38.1521 40.1773C38.1521 45.3649 41.9384 49.6823 46.8918 50.5178C46.3057 52.34 44.5949 53.6626 42.5803 53.6626H32.9823C32.3372 51.7071 30.4938 50.2913 28.3251 50.2913C25.6212 50.2913 23.4214 52.4911 23.4214 55.195C23.4214 57.899 25.6212 60.0988 28.3251 60.0988C30.494 60.0988 32.3372 58.683 32.9823 56.7275H42.5803C46.2759 56.7275 49.3618 54.073 50.0354 50.571C55.1622 49.8866 59.1305 45.4881 59.1305 40.1773C59.1305 34.3935 54.4251 29.688 48.6412 29.688ZM28.3251 57.034C27.3111 57.034 26.4862 56.209 26.4862 55.195C26.4862 54.181 27.3111 53.3561 28.3251 53.3561C29.3391 53.3561 30.164 54.181 30.164 55.195C30.164 56.209 29.3391 57.034 28.3251 57.034ZM48.6412 47.6016C44.5474 47.6016 41.217 44.271 41.217 40.1773C41.217 36.0834 44.5474 32.7529 48.6412 32.7529C52.7351 32.7529 56.0657 36.0834 56.0657 40.1773C56.0657 44.271 52.7351 47.6016 48.6412 47.6016Z" fill="#FACA21"/>
<path d="M48.6413 35.4268C46.0217 35.4268 43.8907 37.5579 43.8907 40.1773C43.8907 42.7966 46.0217 44.9278 48.6413 44.9278C51.2608 44.9278 53.3918 42.7966 53.3918 40.1773C53.3918 37.5579 51.2608 35.4268 48.6413 35.4268ZM48.6413 41.8629C47.7118 41.8629 46.9556 41.1067 46.9556 40.1773C46.9556 39.2479 47.7118 38.4916 48.6413 38.4916C49.5707 38.4916 50.3269 39.2479 50.3269 40.1773C50.3269 41.1067 49.5707 41.8629 48.6413 41.8629Z" fill="#FACA21"/>
<path d="M53.4031 24.8426C53.1182 24.5575 52.7229 24.3936 52.3198 24.3936C51.9151 24.3936 51.5198 24.5575 51.2349 24.8426C50.9499 25.1276 50.7874 25.523 50.7874 25.926C50.7874 26.329 50.9499 26.7244 51.2349 27.0094C51.5214 27.2944 51.9151 27.4584 52.3198 27.4584C52.7229 27.4584 53.1167 27.2944 53.4031 27.0094C53.6881 26.7244 53.8523 26.329 53.8523 25.926C53.8523 25.523 53.6883 25.1276 53.4031 24.8426Z" fill="#FACA21"/>
<path d="M26.5997 28.9798C26.3146 28.6947 25.9193 28.5308 25.5162 28.5308C25.1117 28.5308 24.7179 28.6947 24.4328 28.9798C24.1463 29.2648 23.9838 29.6602 23.9838 30.0632C23.9838 30.4662 24.1463 30.8616 24.4328 31.1466C24.7165 31.4316 25.1118 31.5956 25.5162 31.5956C25.9193 31.5956 26.3146 31.4316 26.5997 31.1466C26.8846 30.8616 27.0487 30.4662 27.0487 30.0632C27.0487 29.6602 26.8847 29.2648 26.5997 28.9798Z" fill="#FACA21"/>
<path d="M65.8505 56.125C65.4153 55.8422 64.867 55.799 64.3929 56.0097L63.0511 56.6061V56.4701C63.0511 54.1946 63.7356 52.0073 65.0305 50.145C68.9866 44.4548 71.3695 36.5205 71.2492 29.4387C71.0808 19.5223 65.9659 10.4932 57.567 5.28607C56.8471 4.83967 55.9029 5.06172 55.457 5.78104C55.0111 6.50036 55.2327 7.44495 55.9518 7.89088C63.461 12.5464 68.0342 20.6212 68.1848 29.4908C68.293 35.8645 66.067 43.2849 62.514 48.3954C60.8602 50.7739 59.9861 53.566 59.9861 56.4701V57.9686L35.9076 68.6724C35.463 66.0178 33.1506 63.988 30.3717 63.988H25.6341C22.1748 63.988 19.3603 61.1735 19.3603 57.7141V49.4485C19.3603 47.28 17.596 45.5157 15.4275 45.5157H11.6749L16.2619 30.387C16.3057 30.243 16.328 30.0931 16.328 29.9424C16.328 15.8733 27.7684 4.24249 41.8308 4.01538C42.6771 4.00174 43.3521 3.30464 43.3384 2.45844C43.3247 1.61239 42.6222 0.933987 41.7815 0.950997C34.1367 1.07436 26.9694 4.14503 21.5996 9.59693C16.2774 15.0006 13.3226 22.136 13.2639 29.7123L8.14252 46.6036C8.00169 47.0679 8.08904 47.5714 8.37821 47.9611C8.66722 48.3508 9.12373 48.5805 9.6089 48.5805H15.4275C15.9061 48.5805 16.2955 48.9699 16.2955 49.4485V57.7141C16.2955 62.8635 20.4848 67.0528 25.6341 67.0528H30.3717C31.7775 67.0528 32.9212 68.1965 32.9212 69.6023V77.8748C32.9212 78.3405 33.133 78.7808 33.4966 79.0716C33.7709 79.2909 34.1091 79.4072 34.4536 79.4072C34.5659 79.4072 34.679 79.3948 34.7906 79.3697L44.1854 77.2519C45.0111 77.0657 45.5295 76.2455 45.3433 75.4199C45.1573 74.5943 44.3377 74.0762 43.5115 74.262L35.9862 75.9583V71.9915L63.4832 59.7681V69.7595L54.6675 71.7469C53.8418 71.9331 53.3234 72.7533 53.5096 73.579C53.6958 74.4045 54.5155 74.9227 55.3415 74.7369L65.3526 72.4799C66.0516 72.3224 66.5481 71.7014 66.5481 70.985V57.4099C66.5479 56.8912 66.2854 56.4077 65.8505 56.125Z" fill="#FACA21"/>
<path d="M50.8181 73.3465C50.533 73.0614 50.1377 72.8975 49.7346 72.8975C49.3316 72.8975 48.9362 73.0614 48.6512 73.3465C48.3663 73.6315 48.2022 74.0269 48.2022 74.4299C48.2022 74.8329 48.3662 75.2283 48.6512 75.5133C48.9362 75.7983 49.3316 75.9623 49.7346 75.9623C50.1377 75.9623 50.533 75.7983 50.8181 75.5133C51.1029 75.2283 51.2671 74.8329 51.2671 74.4299C51.2671 74.0269 51.1031 73.6315 50.8181 73.3465Z" fill="#FACA21"/>
</g>
<defs>
<clipPath id="clip0">
<rect width="78.4601" height="78.4601" fill="white" transform="translate(0.435059 0.947266)"/>
</clipPath>
</defs>
</svg>
