<svg width="64" height="64" viewBox="0 0 64 64" fill="none" xmlns="http://www.w3.org/2000/svg">
<path d="M32.3602 1.32812C15.2335 1.32812 1.34863 15.2124 1.34863 32.3396C1.34863 49.4669 15.2335 63.3512 32.3602 63.3512C49.4868 63.3512 63.3717 49.4669 63.3717 32.3396C63.3717 15.2124 49.4868 1.32812 32.3602 1.32812ZM48.0909 35.6937C49.5363 37.1054 51.0654 38.4341 52.363 39.9918C52.9379 40.6809 53.4797 41.3934 53.8921 42.1948C54.481 43.3376 53.9493 44.5907 52.9264 44.6586L46.5731 44.6573C44.9323 44.7931 43.6265 44.1313 42.5256 43.0095C41.6468 42.1155 40.8315 41.1606 39.985 40.2361C39.6392 39.8567 39.275 39.4994 38.841 39.2183C37.9749 38.6549 37.2224 38.8275 36.7262 39.7323C36.2205 40.653 36.105 41.6732 36.0568 42.698C35.9876 44.196 35.5359 44.5875 34.0327 44.658C30.8208 44.8083 27.7733 44.321 24.9409 42.7018C22.4422 41.2735 20.5082 39.2577 18.823 36.9754C15.5413 32.5262 13.028 27.643 10.7698 22.6196C10.2616 21.4883 10.6334 20.883 11.8814 20.8595C13.955 20.8195 16.0286 20.8246 18.1022 20.8576C18.946 20.8709 19.5044 21.3538 19.8286 22.1501C20.9492 24.907 22.3229 27.5301 24.0443 29.9628C24.5031 30.6106 24.9713 31.2565 25.6382 31.714C26.3742 32.2191 26.9351 32.0522 27.2822 31.2305C27.5043 30.7083 27.6001 30.15 27.6483 29.5903C27.8133 27.6735 27.833 25.7573 27.5474 23.848C27.3698 22.6533 26.6978 21.8817 25.5068 21.6558C24.9003 21.541 24.9891 21.3164 25.2841 20.9699C25.7962 20.3709 26.2759 20.0004 27.2346 20.0004L34.4128 19.9991C35.5441 20.2212 35.7979 20.7288 35.9515 21.8684L35.9578 29.8454C35.9445 30.2864 36.1793 31.5935 36.9711 31.8822C37.6056 32.0916 38.0244 31.5827 38.4038 31.181C40.1253 29.3543 41.3518 27.1982 42.4501 24.9667C42.9348 23.9826 43.353 22.9642 43.7591 21.9439C44.0611 21.1895 44.5306 20.8183 45.3821 20.831L52.2945 20.8392C52.4981 20.8392 52.705 20.8411 52.9068 20.876C54.0717 21.0752 54.3909 21.5765 54.0305 22.7129C53.4632 24.4984 52.3611 25.9857 51.2837 27.4768C50.1289 29.0732 48.8973 30.6138 47.7539 32.2172C46.7032 33.6829 46.7863 34.4208 48.0909 35.6937Z" stroke="#922E9D"/>
</svg>
