<svg xmlns="http://www.w3.org/2000/svg" width="69" height="69" fill="none" viewBox="15 15 39 39">
    <path fill="#03C703" d="M48 20.939c-7.431-7.43-19.476-7.435-26.911 0-6.214 6.214-7.25 15.684-3.01 22.998l-2.653 9.575 9.575-2.652c7.355 4.262 16.815 3.172 22.998-3.011 7.43-7.43 7.436-19.474 0-26.91z"/>
    <path fill="#fff" d="M44.975 41.186c-.007-.568-.538-1.03-1.19-1.11a15.824 15.824 0 0 1-4.489-1.229c-.504-.221-1.086-.133-1.436.237-.317.34-.643.672-.977.999a18.111 18.111 0 0 1-8.028-8.028c.326-.335.66-.66.999-.977.37-.35.458-.932.236-1.437a15.832 15.832 0 0 1-1.228-4.49c-.08-.65-.541-1.181-1.11-1.188H26.34c-2.06-.117-3.842 2.699-2.95 5.942a22.426 22.426 0 0 0 15.643 15.643c3.243.892 6.059-.891 5.942-2.951v-1.411z"/>
</svg>
