<svg width="90" height="89" viewBox="0 0 90 89" fill="none" xmlns="http://www.w3.org/2000/svg">
<g clip-path="url(#clip0)">
<path d="M88.981 48.3029C88.1894 40.341 84.6324 32.8349 78.9648 27.1671C74.1213 22.3238 68.193 19.2114 61.9551 17.8274V13.4523C64.5029 12.8185 66.3967 10.5123 66.3967 7.77111C66.3967 4.54281 63.7703 1.9165 60.542 1.9165H48.144C44.9157 1.9165 42.2894 4.54281 42.2894 7.77111C42.2894 10.5121 44.1832 12.8183 46.7308 13.4523V17.8397C40.512 19.2294 34.6034 22.3376 29.7737 27.1673C28.7167 28.2242 27.7421 29.333 26.85 30.4853C26.8067 30.482 26.7635 30.4787 26.7194 30.4787H14.4487C13.4978 30.4787 12.7267 31.2497 12.7267 32.2007C12.7267 33.1517 13.4978 33.9226 14.4487 33.9226H24.5069C23.2444 36.0363 22.2264 38.2561 21.4515 40.5411H2.71071C1.75986 40.5411 0.98877 41.312 0.98877 42.263C0.98877 43.2141 1.75986 43.985 2.71071 43.985H20.4784C19.9822 46.1634 19.6974 48.3804 19.6238 50.6036H12.0092C11.0584 50.6036 10.2873 51.3745 10.2873 52.3256C10.2873 53.2766 11.0584 54.0475 12.0092 54.0475H19.6788C19.8241 56.2764 20.1824 58.4936 20.7539 60.6661H9.59849C8.64763 60.6661 7.87655 61.4371 7.87655 62.3881C7.87655 63.3391 8.64763 64.11 9.59849 64.11H21.8529C23.5421 68.5787 26.182 72.7669 29.7737 76.3586C35.4468 82.0317 42.9606 85.5896 50.9308 86.377C52.0684 86.4893 53.2067 86.5449 54.3436 86.5449C61.0629 86.5449 67.6969 84.6003 73.3259 80.9346C74.1228 80.4156 74.3483 79.3489 73.8293 78.552C73.3103 77.7551 72.2435 77.5297 71.4466 78.0487C59.1249 86.0724 42.623 84.3375 32.2088 73.9234C19.9896 61.7041 19.9896 41.822 32.2088 29.6026C44.4279 17.3835 64.31 17.3835 76.5294 29.6026C86.9298 40.0032 88.6741 56.4909 80.6769 68.8066C80.159 69.6042 80.3857 70.6708 81.1832 71.1886C81.9811 71.7066 83.0473 71.4798 83.5651 70.6822C87.838 64.1018 89.7614 56.1541 88.981 48.3029ZM45.7333 7.77129C45.7333 6.44195 46.8147 5.36056 48.144 5.36056H60.542C61.8714 5.36056 62.9528 6.44195 62.9528 7.77129C62.9528 9.10063 61.8714 10.182 60.542 10.182H60.2331H48.4528H48.144C46.8147 10.182 45.7333 9.10045 45.7333 7.77129ZM50.1747 17.2477V13.6259H58.5112V17.2415C55.743 16.9122 52.9424 16.9143 50.1747 17.2477Z" fill="#FACA21"/>
<path d="M77.7478 73.4185C77.2932 73.4185 76.8507 73.6027 76.5306 73.923C76.2086 74.2433 76.0259 74.6875 76.0259 75.1404C76.0259 75.5932 76.2086 76.0375 76.5306 76.3578C76.8507 76.6798 77.2934 76.8623 77.7478 76.8623C78.2007 76.8623 78.6432 76.6798 78.9652 76.3578C79.2855 76.0375 79.4697 75.5932 79.4697 75.1404C79.4697 74.6875 79.2856 74.2433 78.9652 73.923C78.6432 73.6027 78.2005 73.4185 77.7478 73.4185Z" fill="#FACA21"/>
<path d="M54.3692 25.0503C39.64 25.0503 27.6569 37.0333 27.6569 51.7626C27.6569 66.492 39.64 78.475 54.3692 78.475C69.0984 78.475 81.0816 66.492 81.0816 51.7626C81.0816 37.0333 69.0984 25.0503 54.3692 25.0503ZM54.3692 75.0311C41.5388 75.0311 31.1007 64.5929 31.1007 51.7626C31.1007 38.9324 41.5388 28.4942 54.3692 28.4942C67.1996 28.4942 77.6377 38.9324 77.6377 51.7626C77.6377 64.5929 67.1996 75.0311 54.3692 75.0311Z" fill="#FACA21"/>
<path d="M65.2616 38.435L56.7328 46.9636C56.0196 46.6109 55.2173 46.4117 54.3693 46.4117C53.521 46.4117 52.7189 46.6109 52.0057 46.9636L48.1887 43.1466C47.5161 42.4741 46.4261 42.4741 45.7533 43.1466C45.0809 43.819 45.0809 44.9093 45.7533 45.5817L49.5704 49.3988C49.2175 50.112 49.0185 50.9143 49.0185 51.7623C49.0185 54.7127 51.4187 57.1131 54.3693 57.1131C57.3198 57.1131 59.72 54.7127 59.72 51.7623C59.72 50.9143 59.5208 50.112 59.1681 49.3988L67.4466 41.1204L67.6967 40.8702C68.3692 40.1977 68.3692 39.1074 67.6967 38.435C67.0243 37.7626 65.9343 37.7626 65.2616 38.435ZM54.3693 53.6694C53.3178 53.6694 52.4624 52.8139 52.4624 51.7625C52.4624 50.7111 53.3178 49.8556 54.3693 49.8556C55.4207 49.8556 56.2761 50.7111 56.2761 51.7625C56.2761 52.8139 55.4207 53.6694 54.3693 53.6694Z" fill="#FACA21"/>
<path d="M72.78 50.0615H71.1847C70.2338 50.0615 69.4628 50.8324 69.4628 51.7834C69.4628 52.7345 70.2338 53.5054 71.1847 53.5054H72.78C73.7309 53.5054 74.502 52.7345 74.502 51.7834C74.502 50.8324 73.7309 50.0615 72.78 50.0615Z" fill="#FACA21"/>
<path d="M37.5536 50.02H35.9584C35.0075 50.02 34.2365 50.7909 34.2365 51.7419C34.2365 52.693 35.0075 53.4639 35.9584 53.4639H37.5536C38.5044 53.4639 39.2755 52.693 39.2755 51.7419C39.2755 50.7909 38.5044 50.02 37.5536 50.02Z" fill="#FACA21"/>
<path d="M54.3903 36.6689C55.3411 36.6689 56.1122 35.898 56.1122 34.947V33.3518C56.1122 32.4008 55.3411 31.6299 54.3903 31.6299C53.4394 31.6299 52.6683 32.4008 52.6683 33.3518V34.947C52.6683 35.898 53.4394 36.6689 54.3903 36.6689Z" fill="#FACA21"/>
<path d="M54.3483 66.8564C53.3974 66.8564 52.6263 67.6273 52.6263 68.5784V70.1736C52.6263 71.1246 53.3974 71.8955 54.3483 71.8955C55.2991 71.8955 56.0702 71.1246 56.0702 70.1736V68.5784C56.0702 67.6273 55.2991 66.8564 54.3483 66.8564Z" fill="#FACA21"/>
<path d="M2.71069 60.6655C2.25782 60.6655 1.81357 60.8498 1.49329 61.17C1.17301 61.4903 0.98877 61.9346 0.98877 62.3874C0.98877 62.842 1.17284 63.2846 1.49329 63.6048C1.81374 63.9251 2.25782 64.1094 2.71069 64.1094C3.16355 64.1094 3.60781 63.9251 3.92791 63.6048C4.24819 63.2846 4.4326 62.8403 4.4326 62.3874C4.4326 61.9346 4.24836 61.4903 3.92791 61.17C3.60781 60.8498 3.16355 60.6655 2.71069 60.6655Z" fill="#FACA21"/>
</g>
<defs>
<clipPath id="clip0">
<rect width="88.1622" height="88.1622" fill="white" transform="translate(0.98877 0.149414)"/>
</clipPath>
</defs>
</svg>
