<svg xmlns="http://www.w3.org/2000/svg" width="62" height="62" fill="none" viewBox="12 12 38 38">
    <path fill="#6E64C3" d="M41.848 50.49H20.152a8.643 8.643 0 0 1-8.643-8.643V20.151a8.643 8.643 0 0 1 8.643-8.643h21.696a8.643 8.643 0 0 1 8.642 8.643v21.696a8.643 8.643 0 0 1-8.642 8.643z"/>
    <path fill="#fff" d="M28.298 27.54a1.392 1.392 0 0 0 .292-1.952l-1.468-1.972a1.07 1.07 0 0 0-1.519-.202c-.27.213-.574.45-.86.674a2.047 2.047 0 0 0-.66 2.33 17.283 17.283 0 0 0 9.94 10.074 2.047 2.047 0 0 0 2.518-.893l.565-.99a1.069 1.069 0 0 0-.333-1.417l-1.797-1.207a1.393 1.393 0 0 0-1.96.423c-.06.095-.116.188-.169.273a.522.522 0 0 1-.73.163 14.91 14.91 0 0 1-4.32-4.327.522.522 0 0 1 .134-.709l.367-.267zM37.71 30.088a.537.537 0 0 1-.537-.537 6.42 6.42 0 0 0-6.412-6.413.537.537 0 0 1 0-1.074c4.128 0 7.487 3.358 7.487 7.487 0 .296-.24.537-.538.537z"/>
    <path fill="#fff" d="M36.027 30.088a.537.537 0 0 1-.537-.537 4.735 4.735 0 0 0-4.73-4.73.537.537 0 0 1 0-1.074 5.81 5.81 0 0 1 5.804 5.804c0 .296-.24.537-.537.537z"/>
    <path fill="#fff" d="M34.374 30.087a.537.537 0 0 1-.538-.538 3.08 3.08 0 0 0-3.075-3.075.537.537 0 0 1 0-1.075 4.155 4.155 0 0 1 4.15 4.15c0 .297-.24.538-.537.538z"/>
    <path fill="#fff" d="M44.342 26.895c0-5.381-4.362-9.743-9.743-9.743h-6.898c-5.545 0-10.04 4.495-10.04 10.041v4.331c0 4.279 2.676 7.93 6.446 9.376v3.402a.975.975 0 0 0 .969.97.976.976 0 0 0 .735-.333l2.927-3.373h5.861c5.381 0 9.743-4.362 9.743-9.743v-4.928zm-2.268 4.928c0 4.121-3.353 7.474-7.475 7.474h-5.196L25.4 43.953a.192.192 0 0 1-.337-.125v-4.993c-2.99-1.083-5.134-3.95-5.134-7.31v-4.332c0-4.286 3.487-7.773 7.773-7.773H34.6c4.122 0 7.475 3.353 7.475 7.475v4.928z"/>
</svg>
