<svg width="85" height="69" viewBox="0 0 85 69" fill="none" xmlns="http://www.w3.org/2000/svg">
<path d="M81.1917 0.015625H38.6748C37.9945 0.015625 37.4425 0.567592 37.4425 1.24792C37.4425 1.9289 37.9945 2.48022 38.6748 2.48022H81.1923C81.8996 2.48022 82.4753 3.05594 82.4753 3.76387V41.2823C82.4753 41.9626 83.0273 42.5146 83.7076 42.5146C84.3886 42.5146 84.9399 41.9626 84.9399 41.2823V3.76387C84.9399 1.6972 83.259 0.015625 81.1917 0.015625Z" fill="#FACA21"/>
<path d="M83.7075 45.4166C83.0265 45.4166 82.4752 45.968 82.4752 46.6489V49.0853H3.27954V3.76435C3.27954 3.05642 3.85525 2.48071 4.56254 2.48071H22.7113C23.3916 2.48071 23.9436 1.92938 23.9436 1.24841C23.9436 0.56808 23.3916 0.0161133 22.7113 0.0161133H4.56254C2.49587 0.0161133 0.814941 1.69769 0.814941 3.76435V56.6806C0.814941 58.2852 2.12041 59.5906 3.72496 59.5906H33.5889V65.5621H28.5005C27.8202 65.5621 27.2683 66.1141 27.2683 66.7944C27.2683 67.4754 27.8202 68.0267 28.5005 68.0267H57.2541C57.9351 68.0267 58.4864 67.4754 58.4864 66.7944C58.4864 66.1141 57.9351 65.5621 57.2541 65.5621H52.1658V59.5906H82.0297C83.6343 59.5906 84.9398 58.2852 84.9398 56.6806V46.6489C84.9398 45.968 84.3884 45.4166 83.7075 45.4166ZM49.7012 65.5621H36.0535V59.5906H49.7012V65.5621ZM82.0297 57.126H3.72496C3.47914 57.126 3.27954 56.9264 3.27954 56.6806V51.5499H82.4752V56.6806C82.4752 56.9264 82.2756 57.126 82.0297 57.126Z" fill="#FACA21"/>
<path d="M28.0776 2.48022H33.3085C33.9888 2.48022 34.5408 1.9289 34.5408 1.24792C34.5408 0.567592 33.9888 0.015625 33.3085 0.015625H28.0776C27.3973 0.015625 26.8453 0.567592 26.8453 1.24792C26.8453 1.9289 27.3973 2.48022 28.0776 2.48022Z" fill="#FACA21"/>
<path d="M8.43469 9.32324C7.75436 9.32324 7.20239 9.87457 7.20239 10.5555V43.2596C7.20239 43.9399 7.75436 44.4919 8.43469 44.4919H18.0312C18.7116 44.4919 19.2635 43.9399 19.2635 43.2596V10.5555C19.2635 9.87457 18.7116 9.32324 18.0312 9.32324H8.43469ZM16.7989 11.7878V13.2756H9.66699V11.7878H16.7989ZM9.66699 42.0273V15.7402H16.7989V42.0273H9.66699Z" fill="#FACA21"/>
<path d="M68.7859 22.6975H78.3824C79.0634 22.6975 79.6147 22.1462 79.6147 21.4652V10.5555C79.6147 9.87457 79.0634 9.32324 78.3824 9.32324H68.7859C68.1056 9.32324 67.5536 9.87457 67.5536 10.5555V21.4652C67.5536 22.1462 68.1056 22.6975 68.7859 22.6975ZM70.0182 20.2329V15.7395H77.1501V20.2329H70.0182ZM77.1501 11.7878V13.2756H70.0182V11.7878H77.1501Z" fill="#FACA21"/>
<path d="M67.5536 38.935C67.5536 39.6159 68.1056 40.1673 68.7859 40.1673H78.3824C79.0634 40.1673 79.6147 39.6159 79.6147 38.935V28.0253C79.6147 27.3443 79.0634 26.793 78.3824 26.793H68.7859C68.1056 26.793 67.5536 27.3443 67.5536 28.0253V38.935ZM70.0182 37.7027V33.2093H77.1501V37.7027H70.0182ZM77.1501 29.2576V30.7447H70.0182V29.2576H77.1501Z" fill="#FACA21"/>
<path d="M24.9045 32.9795C24.9045 34.9608 26.5174 36.5731 28.4987 36.5731C29.4012 36.5731 30.2259 36.2387 30.8574 35.6874L39.3269 40.3797C39.2987 40.5614 39.2833 40.7481 39.2833 40.9375C39.2833 42.9194 40.8956 44.5317 42.8775 44.5317C44.8588 44.5317 46.4711 42.9194 46.4711 40.9375C46.4711 40.7481 46.4563 40.5614 46.4281 40.3797L54.8969 35.6874C55.5285 36.2381 56.3539 36.5731 57.2556 36.5731C59.2376 36.5731 60.8498 34.9608 60.8498 32.9789C60.8498 31.4302 59.8646 30.1067 58.4879 29.6029V21.9697C59.8646 21.4652 60.8498 20.1424 60.8498 18.5931C60.8498 16.6111 59.2376 14.9989 57.2556 14.9989C56.3558 14.9989 55.533 15.332 54.902 15.8801L46.4274 11.1852C46.4563 11.0035 46.4711 10.8174 46.4711 10.6274C46.4711 8.64546 44.8588 7.0332 42.8769 7.0332C40.8956 7.0332 39.2833 8.64546 39.2833 10.6274C39.2833 10.8167 39.2981 11.0035 39.3269 11.1852L30.8523 15.8801C30.2214 15.332 29.3986 14.9989 28.4987 14.9989C26.5168 14.9989 24.9045 16.6111 24.9045 18.5931C24.9045 20.1418 25.8897 21.4652 27.2664 21.9691V29.6029C25.8897 30.1067 24.9045 31.4302 24.9045 32.9795ZM42.8775 14.2216C43.7773 14.2216 44.6002 13.8885 45.2311 13.3398L53.7057 18.0353C53.6775 18.217 53.662 18.4031 53.662 18.5931C53.662 18.783 53.6775 18.9698 53.7057 19.1515L45.2311 23.8464C44.6002 23.2983 43.7773 22.9652 42.8775 22.9652C41.9777 22.9652 41.1548 23.2983 40.5239 23.8464L32.0493 19.1515C32.0782 18.9698 32.093 18.783 32.093 18.5931C32.093 18.4031 32.0776 18.217 32.0493 18.0353L40.5239 13.3404C41.1548 13.8885 41.9777 14.2216 42.8775 14.2216ZM53.662 32.9795C53.662 33.1669 53.6768 33.3511 53.7044 33.5308L45.2311 38.2251C44.9037 37.9402 44.5251 37.713 44.1098 37.5615V29.9354C45.4865 29.4315 46.4717 28.1081 46.4717 26.5587C46.4717 26.3687 46.4563 26.1826 46.4281 26.001L54.9027 21.3061C55.23 21.5904 55.6087 21.8176 56.024 21.9697V29.6029C54.6472 30.1067 53.662 31.4302 53.662 32.9795ZM44.0071 26.5587C44.0071 27.1819 43.5001 27.6883 42.8775 27.6883C42.2549 27.6883 41.7479 27.1819 41.7479 26.5587C41.7479 25.9362 42.2549 25.4298 42.8775 25.4298C43.5001 25.4298 44.0071 25.9362 44.0071 26.5587ZM30.8523 21.3061L39.3269 26.001C39.2987 26.1833 39.2833 26.3694 39.2833 26.5594C39.2833 28.1081 40.2685 29.4315 41.6452 29.9354V37.5615C41.2299 37.7136 40.8513 37.9408 40.5239 38.2251L32.0506 33.5308C32.0782 33.3511 32.093 33.1669 32.093 32.9795C32.093 31.4302 31.1078 30.1067 29.731 29.6029V21.9697C30.1463 21.8176 30.525 21.5904 30.8523 21.3061ZM28.4987 34.1085C27.8762 34.1085 27.3691 33.6021 27.3691 32.9795C27.3691 32.3563 27.8762 31.8499 28.4987 31.8499C29.122 31.8499 29.6284 32.3563 29.6284 32.9795C29.6284 33.6021 29.122 34.1085 28.4987 34.1085ZM42.8775 42.0671C42.2549 42.0671 41.7479 41.56 41.7479 40.9375C41.7479 40.3149 42.2549 39.8079 42.8775 39.8079C43.5001 39.8079 44.0071 40.3149 44.0071 40.9375C44.0071 41.56 43.5001 42.0671 42.8775 42.0671ZM57.2563 34.1085C56.6337 34.1085 56.1266 33.6021 56.1266 32.9795C56.1266 32.3563 56.6337 31.8499 57.2563 31.8499C57.8788 31.8499 58.3859 32.3563 58.3859 32.9795C58.3859 33.6021 57.8788 34.1085 57.2563 34.1085ZM57.2563 17.4635C57.8788 17.4635 58.3859 17.9705 58.3859 18.5931C58.3859 19.2156 57.8788 19.7227 57.2563 19.7227C56.6337 19.7227 56.1266 19.2156 56.1266 18.5931C56.1266 17.9705 56.6337 17.4635 57.2563 17.4635ZM42.8775 9.4978C43.5001 9.4978 44.0071 10.0048 44.0071 10.6274C44.0071 11.25 43.5001 11.757 42.8775 11.757C42.2549 11.757 41.7479 11.25 41.7479 10.6274C41.7479 10.0048 42.2549 9.4978 42.8775 9.4978ZM28.4987 17.4635C29.122 17.4635 29.6284 17.9705 29.6284 18.5931C29.6284 19.2156 29.122 19.7227 28.4987 19.7227C27.8762 19.7227 27.3691 19.2156 27.3691 18.5931C27.3691 17.9705 27.8762 17.4635 28.4987 17.4635Z" fill="#FACA21"/>
</svg>
