<svg width="107" height="106" viewBox="0 0 107 106" fill="none" xmlns="http://www.w3.org/2000/svg">
<g clip-path="url(#clip0)">
<path d="M71.3298 42.6343C72.5297 40.9132 73.7108 39.2656 74.8603 37.6874C77.4704 34.0308 80.1225 30.4498 82.7914 26.9613C83.1171 26.5977 83.2495 26.3056 83.2916 26.0387H106.061V24.6055H1.23172V26.0387H75.6C75.537 26.0618 75.4908 26.0681 75.4235 26.0996C74.171 26.6208 72.9689 27.2639 71.8215 28.0204L41.3454 49.8867H1.23172V51.322H39.3552L2.80785 77.5489C1.72137 78.3159 1.30317 78.9653 1.54064 79.5201C1.61419 79.6672 1.75079 79.7491 1.86007 79.8647H0.98584V81.2938H105.813V79.8647H83.9262C84.9328 79.5768 85.9857 79.1334 87.1289 78.4126C88.5517 77.5068 90.008 76.4603 91.5148 75.2603C93.0069 74.0667 94.4989 72.7532 95.9721 71.3326C97.4495 69.912 98.8007 68.546 100.03 67.2367C101.257 65.9275 102.306 64.7339 103.174 63.6369C104.05 62.5483 104.681 61.7308 105.059 61.1781C105.494 60.5224 105.736 59.9214 105.801 59.3834C105.855 58.8307 105.761 58.4398 105.511 58.196C105.265 57.9502 104.883 57.9502 104.361 58.196C103.844 58.4398 103.229 58.9967 102.518 59.8667C101.377 61.239 100.015 62.7311 98.4267 64.3766C96.8484 66.0074 95.2828 67.5436 93.7235 68.9642C92.1684 70.3848 90.7435 71.5301 89.4679 72.4002C88.186 73.2744 87.276 73.6232 86.7233 73.4677C86.2862 73.3606 86.1433 72.9339 86.2757 72.1984C86.4081 71.4545 87.0007 70.2776 88.0305 68.6406C88.7933 67.3271 89.7222 65.8981 90.815 64.343C91.9078 62.7878 92.9564 61.2853 93.9672 59.8331C94.9823 58.3894 95.8985 57.1474 96.7055 56.1113C97.5293 55.0795 98.0547 54.4154 98.2669 54.1485C98.8638 53.3794 99.0991 52.7405 98.9625 52.2193C98.8259 51.7045 98.3825 51.4397 97.6092 51.4397H95.2387C94.583 51.4397 93.8748 51.6036 93.1056 51.9293C92.3449 52.2593 91.6598 52.7258 91.0546 53.3268C90.0732 52.4505 88.8227 51.8684 87.2949 51.5679C85.7629 51.2653 84.0166 51.3766 82.0559 51.8936C80.091 52.4127 77.9621 53.3773 75.6715 54.8C73.3766 56.2185 70.9767 58.1561 68.4675 60.6128C66.9418 62.1322 65.6599 63.599 64.5839 65.0176C64.0753 65.5198 63.5542 66.0683 63.0603 66.5496C61.0323 68.5397 59.2755 70.1368 57.7813 71.3389C56.2745 72.5368 55.0998 73.2723 54.2508 73.5518C53.4081 73.8208 53.0634 73.4824 53.1916 72.5305C53.324 71.5701 53.9881 69.9519 55.1544 67.655C56.3292 65.3685 58.1995 62.2288 60.7655 58.2444C61.8036 56.6094 62.9027 54.9093 64.0816 53.1629C64.4851 52.5619 64.9138 51.9419 65.3278 51.3346H106.061V49.8993H66.3176C66.7779 49.231 67.2213 48.5627 67.692 47.8839C68.9193 46.0997 70.134 44.3513 71.3298 42.6343ZM8.46302 79.5558C9.72393 79.0346 10.8882 78.3727 11.9852 77.5489L26.721 66.413L45.7123 66.7366C43.5814 70.8955 42.6252 74.2264 42.8459 76.7671C42.972 78.2403 43.5877 79.2448 44.588 79.8605H7.56778C7.85989 79.7618 8.13098 79.6966 8.46302 79.5558ZM69.4132 68.256C70.0878 66.8101 71.0923 65.3517 72.4015 63.8806C73.3829 62.6786 74.585 61.4345 76.0077 60.1505C77.4262 58.879 78.9099 57.7652 80.4629 56.8385C82.0138 55.9117 83.5753 55.2854 85.1325 54.9576C86.6897 54.6214 88.0977 54.8189 89.3502 55.5271L88.4487 56.6745C87.6837 57.6602 86.6897 58.8874 85.4582 60.3564C84.2309 61.8338 82.9175 63.3174 81.5305 64.8242C80.1372 66.3205 78.7271 67.7453 77.3191 69.0735C75.89 70.4121 74.585 71.4335 73.3829 72.1438C71.6912 73.2387 70.4492 73.7031 69.6612 73.5392C68.8689 73.3774 68.4549 72.8205 68.4297 71.8601C68.3981 70.9039 68.7218 69.706 69.4132 68.256ZM71.8215 77.5068C73.0278 76.7209 74.1962 75.8319 75.3394 74.84C76.4974 73.867 77.5607 72.9066 78.54 71.982C78.0483 73.245 77.7583 74.4092 77.6784 75.5062C77.5944 76.5948 77.731 77.5194 78.084 78.2886C78.4119 78.9989 78.9793 79.5075 79.7295 79.8647H66.9775C67.3768 79.7449 67.7698 79.6462 68.1796 79.4697C69.4132 78.9527 70.6279 78.2991 71.8215 77.5068ZM58.2331 75.4179C58.9519 74.8505 59.6832 74.1991 60.4103 73.5644C60.362 73.8586 60.2212 74.1949 60.198 74.4786C60.0278 76.2522 60.362 77.6645 61.1858 78.6984C61.5935 79.2154 62.0915 79.6083 62.6841 79.8647H50.6824C51.233 79.663 51.7563 79.5117 52.3342 79.228C54.1961 78.3243 56.1631 77.0613 58.2331 75.4179ZM52.9121 55.6952C51.8782 57.0528 50.9367 58.3579 50.094 59.5851C49.2387 60.8124 48.4674 61.9956 47.755 63.1409L31.3821 62.8194L46.5424 51.3241H56.306C55.1523 52.8036 53.9713 54.3124 52.9121 55.6952ZM48.4338 49.8867L72.9689 31.2925C71.9287 32.2171 70.6279 33.602 69.0412 35.4304C67.4609 37.2545 65.7523 39.3161 63.924 41.6067C62.0915 43.9016 60.2254 46.2742 58.3172 48.7287C57.9978 49.1385 57.7309 49.4832 57.4177 49.8867H48.4338Z" fill="url(#paint0_linear)"/>
</g>
<defs>
<linearGradient id="paint0_linear" x1="53.5236" y1="24.6055" x2="53.5236" y2="81.2938" gradientUnits="userSpaceOnUse">
<stop stop-color="#4556CB"/>
<stop offset="1" stop-color="#922E9D"/>
</linearGradient>
<clipPath id="clip0">
<rect width="105.076" height="105.076" fill="white" transform="translate(0.98584 0.411133)"/>
</clipPath>
</defs>
</svg>
