<svg width="112" height="113" viewBox="0 0 112 113" fill="none" xmlns="http://www.w3.org/2000/svg">
<g clip-path="url(#clip0)">
<path d="M44.1684 78.6325C43.7464 78.6325 43.3213 78.4874 42.9745 78.192L31.0393 68.0292C30.6276 67.6782 30.3909 67.1657 30.3909 66.6243C30.3909 66.0839 30.6286 65.5714 31.0393 65.2204L42.9745 55.0576C43.7495 54.3968 44.9136 54.4905 45.5744 55.2655C46.2341 56.0415 46.1415 57.2056 45.3654 57.8654L35.0801 66.6243L45.3654 75.3832C46.1415 76.044 46.2341 77.2081 45.5744 77.9831C45.209 78.4123 44.6902 78.6325 44.1684 78.6325Z" fill="url(#paint0_linear)"/>
<path d="M67.73 78.6325C67.2081 78.6325 66.6894 78.4123 66.325 77.9831C65.6643 77.2081 65.7579 76.044 66.533 75.3832L76.8182 66.6243L66.533 57.8654C65.7579 57.2056 65.6643 56.0415 66.325 55.2655C66.9848 54.4905 68.1499 54.3968 68.9239 55.0576L80.8591 65.2204C81.2708 65.5714 81.5075 66.0839 81.5075 66.6243C81.5075 67.1657 81.2708 67.6782 80.8591 68.0292L68.9239 78.192C68.577 78.4874 68.152 78.6325 67.73 78.6325Z" fill="url(#paint1_linear)"/>
<path d="M51.7242 86.2553C51.5976 86.2553 51.4699 86.2419 51.3413 86.2152C50.345 86.0052 49.7068 85.0264 49.9168 84.0301L57.3552 48.7135C57.5651 47.7172 58.5429 47.079 59.5403 47.289C60.5366 47.499 61.1747 48.4767 60.9648 49.4741L53.5264 84.7907C53.3432 85.6594 52.5774 86.2553 51.7242 86.2553Z" fill="url(#paint2_linear)"/>
<path d="M99.4247 105.496H12.4738C5.64573 105.496 0.0898438 99.9409 0.0898438 93.1118V19.3126C0.0898438 12.4846 5.64573 6.92871 12.4738 6.92871H99.4247C106.253 6.92871 111.809 12.4846 111.809 19.3126V93.1118C111.809 99.9409 106.253 105.496 99.4247 105.496ZM12.4738 10.6175C7.67952 10.6175 3.77867 14.5184 3.77867 19.3126V93.1118C3.77867 97.906 7.67952 101.807 12.4738 101.807H99.4247C104.219 101.807 108.12 97.906 108.12 93.1118V19.3126C108.12 14.5184 104.219 10.6175 99.4247 10.6175H12.4738Z" fill="url(#paint3_linear)"/>
<path d="M109.964 36.4632H1.93426C0.915301 36.4632 0.0898438 35.6378 0.0898438 34.6188C0.0898438 33.6009 0.915301 32.7744 1.93426 32.7744H109.964C110.983 32.7744 111.809 33.6009 111.809 34.6188C111.809 35.6378 110.983 36.4632 109.964 36.4632Z" fill="url(#paint4_linear)"/>
<path d="M31.6033 27.6376C28.3859 27.6376 25.7665 25.0182 25.7665 21.8007C25.7665 18.5823 28.3859 15.9639 31.6033 15.9639C34.8218 15.9639 37.4402 18.5823 37.4402 21.8007C37.4402 25.0182 34.8218 27.6376 31.6033 27.6376ZM31.6033 19.6527C30.4197 19.6527 29.4553 20.6161 29.4553 21.8007C29.4553 22.9854 30.4197 23.9488 31.6033 23.9488C32.788 23.9488 33.7514 22.9854 33.7514 21.8007C33.7514 20.6161 32.788 19.6527 31.6033 19.6527Z" fill="url(#paint5_linear)"/>
<path d="M13.6698 27.581C10.4513 27.581 7.83289 24.9626 7.83289 21.7441C7.83289 18.5256 10.4513 15.9072 13.6698 15.9072C16.8882 15.9072 19.5066 18.5256 19.5066 21.7441C19.5066 24.9626 16.8882 27.581 13.6698 27.581ZM13.6698 19.5961C12.4861 19.5961 11.5217 20.5605 11.5217 21.7441C11.5217 22.9288 12.4861 23.8921 13.6698 23.8921C14.8544 23.8921 15.8178 22.9288 15.8178 21.7441C15.8178 20.5605 14.8544 19.5961 13.6698 19.5961Z" fill="url(#paint6_linear)"/>
<path d="M49.537 27.6932C46.3196 27.6932 43.7012 25.0748 43.7012 21.8563C43.7012 18.6389 46.3196 16.0205 49.537 16.0205C52.7555 16.0205 55.3739 18.6389 55.3739 21.8563C55.3739 25.0748 52.7555 27.6932 49.537 27.6932ZM49.537 19.7083C48.3534 19.7083 47.39 20.6717 47.39 21.8563C47.39 23.041 48.3534 24.0044 49.537 24.0044C50.7217 24.0044 51.6851 23.041 51.6851 21.8563C51.6851 20.6717 50.7217 19.7083 49.537 19.7083Z" fill="url(#paint7_linear)"/>
</g>
<defs>
<linearGradient id="paint0_linear" x1="38.2026" y1="54.6172" x2="38.2026" y2="78.6325" gradientUnits="userSpaceOnUse">
<stop stop-color="#922E9D"/>
<stop offset="1" stop-color="#4556CB"/>
</linearGradient>
<linearGradient id="paint1_linear" x1="73.6961" y1="54.6172" x2="73.6961" y2="78.6325" gradientUnits="userSpaceOnUse">
<stop stop-color="#922E9D"/>
<stop offset="1" stop-color="#4556CB"/>
</linearGradient>
<linearGradient id="paint2_linear" x1="55.4408" y1="47.249" x2="55.4408" y2="86.2553" gradientUnits="userSpaceOnUse">
<stop stop-color="#922E9D"/>
<stop offset="1" stop-color="#4556CB"/>
</linearGradient>
<linearGradient id="paint3_linear" x1="55.9492" y1="6.92871" x2="55.9492" y2="105.496" gradientUnits="userSpaceOnUse">
<stop stop-color="#922E9D"/>
<stop offset="1" stop-color="#4556CB"/>
</linearGradient>
<linearGradient id="paint4_linear" x1="55.9492" y1="32.7744" x2="55.9492" y2="36.4632" gradientUnits="userSpaceOnUse">
<stop stop-color="#922E9D"/>
<stop offset="1" stop-color="#4556CB"/>
</linearGradient>
<linearGradient id="paint5_linear" x1="31.6033" y1="15.9639" x2="31.6033" y2="27.6376" gradientUnits="userSpaceOnUse">
<stop stop-color="#922E9D"/>
<stop offset="1" stop-color="#4556CB"/>
</linearGradient>
<linearGradient id="paint6_linear" x1="13.6698" y1="15.9072" x2="13.6698" y2="27.581" gradientUnits="userSpaceOnUse">
<stop stop-color="#922E9D"/>
<stop offset="1" stop-color="#4556CB"/>
</linearGradient>
<linearGradient id="paint7_linear" x1="49.5375" y1="16.0205" x2="49.5375" y2="27.6932" gradientUnits="userSpaceOnUse">
<stop stop-color="#922E9D"/>
<stop offset="1" stop-color="#4556CB"/>
</linearGradient>
<clipPath id="clip0">
<rect width="111.719" height="111.719" fill="white" transform="translate(0.0898438 0.341797)"/>
</clipPath>
</defs>
</svg>
