<svg width="112" height="90" viewBox="0 0 112 90" fill="none" xmlns="http://www.w3.org/2000/svg">
<g clip-path="url(#clip0)">
<path d="M111.453 83.9083C111.309 84.3144 111.193 84.7205 111.049 85.1266C110.036 87.7665 108.127 89.449 105.322 89.565C100.55 89.7391 95.778 89.6811 91.006 89.6811C67.7533 89.6811 44.5295 89.6811 21.2767 89.6811C19.5125 89.6811 18.7606 89.1589 18.7606 87.9986C18.7895 86.8672 19.5125 86.4031 21.2189 86.4031C48.5785 86.4031 75.938 86.4031 103.298 86.4031C103.905 86.4031 104.541 86.4031 105.149 86.316C106.971 86.084 108.359 84.5175 108.156 82.6899C108.012 81.3265 107.751 79.934 107.202 78.7156C105.958 76.0178 103.702 74.7704 100.753 74.7704C90.659 74.7704 80.5944 74.7704 70.5008 74.7704C50.9211 74.7704 31.3124 74.7994 11.7327 74.7414C6.75825 74.7124 4.03965 77.7003 3.69259 82.7479C3.57691 84.5755 4.93621 86.171 6.75825 86.345C8.34892 86.4901 9.93959 86.4031 11.5303 86.4321C11.9352 86.4321 12.3401 86.4031 12.716 86.4611C13.6994 86.5481 14.3067 87.1573 14.3067 88.0566C14.2778 88.9849 13.7861 89.6521 12.8606 89.6521C10.4891 89.6811 8.05971 89.7971 5.71708 89.478C2.85387 89.0719 0.511246 86.403 0.453403 83.4731C0.395561 79.6439 1.37889 76.0758 4.64699 73.6971C5.83277 72.8268 7.30775 72.2466 8.7249 71.8115C9.59254 71.5504 9.85283 71.2893 9.85283 70.39C9.82391 52.0562 9.82391 33.6935 9.82391 15.3597C9.82391 13.126 9.79499 10.8633 9.82391 8.62958C9.91067 3.81407 13.0342 0.71009 17.7773 0.68108C18.6449 0.68108 19.5125 0.652071 20.3802 0.71009C24.3424 0.913153 27.437 4.07515 27.4948 8.0494C27.5527 10.8343 27.4948 13.6192 27.4948 16.5201C27.9576 16.5491 28.3625 16.5781 28.7384 16.5781C35.8531 16.5781 42.9677 16.5781 50.1113 16.6071C50.8922 16.6071 51.1814 16.375 51.4417 15.6208C52.3093 13.01 54.1603 11.5015 56.9367 11.1824C59.395 10.9213 61.7087 11.2984 63.4729 13.213C68.7366 9.3258 73.8846 10.6892 75.9959 16.5201C78.7145 16.5201 81.462 16.5201 84.3252 16.5201C84.3252 14.1123 84.2963 11.7626 84.3252 9.44184C84.3252 8.45553 84.3252 7.46922 84.5277 6.54092C85.2218 3.34992 87.9115 0.971172 91.1796 0.797117C92.9438 0.71009 94.7658 0.68108 96.4432 1.0582C99.5667 1.72541 101.736 4.48128 101.938 7.67228C102.025 8.97769 101.996 10.2831 101.967 11.5885C101.938 12.6909 101.273 13.3871 100.348 13.3871C99.4221 13.3871 98.7859 12.6619 98.728 11.5595C98.6991 10.4862 98.7569 9.38382 98.6991 8.31048C98.6123 5.72867 96.906 4.07515 94.3609 4.01713C93.5222 3.98812 92.6835 3.98812 91.8737 4.01713C89.2708 4.07515 87.5644 5.8447 87.5644 8.45553C87.5644 17.7675 87.5644 27.0794 87.5644 36.4203C87.5644 44.0207 87.5644 51.6501 87.5644 59.2505C87.5644 59.6276 87.5644 60.0338 87.5644 60.4689C91.2952 60.4689 94.9393 60.4689 98.728 60.4689C98.728 59.7147 98.728 58.9894 98.728 58.2932C98.728 45.8193 98.728 33.3454 98.728 20.8714C98.728 20.2913 98.728 19.7111 98.8148 19.1309C98.9594 18.2606 99.5667 17.7965 100.405 17.8255C101.273 17.8545 101.823 18.3476 101.938 19.2179C101.996 19.566 101.996 19.9431 101.996 20.2913C101.996 36.9715 101.996 53.6517 101.967 70.332C101.967 71.2603 102.199 71.5794 103.153 71.8115C107.433 72.8268 110.007 75.5826 110.991 79.876C111.135 80.5142 111.28 81.1234 111.453 81.7616C111.453 82.4578 111.453 83.183 111.453 83.9083ZM57.5152 53.8548C56.7921 56.6977 55.1436 58.5833 52.2804 59.1055C49.5907 59.5986 47.1035 59.1925 45.1368 57.1328C41.6952 60.759 34.0021 59.8017 32.8453 54.319C32.8163 54.1159 32.4693 53.8548 32.2668 53.8548C30.734 53.8258 29.1723 53.8258 27.5816 53.8258C27.5816 59.7727 27.5816 65.6035 27.5816 71.4053C46.5251 71.4053 65.3818 71.4053 84.2095 71.4053C84.2095 65.5165 84.2095 59.6856 84.2095 53.8548C75.3018 53.8548 66.4518 53.8548 57.5152 53.8548ZM63.4729 29.6612C61.7377 31.5758 59.5396 31.9239 57.1681 31.7499C54.4206 31.5468 52.1647 29.8643 51.4128 27.2244C51.1814 26.4702 50.8633 26.2961 50.1402 26.2961C42.9388 26.3252 35.7663 26.2961 28.5649 26.3251C28.2179 26.3251 27.8708 26.3832 27.5816 26.3832C27.5816 32.33 27.5816 38.1609 27.5816 44.0207C29.3169 44.0207 30.9654 44.0207 32.7007 44.0207C33.3659 41.2358 34.9854 39.2922 37.8197 38.7411C40.4805 38.2479 43.0834 38.509 45.1079 40.7427C47.1902 38.509 49.7642 38.2479 52.3961 38.7701C55.2304 39.2922 56.821 41.2939 57.4862 43.9917C66.4229 43.9917 75.3018 43.9917 84.2095 43.9917C84.2095 38.1029 84.2095 32.272 84.2095 26.3832C81.4331 26.3832 78.6856 26.3832 75.9669 26.3832C73.7111 32.272 68.5631 33.6645 63.4729 29.6612ZM24.2556 60.4399C24.2556 59.9757 24.2556 59.5696 24.2556 59.1925C24.2556 51.389 24.2556 43.6146 24.2556 35.8111C24.2556 26.7023 24.2556 17.6224 24.2556 8.51354C24.2556 5.69966 22.5493 3.98812 19.715 3.95911C19.1076 3.95911 18.5003 3.95911 17.864 3.95911C14.6827 3.95911 13.092 5.58362 13.092 8.77463C13.092 25.5999 13.092 42.4252 13.092 59.2215C13.092 59.5986 13.1209 59.9757 13.1499 60.4109C16.8807 60.4399 20.467 60.4399 24.2556 60.4399ZM43.4883 48.8942C43.4883 47.9079 43.4883 46.9506 43.4883 45.9643C43.4883 42.8604 42.3025 41.729 39.179 41.845C37.2124 41.9321 35.9688 43.1795 35.9398 45.1521C35.9109 47.6178 35.9109 50.0836 35.9398 52.5204C35.9398 54.6381 37.2413 55.9145 39.4104 55.9725C41.9555 56.0305 43.4016 54.8701 43.4883 52.6654C43.5462 51.4471 43.4883 50.1707 43.4883 48.8942ZM54.3917 21.3936C54.3917 22.554 54.3917 23.7143 54.3917 24.8747C54.4206 27.2825 55.6353 28.5008 58.0936 28.5008C60.6387 28.5008 61.9401 27.3115 61.9401 24.9037C61.969 22.757 61.9401 20.6394 61.9401 18.4927C61.9401 15.4177 60.5808 14.1413 57.5152 14.3734C55.6063 14.5184 54.4206 15.7658 54.3917 17.7094C54.3627 18.9278 54.3917 20.1752 54.3917 21.3936ZM65.2082 21.4516C65.2082 22.641 65.1793 23.8304 65.2082 25.0197C65.2371 27.2825 66.4808 28.4718 68.8234 28.5008C71.3685 28.5298 72.6988 27.3695 72.7278 25.0778C72.7567 22.67 72.7567 20.2332 72.7278 17.7965C72.6988 15.6208 71.4263 14.4024 69.2572 14.3734C68.9101 14.3734 68.5342 14.3734 68.1871 14.4024C66.4518 14.5765 65.2661 15.7948 65.2371 17.5354C65.1793 18.8408 65.2082 20.1462 65.2082 21.4516ZM46.7564 48.8942C46.7564 50.0836 46.7275 51.273 46.7564 52.4624C46.7853 54.7251 48.0579 55.9725 50.3716 55.9725C52.8877 56.0015 54.247 54.8121 54.276 52.5204C54.3049 50.0546 54.3049 47.5888 54.276 45.1521C54.247 43.0924 52.9745 41.874 50.9211 41.845C50.603 41.845 50.2848 41.845 49.9378 41.845C48.029 41.9321 46.7853 43.1795 46.7564 45.0941C46.7275 46.3705 46.7564 47.6469 46.7564 48.8942ZM57.6308 50.4607C66.5675 50.4607 75.4174 50.4607 84.2384 50.4607C84.2384 49.3584 84.2384 48.3721 84.2384 47.3858C75.3307 47.3858 66.4808 47.3858 57.6308 47.3858C57.6308 48.4301 57.6308 49.4454 57.6308 50.4607ZM24.2267 63.863C20.4669 63.863 16.8229 63.863 13.1788 63.863C13.1788 66.4738 13.1788 68.9396 13.1788 71.4343C16.9096 71.4343 20.5248 71.4343 24.2267 71.4343C24.2267 68.8815 24.2267 66.4158 24.2267 63.863ZM98.6702 63.834C94.9393 63.834 91.2952 63.834 87.6222 63.834C87.6222 66.4158 87.6222 68.8815 87.6222 71.4053C91.3531 71.4053 94.9972 71.4053 98.6702 71.4053C98.6702 68.8525 98.6702 66.3867 98.6702 63.834ZM51.0657 19.8851C43.228 19.8851 35.4193 19.8851 27.5816 19.8851C27.5816 20.9295 27.5816 21.9448 27.5816 22.9891C35.4193 22.9891 43.228 22.9891 51.0657 22.9891C51.0657 21.9448 51.0657 20.9585 51.0657 19.8851ZM84.2384 22.9891C84.2384 21.8868 84.2384 20.9004 84.2384 19.9141C81.462 19.9141 78.7723 19.9141 76.0826 19.9141C76.0826 20.9875 76.0826 21.9738 76.0826 22.9891C78.8302 22.9891 81.4909 22.9891 84.2384 22.9891ZM32.6428 47.4148C30.8786 47.4148 29.2301 47.4148 27.6105 47.4148C27.6105 48.4881 27.6105 49.5034 27.6105 50.4607C29.3458 50.4607 30.9943 50.4607 32.6428 50.4607C32.6428 49.3874 32.6428 48.4301 32.6428 47.4148Z" fill="url(#paint0_linear)"/>
<path d="M55.8374 82.1962C53.4659 82.1962 51.0654 82.1962 48.6939 82.1962C47.4213 82.1962 46.6694 81.616 46.6405 80.6007C46.6115 79.5854 47.4213 78.9182 48.7228 78.9182C53.5237 78.9182 58.3247 78.8892 63.1256 78.9182C64.5138 78.9182 65.3526 79.7594 65.1212 80.8618C64.9187 81.8191 64.2535 82.1962 63.2991 82.1962C60.8119 82.1962 58.3247 82.1962 55.8374 82.1962Z" fill="url(#paint1_linear)"/>
</g>
<defs>
<linearGradient id="paint0_linear" x1="55.9522" y1="0.673828" x2="55.9522" y2="89.6965" gradientUnits="userSpaceOnUse">
<stop stop-color="#4556CB"/>
<stop offset="1" stop-color="#922E9D"/>
</linearGradient>
<linearGradient id="paint1_linear" x1="55.8995" y1="78.9053" x2="55.8995" y2="82.1962" gradientUnits="userSpaceOnUse">
<stop stop-color="#4556CB"/>
<stop offset="1" stop-color="#922E9D"/>
</linearGradient>
<clipPath id="clip0">
<rect width="111" height="89" fill="white" transform="translate(0.453125 0.679688)"/>
</clipPath>
</defs>
</svg>
