<svg width="22" height="95" viewBox="0 0 22 95" fill="none" xmlns="http://www.w3.org/2000/svg">
<path d="M18.4219 80.9262L8.45654 70.4609V91.3915L18.4219 80.9262Z" stroke="#4556CB" stroke-width="7" stroke-linecap="round" stroke-linejoin="round"/>
<mask id="path-2-inside-1" fill="white">
<ellipse rx="2.90162" ry="3.81645" transform="matrix(0.961874 0.273494 -0.153898 0.988087 3.93385 5.55284)"/>
</mask>
<path d="M3.83922 5.52594C3.76875 5.97839 3.58313 6.23744 3.4744 6.33327C3.42448 6.37726 3.4193 6.36303 3.47966 6.34711C3.54833 6.329 3.66715 6.31946 3.8082 6.35957L2.88481 12.2881C4.75055 12.8186 6.39374 12.2112 7.50973 11.2277C8.62372 10.2459 9.35655 8.79711 9.61046 7.1669L3.83922 5.52594ZM3.8082 6.35957C3.94925 6.39967 4.05515 6.47311 4.11259 6.52708C4.16308 6.57451 4.1541 6.58472 4.12153 6.51727C4.05061 6.37036 3.95801 6.0322 4.02848 5.57975L-1.74276 3.93878C-1.99668 5.56899 -1.75816 7.29397 -1.03153 8.79911C-0.30358 10.3069 1.01907 11.7576 2.88481 12.2881L3.8082 6.35957ZM4.02848 5.57975C4.09895 5.1273 4.28457 4.86825 4.3933 4.77242C4.44322 4.72842 4.4484 4.74266 4.38804 4.75858C4.31937 4.77668 4.20055 4.78622 4.0595 4.74612L4.98289 -1.1824C3.11715 -1.7129 1.47396 -1.10554 0.35797 -0.121997C-0.756015 0.859783 -1.48885 2.30857 -1.74276 3.93878L4.02848 5.57975ZM4.0595 4.74612C3.91845 4.70601 3.81255 4.63257 3.75511 4.57861C3.70462 4.53118 3.7136 4.52097 3.74617 4.58842C3.81709 4.73533 3.90969 5.07349 3.83922 5.52594L9.61046 7.1669C9.86438 5.53669 9.62587 3.81171 8.89923 2.30658C8.17128 0.798739 6.84863 -0.651906 4.98289 -1.1824L4.0595 4.74612Z" fill="#4556CB" mask="url(#path-2-inside-1)"/>
</svg>
