<svg width="99" height="99" viewBox="0 0 99 99" fill="none" xmlns="http://www.w3.org/2000/svg">
<g clip-path="url(#clip0)">
<path d="M57.9058 98.2414C57.1409 98.0502 56.3761 97.8829 55.6113 97.6439C50.7593 96.0425 47.4849 91.5969 47.3654 86.482C47.3654 86.0996 47.3654 85.7411 47.3654 85.287C46.6961 85.287 46.0986 85.287 45.4772 85.287C45.286 85.8845 45.1665 86.506 44.9274 87.0796C44.6884 87.6293 44.3299 88.1073 43.9714 88.6571C44.9513 89.7565 45.5011 91.0711 45.3816 92.5529C45.1426 95.3733 43.0631 97.4049 40.2189 97.4288C31.256 97.4766 22.3169 97.62 13.354 97.381C8.0957 97.2376 4.24761 94.3933 2.1443 89.5892C0.136602 85.048 0.781934 80.6024 3.65008 76.563C5.82509 73.4798 8.93224 71.8545 12.613 71.3765C12.7086 70.5161 12.6847 69.6795 12.8998 68.9147C13.115 68.1498 13.593 67.4328 13.9993 66.5724C12.5174 64.7081 12.0872 62.5331 13.4735 60.2624C14.8597 57.9679 17.1543 57.6572 19.6639 57.8484C19.6878 57.3226 19.7117 56.8924 19.7117 56.4621C19.7117 40.9981 19.7117 25.5579 19.7117 10.0938C19.7117 6.89107 20.7155 4.16633 23.3208 2.15863C24.9699 0.891869 26.882 0.31824 28.9375 0.31824C39.956 0.294339 50.9983 0.31824 62.0168 0.31824C64.5264 0.31824 66.7014 1.22649 68.4462 3.01907C71.4578 6.12623 74.4215 9.28119 77.3853 12.46C79.0344 14.2526 79.7037 16.4515 79.7037 18.8656C79.7037 23.0005 79.7037 27.1593 79.7037 31.2942C79.7037 31.581 79.7037 31.8678 79.7037 32.298C80.0861 32.298 80.4207 32.298 80.7553 32.298C83.1454 32.3219 85.5356 32.2263 87.9257 32.4175C93.7576 32.8717 98.5378 37.7475 98.6334 43.5794C98.7768 51.9209 98.7051 60.2624 98.7051 68.6279C98.7051 74.7227 98.7768 80.7936 98.6334 86.8884C98.49 92.5051 94.2356 97.142 88.6427 98.0502C88.4515 98.0741 88.2842 98.1697 88.093 98.2175C78.0306 98.2414 67.9682 98.2414 57.9058 98.2414ZM47.3654 82.2276C47.3654 81.654 47.3654 81.2716 47.3654 80.8892C47.3654 68.8669 47.3415 56.8685 47.3893 44.8462C47.3893 43.3643 47.5805 41.8346 48.0346 40.4483C49.7077 35.4052 54.225 32.3458 59.7462 32.3219C64.9805 32.298 70.191 32.3219 75.4254 32.3219C75.7839 32.3219 76.1663 32.298 76.4292 32.2741C76.4292 27.1115 76.4292 22.0922 76.4292 17.0013C72.844 17.0013 69.4023 17.0013 65.9605 17.0013C64.1918 17.0013 63.7377 16.5711 63.7377 14.8263C63.7377 11.3845 63.7377 7.94272 63.7377 4.50095C63.7377 4.16633 63.7377 3.83172 63.7377 3.4732C63.4748 3.4493 63.3553 3.4254 63.2358 3.4254C51.7871 3.4254 40.3623 3.40149 28.9136 3.4493C27.9815 3.4493 26.9776 3.66441 26.165 4.07073C23.6793 5.26579 22.7949 7.41689 22.7949 10.0938C22.8188 25.6057 22.7949 41.1176 22.8188 56.6534C22.8188 57.0358 22.8427 57.3943 22.8666 57.8723C23.2969 57.8723 23.6315 57.8723 23.99 57.8723C29.32 57.8723 34.626 57.8723 39.956 57.8723C42.5851 57.8723 44.6167 59.3781 45.2143 61.7204C45.6923 63.5847 45.2143 65.2339 43.9475 66.668C45.7401 69.0342 45.9791 71.3765 43.9714 74.0295C45.8835 76.8499 45.8835 78.1883 43.9475 81.3672C44.784 82.8252 46.1225 81.893 47.3654 82.2276ZM95.8131 65.3295C95.8131 58.5415 95.8131 51.7536 95.8131 44.9657C95.8131 43.3882 95.6458 41.8585 94.9048 40.4244C93.0644 36.8632 90.0768 35.2379 86.157 35.214C77.4092 35.214 68.6374 35.214 59.8896 35.214C59.0052 35.214 58.097 35.2857 57.2366 35.5008C52.8148 36.672 50.2574 40.0898 50.2574 44.7984C50.2574 58.4698 50.2574 72.1174 50.2574 85.7889C50.2574 91.3818 54.1533 95.3255 59.7223 95.3255C68.6135 95.3494 77.5048 95.3733 86.3721 95.3016C87.7823 95.2777 89.3359 94.967 90.6026 94.3694C94.1639 92.6725 95.8131 89.6609 95.8131 85.7411C95.8131 78.9532 95.8131 72.1413 95.8131 65.3295ZM9.17125 84.2831C9.02785 89.6609 13.5691 94.4411 18.9946 94.5845C24.707 94.728 29.3917 90.2823 29.5351 84.6178C29.6785 79.001 25.209 74.3163 19.5683 74.1729C13.9993 74.0056 9.33856 78.523 9.17125 84.2831ZM29.1288 60.9556C25.4719 60.9556 21.815 60.9317 18.1581 60.9556C16.5806 60.9556 15.6724 61.9116 15.8158 63.2979C15.9353 64.493 16.8435 65.1622 18.3732 65.1622C25.4958 65.1622 32.6183 65.1622 39.7648 65.1622C40.0994 65.1622 40.4579 65.1383 40.7925 65.0427C42.0593 64.6842 42.7046 63.3218 42.131 62.1745C41.6769 61.2902 40.912 60.9556 39.9321 60.9556C36.323 60.9556 32.7139 60.9556 29.1288 60.9556ZM32.5466 72.452C35.0323 72.452 37.5181 72.476 40.0038 72.452C41.3662 72.452 42.2744 71.6155 42.3222 70.4204C42.37 69.1298 41.3901 68.2454 39.8365 68.2454C36.0362 68.2215 32.2598 68.2454 28.4595 68.2454C25.0416 68.2454 21.6477 68.2454 18.2298 68.2454C16.7718 68.2454 15.9114 68.9386 15.7919 70.1336C15.6724 71.1136 15.8397 71.257 16.8435 71.3048C18.7795 71.4243 20.7872 71.2809 22.6037 71.8067C24.4919 72.3564 26.3323 72.452 28.2444 72.452C29.6785 72.452 31.1126 72.452 32.5466 72.452ZM28.1249 94.3933C29.0809 94.3933 30.1087 94.3933 31.1364 94.3933C34.0763 94.3933 36.9922 94.4172 39.9321 94.3694C41.3662 94.3455 42.2983 93.509 42.3222 92.29C42.3461 91.0472 41.4379 90.1867 40.0038 90.1628C37.2313 90.1389 34.4587 90.1389 31.6862 90.1628C31.4233 90.1628 31.0647 90.3301 30.9213 90.5452C29.9653 91.7881 29.0809 93.0549 28.1249 94.3933ZM29.2722 75.5353C30.037 76.8738 30.7301 78.1644 31.495 79.3834C31.6145 79.5746 31.9969 79.718 32.2598 79.718C34.8411 79.7419 37.4225 79.7419 40.0038 79.718C41.414 79.6941 42.2744 78.9054 42.3222 77.6864C42.37 76.5153 41.4857 75.5353 40.1472 75.5114C36.5142 75.5114 32.8812 75.5353 29.2722 75.5353ZM32.2837 87.0079C35.0801 87.0079 37.8288 87.0318 40.5774 86.984C40.9837 86.984 41.4618 86.6494 41.7725 86.3386C42.3461 85.765 42.4895 85.0002 42.1549 84.2353C41.7964 83.4227 41.1511 82.9208 40.2428 82.8969C38.2351 82.873 36.2513 82.8969 34.2436 82.8969C33.6461 82.8969 33.0724 82.8969 32.4988 82.8969C32.4032 84.307 32.3554 85.5977 32.2837 87.0079ZM74.4932 13.8941C71.888 11.1455 69.4501 8.56415 66.9165 5.88722C66.9165 8.68366 66.9165 11.265 66.9165 13.8941C69.4023 13.8941 71.8163 13.8941 74.4932 13.8941ZM6.87674 88.4659C6.70943 87.6293 6.54212 86.8884 6.37481 86.1235C5.60998 86.1235 4.89294 86.1235 4.0325 86.1235C4.27151 86.9601 4.48662 87.701 4.70173 88.4659C5.44267 88.4659 6.1119 88.4659 6.87674 88.4659ZM4.0325 83.1598C4.67783 83.1598 5.29926 83.1837 5.92069 83.1359C6.1119 83.112 6.37481 82.8969 6.39871 82.7057C6.54212 82.132 6.58992 81.5345 6.68553 80.9609C4.27151 80.7697 4.43882 80.5068 4.0325 83.1598ZM9.98389 75.2246C9.93609 75.129 9.86439 75.0573 9.81659 74.9617C8.62153 75.8699 7.42647 76.7782 6.088 77.8059C7.42647 78.1883 8.1435 77.9493 8.66933 76.9455C9.00395 76.324 9.52977 75.7982 9.98389 75.2246ZM9.86439 93.7719C9.91219 93.7002 9.95999 93.6285 10.0078 93.5568C9.62538 93.1027 9.19516 92.6725 8.90834 92.1705C8.43032 91.334 7.78498 91.2384 6.66163 91.5252C7.85669 92.3856 8.86054 93.0788 9.86439 93.7719Z" fill="url(#paint0_linear)"/>
<path d="M38.9521 34.7126C39.717 34.9038 40.3862 35.0711 41.0554 35.2623C41.3184 35.334 41.6052 35.4535 41.8442 35.5969C42.609 36.075 42.8002 36.7681 42.3939 37.4612C41.9398 38.2261 41.2945 38.2261 40.5774 37.8675C39.4063 37.2939 38.1634 37.1027 36.8727 37.3656C35.9645 37.5568 35.367 38.0349 35.1757 38.9431C34.9606 39.947 35.2953 40.8313 36.2035 41.2854C37.2791 41.8351 38.4024 42.2654 39.5258 42.7434C42.7285 44.1058 44.0431 47.7626 42.4178 50.8698C41.8203 51.9931 40.912 52.758 39.6931 53.1165C39.1672 53.2599 38.9043 53.4511 38.9043 54.0725C38.9043 55.1959 38.3546 55.7934 37.5181 55.7695C36.7293 55.7456 36.2035 55.1959 36.1796 54.1204C36.1796 53.5228 35.9406 53.3555 35.3909 53.1882C34.6499 52.9731 33.909 52.6146 33.2637 52.1844C32.8334 51.8975 32.451 51.4434 32.212 50.9893C31.8535 50.3201 32.0447 49.6747 32.6661 49.2206C33.2876 48.7665 33.8134 49.0294 34.2436 49.5313C35.2475 50.7264 36.5381 51.061 38.02 50.8698C39.3346 50.7025 40.0516 50.105 40.2906 49.0294C40.6013 47.5953 40.195 46.2808 39.0716 45.6832C37.9244 45.0618 36.7054 44.6077 35.5104 44.058C32.9768 42.9107 31.9491 40.8074 32.6422 38.1305C33.0246 36.6247 34.0285 35.6447 35.4626 35.1428C35.9884 34.9755 36.2035 34.7365 36.1318 34.1868C36.1079 34.0195 36.1318 33.8761 36.1557 33.7087C36.2513 32.8483 36.8249 32.2508 37.542 32.2986C38.3546 32.3703 38.7848 32.8722 38.8804 33.6609C38.9282 34.0195 38.9282 34.3541 38.9521 34.7126Z" fill="url(#paint1_linear)"/>
<path d="M54.8225 27.2069C58.6467 27.2069 62.4709 27.2069 66.2951 27.2069C66.4624 27.2069 66.6058 27.2069 66.7731 27.2069C67.9204 27.2547 68.5657 27.7567 68.5896 28.6171C68.6135 29.5254 67.9443 30.099 66.7492 30.099C61.228 30.1229 55.7308 30.099 50.2096 30.099C47.8434 30.099 45.5011 30.099 43.1348 30.0751C42.6807 30.0751 42.1071 30.0273 41.7964 29.7644C41.4618 29.4776 41.151 28.88 41.2227 28.4976C41.2944 28.0674 41.7486 27.5894 42.1549 27.3265C42.4656 27.1352 42.9675 27.183 43.3738 27.183C47.198 27.183 51.0222 27.2069 54.8225 27.2069Z" fill="url(#paint2_linear)"/>
<path d="M44.9991 22.9287C40.9837 22.9287 36.9683 22.9287 32.9768 22.9287C32.6661 22.9287 32.3315 22.9526 32.0208 22.9048C31.256 22.7614 30.8257 22.2595 30.8018 21.5185C30.7779 20.8254 31.1843 20.2996 31.9013 20.1323C32.2359 20.0605 32.5944 20.0605 32.9529 20.0605C40.9837 20.0605 48.9906 20.0605 57.0214 20.0605C58.5272 20.0605 59.2682 20.5625 59.2443 21.5424C59.2204 22.4985 58.5272 22.9526 57.0454 22.9287C53.0061 22.9287 49.0145 22.9287 44.9991 22.9287Z" fill="url(#paint3_linear)"/>
<path d="M34.4348 30.0754C33.67 30.0754 32.9051 30.1232 32.1642 30.0754C31.3277 30.0037 30.8018 29.4778 30.8018 28.6413C30.8018 27.8048 31.3516 27.2789 32.1881 27.255C33.7178 27.2072 35.2236 27.1833 36.7532 27.2311C37.6854 27.255 38.2112 27.8526 38.2112 28.6652C38.2112 29.4778 37.6854 30.0037 36.7293 30.0754C35.9645 30.1232 35.1997 30.0993 34.4348 30.0754Z" fill="url(#paint4_linear)"/>
<path d="M65.2913 22.9044C64.6937 22.9044 64.0723 22.9283 63.4748 22.9044C62.6621 22.8327 62.0646 22.2113 62.1124 21.4703C62.1602 20.6816 62.6143 20.108 63.4031 20.0841C64.6937 20.0123 66.0083 20.0123 67.299 20.0841C68.0877 20.1319 68.5418 20.6816 68.5657 21.4942C68.5896 22.2352 67.9921 22.8566 67.1795 22.9044C66.5819 22.9522 65.9366 22.9044 65.2913 22.9044Z" fill="url(#paint5_linear)"/>
<path d="M73.1547 38.5122C77.4331 38.5122 81.6875 38.5122 85.9658 38.5122C89.5749 38.5122 91.5109 40.4721 91.487 44.0812C91.487 45.5152 91.5109 46.9493 91.4631 48.3834C91.3675 51.371 89.5271 53.4026 86.6111 53.4504C81.4485 53.546 76.2858 53.4982 71.1231 53.4743C70.0715 53.4743 69.4501 52.8768 69.474 52.0164C69.474 51.1559 70.0954 50.6062 71.147 50.6062C75.999 50.5823 80.827 50.6062 85.679 50.6062C87.9735 50.6062 88.571 50.0087 88.571 47.7381C88.571 46.3996 88.571 45.0611 88.5471 43.7226C88.5232 42.1452 87.8301 41.4281 86.2765 41.4281C77.457 41.4042 68.6374 41.4042 59.794 41.4281C58.1926 41.4281 57.4995 42.1691 57.4756 43.7944C57.4517 45.3001 57.4517 46.782 57.4756 48.2878C57.4995 49.8175 58.2165 50.5823 59.7701 50.6062C61.2759 50.6301 62.7577 50.6062 64.2635 50.6062C65.3869 50.6062 66.0561 51.132 66.08 51.9925C66.1039 52.9007 65.4108 53.4982 64.2635 53.4982C62.7099 53.5221 61.1324 53.546 59.5789 53.4982C56.5912 53.4026 54.6552 51.4188 54.6074 48.4551C54.5835 46.9254 54.5835 45.3957 54.6074 43.8661C54.6313 40.496 56.5673 38.5361 59.9613 38.5361C64.3591 38.4644 68.7569 38.4883 73.1547 38.5122C73.1547 38.4883 73.1547 38.4883 73.1547 38.5122Z" fill="url(#paint6_linear)"/>
<path d="M91.6065 80.387C91.6065 82.7771 91.6304 85.1672 91.6065 87.5574C91.5826 90.4494 89.9334 92.0986 87.0175 92.1225C86.3243 92.1225 85.6073 92.1464 84.9142 92.1225C82.3806 92.0269 80.6597 90.3299 80.6597 87.8203C80.6358 82.8249 80.6358 77.8296 80.6597 72.8342C80.6836 70.6114 82.0699 69.1056 84.2927 68.9622C85.5834 68.8666 86.898 68.8905 88.1886 68.9861C90.1724 69.1534 91.5109 70.5875 91.5587 72.5952C91.6304 75.1526 91.5826 77.7818 91.6065 80.387C91.5826 80.387 91.6065 80.387 91.6065 80.387ZM88.7144 80.4109C88.7144 77.9491 88.6905 75.5112 88.7144 73.0493C88.7144 72.165 88.3798 71.7348 87.4716 71.7587C86.5394 71.7826 85.6312 71.7587 84.699 71.7587C83.9342 71.7587 83.504 72.0933 83.504 72.9059C83.504 77.8535 83.504 82.7771 83.504 87.7247C83.504 88.7046 83.982 89.1826 84.9859 89.2304C85.679 89.2543 86.396 89.2543 87.0892 89.2304C88.2603 89.2065 88.6905 88.7763 88.6905 87.5813C88.7383 85.1911 88.7144 82.801 88.7144 80.4109Z" fill="url(#paint7_linear)"/>
<path d="M67.5858 74.2922C67.5858 73.4079 67.538 72.4996 67.6097 71.6153C67.7292 70.1334 68.7569 69.0339 70.2388 68.9383C72.0792 68.8427 73.9196 68.8188 75.76 68.9383C77.3614 69.0339 78.4369 70.2529 78.4847 71.9499C78.5564 73.5752 78.5325 75.2004 78.4847 76.8257C78.413 78.5466 77.2418 79.7656 75.521 79.8373C73.8718 79.909 72.1987 79.909 70.5495 79.8373C68.8047 79.7656 67.6575 78.5944 67.5619 76.8496C67.5141 75.9892 67.5619 75.1287 67.5619 74.2683C67.5858 74.2922 67.5858 74.2922 67.5858 74.2922ZM70.4539 71.7587C70.4539 73.4079 70.43 74.9136 70.4778 76.4433C70.4778 76.6345 70.8602 76.9452 71.0514 76.9452C72.366 76.993 73.6567 76.9452 74.9712 76.9691C75.4732 76.9691 75.6405 76.7779 75.6405 76.276C75.6166 75.0092 75.6166 73.7186 75.6405 72.4518C75.6405 71.9977 75.521 71.7348 74.9951 71.7348C73.5611 71.7826 72.0792 71.7587 70.4539 71.7587Z" fill="url(#paint8_linear)"/>
<path d="M78.5325 86.6253C78.5325 87.3902 78.5564 88.155 78.5325 88.9198C78.4847 90.808 77.2658 92.0509 75.4254 92.0987C73.824 92.1465 72.2465 92.1465 70.6451 92.0987C68.8526 92.0509 67.6575 90.8797 67.5858 89.0871C67.5141 87.438 67.5141 85.7649 67.5858 84.1157C67.6575 82.3709 68.733 81.2476 70.4778 81.1758C72.1987 81.1041 73.9196 81.1041 75.6405 81.1758C77.3375 81.2476 78.4369 82.4426 78.5325 84.1396C78.5564 84.9761 78.5086 85.8127 78.5325 86.6253C78.5086 86.6253 78.5325 86.6253 78.5325 86.6253ZM70.4539 84.0201C70.4539 85.6454 70.43 87.175 70.4778 88.6808C70.4778 88.872 70.8603 89.1828 71.0515 89.1828C72.366 89.2306 73.6567 89.1827 74.9713 89.2066C75.4732 89.2066 75.6644 89.0154 75.6405 88.5374C75.6166 87.2228 75.6644 85.9322 75.6166 84.6176C75.6166 84.4025 75.3059 84.044 75.1147 84.0201C73.6089 83.9962 72.0792 84.0201 70.4539 84.0201Z" fill="url(#paint9_linear)"/>
<path d="M54.6313 74.3882C54.6313 73.5039 54.5835 72.5957 54.6313 71.7113C54.703 70.2533 55.7308 69.0583 57.1887 68.9627C59.1008 68.8432 61.0129 68.8432 62.925 68.9627C64.4308 69.0344 65.4825 70.2533 65.5303 71.7591C65.5781 73.48 65.5781 75.2009 65.5303 76.9218C65.4825 78.5231 64.3352 79.7421 62.686 79.8138C60.9651 79.9094 59.2443 79.9094 57.5234 79.8138C55.7786 79.7421 54.6791 78.4992 54.6313 76.7545C54.6074 75.9896 54.6074 75.177 54.6313 74.3882ZM62.6143 76.8979C62.6143 75.177 62.6143 73.5278 62.6143 71.8308C60.8934 71.8308 59.2442 71.8308 57.5473 71.8308C57.5473 73.5517 57.5473 75.2009 57.5473 76.8979C59.2442 76.8979 60.8934 76.8979 62.6143 76.8979Z" fill="url(#paint10_linear)"/>
<path d="M54.6313 86.578C54.6313 85.7893 54.6074 84.9766 54.6313 84.1879C54.6791 82.4431 55.7069 81.2719 57.4517 81.1763C59.2203 81.0807 61.0129 81.1046 62.8055 81.1763C64.4308 81.2719 65.5064 82.4192 65.5542 84.0445C65.602 85.7654 65.602 87.4862 65.5542 89.2071C65.5064 90.7846 64.2874 92.0036 62.6621 92.0514C60.989 92.1231 59.2921 92.1231 57.5951 92.0514C55.8742 91.9797 54.703 90.7368 54.6552 89.0398C54.5835 88.2511 54.6074 87.4145 54.6313 86.578ZM62.6621 84.1162C60.8695 84.1162 59.2203 84.1162 57.5473 84.1162C57.5473 85.8371 57.5473 87.4862 57.5473 89.231C59.1247 89.231 60.6305 89.2549 62.1602 89.2071C62.3275 89.2071 62.6382 88.8008 62.6382 88.5618C62.686 87.0799 62.6621 85.622 62.6621 84.1162Z" fill="url(#paint11_linear)"/>
<path d="M72.9635 66.9065C72.0792 66.9065 71.1709 66.9543 70.2866 66.9065C68.8047 66.8109 67.6814 65.7592 67.6097 64.2773C67.5141 62.437 67.5141 60.5727 67.6097 58.7323C67.6814 57.1548 68.9003 56.0314 70.5017 56.0075C72.1987 55.9597 73.8718 55.9597 75.5688 56.0075C77.1463 56.0553 78.3652 57.1548 78.4608 58.7562C78.5564 60.5249 78.5803 62.3174 78.4608 64.11C78.3413 65.8787 77.1224 66.8826 75.3537 66.9543C74.5649 66.9782 73.7523 66.9543 72.9635 66.9543C72.9635 66.9304 72.9635 66.9304 72.9635 66.9065ZM70.5017 58.8757C70.5017 60.6683 70.5017 62.2935 70.5017 63.9905C72.2226 63.9905 73.8957 63.9905 75.6166 63.9905C75.6166 62.4369 75.6405 60.9312 75.5927 59.4493C75.5927 59.2581 75.2342 58.9235 75.0429 58.8996C73.585 58.8518 72.1031 58.8757 70.5017 58.8757Z" fill="url(#paint12_linear)"/>
<path d="M91.5825 61.457C91.5825 62.3414 91.6303 63.2496 91.5825 64.1339C91.4869 65.6875 90.3875 66.8348 88.8339 66.9065C87.0652 66.9782 85.2726 66.9782 83.48 66.9065C81.9026 66.8348 80.7314 65.6397 80.6836 64.0622C80.6119 62.3414 80.6119 60.6205 80.6836 58.8996C80.7314 57.2504 81.9982 56.0553 83.6473 56.0075C85.2965 55.9597 86.9696 55.9597 88.6188 56.0075C90.3397 56.0553 91.5347 57.2743 91.6064 58.9952C91.6304 59.8078 91.6064 60.6444 91.5825 61.457C91.6064 61.457 91.5825 61.457 91.5825 61.457ZM88.6905 58.8757C87.0652 58.8757 85.5355 58.8518 84.0059 58.8996C83.8386 58.8996 83.5517 59.1864 83.5517 59.3298C83.5278 60.8834 83.5278 62.4131 83.5278 63.9666C85.3204 63.9666 86.9935 63.9666 88.6666 63.9666C88.6905 62.2697 88.6905 60.6444 88.6905 58.8757Z" fill="url(#paint13_linear)"/>
<path d="M65.5542 61.4573C65.5542 62.3178 65.5781 63.1782 65.5542 64.0387C65.4825 65.6161 64.3591 66.8351 62.7816 66.9068C61.0129 66.9785 59.2203 66.9785 57.4277 66.9068C55.8264 66.8351 54.703 65.6879 54.6313 64.0626C54.5835 62.3417 54.5835 60.6208 54.6313 58.8999C54.6791 57.2746 55.8742 56.0557 57.4756 56.0079C59.1964 55.9362 60.9173 55.9362 62.6382 56.0079C64.3352 56.0796 65.5064 57.3463 65.5303 59.0672C65.5781 59.856 65.5542 60.6686 65.5542 61.4573ZM62.6382 58.9238C60.8934 58.9238 59.2442 58.9238 57.5712 58.9238C57.5712 60.6447 57.5712 62.3178 57.5712 63.967C59.3159 63.967 60.9651 63.967 62.6382 63.967C62.6382 62.27 62.6382 60.6447 62.6382 58.9238Z" fill="url(#paint14_linear)"/>
<path d="M19.3054 92.3381C18.8273 91.884 18.3971 91.5016 18.0147 91.0953C17.7279 90.8084 17.465 90.4977 17.1543 90.2348C16.6523 89.7807 16.0309 89.3983 15.6485 88.8485C15.1944 88.2032 15.4095 87.4862 16.0548 87.0082C16.6523 86.554 17.2021 86.6974 17.7757 87.1755C18.1581 87.4862 18.6361 87.8208 19.0902 87.8447C19.4966 87.8686 20.1419 87.6057 20.3331 87.2711C20.6199 86.7452 20.4048 86.1238 19.7834 85.837C19.1859 85.5502 18.5644 85.3112 17.943 85.0482C16.6284 84.4507 15.7202 83.5425 15.6963 82.0128C15.6724 80.6026 16.1265 79.4076 17.4889 78.6905C17.704 78.571 17.8713 78.2364 17.943 77.9496C18.1581 77.2565 18.5644 76.8262 19.2815 76.7784C19.9985 76.7306 20.4526 77.113 20.7633 77.7584C20.9067 78.0452 21.2175 78.2603 21.4804 78.4515C21.7672 78.6427 22.1257 78.7383 22.3886 78.9295C22.9861 79.3837 23.2252 79.9812 22.8427 80.6982C22.4603 81.4153 21.8628 81.6065 21.074 81.3675C20.4765 81.2002 19.8551 81.0807 19.2337 81.0567C19.0185 81.0567 18.6839 81.3197 18.6361 81.5109C18.5883 81.7021 18.7795 82.0845 18.9707 82.204C19.5205 82.5147 20.118 82.7537 20.6916 83.0166C23.1774 84.1161 24.0378 86.5301 22.7471 88.9441C22.532 89.3266 22.2452 89.709 21.8867 89.948C21.3131 90.3304 20.7633 90.6411 20.5482 91.406C20.4526 91.7167 19.8551 91.9318 19.3054 92.3381Z" fill="url(#paint15_linear)"/>
</g>
<defs>
<linearGradient id="paint0_linear" x1="49.8517" y1="0.307617" x2="49.8517" y2="98.2414" gradientUnits="userSpaceOnUse">
<stop stop-color="#4556CB"/>
<stop offset="1" stop-color="#922E9D"/>
</linearGradient>
<linearGradient id="paint1_linear" x1="37.574" y1="32.2959" x2="37.574" y2="55.7702" gradientUnits="userSpaceOnUse">
<stop stop-color="#4556CB"/>
<stop offset="1" stop-color="#922E9D"/>
</linearGradient>
<linearGradient id="paint2_linear" x1="54.9013" y1="27.1777" x2="54.9013" y2="30.1096" gradientUnits="userSpaceOnUse">
<stop stop-color="#4556CB"/>
<stop offset="1" stop-color="#922E9D"/>
</linearGradient>
<linearGradient id="paint3_linear" x1="45.0228" y1="20.0605" x2="45.0228" y2="22.9347" gradientUnits="userSpaceOnUse">
<stop stop-color="#4556CB"/>
<stop offset="1" stop-color="#922E9D"/>
</linearGradient>
<linearGradient id="paint4_linear" x1="34.5065" y1="27.2051" x2="34.5065" y2="30.103" gradientUnits="userSpaceOnUse">
<stop stop-color="#4556CB"/>
<stop offset="1" stop-color="#922E9D"/>
</linearGradient>
<linearGradient id="paint5_linear" x1="65.3381" y1="20.0303" x2="65.3381" y2="22.9256" gradientUnits="userSpaceOnUse">
<stop stop-color="#4556CB"/>
<stop offset="1" stop-color="#922E9D"/>
</linearGradient>
<linearGradient id="paint6_linear" x1="73.0412" y1="38.4883" x2="73.0412" y2="53.5258" gradientUnits="userSpaceOnUse">
<stop stop-color="#4556CB"/>
<stop offset="1" stop-color="#922E9D"/>
</linearGradient>
<linearGradient id="paint7_linear" x1="86.1295" y1="68.9014" x2="86.1295" y2="92.1331" gradientUnits="userSpaceOnUse">
<stop stop-color="#4556CB"/>
<stop offset="1" stop-color="#922E9D"/>
</linearGradient>
<linearGradient id="paint8_linear" x1="73.0353" y1="68.8574" x2="73.0353" y2="79.8911" gradientUnits="userSpaceOnUse">
<stop stop-color="#4556CB"/>
<stop offset="1" stop-color="#922E9D"/>
</linearGradient>
<linearGradient id="paint9_linear" x1="73.0376" y1="81.1221" x2="73.0376" y2="92.1345" gradientUnits="userSpaceOnUse">
<stop stop-color="#4556CB"/>
<stop offset="1" stop-color="#922E9D"/>
</linearGradient>
<linearGradient id="paint10_linear" x1="60.0881" y1="68.873" x2="60.0881" y2="79.8855" gradientUnits="userSpaceOnUse">
<stop stop-color="#4556CB"/>
<stop offset="1" stop-color="#922E9D"/>
</linearGradient>
<linearGradient id="paint11_linear" x1="60.0987" y1="81.1133" x2="60.0987" y2="92.1051" gradientUnits="userSpaceOnUse">
<stop stop-color="#4556CB"/>
<stop offset="1" stop-color="#922E9D"/>
</linearGradient>
<linearGradient id="paint12_linear" x1="73.0398" y1="55.9717" x2="73.0398" y2="66.9649" gradientUnits="userSpaceOnUse">
<stop stop-color="#4556CB"/>
<stop offset="1" stop-color="#922E9D"/>
</linearGradient>
<linearGradient id="paint13_linear" x1="86.1231" y1="55.9717" x2="86.1231" y2="66.9603" gradientUnits="userSpaceOnUse">
<stop stop-color="#4556CB"/>
<stop offset="1" stop-color="#922E9D"/>
</linearGradient>
<linearGradient id="paint14_linear" x1="60.0801" y1="55.9541" x2="60.0801" y2="66.9606" gradientUnits="userSpaceOnUse">
<stop stop-color="#4556CB"/>
<stop offset="1" stop-color="#922E9D"/>
</linearGradient>
<linearGradient id="paint15_linear" x1="19.375" y1="76.7744" x2="19.375" y2="92.3381" gradientUnits="userSpaceOnUse">
<stop stop-color="#4556CB"/>
<stop offset="1" stop-color="#922E9D"/>
</linearGradient>
<clipPath id="clip0">
<rect width="97.7559" height="97.8993" fill="white" transform="translate(0.973145 0.341797)"/>
</clipPath>
</defs>
</svg>
