<svg width="78" height="90" viewBox="0 0 78 90" fill="none" xmlns="http://www.w3.org/2000/svg">
<g clip-path="url(#clip0)">
<path d="M5.0268 89.0378C3.86593 88.6739 2.73971 88.2408 1.89071 87.3051C0.5046 85.7458 0.00213405 83.9612 0.55658 81.934C2.79169 73.7559 5.04412 65.5951 7.29656 57.4171C7.98962 54.9047 10.0515 53.3627 12.6678 53.328C14.3657 53.3107 16.0811 53.3107 17.779 53.328C20.9844 53.3454 22.977 54.9567 23.6354 58.0928C23.67 58.2661 23.722 58.422 23.774 58.5953C25.0388 58.5953 26.269 58.5953 27.6205 58.5953C27.2566 54.6275 28.3308 51.4914 32.5238 50.1919C32.5238 45.9123 32.5238 41.6154 32.5238 37.1971C32.212 37.1971 31.9174 37.1971 31.6055 37.1971C27.6724 37.1971 23.7567 37.2145 19.8236 37.1798C16.4796 37.1625 13.8979 35.066 13.5514 32.0165C13.3955 30.6477 13.4994 29.2443 13.4821 27.8582C13.4821 27.5463 13.4821 27.2344 13.4821 26.8879C12.4425 26.68 11.4896 26.4894 10.5193 26.3161C7.69507 25.8137 5.89312 23.6825 5.85847 20.8237C5.84114 19.3856 5.84114 17.9301 5.85847 16.492C5.89312 13.9104 7.66041 11.7793 10.1727 11.2421C11.0217 11.0689 11.8707 10.861 12.7197 10.757C13.3781 10.6877 13.4994 10.3931 13.4821 9.78672C13.4474 8.53922 13.4474 7.30904 13.4821 6.06154C13.5861 2.96011 16.1157 0.413125 19.2171 0.326493C21.4176 0.274514 23.6007 0.309167 25.8012 0.309167C26.6848 0.309167 27.2393 0.811633 27.2566 1.574C27.2739 2.35368 26.7022 2.8908 25.7839 2.90813C23.7567 2.92546 21.7468 2.90813 19.7196 2.92546C17.5192 2.94278 16.1157 4.3289 16.1157 6.54668C16.0984 14.7248 16.0984 22.8855 16.1157 31.0636C16.1157 32.9522 17.3112 34.2863 19.1825 34.5462C19.5463 34.5982 19.9275 34.5982 20.3087 34.5982C32.7491 34.5982 45.1895 34.5982 57.6472 34.5982C60.5233 34.5982 61.8055 33.316 61.8055 30.4052C61.8055 22.6083 61.8055 14.8114 61.7882 7.01449C61.7882 4.17296 60.5233 2.92546 57.6472 2.92546C49.0359 2.92546 40.442 2.92546 31.8308 2.92546C31.5362 2.92546 31.2417 2.96011 30.9645 2.8908C30.3061 2.73487 29.9249 2.28438 29.9422 1.574C29.9595 0.898265 30.3407 0.499757 30.9645 0.361146C31.207 0.309167 31.4842 0.326493 31.7441 0.326493C40.4593 0.326493 49.1919 0.326493 57.9071 0.326493C61.8402 0.326493 64.3525 2.8215 64.3871 6.73727C64.4045 7.81151 64.4045 8.86842 64.3871 9.94266C64.3698 10.4278 64.5257 10.6704 65.0455 10.7397C65.8945 10.861 66.7435 11.0516 67.5925 11.2248C70.1049 11.7446 71.8202 13.6678 71.9761 16.2322C72.0627 17.8435 72.0627 19.4722 71.9934 21.0836C71.8722 23.7691 70.1395 25.727 67.5059 26.2815C66.6569 26.4547 65.7906 26.576 64.9589 26.8013C64.7337 26.8706 64.4391 27.2171 64.4218 27.4424C64.3698 28.4126 64.3525 29.4002 64.4045 30.3878C64.6124 34.4942 61.6842 37.2838 57.6472 37.1798C53.87 37.0932 50.0755 37.1625 46.2983 37.1625C45.9865 37.1625 45.6746 37.1625 45.3107 37.1625C45.3107 41.5461 45.3107 45.843 45.3107 50.1746C47.1127 50.6424 48.5161 51.6474 49.4691 53.2934C50.422 54.9394 50.2314 56.7413 50.2661 58.5953C51.4789 58.5953 52.6225 58.6126 53.7834 58.5779C53.9393 58.5779 54.1645 58.2834 54.2165 58.0755C54.8749 54.974 56.8848 53.3107 60.0555 53.2761C61.7882 53.2587 63.5208 53.2587 65.2535 53.2761C67.7658 53.3107 69.845 54.8354 70.5207 57.2611C72.8078 65.4739 75.0775 73.7039 77.2953 81.9513C78.1443 85.1047 76.429 87.9289 73.2583 88.8299C73.1543 88.8645 73.0677 88.9338 72.9637 88.9858C50.3181 89.0378 27.6724 89.0378 5.0268 89.0378ZM16.3236 86.4388C18.3681 86.4388 20.2567 86.4215 22.1626 86.4562C22.7171 86.4735 22.9597 86.3175 23.0983 85.7458C23.7393 83.2854 24.3977 80.8424 25.1255 78.4167C25.8532 75.9737 27.967 74.3103 30.514 74.293C36.1104 74.241 41.7242 74.241 47.3206 74.293C49.8849 74.3103 51.9468 75.9563 52.7438 78.3994C52.9863 79.1617 53.1769 79.9587 53.3849 80.7384C53.9046 82.6443 54.4418 84.5502 54.9616 86.4388C57.1793 86.4388 59.3278 86.4388 61.459 86.4388C61.459 86.3175 61.4763 86.2309 61.459 86.1616C59.2412 78.0702 57.0061 69.996 54.8056 61.8873C54.6497 61.3155 54.3378 61.2809 53.87 61.2809C43.942 61.2809 34.0139 61.2809 24.0685 61.2635C23.4275 61.2635 23.1849 61.4888 23.029 62.0952C21.6775 67.1372 20.2741 72.1618 18.8879 77.1865C18.0389 80.2013 17.1899 83.2681 16.3236 86.4388ZM25.5933 86.4042C34.551 86.4042 43.3529 86.4042 52.2933 86.4042C51.5309 83.7706 50.8725 81.1716 50.0062 78.6419C49.625 77.5157 48.5681 76.892 47.3379 76.892C41.7415 76.8746 36.1277 76.8573 30.5313 76.892C29.1625 76.892 28.1229 77.6543 27.7071 78.9365C26.9447 81.3622 26.3036 83.8572 25.5933 86.4042ZM47.6498 58.5779C47.6498 57.7809 47.6671 57.0186 47.6498 56.2735C47.5805 54.281 46.0384 52.7043 44.0286 52.6696C40.6153 52.6176 37.2193 52.635 33.806 52.6696C32.212 52.687 30.7392 53.7785 30.41 55.2686C30.1848 56.3082 30.2194 57.4171 30.1501 58.5606C36.0758 58.5779 41.8281 58.5779 47.6498 58.5779ZM35.2441 50.0187C37.7218 50.0187 40.1648 50.0187 42.6078 50.0187C42.6078 45.7391 42.6078 41.5114 42.6078 37.2491C40.1301 37.2491 37.7044 37.2491 35.2441 37.2491C35.2441 41.5287 35.2441 45.7564 35.2441 50.0187ZM15.9251 78.1048C16.4276 76.2162 16.9301 74.397 17.4498 72.4564C13.6207 72.4564 9.96483 72.4564 6.30895 72.4737C6.11836 72.4737 5.82381 72.7163 5.77183 72.8896C5.26937 74.6049 4.81888 76.3202 4.33374 78.1048C8.23219 78.1048 12.0267 78.1048 15.9251 78.1048ZM73.5355 78.1395C73.0503 76.3895 72.5825 74.7955 72.184 73.1841C72.0281 72.5777 71.7335 72.4391 71.1618 72.4391C67.8524 72.4564 64.5431 72.4564 61.2164 72.4564C60.9738 72.4564 60.7313 72.4911 60.4021 72.5257C60.7139 73.6693 60.9912 74.7088 61.303 75.7484C61.5283 76.5108 61.5456 77.5677 62.0654 77.9662C62.5852 78.3647 63.6074 78.1221 64.4045 78.1221C67.4019 78.1395 70.3994 78.1395 73.5355 78.1395ZM6.6035 69.8574C7.01934 69.8574 7.33121 69.8574 7.64309 69.8574C10.7792 69.8574 13.9326 69.8228 17.0687 69.8921C17.9696 69.9094 18.3162 69.6322 18.5068 68.7832C18.836 67.2758 19.2864 65.8031 19.7196 64.209C15.9251 64.209 12.2692 64.209 8.61337 64.2263C8.42278 64.2263 8.1109 64.4343 8.07625 64.6249C7.55646 66.3228 7.10597 68.0382 6.6035 69.8574ZM71.2484 69.8055C70.7979 68.1594 70.3474 66.5827 69.9489 64.9887C69.793 64.3823 69.5504 64.157 68.9093 64.1744C65.6173 64.209 62.3426 64.1917 59.0506 64.1917C58.7734 64.1917 58.5135 64.2263 58.1496 64.2437C58.6174 65.9417 59.0679 67.5184 59.4491 69.0951C59.5877 69.6668 59.8476 69.8574 60.454 69.8574C63.7634 69.8228 67.0901 69.8401 70.3994 69.8401C70.6593 69.8574 70.9192 69.8401 71.2484 69.8055ZM15.1801 80.7384C11.8534 80.7384 8.71733 80.7384 5.58124 80.7384C3.53673 80.7384 3.53673 80.7384 3.05159 82.7483C2.58377 84.6715 3.88325 86.3868 5.85847 86.4215C7.38319 86.4562 8.90792 86.4215 10.4326 86.4215C11.4896 86.4215 12.5465 86.4215 13.6034 86.4215C14.1405 84.5156 14.643 82.6963 15.1801 80.7384ZM62.6891 80.7384C63.1916 82.5924 63.6594 84.377 64.1792 86.1269C64.2139 86.2829 64.5777 86.4215 64.7856 86.4215C67.2113 86.4388 69.637 86.4562 72.0454 86.4215C73.7781 86.3868 75.0082 85.0007 74.8523 83.2854C74.783 82.6097 74.5924 81.934 74.3498 81.2756C74.2632 81.0503 73.9167 80.7731 73.6568 80.7558C72.6172 80.7038 71.5776 80.7384 70.538 80.7384C67.9737 80.7384 65.3921 80.7384 62.6891 80.7384ZM8.85594 61.6101C9.3584 61.6101 9.67028 61.6101 9.98216 61.6101C12.7717 61.6101 15.5613 61.6101 18.3681 61.6101C20.6206 61.6101 20.6206 61.6101 21.0537 59.375C21.3829 57.677 20.1181 55.9963 18.3855 55.9616C16.4276 55.9097 14.4697 55.927 12.5118 55.9616C11.3336 55.979 10.4326 56.5854 10.0341 57.677C9.56632 58.8898 9.27177 60.172 8.85594 61.6101ZM68.996 61.6101C68.6321 60.2759 68.3376 59.1151 67.9737 57.9715C67.5579 56.6894 66.5876 55.9616 65.2708 55.9443C63.3649 55.9097 61.459 55.9097 59.5704 55.9443C57.8897 55.979 56.6595 57.3824 56.8155 59.0457C56.8675 59.6695 57.11 60.2759 57.214 60.8997C57.318 61.4541 57.5952 61.6274 58.1496 61.6101C60.4887 61.5754 62.8278 61.5927 65.1495 61.5927C66.397 61.6101 67.6272 61.6101 68.996 61.6101ZM13.4474 13.2693C12.4598 13.4599 11.5242 13.6159 10.6059 13.8411C9.30643 14.1703 8.50941 15.1926 8.47476 16.544C8.4401 18.0168 8.4401 19.4895 8.47476 20.9623C8.49208 22.2791 9.2891 23.3187 10.5193 23.6479C11.4549 23.8904 12.4252 24.029 13.4301 24.237C13.4474 20.5464 13.4474 16.9599 13.4474 13.2693ZM64.4391 24.2196C65.444 24.029 66.3797 23.8904 67.298 23.6479C68.4935 23.3187 69.2732 22.5043 69.3425 21.2395C69.4291 19.5762 69.4118 17.8955 69.3425 16.2148C69.3078 15.1752 68.7187 14.3609 67.7485 14.0144C66.7089 13.6505 65.6 13.4773 64.4391 13.2C64.4391 16.9772 64.4391 20.5638 64.4391 24.2196Z" fill="url(#paint0_linear)"/>
<path d="M54.4422 27.3044C54.4422 21.552 54.4422 15.9383 54.4422 10.2552C44.0984 10.2552 33.7891 10.2552 23.4279 10.2552C23.4279 15.9209 23.4279 21.552 23.4279 27.2871C23.8091 27.2871 24.1556 27.2871 24.5022 27.2871C30.8263 27.2871 37.1505 27.2871 43.4746 27.2871C43.7692 27.2871 44.0464 27.2871 44.3409 27.3044C45.086 27.3737 45.5191 27.8069 45.5538 28.5346C45.5884 29.2623 45.1553 29.7128 44.4276 29.8514C44.1677 29.9033 43.9078 29.886 43.6479 29.886C36.6653 29.886 29.6828 29.886 22.6829 29.886C21.1408 29.886 20.777 29.5222 20.777 28.0148C20.777 21.8119 20.777 15.609 20.777 9.38886C20.777 7.98542 21.1755 7.58691 22.5616 7.58691C33.4773 7.58691 44.3929 7.58691 55.2912 7.58691C56.6427 7.58691 57.0759 7.98542 57.0759 9.31956C57.0932 15.5917 57.0932 21.8466 57.0759 28.1187C57.0759 29.4875 56.6773 29.8687 55.3086 29.886C53.4546 29.9033 51.618 29.9033 49.7641 29.886C48.7245 29.886 48.1701 29.4182 48.1527 28.6039C48.1354 27.7895 48.7072 27.3044 49.7294 27.3044C51.2888 27.2871 52.8136 27.3044 54.4422 27.3044Z" fill="url(#paint1_linear)"/>
<path d="M38.9005 21.4653C37.601 21.4133 36.4748 20.9802 35.5738 20.0272C35.0193 19.4381 35.002 18.6758 35.4872 18.1733C35.9723 17.6535 36.7173 17.6535 37.3411 18.156C38.5539 19.1089 39.299 19.1089 40.4772 18.1733C41.1182 17.6708 41.846 17.6708 42.3311 18.1733C42.8509 18.7104 42.8162 19.4728 42.2098 20.0965C41.3088 21.0148 40.1826 21.4133 38.9005 21.4653Z" fill="url(#paint2_linear)"/>
<path d="M47.7196 18.19C47.7369 17.8435 47.7196 17.4969 47.7716 17.1504C47.8929 16.4574 48.3087 16.0762 49.0191 16.0762C49.7122 16.0762 50.1973 16.44 50.2839 17.1331C50.3532 17.8435 50.3532 18.5712 50.3013 19.2816C50.232 20.0439 49.6775 20.4944 48.9498 20.4424C48.2047 20.3905 47.8062 19.94 47.7369 19.2123C47.7023 18.8657 47.7369 18.5192 47.7369 18.1727C47.7369 18.19 47.7369 18.19 47.7196 18.19Z" fill="url(#paint3_linear)"/>
<path d="M27.5343 18.2599C27.5343 17.948 27.517 17.6188 27.5343 17.307C27.5863 16.5793 27.9848 16.1288 28.7298 16.0768C29.4749 16.0248 29.9773 16.4233 30.064 17.1337C30.1506 17.8614 30.1506 18.6411 30.064 19.3688C29.9773 20.0792 29.4749 20.4777 28.7298 20.4257C27.9848 20.3737 27.5863 19.9233 27.5343 19.1955C27.517 18.8837 27.5343 18.5718 27.5343 18.2599Z" fill="url(#paint4_linear)"/>
<path d="M38.9698 72.2664C36.8386 72.2664 34.6901 72.2837 32.559 72.2664C30.5318 72.2491 29.267 71.0016 29.1977 68.9917C29.1803 68.4199 29.1803 67.8308 29.215 67.2591C29.3189 65.4398 30.5491 64.1403 32.3684 64.123C36.752 64.071 41.1356 64.071 45.5365 64.123C47.3731 64.1403 48.6379 65.5264 48.6899 67.363C48.7072 67.9348 48.7072 68.5239 48.6899 69.0957C48.6206 70.9323 47.3211 72.2317 45.4672 72.2491C43.284 72.2837 41.1182 72.2664 38.9698 72.2664ZM38.9871 69.6674C40.7717 69.6674 42.5563 69.6674 44.341 69.6674C46.0736 69.6674 46.0736 69.6674 46.0563 67.9001C46.0563 66.8259 45.935 66.7046 44.8607 66.7046C41.1356 66.7046 37.4277 66.7046 33.7025 66.7046C31.71 66.7046 31.7273 66.7046 31.762 68.7145C31.7793 69.4249 32.0392 69.6848 32.7496 69.6674C34.8461 69.6501 36.9252 69.6674 38.9871 69.6674Z" fill="url(#paint5_linear)"/>
</g>
<defs>
<linearGradient id="paint0_linear" x1="38.9233" y1="0.297852" x2="38.9233" y2="89.0378" gradientUnits="userSpaceOnUse">
<stop stop-color="#4556CB"/>
<stop offset="1" stop-color="#922E9D"/>
</linearGradient>
<linearGradient id="paint1_linear" x1="38.9329" y1="7.58691" x2="38.9329" y2="29.899" gradientUnits="userSpaceOnUse">
<stop stop-color="#4556CB"/>
<stop offset="1" stop-color="#922E9D"/>
</linearGradient>
<linearGradient id="paint2_linear" x1="38.9172" y1="17.7812" x2="38.9172" y2="21.4653" gradientUnits="userSpaceOnUse">
<stop stop-color="#4556CB"/>
<stop offset="1" stop-color="#922E9D"/>
</linearGradient>
<linearGradient id="paint3_linear" x1="49.029" y1="16.0762" x2="49.029" y2="20.4465" gradientUnits="userSpaceOnUse">
<stop stop-color="#4556CB"/>
<stop offset="1" stop-color="#922E9D"/>
</linearGradient>
<linearGradient id="paint4_linear" x1="28.8278" y1="16.0723" x2="28.8278" y2="20.4302" gradientUnits="userSpaceOnUse">
<stop stop-color="#4556CB"/>
<stop offset="1" stop-color="#922E9D"/>
</linearGradient>
<linearGradient id="paint5_linear" x1="38.9446" y1="64.084" x2="38.9446" y2="72.2741" gradientUnits="userSpaceOnUse">
<stop stop-color="#4556CB"/>
<stop offset="1" stop-color="#922E9D"/>
</linearGradient>
<clipPath id="clip0">
<rect width="77.1373" height="88.7286" fill="white" transform="translate(0.349121 0.30957)"/>
</clipPath>
</defs>
</svg>
