<svg width="76" height="106" viewBox="0 0 76 106" fill="none" xmlns="http://www.w3.org/2000/svg">
<path d="M70.2584 69.936V59.0149L65.6496 60.808L65.6361 60.7776L65.5262 60.5782C63.7601 57.8284 60.9039 55.9153 57.6877 55.3322L46.5976 53.3143V52.4388C50.745 50.0305 53.782 45.922 54.7285 41.0647C57.801 40.4293 60.1181 37.7032 60.1181 34.4448V17.752C60.1181 13.0351 57.0286 8.92147 52.5466 7.58294L51.7016 6.73791C47.7705 2.80683 42.5448 0.643555 36.9862 0.643555C25.5124 0.643555 16.1765 9.97776 16.1765 21.4533V34.4448C16.1765 37.7032 18.4936 40.4293 21.5661 41.0647C22.5142 45.922 25.5496 50.0322 29.697 52.4388V53.3143L18.6085 55.3305C15.3957 55.9136 12.5412 57.8234 10.7734 60.5714L10.672 60.8181L6.03613 59.0149V69.936C3.24077 69.936 0.96595 72.2108 0.96595 75.0062V81.7664C0.96595 84.5618 3.24077 86.8366 6.03613 86.8366V93.0628L38.1473 105.552L70.2584 93.0628V86.8366C73.0538 86.8366 75.3286 84.5618 75.3286 81.7664V75.0062C75.3286 72.2108 73.0538 69.936 70.2584 69.936ZM49.7647 57.3265L57.0827 58.6566C59.2375 59.0487 61.1456 60.2925 62.4182 62.0637L46.0669 68.4217L49.7647 57.3265ZM33.2207 53.9886C34.7807 54.4652 36.4336 54.7255 38.1473 54.7255C39.861 54.7255 41.5139 54.4652 43.0738 53.9886L38.1473 57.6831L33.2207 53.9886ZM35.575 59.9782L32.1256 63.4259L29.8879 56.7147L30.9645 56.5203L35.575 59.9782ZM45.33 56.522L46.4066 56.7164L44.169 63.4276L40.7195 59.9799L45.33 56.522ZM55.0479 37.355V31.5345C56.0535 32.1209 56.7379 33.1992 56.7379 34.4448C56.7379 35.6903 56.0535 36.7686 55.0479 37.355ZM21.2467 37.355C20.2411 36.7686 19.5566 35.6903 19.5566 34.4448C19.5566 33.1992 20.2411 32.1209 21.2467 31.5345V37.355ZM21.2467 25.9945V27.9245C20.645 28.0817 20.0805 28.3183 19.5566 28.6242V21.4533C19.5566 11.8436 27.3748 4.02367 36.9862 4.02367C41.6406 4.02367 46.0196 5.83711 49.3118 9.12935L50.8024 10.6217L51.2571 10.7332C54.4851 11.5394 56.7379 14.426 56.7379 17.752V28.6242C56.214 28.3183 55.6495 28.08 55.0479 27.9245V25.9945H49.6887C45.1086 25.9945 40.7314 23.8075 37.985 20.1452L36.6414 18.3503L33.2833 21.7102C30.5183 24.4734 26.8442 25.9945 22.9367 25.9945H21.2467ZM24.6268 37.8249V29.2968C28.7996 28.9098 32.6715 27.0998 35.673 24.0999L36.3305 23.4425C39.719 27.1826 44.5999 29.3746 49.6887 29.3746H51.6678V37.8249C51.6678 45.2797 45.6021 51.3454 38.1473 51.3454C30.6924 51.3454 24.6268 45.2797 24.6268 37.8249ZM19.2118 58.6566L26.5298 57.3265L30.2276 68.4217L13.8729 62.062C15.1456 60.2892 17.057 59.0487 19.2118 58.6566ZM4.34607 81.7664V75.0062C4.34607 74.0733 5.10491 73.3161 6.03613 73.3161C8.83149 73.3161 11.1063 75.591 11.1063 78.3863C11.1063 81.1817 8.83149 83.4565 6.03613 83.4565C5.10491 83.4565 4.34607 82.6994 4.34607 81.7664ZM36.4572 101.266L9.41625 90.7525V86.12C12.3958 84.8119 14.4864 81.8425 14.4864 78.3863C14.4864 74.9301 12.3958 71.9607 9.41625 70.6526V63.9566L36.4572 74.4721V101.266ZM31.4394 68.8949L38.1473 62.1854L44.8551 68.8932L38.1473 71.5027L31.4394 68.8949ZM66.8783 90.7508L39.8373 101.265V74.4721L66.8783 63.9566V70.6526C63.8987 71.9607 61.8081 74.9301 61.8081 78.3863C61.8081 81.8425 63.8987 84.8119 66.8783 86.12V90.7508ZM71.9485 81.7664C71.9485 82.6994 71.1896 83.4565 70.2584 83.4565C67.4631 83.4565 65.1882 81.1817 65.1882 78.3863C65.1882 75.591 67.4631 73.3161 70.2584 73.3161C71.1896 73.3161 71.9485 74.0733 71.9485 75.0062V81.7664Z" fill="url(#paint0_linear)"/>
<defs>
<linearGradient id="paint0_linear" x1="38.1473" y1="0.643555" x2="38.1473" y2="105.552" gradientUnits="userSpaceOnUse">
<stop stop-color="#4556CB"/>
<stop offset="1" stop-color="#922E9D"/>
</linearGradient>
</defs>
</svg>
