<svg width="91" height="91" viewBox="0 0 91 91" fill="none" xmlns="http://www.w3.org/2000/svg">
<g clip-path="url(#clip0)">
<path d="M2.37997 56.7658C2.87307 57.1083 3.39364 57.4095 3.93635 57.6663C4.58622 57.9995 5.67433 58.5548 5.74937 58.9435C5.8444 59.4555 5.78322 59.9841 5.57378 60.4609C5.35015 60.9411 5.11452 61.3539 4.9134 61.7111C4.36259 62.6821 3.44257 64.3075 4.83086 65.4407C5.15504 65.7409 5.71486 66.1746 6.22664 66.5663C5.85038 67.2229 5.67993 67.9774 5.73737 68.732C5.81683 69.3263 6.13908 69.861 6.62737 70.2089C6.96056 70.443 7.31626 70.6486 7.66746 70.8467C8.55446 71.3525 8.90116 71.5882 9.01822 72.0579C9.10181 72.662 9.05055 73.277 8.86814 73.8589C8.78109 74.2612 8.69404 74.6634 8.64451 75.0596C8.49527 76.4273 8.66373 77.811 9.13679 79.1029C9.81071 81.4871 11.9666 83.1485 14.4438 83.1927C14.8579 83.1922 15.2709 83.1484 15.676 83.0621C19.9639 82.0475 24.1889 80.7836 28.3296 79.277C31.7095 81.2596 33.8468 87.2945 34.4036 89.5578C34.5698 90.2273 35.1711 90.6973 35.8609 90.697L73.5322 90.5919C74.0096 90.591 74.4581 90.363 74.7402 89.9778C75.0222 89.5926 75.1042 89.0962 74.961 88.6408C74.5899 87.6239 74.0782 86.664 73.4406 85.7892C73.0812 85.2698 72.7563 84.7273 72.4681 84.1653C71.7897 82.7887 71.2231 81.3597 70.7736 79.8923C69.9172 76.9934 69.3235 74.0232 68.9996 71.0178C68.8432 69.5723 68.8156 68.1158 68.9171 66.6654C69.0146 66.6654 69.1077 66.6804 69.2052 66.6804C78.4303 66.6731 86.5716 60.6496 89.2768 51.8302C91.982 43.0107 88.6183 33.4582 80.9839 28.2797C80.7365 26.335 80.3523 24.4101 79.8343 22.5194C78.3094 17.3649 75.1643 12.8388 70.8652 9.61212C67.1191 6.56838 62.8938 4.16743 58.3616 2.5071C58.3187 2.49381 58.2751 2.48279 58.231 2.47408C55.5476 1.27009 52.6399 0.647124 49.6987 0.646051C49.3985 0.646051 49.1089 0.67907 48.8117 0.691076C48.7907 0.691076 48.7742 0.677569 48.7532 0.677569C47.527 0.62654 46.3728 0.634044 45.2217 0.692577C40.3384 1.03091 35.4866 1.72768 30.7055 2.77726C23.9397 4.12802 19.0199 6.49786 15.6625 10.0474C13.0145 12.8821 10.9668 16.2228 9.64258 19.8689C9.1015 21.437 8.65741 23.037 8.31283 24.6596L8.16274 25.2915C7.84311 26.4697 7.41244 27.615 6.87651 28.7119C6.57634 29.3948 6.26717 30.0777 5.99551 30.7891C5.6535 31.5781 5.51817 32.4412 5.60229 33.297C5.90436 34.6416 6.68065 35.8324 7.78903 36.6514C8.52294 37.3253 9.00471 37.7996 9.01072 38.2123C8.95533 38.4404 8.86951 38.66 8.75557 38.8652C6.95747 42.6506 4.75437 46.23 2.18486 49.5407C1.09825 50.8644 -0.039397 52.4073 0.199238 53.9517C0.520067 55.1438 1.30561 56.1575 2.37997 56.7658ZM87.2199 45.6715C87.2092 55.6138 79.152 63.6709 69.2097 63.6817C68.6995 63.6817 68.1982 63.6472 67.6984 63.6051H67.6909H67.6744C62.63 63.2168 57.9877 60.705 54.903 56.6948C51.8183 52.6847 50.5812 47.5535 51.4997 42.5783C53.4582 42.4104 55.3829 41.9658 57.2165 41.2575C57.2439 43.4607 58.8618 45.3204 61.04 45.6525C63.2182 45.9846 65.3168 44.6915 65.9996 42.5966C66.6824 40.5017 65.7487 38.2204 63.7932 37.2052C66.6299 34.643 68.7142 31.3558 69.8221 27.6973C79.5133 28.0309 87.2022 35.9746 87.2199 45.6715ZM49.6987 3.64775C59.6455 3.64775 67.7089 11.7112 67.7089 21.6579C67.7089 31.6047 59.6455 39.6681 49.6987 39.6681C39.752 39.6681 31.6885 31.6047 31.6885 21.6579C31.6993 11.7156 39.7564 3.6585 49.6987 3.64775ZM63.2064 41.169C63.2064 41.9979 62.5344 42.6698 61.7055 42.6698C60.8766 42.6698 60.2047 41.9979 60.2047 41.169C60.2047 40.3401 60.8766 39.6681 61.7055 39.6681C62.5344 39.6681 63.2064 40.3401 63.2064 41.169ZM76.9511 23.3419C77.2288 24.3204 77.4629 25.365 77.6685 26.4516C75.3894 25.4505 72.9497 24.8649 70.4645 24.7227C71.2088 20.0002 70.2707 15.1662 67.814 11.0649C68.2147 11.3651 68.6169 11.6653 69.0146 11.9775C72.8273 14.8001 75.614 18.7904 76.9511 23.3419ZM4.5592 51.3747C7.24536 47.9155 9.54814 44.175 11.4271 40.2189C11.7797 39.5997 11.9784 38.9048 12.0064 38.1928C11.8527 36.6837 11.053 35.3152 9.81367 34.4407C9.21333 33.8838 8.63401 33.3585 8.56797 32.8723C8.57952 32.5174 8.65846 32.168 8.8006 31.8427C9.04524 31.2003 9.3274 30.57 9.61106 29.9396C10.227 28.6702 10.719 27.3443 11.0804 25.9804L11.2305 25.3425C11.5492 23.8404 11.9597 22.3593 12.4597 20.9075C13.6432 17.6427 15.475 14.6511 17.8447 12.1125C20.7173 9.07181 25.2349 6.9241 31.2983 5.71892C33.2284 5.3257 35.3326 4.92497 37.5073 4.57677C30.2525 9.73544 27.0446 18.912 29.5056 27.467C31.9665 36.022 39.56 42.0915 48.447 42.6068C48.2903 43.621 48.2071 44.6453 48.1979 45.6715C48.2156 55.9842 55.7104 64.7617 65.8929 66.3952C65.7848 68.0577 65.8285 69.7265 66.0234 71.381C66.3686 74.5682 67.0005 77.7177 67.9115 80.7914C68.4048 82.4053 69.0277 83.9768 69.7741 85.4905C70.1164 86.1705 70.5056 86.826 70.9387 87.4521C70.9717 87.5016 71.0048 87.5512 71.0378 87.6022L36.9955 87.6953C35.9986 84.1352 34.1903 80.8546 31.7126 78.1108L33.1218 77.6186C34.1004 77.2779 34.8388 77.0182 35.223 76.8967C41.6542 74.866 44.869 71.9439 44.7819 68.1917C44.7693 67.6555 44.4716 67.1668 44.001 66.9096C43.5303 66.6524 42.9582 66.6659 42.5001 66.9449C42.0421 67.2239 41.7676 67.7261 41.7802 68.2623C41.8163 69.8066 40.551 72.0594 34.309 74.0315C33.9083 74.1606 33.1474 74.4263 32.1358 74.782C31.0117 75.1752 29.5738 75.6825 27.9829 76.2183C23.7594 77.7668 19.4497 79.0697 15.0756 80.1205C13.6742 80.3891 12.3095 79.5077 11.9779 78.1198C11.6581 77.2658 11.5375 76.35 11.6252 75.4423C11.6657 75.1272 11.7363 74.8135 11.8053 74.4998C12.1106 73.4621 12.1549 72.365 11.9344 71.306C11.4974 69.9292 10.4843 68.8099 9.1578 68.2383C9.05274 68.1797 8.94918 68.1197 8.84563 68.0597C9.00798 67.7318 9.20202 67.4207 9.42495 67.1306C9.67609 66.8115 9.78719 66.4042 9.73289 66.0018C9.67859 65.5993 9.46352 65.2361 9.13679 64.9949C8.77659 64.7293 7.92711 64.0944 7.30576 63.5931C7.3778 63.4626 7.45584 63.3185 7.53088 63.1894C7.76652 62.7752 8.03667 62.2889 8.29782 61.7396C8.77351 60.6878 8.91344 59.5149 8.69854 58.3807C8.33834 56.5481 6.58385 55.6506 5.30212 54.9963C4.87021 54.7922 4.45648 54.5517 4.06542 54.2774C3.74379 54.0626 3.44238 53.8189 3.16491 53.5495C3.17242 53.3258 3.41556 52.772 4.5592 51.3747Z" fill="url(#paint0_linear)"/>
<path d="M15.1286 28.4719C15.935 28.6593 16.7409 28.1583 16.9296 27.3523L17.0797 26.6964C17.3434 25.444 17.6787 24.2078 18.0838 22.9938C18.988 20.4883 20.3888 18.1911 22.2021 16.24C24.1472 14.405 26.5288 13.0974 29.121 12.4413C29.9143 12.1993 30.3611 11.36 30.1191 10.5668C29.8771 9.77351 29.0378 9.32666 28.2445 9.5687C25.1526 10.3732 22.3201 11.9606 20.0199 14.1778C17.9288 16.4247 16.3136 19.0712 15.2712 21.9582C14.8209 23.2893 14.4501 24.646 14.1606 26.021L14.0105 26.6709C13.823 27.4768 14.3232 28.2824 15.1286 28.4719Z" fill="url(#paint1_linear)"/>
<path d="M13.6788 33.6648C14.5077 33.6648 15.1796 32.9928 15.1796 32.1639C15.1796 31.335 14.5077 30.6631 13.6788 30.6631C12.8499 30.6631 12.1779 31.335 12.1779 32.1639C12.1779 32.9928 12.8499 33.6648 13.6788 33.6648Z" fill="url(#paint2_linear)"/>
<path d="M42.1949 21.6574C44.6816 21.6574 46.6975 19.6416 46.6975 17.1549C46.6975 14.6682 44.6816 12.6523 42.1949 12.6523C39.7082 12.6523 37.6924 14.6682 37.6924 17.1549C37.6924 19.6416 39.7082 21.6574 42.1949 21.6574ZM42.1949 15.654C43.0238 15.654 43.6958 16.326 43.6958 17.1549C43.6958 17.9838 43.0238 18.6557 42.1949 18.6557C41.366 18.6557 40.6941 17.9838 40.6941 17.1549C40.6941 16.326 41.366 15.654 42.1949 15.654Z" fill="url(#paint3_linear)"/>
<path d="M57.2034 21.6574C59.6901 21.6574 61.706 19.6416 61.706 17.1549C61.706 14.6682 59.6901 12.6523 57.2034 12.6523C54.7167 12.6523 52.7009 14.6682 52.7009 17.1549C52.7009 19.6416 54.7167 21.6574 57.2034 21.6574ZM57.2034 15.654C58.0323 15.654 58.7043 16.326 58.7043 17.1549C58.7043 17.9838 58.0323 18.6557 57.2034 18.6557C56.3745 18.6557 55.7026 17.9838 55.7026 17.1549C55.7026 16.326 56.3745 15.654 57.2034 15.654Z" fill="url(#paint4_linear)"/>
<path d="M43.6958 26.161C43.6958 25.3321 43.0238 24.6602 42.1949 24.6602C41.366 24.6602 40.6941 25.3321 40.6941 26.161C40.6941 31.1344 44.7258 35.1661 49.6992 35.1661C54.6726 35.1661 58.7043 31.1344 58.7043 26.161C58.7043 25.3321 58.0323 24.6602 57.2034 24.6602C56.3745 24.6602 55.7026 25.3321 55.7026 26.161C55.7026 29.4766 53.0148 32.1644 49.6992 32.1644C46.3836 32.1644 43.6958 29.4766 43.6958 26.161Z" fill="url(#paint5_linear)"/>
<path d="M76.7144 45.6721C79.2011 45.6721 81.2169 43.6562 81.2169 41.1695C81.2169 38.6828 79.2011 36.667 76.7144 36.667C74.2277 36.667 72.2119 38.6828 72.2119 41.1695C72.2119 43.6562 74.2277 45.6721 76.7144 45.6721ZM76.7144 39.6687C77.5433 39.6687 78.2152 40.3406 78.2152 41.1695C78.2152 41.9984 77.5433 42.6704 76.7144 42.6704C75.8855 42.6704 75.2135 41.9984 75.2135 41.1695C75.2135 40.3406 75.8855 39.6687 76.7144 39.6687Z" fill="url(#paint6_linear)"/>
<path d="M69.2102 48.6738C64.2389 48.6788 60.21 52.7076 60.2051 57.6789C60.2051 58.5078 60.877 59.1798 61.7059 59.1798C62.5348 59.1798 63.2068 58.5078 63.2068 57.6789C63.2068 54.3633 65.8946 51.6755 69.2102 51.6755C72.5258 51.6755 75.2136 54.3633 75.2136 57.6789C75.2136 58.5078 75.8855 59.1798 76.7144 59.1798C77.5433 59.1798 78.2153 58.5078 78.2153 57.6789C78.2103 52.7076 74.1815 48.6788 69.2102 48.6738Z" fill="url(#paint7_linear)"/>
</g>
<defs>
<linearGradient id="paint0_linear" x1="45.1847" y1="0.643555" x2="45.1847" y2="90.697" gradientUnits="userSpaceOnUse">
<stop stop-color="#4556CB"/>
<stop offset="1" stop-color="#922E9D"/>
</linearGradient>
<linearGradient id="paint1_linear" x1="22.078" y1="9.50293" x2="22.078" y2="28.5112" gradientUnits="userSpaceOnUse">
<stop stop-color="#4556CB"/>
<stop offset="1" stop-color="#922E9D"/>
</linearGradient>
<linearGradient id="paint2_linear" x1="13.6788" y1="30.6631" x2="13.6788" y2="33.6648" gradientUnits="userSpaceOnUse">
<stop stop-color="#4556CB"/>
<stop offset="1" stop-color="#922E9D"/>
</linearGradient>
<linearGradient id="paint3_linear" x1="42.1949" y1="12.6523" x2="42.1949" y2="21.6574" gradientUnits="userSpaceOnUse">
<stop stop-color="#4556CB"/>
<stop offset="1" stop-color="#922E9D"/>
</linearGradient>
<linearGradient id="paint4_linear" x1="57.2034" y1="12.6523" x2="57.2034" y2="21.6574" gradientUnits="userSpaceOnUse">
<stop stop-color="#4556CB"/>
<stop offset="1" stop-color="#922E9D"/>
</linearGradient>
<linearGradient id="paint5_linear" x1="49.6992" y1="24.6602" x2="49.6992" y2="35.1661" gradientUnits="userSpaceOnUse">
<stop stop-color="#4556CB"/>
<stop offset="1" stop-color="#922E9D"/>
</linearGradient>
<linearGradient id="paint6_linear" x1="76.7144" y1="36.667" x2="76.7144" y2="45.6721" gradientUnits="userSpaceOnUse">
<stop stop-color="#4556CB"/>
<stop offset="1" stop-color="#922E9D"/>
</linearGradient>
<linearGradient id="paint7_linear" x1="69.2102" y1="48.6738" x2="69.2102" y2="59.1798" gradientUnits="userSpaceOnUse">
<stop stop-color="#4556CB"/>
<stop offset="1" stop-color="#922E9D"/>
</linearGradient>
<clipPath id="clip0">
<rect width="90.0509" height="90.0509" fill="white" transform="translate(0.171143 0.646484)"/>
</clipPath>
</defs>
</svg>
