<svg width="121" height="120" viewBox="0 0 121 120" fill="none" xmlns="http://www.w3.org/2000/svg">
<g clip-path="url(#clip0)">
<path d="M114.349 24H88.3486V16C88.3418 10.4795 83.8691 6.00684 78.3486 6H42.3486C36.8281 6.00684 32.3555 10.4795 32.3486 16V24H6.34863C3.03516 24 0.348633 26.6865 0.348633 30V74.5195C0.361328 77.0566 1.95996 79.3135 4.34863 80.166V108C4.34863 111.313 7.03516 114 10.3486 114H110.349C113.662 114 116.349 111.313 116.349 108V80.168C118.737 79.3144 120.337 77.0566 120.349 74.5195V30C120.349 26.6865 117.662 24 114.349 24ZM36.3486 16C36.3486 12.6865 39.0352 10 42.3486 10H78.3486C81.6621 10 84.3486 12.6865 84.3486 16V24H80.3486V16C80.3486 14.8955 79.4531 14 78.3486 14H42.3486C41.2441 14 40.3486 14.8955 40.3486 16V24H36.3486V16ZM76.3486 24H44.3486V18H76.3486V24ZM112.349 108C112.349 109.104 111.453 110 110.349 110H10.3486C9.24414 110 8.34863 109.104 8.34863 108V80.8535L52.3486 86.9219V92C52.3486 95.3135 55.0352 98 58.3486 98H62.3486C65.6621 98 68.3486 95.3135 68.3486 92V86.9219L112.349 80.8535V108ZM64.3486 92C64.3486 93.1045 63.4531 94 62.3486 94H58.3486C57.2441 94 56.3486 93.1045 56.3486 92V80C56.3486 78.8955 57.2441 78 58.3486 78H62.3486C63.4531 78 64.3486 78.8955 64.3486 80V92ZM116.349 74.5195C116.35 75.5166 115.616 76.3623 114.629 76.5019L114.074 76.5781L68.3486 82.8838V80C68.3486 76.6865 65.6621 74 62.3486 74H58.3486C55.0352 74 52.3486 76.6865 52.3486 80V82.8838L6.07031 76.5019C5.08301 76.3633 4.34766 75.5176 4.34863 74.5195V30C4.34863 28.8955 5.24414 28 6.34863 28H114.349C115.453 28 116.349 28.8955 116.349 30V74.5195Z" fill="url(#paint0_linear)"/>
</g>
<defs>
<linearGradient id="paint0_linear" x1="60.3486" y1="6" x2="60.3486" y2="114" gradientUnits="userSpaceOnUse">
<stop stop-color="#FACA21"/>
<stop offset="1" stop-color="#F99500"/>
</linearGradient>
<clipPath id="clip0">
<rect width="120" height="120" fill="white" transform="translate(0.348633)"/>
</clipPath>
</defs>
</svg>
