<svg width="91" height="90" viewBox="0 0 91 90" fill="none" xmlns="http://www.w3.org/2000/svg">
<g clip-path="url(#clip0)">
<path d="M21.0716 39.3273V36.4506C21.0716 32.4846 17.8451 29.2588 13.8798 29.2588C9.91446 29.2588 6.68799 32.4846 6.68799 36.4506V39.3273C6.68799 43.2926 9.91446 46.5191 13.8798 46.5191C17.8451 46.5191 21.0716 43.2926 21.0716 39.3273ZM18.1949 39.3273C18.1949 41.7061 16.2586 43.6424 13.8798 43.6424C11.501 43.6424 9.56471 41.7061 9.56471 39.3273V36.4506C9.56471 34.0711 11.501 32.1355 13.8798 32.1355C16.2586 32.1355 18.1949 34.0711 18.1949 36.4506V39.3273Z" fill="url(#paint0_linear)"/>
<path d="M29.7018 65.2177V68.0944C29.7018 70.4731 31.6381 72.4095 34.0169 72.4095H38.3319V88.2314C38.3319 89.0264 38.9767 89.6698 39.7703 89.6698H51.2772C52.0708 89.6698 52.7155 89.0264 52.7155 88.2314V72.4095H57.0306C59.4094 72.4095 61.3457 70.4731 61.3457 68.0944V65.2177C61.3457 64.4219 60.701 63.7793 59.9073 63.7793H31.1401C30.3465 63.7793 29.7018 64.4219 29.7018 65.2177ZM46.9621 86.793V81.0396C46.9621 80.2439 46.3174 79.6012 45.5237 79.6012C44.7301 79.6012 44.0854 80.2439 44.0854 81.0396V86.793H41.2087V78.1629H49.8388V86.793H46.9621ZM32.5785 66.656H58.469V68.0944C58.469 68.888 57.8228 69.5327 57.0306 69.5327H51.2772C50.4836 69.5327 49.8388 70.1754 49.8388 70.9711V75.2862H41.2087V70.9711C41.2087 70.1754 40.5639 69.5327 39.7703 69.5327H34.0169C33.2246 69.5327 32.5785 68.888 32.5785 68.0944V66.656Z" fill="url(#paint1_linear)"/>
<path d="M19.6332 46.5195H8.12637C4.16105 46.5195 0.93457 49.7453 0.93457 53.7113V68.0949C0.93457 68.8899 1.5793 69.5333 2.37293 69.5333H6.68801V88.2319C6.68801 89.027 7.33274 89.6703 8.12637 89.6703H19.6332C20.4269 89.6703 21.0716 89.027 21.0716 88.2319V69.5333H25.3867C26.1803 69.5333 26.825 68.8899 26.825 68.0949V53.7113C26.825 49.7453 23.5986 46.5195 19.6332 46.5195ZM15.3182 86.7936V69.5333H12.4414V86.7936H9.56473V66.6566H18.1949V86.7936H15.3182ZM23.9483 66.6566H21.0716V55.1497H18.1949V63.7798H9.56473V55.1497H6.68801V66.6566H3.81129V53.7113C3.81129 51.3319 5.7476 49.3962 8.12637 49.3962H19.6332C22.012 49.3962 23.9483 51.3319 23.9483 53.7113V66.6566Z" fill="url(#paint2_linear)"/>
<path d="M84.3594 39.3273V36.4506C84.3594 32.4846 81.133 29.2588 77.1676 29.2588C73.2023 29.2588 69.9758 32.4846 69.9758 36.4506V39.3273C69.9758 43.2926 73.2023 46.5191 77.1676 46.5191C81.133 46.5191 84.3594 43.2926 84.3594 39.3273ZM81.4827 39.3273C81.4827 41.7061 79.5464 43.6424 77.1676 43.6424C74.7889 43.6424 72.8525 41.7061 72.8525 39.3273V36.4506C72.8525 34.0711 74.7889 32.1355 77.1676 32.1355C79.5464 32.1355 81.4827 34.0711 81.4827 36.4506V39.3273Z" fill="url(#paint3_linear)"/>
<path d="M82.9211 46.5195H71.4142C67.4489 46.5195 64.2224 49.7453 64.2224 53.7113V68.0949C64.2224 68.8899 64.8671 69.5333 65.6608 69.5333H69.9759V88.2319C69.9759 89.027 70.6206 89.6703 71.4142 89.6703H82.9211C83.7147 89.6703 84.3594 89.027 84.3594 88.2319V69.5333H88.6745C89.4682 69.5333 90.1129 68.8899 90.1129 68.0949V53.7113C90.1129 49.7453 86.8864 46.5195 82.9211 46.5195ZM72.8526 78.1634H75.7293V86.7936H72.8526V78.1634ZM78.606 86.7936V78.1634H81.4827V86.7936H78.606ZM87.2362 66.6566H84.3594V55.1497H81.4827V75.2867H72.8526V55.1497H69.9759V66.6566H67.0991V53.7113C67.0991 51.3319 69.0354 49.3962 71.4142 49.3962H82.9211C85.2999 49.3962 87.2362 51.3319 87.2362 53.7113V66.6566Z" fill="url(#paint4_linear)"/>
<path d="M67.0991 33.8558V10.5604C67.0991 9.76465 66.4543 9.12202 65.6607 9.12202H63.4948C57.072 9.12202 51.0313 6.29236 46.9206 1.35924L46.6284 1.00948C46.082 0.354913 44.9653 0.354913 44.4189 1.00948L44.1268 1.35924C40.0161 6.29236 33.9754 9.12202 27.5526 9.12202H25.3867C24.593 9.12202 23.9483 9.76465 23.9483 10.5604V33.8558C23.9483 39.52 27.0034 44.7846 31.9197 47.5932L42.1118 53.4176C40.6994 54.4676 39.7703 56.1342 39.7703 58.0262C39.7703 61.1986 42.3506 63.7797 45.5237 63.7797C48.6968 63.7797 51.2771 61.1986 51.2771 58.0262C51.2771 56.1342 50.348 54.4676 48.9342 53.419L59.1263 47.5953C64.044 44.7846 67.0991 39.52 67.0991 33.8558ZM45.5237 60.903C43.9371 60.903 42.647 59.6128 42.647 58.0262C42.647 56.4397 43.9371 55.1495 45.5237 55.1495C47.1102 55.1495 48.4004 56.4397 48.4004 58.0262C48.4004 59.6128 47.1102 60.903 45.5237 60.903ZM45.5237 52.0551L33.3482 45.0965C29.3246 42.7963 26.825 38.4904 26.825 33.8558V11.9987H27.5526C34.4178 11.9987 40.8996 9.1459 45.5237 4.1278C50.1478 9.1459 56.6295 11.9987 63.4948 11.9987H64.2224V33.8558C64.2224 38.4904 61.7228 42.7963 57.6992 45.0951L45.5237 52.0551Z" fill="url(#paint5_linear)"/>
<path d="M45.5237 13.4375C36.8002 13.4375 29.7018 20.5352 29.7018 29.2595C29.7018 37.983 36.8002 45.0814 45.5237 45.0814C54.2473 45.0814 61.3457 37.983 61.3457 29.2595C61.3457 20.5352 54.2473 13.4375 45.5237 13.4375ZM45.5237 42.2047C38.3867 42.2047 32.5785 36.3979 32.5785 29.2595C32.5785 22.1203 38.3867 16.3142 45.5237 16.3142C52.6608 16.3142 58.469 22.1203 58.469 29.2595C58.469 36.3979 52.6608 42.2047 45.5237 42.2047Z" fill="url(#paint6_linear)"/>
<path d="M44.8375 33.7308L42.2256 31.1188L40.1917 33.1527L44.5067 37.4678C44.7799 37.741 45.1465 37.8892 45.5237 37.8892C45.6417 37.8892 45.7597 37.8745 45.8763 37.8457C46.3665 37.7221 46.7563 37.3484 46.9017 36.8631L51.2167 22.4795L48.4608 21.6543L44.8375 33.7308Z" fill="url(#paint7_linear)"/>
</g>
<defs>
<linearGradient id="paint0_linear" x1="13.8798" y1="29.2588" x2="13.8798" y2="46.5191" gradientUnits="userSpaceOnUse">
<stop offset="0.0364583" stop-color="#4556CB"/>
<stop offset="1" stop-color="#922E9D"/>
</linearGradient>
<linearGradient id="paint1_linear" x1="45.5237" y1="63.7793" x2="45.5237" y2="89.6698" gradientUnits="userSpaceOnUse">
<stop offset="0.0364583" stop-color="#4556CB"/>
<stop offset="1" stop-color="#922E9D"/>
</linearGradient>
<linearGradient id="paint2_linear" x1="13.8798" y1="46.5195" x2="13.8798" y2="89.6703" gradientUnits="userSpaceOnUse">
<stop offset="0.0364583" stop-color="#4556CB"/>
<stop offset="1" stop-color="#922E9D"/>
</linearGradient>
<linearGradient id="paint3_linear" x1="77.1676" y1="29.2588" x2="77.1676" y2="46.5191" gradientUnits="userSpaceOnUse">
<stop offset="0.0364583" stop-color="#4556CB"/>
<stop offset="1" stop-color="#922E9D"/>
</linearGradient>
<linearGradient id="paint4_linear" x1="77.1677" y1="46.5195" x2="77.1677" y2="89.6703" gradientUnits="userSpaceOnUse">
<stop offset="0.0364583" stop-color="#4556CB"/>
<stop offset="1" stop-color="#922E9D"/>
</linearGradient>
<linearGradient id="paint5_linear" x1="45.5237" y1="0.518555" x2="45.5237" y2="63.7797" gradientUnits="userSpaceOnUse">
<stop offset="0.0364583" stop-color="#4556CB"/>
<stop offset="1" stop-color="#922E9D"/>
</linearGradient>
<linearGradient id="paint6_linear" x1="45.5237" y1="13.4375" x2="45.5237" y2="45.0814" gradientUnits="userSpaceOnUse">
<stop offset="0.0364583" stop-color="#4556CB"/>
<stop offset="1" stop-color="#922E9D"/>
</linearGradient>
<linearGradient id="paint7_linear" x1="45.7042" y1="21.6543" x2="45.7042" y2="37.8892" gradientUnits="userSpaceOnUse">
<stop offset="0.0364583" stop-color="#4556CB"/>
<stop offset="1" stop-color="#922E9D"/>
</linearGradient>
<clipPath id="clip0">
<rect width="89.1783" height="89.1783" fill="white" transform="translate(0.93457 0.518555)"/>
</clipPath>
</defs>
</svg>
