<svg width="123" height="122" viewBox="0 0 123 122" fill="none" xmlns="http://www.w3.org/2000/svg">
<g clip-path="url(#clip0)">
<path d="M60.1066 102.886C59.6644 102.444 59.0511 102.189 58.4259 102.189C57.8006 102.189 57.1873 102.444 56.7451 102.886C56.303 103.328 56.0486 103.942 56.0486 104.567C56.0486 105.195 56.303 105.805 56.7451 106.247C57.1873 106.692 57.8006 106.944 58.4259 106.944C59.0511 106.944 59.6644 106.692 60.1066 106.247C60.5488 105.805 60.8031 105.192 60.8031 104.567C60.8031 103.942 60.5485 103.328 60.1066 102.886Z" fill="url(#paint0_linear)"/>
<path d="M71.4253 80.9556V63.4631C71.4253 62.6733 71.0331 61.9349 70.3786 61.493C69.7241 61.0511 68.8928 60.9631 68.1599 61.2579L27.1962 77.7555H14.0023C6.47394 77.7555 0.348877 83.8806 0.348877 91.4094C0.348877 98.9383 6.47394 105.063 14.0028 105.063H15.5739V119.339C15.5739 120.652 16.6382 121.717 17.9512 121.717H27.6562C28.9692 121.717 30.0335 120.652 30.0335 119.339V106.21L68.1611 121.545C68.4471 121.66 68.7482 121.717 69.0478 121.717C69.5156 121.717 69.9802 121.579 70.3791 121.309C71.0333 120.868 71.4253 120.129 71.4253 119.34V101.847C76.1927 100.763 79.7629 96.4925 79.7629 91.4016C79.7629 86.3106 76.1927 82.0403 71.4253 80.9556ZM25.2787 116.962H20.3285V105.063H25.2789V116.962H25.2787ZM25.2792 100.309H14.0028C9.09561 100.309 5.10344 96.3164 5.10344 91.4094C5.10344 86.5022 9.09561 82.5101 14.0028 82.5101H25.2801L25.2792 100.309ZM66.671 115.821H66.6707L30.0347 101.086V81.7379L56.0486 71.2613V94.8534C56.0486 96.1661 57.1129 97.2307 58.4259 97.2307C59.7388 97.2307 60.8031 96.1661 60.8031 94.8534V69.3464L66.671 66.9831V115.821ZM71.4253 96.8655V85.9372C73.5318 86.8572 75.0083 88.9596 75.0083 91.4014C75.0083 93.8431 73.5321 95.9455 71.4253 96.8655Z" fill="url(#paint1_linear)"/>
<path d="M102.442 89.0947H88.982C87.669 89.0947 86.6047 90.1593 86.6047 91.472C86.6047 92.7847 87.669 93.8493 88.982 93.8493H102.442C103.755 93.8493 104.819 92.7847 104.819 91.472C104.819 90.1593 103.755 89.0947 102.442 89.0947Z" fill="url(#paint2_linear)"/>
<path d="M91.4033 71.6746C90.475 70.7465 88.9697 70.7465 88.0411 71.6746L83.3983 76.3174C82.4699 77.2457 82.4699 78.751 83.3983 79.6796C83.8628 80.1436 84.4711 80.3759 85.0795 80.3759C85.6878 80.3759 86.2964 80.1436 86.7605 79.6796L91.4033 75.0368C92.3316 74.1084 92.3316 72.6031 91.4033 71.6746Z" fill="url(#paint3_linear)"/>
<path d="M91.5778 107.685L86.7798 102.886C85.8514 101.958 84.3461 101.958 83.4176 102.886C82.4892 103.815 82.4892 105.32 83.4176 106.249L88.2159 111.047C88.6801 111.511 89.2885 111.743 89.8968 111.743C90.5052 111.743 91.1138 111.511 91.5778 111.047C92.5061 110.119 92.5061 108.613 91.5778 107.685Z" fill="url(#paint4_linear)"/>
<path d="M112.557 0H68.3391C63.0958 0 58.83 4.26579 58.83 9.50913V10.46H18.8916C15.7455 10.46 13.1862 13.0197 13.1862 16.1655V53.7266C13.1862 56.8724 15.7455 59.432 18.8916 59.432H21.3481V66.7224C21.3481 67.6841 21.9274 68.5508 22.8156 68.9188C23.1096 69.0405 23.4185 69.0997 23.7249 69.0997C24.3435 69.0997 24.9516 68.8582 25.4063 68.4034L34.3777 59.432H81.5996C84.7457 59.432 87.305 56.8724 87.305 53.7266V46.5947H112.557C117.8 46.5947 122.066 42.3289 122.066 37.0856V9.50913C122.065 4.26579 117.8 0 112.557 0ZM82.5505 53.7266C82.5505 54.251 82.124 54.6775 81.5996 54.6775H33.3931C32.7626 54.6775 32.1578 54.928 31.7121 55.3738L26.1029 60.9832V57.0548C26.1029 55.742 25.0386 54.6775 23.7256 54.6775H18.8916C18.3672 54.6775 17.9407 54.251 17.9407 53.7266V16.1655C17.9407 15.6411 18.3672 15.2146 18.8916 15.2146H58.83V37.0856C58.83 42.3289 63.0958 46.5947 68.3391 46.5947H82.5505V53.7266ZM117.311 37.0856C117.311 39.7073 115.178 41.8402 112.557 41.8402H68.3391C65.7174 41.8402 63.5845 39.7073 63.5845 37.0856V9.50913C63.5845 6.88746 65.7174 4.75456 68.3391 4.75456H112.557C115.178 4.75456 117.311 6.88746 117.311 9.50913V37.0856Z" fill="url(#paint5_linear)"/>
<path d="M99.9985 21.2386L83.7284 11.845C82.9929 11.4202 82.0866 11.4202 81.3511 11.845C80.6156 12.2696 80.1625 13.0545 80.1625 13.9037V32.6906C80.1625 33.5398 80.6156 34.3248 81.3511 34.7494C81.7189 34.9619 82.1292 35.0679 82.5398 35.0679C82.9503 35.0679 83.3606 34.9619 83.7284 34.7494L99.9985 25.3558C100.734 24.9312 101.187 24.1462 101.187 23.2971C101.187 22.4479 100.734 21.6632 99.9985 21.2386ZM84.917 28.5732V18.0214L94.0553 23.2973L84.917 28.5732Z" fill="url(#paint6_linear)"/>
<path d="M51.3442 24.9619H27.5714C26.2584 24.9619 25.1941 26.0265 25.1941 27.3392C25.1941 28.6519 26.2584 29.7165 27.5714 29.7165H51.3442C52.6572 29.7165 53.7215 28.6519 53.7215 27.3392C53.7215 26.0265 52.6572 24.9619 51.3442 24.9619Z" fill="url(#paint7_linear)"/>
<path d="M53.0247 38.971C52.5825 38.5285 51.9692 38.2744 51.344 38.2744C50.7187 38.2744 50.1054 38.5285 49.6632 38.971C49.221 39.4131 48.9667 40.0265 48.9667 40.6517C48.9667 41.2769 49.221 41.8903 49.6632 42.3322C50.1054 42.7744 50.7187 43.029 51.344 43.029C51.9716 43.029 52.5825 42.7746 53.0247 42.3322C53.4669 41.8903 53.7212 41.2769 53.7212 40.6517C53.7212 40.0265 53.4669 39.4131 53.0247 38.971Z" fill="url(#paint8_linear)"/>
<path d="M42.4268 38.2744H27.5714C26.2584 38.2744 25.1941 39.339 25.1941 40.6517C25.1941 41.9644 26.2584 43.029 27.5714 43.029H42.4268C43.7397 43.029 44.8041 41.9644 44.8041 40.6517C44.8041 39.339 43.7397 38.2744 42.4268 38.2744Z" fill="url(#paint9_linear)"/>
</g>
<defs>
<linearGradient id="paint0_linear" x1="58.4259" y1="102.189" x2="58.4259" y2="106.944" gradientUnits="userSpaceOnUse">
<stop stop-color="#922E9D"/>
<stop offset="1" stop-color="#4556CB"/>
</linearGradient>
<linearGradient id="paint1_linear" x1="40.0559" y1="61.0859" x2="40.0559" y2="121.717" gradientUnits="userSpaceOnUse">
<stop stop-color="#922E9D"/>
<stop offset="1" stop-color="#4556CB"/>
</linearGradient>
<linearGradient id="paint2_linear" x1="95.7119" y1="89.0947" x2="95.7119" y2="93.8493" gradientUnits="userSpaceOnUse">
<stop stop-color="#922E9D"/>
<stop offset="1" stop-color="#4556CB"/>
</linearGradient>
<linearGradient id="paint3_linear" x1="87.4008" y1="70.9785" x2="87.4008" y2="80.3759" gradientUnits="userSpaceOnUse">
<stop stop-color="#922E9D"/>
<stop offset="1" stop-color="#4556CB"/>
</linearGradient>
<linearGradient id="paint4_linear" x1="87.4977" y1="102.19" x2="87.4977" y2="111.743" gradientUnits="userSpaceOnUse">
<stop stop-color="#922E9D"/>
<stop offset="1" stop-color="#4556CB"/>
</linearGradient>
<linearGradient id="paint5_linear" x1="67.6259" y1="0" x2="67.6259" y2="69.0997" gradientUnits="userSpaceOnUse">
<stop stop-color="#922E9D"/>
<stop offset="1" stop-color="#4556CB"/>
</linearGradient>
<linearGradient id="paint6_linear" x1="90.6748" y1="11.5264" x2="90.6748" y2="35.0679" gradientUnits="userSpaceOnUse">
<stop stop-color="#922E9D"/>
<stop offset="1" stop-color="#4556CB"/>
</linearGradient>
<linearGradient id="paint7_linear" x1="39.4578" y1="24.9619" x2="39.4578" y2="29.7165" gradientUnits="userSpaceOnUse">
<stop stop-color="#922E9D"/>
<stop offset="1" stop-color="#4556CB"/>
</linearGradient>
<linearGradient id="paint8_linear" x1="51.344" y1="38.2744" x2="51.344" y2="43.029" gradientUnits="userSpaceOnUse">
<stop stop-color="#922E9D"/>
<stop offset="1" stop-color="#4556CB"/>
</linearGradient>
<linearGradient id="paint9_linear" x1="34.9991" y1="38.2744" x2="34.9991" y2="43.029" gradientUnits="userSpaceOnUse">
<stop stop-color="#922E9D"/>
<stop offset="1" stop-color="#4556CB"/>
</linearGradient>
<clipPath id="clip0">
<rect width="121.717" height="121.717" fill="white" transform="translate(0.348633)"/>
</clipPath>
</defs>
</svg>
