<svg width="108" height="108" viewBox="0 0 108 108" fill="none" xmlns="http://www.w3.org/2000/svg">
<g clip-path="url(#clip0)">
<path d="M77.9646 81.3074L55.7617 75.1407V69.8009L60.4404 71.2047L62.912 71.2771C68.4791 71.2771 73.0079 66.7483 73.0079 61.1811C73.0079 60.1538 73.2513 59.1272 73.7103 58.2085L75.8003 54.0258C78.0833 53.9188 79.9064 52.0275 79.9064 49.7193C79.9064 48.7938 79.6016 47.8759 79.0441 47.1323L78.4008 46.2751C76.0345 43.1214 74.7326 39.2132 74.7326 35.2688C74.7326 33.46 74.2753 31.7227 73.4256 30.1834L73.9966 29.6124C77.8079 25.8011 79.9064 20.7341 79.9064 15.343C79.9064 11.0053 78.4732 6.70388 75.8711 3.23357L73.6959 0.341797L72.5852 0.61969C63.5705 2.87316 54.2198 4.01673 44.7916 4.01673H43.8443C28.5441 4.01673 16.0953 16.4655 16.0953 31.7665C16.0953 36.4713 17.3029 41.1307 19.6633 45.3665L25.6843 54.3155C27.4401 56.9218 28.8338 59.7588 29.8283 62.7441C31.0148 66.3036 31.6169 70.0097 31.6169 73.7605V75.1407L9.41409 81.3074C4.20905 82.7549 0.5737 87.5372 0.5737 92.9402V107.494H86.8049V92.9402C86.8049 87.5372 83.1696 82.7549 77.9646 81.3074ZM54.3352 78.3238L55.584 78.6708L53.0299 88.8888L46.5659 83.5036L54.3352 78.3238ZM75.6412 48.345L76.2829 49.2006C76.3966 49.3521 76.4572 49.5315 76.4572 49.7193C76.4572 50.1959 76.0707 50.5816 75.5949 50.5816H73.6665L70.6265 56.6649C69.9275 58.0578 69.5587 59.6207 69.5587 61.1811C69.5587 64.846 66.5768 67.8278 62.912 67.8278H61.189L44.1845 62.7264L43.1942 66.0308L52.3124 68.7659V75.5289L43.6893 81.2771L35.0662 75.5289V73.7605C35.0662 72.1243 34.9315 70.4982 34.7251 68.8838L35.3609 68.2472C39.6194 63.9887 41.9647 58.3273 41.9647 52.3062V50.5816H38.5154C36.6131 50.5816 35.0662 49.0347 35.0662 47.1323C35.0662 45.23 36.6131 43.6831 38.5154 43.6831H41.9647V39.7202C41.9647 37.1054 42.8632 34.5412 44.4969 32.4991C46.704 29.7429 49.9933 28.1615 53.5234 28.1615H64.176C66.0749 28.1615 67.8602 28.9017 69.2016 30.2432C70.544 31.5855 71.2833 33.3716 71.2833 35.2688C71.2833 39.9551 72.8303 44.5976 75.6412 48.345ZM33.0435 78.3238L40.8127 83.5036L34.3487 88.8888L31.7946 78.6708L33.0435 78.3238ZM28.5458 52.3913L22.6022 43.566C20.6023 39.9669 19.5446 35.8861 19.5446 31.7665C19.5446 18.3678 30.4464 7.46598 43.8443 7.46598H44.7916C54.139 7.46598 63.4139 6.37462 72.3132 4.23736L73.1115 5.30346C75.269 8.18177 76.4572 11.7464 76.4572 15.343C76.4572 19.8112 74.7174 24.0124 71.5578 27.1737L71.2665 27.4651C69.3187 25.6924 66.8252 24.7122 64.176 24.7122H53.5234C48.939 24.7122 44.6687 26.7644 41.8047 30.345C39.6834 32.996 38.5154 36.324 38.5154 39.7202V40.2338C34.7108 40.2338 31.6169 43.3277 31.6169 47.1323C31.6169 50.9109 34.6712 53.9896 38.4397 54.0308C38.0893 57.9685 36.5373 61.6536 33.9698 64.6666C33.7214 63.6527 33.4334 62.6472 33.1016 61.6536C32.0085 58.3719 30.4734 55.2553 28.5458 52.3913ZM83.3557 104.045H4.02295V92.9402C4.02295 89.0825 6.61999 85.6644 10.3387 84.6311L28.47 79.5954L32.3361 95.0564L43.6893 85.5954L55.0425 95.0581L58.9095 79.5971L77.0399 84.6328C80.7586 85.6644 83.3557 89.0808 83.3557 92.9402V104.045Z" fill="url(#paint0_linear)"/>
<path d="M100.428 36.959L97.9889 39.3977C101.899 43.3059 104.051 48.5034 104.051 54.0309C104.051 59.5585 101.899 64.7568 97.9889 68.665L100.428 71.1029C104.989 66.5437 107.5 60.4814 107.5 54.0309C107.5 47.5813 104.989 41.519 100.428 36.959Z" fill="url(#paint1_linear)"/>
<path d="M95.551 41.8359L93.1123 44.2747C95.7178 46.8801 97.1527 50.3454 97.1527 54.0304C97.1527 57.7163 95.7178 61.1807 93.1123 63.787L95.551 66.2257C98.8066 62.9693 100.602 58.6367 100.602 54.0304C100.602 49.4241 98.8066 45.0923 95.551 41.8359Z" fill="url(#paint2_linear)"/>
<path d="M90.6736 46.7139L88.2349 49.1518C89.5367 50.4562 90.2542 52.1892 90.2542 54.0309C90.2542 55.8734 89.5367 57.6065 88.2349 58.91L90.6736 61.3488C92.6273 59.3934 93.7035 56.7955 93.7035 54.0309C93.7035 51.2663 92.6273 48.6692 90.6736 46.7139Z" fill="url(#paint3_linear)"/>
</g>
<defs>
<linearGradient id="paint0_linear" x1="43.6893" y1="0.341797" x2="43.6893" y2="107.494" gradientUnits="userSpaceOnUse">
<stop stop-color="#4556CB"/>
<stop offset="1" stop-color="#922E9D"/>
</linearGradient>
<linearGradient id="paint1_linear" x1="102.745" y1="36.959" x2="102.745" y2="71.1029" gradientUnits="userSpaceOnUse">
<stop stop-color="#4556CB"/>
<stop offset="1" stop-color="#922E9D"/>
</linearGradient>
<linearGradient id="paint2_linear" x1="96.8571" y1="41.8359" x2="96.8571" y2="66.2257" gradientUnits="userSpaceOnUse">
<stop stop-color="#4556CB"/>
<stop offset="1" stop-color="#922E9D"/>
</linearGradient>
<linearGradient id="paint3_linear" x1="90.9692" y1="46.7139" x2="90.9692" y2="61.3488" gradientUnits="userSpaceOnUse">
<stop stop-color="#4556CB"/>
<stop offset="1" stop-color="#922E9D"/>
</linearGradient>
<clipPath id="clip0">
<rect width="107.153" height="107.153" fill="white" transform="translate(0.563477 0.341797)"/>
</clipPath>
</defs>
</svg>
