<svg width="81" height="96" viewBox="0 0 81 96" fill="none" xmlns="http://www.w3.org/2000/svg">
<path d="M42.5273 95.0866C40.6603 94.6486 38.8624 94.1415 37.295 92.966C35.9351 91.9518 34.8748 90.7302 34.022 89.2781C33.8606 89.0015 33.4457 88.6788 33.1461 88.6788C26.9458 88.8862 21.483 83.9997 21.1142 77.638C21.1142 77.5919 21.0681 77.5228 21.022 77.4306C20.2844 77.4306 19.5238 77.4536 18.7631 77.4306C17.772 77.3845 17.2419 76.9235 17.2188 76.0937C17.1958 75.2639 17.749 74.6646 18.694 74.6877C21.1373 74.7568 23.2809 74.0653 25.2401 72.6362C25.9546 72.1061 26.7844 72.2905 27.1993 72.9128C27.6603 73.5582 27.4989 74.388 26.7383 74.9182C26.0238 75.4253 25.2631 75.8862 24.4564 76.3011C24.0185 76.5316 23.8341 76.7852 23.8802 77.2923C24.1337 80.9341 25.8855 83.6079 29.1816 85.1061C32.4085 86.5813 35.5202 86.1203 38.3784 84.0228C38.6319 83.8384 38.8394 83.6309 39.0929 83.4465C39.8305 82.9164 40.5681 82.9625 41.0752 83.5387C41.6053 84.1611 41.5823 84.9908 40.8216 85.544C39.6922 86.3738 38.4706 87.0653 37.272 87.8259C37.0645 87.9412 36.834 88.0334 36.5344 88.1717C38.3323 90.9607 40.8216 92.4359 44.0947 92.3206C47.3908 92.1823 49.7879 90.5227 51.4244 87.411C50.7099 87.411 50.1337 87.4341 49.5805 87.411C48.7507 87.388 48.2436 86.9731 48.1744 86.1433C48.1053 85.3596 48.6354 84.7834 49.5113 84.6912C49.9262 84.6451 50.3642 84.6681 50.8021 84.6681C51.1939 84.6681 51.6088 84.6681 52.0698 84.6681C52.0698 81.3029 52.0698 77.9607 52.0698 74.4111C50.272 74.5033 48.451 74.4341 46.6993 74.7338C45.0166 75.0104 43.8411 76.6238 43.6106 78.3526C43.5415 78.8135 43.4493 79.4128 43.1496 79.6894C42.8269 79.966 42.1124 80.1735 41.7667 80.0121C41.3518 79.8047 40.8908 79.1823 40.8677 78.6983C40.7064 75.4483 43.4954 72.1983 46.7684 71.8987C48.4971 71.7373 50.2489 71.8756 52.0698 71.8756C52.0698 65.3987 52.0698 59.1292 52.0698 52.7444C51.678 52.7444 51.3092 52.7444 50.9404 52.7444C44.2099 52.7444 37.4794 52.7444 30.7489 52.7444C30.5415 52.7444 30.311 52.7444 30.1035 52.7444C28.9972 52.7214 28.3748 52.2604 28.3287 51.4076C28.3057 50.5547 28.9972 49.9785 30.1035 49.9554C35.7277 49.9554 41.3518 49.9554 46.9759 49.9554C48.6585 49.9554 50.3411 49.9554 52.0698 49.9554C52.0698 42.1877 52.0698 34.5122 52.0698 26.6984C51.7471 26.6984 51.4244 26.6984 51.1017 26.6984C47.8056 26.6984 44.5326 26.7214 41.2365 26.6984C37.1106 26.6062 33.8837 23.7019 33.6762 19.7835C33.6071 18.6771 34.045 18.0317 34.9209 17.9856C35.7968 17.9395 36.3039 18.4927 36.4422 19.576C36.6957 21.9041 38.194 23.7019 40.4528 23.7941C44.3021 23.9324 48.1744 23.8402 52.1159 23.8402C52.1159 20.8207 52.1159 17.8012 52.1159 14.6665C51.3783 14.6665 50.6177 14.6665 49.8801 14.6665C48.7968 14.6434 48.1744 14.1363 48.1744 13.2835C48.1744 12.4307 48.8198 11.9236 49.9032 11.9005C50.5716 11.9005 51.2631 11.9005 51.9315 11.8775C51.9776 11.8775 52.0468 11.8314 52.0929 11.8083C52.3925 8.39699 49.8571 4.9165 46.2613 3.81012C42.5503 2.65764 38.5397 4.22501 36.6035 7.6594C36.9262 7.7977 37.2489 7.936 37.5716 8.09734C41.7897 10.0796 44.1638 13.3757 44.5787 18.0317C44.694 19.4147 44.233 20.1292 43.2879 20.1523C42.389 20.1753 41.9049 19.553 41.8128 18.1931C41.467 12.8686 36.373 8.95018 31.1408 10.0335C26.7383 10.9324 23.7419 14.8048 23.9263 19.2995C23.9263 19.5069 23.9493 19.7374 23.9493 19.9448C23.9493 21.2356 23.2809 21.8119 22.0131 21.5122C20.1922 21.0743 18.3944 21.0512 16.5734 21.6505C11.9866 23.1257 9.405 28.2197 10.9724 32.8526C12.1018 32.5991 13.2082 32.3225 14.3376 32.115C15.0291 31.9998 15.7436 31.9767 16.4351 31.9537C17.3571 31.9306 17.9103 32.4147 18.0025 33.1753C18.0717 33.959 17.5185 34.5352 16.5965 34.6735C15.3288 34.881 14.038 34.9732 12.7933 35.2959C7.99898 36.5175 4.17274 41.0583 3.5043 46.2444C2.85891 51.3154 5.39437 56.5476 9.5433 58.8987C10.9724 57.7462 12.3093 56.5937 13.7153 55.5565C14.4068 55.0494 15.2596 55.326 15.6284 55.9714C15.9972 56.5937 15.8128 57.3313 15.1674 57.8384C15.0061 57.9767 14.8217 58.0919 14.6373 58.2072C12.3784 59.6824 10.9724 61.7107 10.5575 64.3845C10.1887 66.7125 10.7188 68.8331 12.0327 70.7692C12.2632 71.0919 12.5167 71.4146 12.7241 71.7604C13.1621 72.4749 13.0468 73.1894 12.4475 73.6504C11.8713 74.0884 11.0876 74.0192 10.5575 73.3969C9.33585 72.0139 8.50607 70.4235 8.04507 68.6487C7.49188 66.482 7.53798 64.3153 8.25252 62.1948C8.43692 61.6877 8.29862 61.4572 7.88373 61.1575C1.95998 57.0086 -0.321934 51.3154 1.06104 44.2622C1.79863 40.482 3.94224 37.4625 7.03089 35.1345C7.44578 34.8118 7.88373 34.5352 8.36777 34.2126C7.00784 30.0636 7.51493 26.1913 10.3039 22.7799C13.0468 19.4147 16.7117 18.0778 21.0681 18.5158C21.1834 16.4644 21.6674 14.5743 22.7277 12.8917C25.0557 9.18068 28.4209 7.24451 32.8234 7.15231C33.4688 7.12926 33.7915 6.94486 34.0911 6.39167C36.4422 2.1275 41.4901 -0.131366 46.1461 0.951966C51.1017 2.10445 54.6283 6.23033 54.8819 11.186C54.8819 11.3934 54.9049 11.6009 54.951 11.9697C55.9422 11.9697 56.9102 12.0158 57.8553 11.9466C58.0627 11.9236 58.2702 11.5778 58.4085 11.3243C59.3996 9.41117 61.3358 8.44309 63.4794 8.78883C65.4616 9.11153 67.006 10.702 67.3056 12.7303C67.6283 14.897 66.3375 17.0175 64.2861 17.7782C62.1195 18.5619 59.6992 17.7782 58.639 15.7498C58.178 14.8739 57.6709 14.6434 56.795 14.7356C56.2188 14.8048 55.6425 14.7356 54.9971 14.7356C54.9971 17.8012 54.9971 20.7977 54.9971 23.8402C55.2968 23.8633 55.5503 23.8863 55.8269 23.8863C59.123 23.8863 62.3961 23.9324 65.6921 23.8633C66.2684 23.8633 66.9599 23.5636 67.3978 23.1718C68.9882 21.6736 70.4865 20.1062 72.0308 18.5158C70.9244 16.4874 70.9705 14.5051 72.5609 12.7303C74.0592 11.0477 76.5946 10.725 78.5308 11.9466C80.4439 13.1452 81.2045 15.5885 80.3517 17.686C79.4989 19.7604 77.1939 20.9821 75.0042 20.4519C74.3819 20.2906 74.0361 20.475 73.6443 20.8668C72.1921 22.342 70.717 23.7711 69.2879 25.2463C68.3429 26.1913 67.2595 26.6523 65.8996 26.6523C62.6035 26.6292 59.3305 26.6523 56.0344 26.6523C55.7117 26.6523 55.3659 26.6523 54.9971 26.6523C54.9971 28.5884 54.9971 30.4094 54.9971 32.3686C55.3429 32.3686 55.6656 32.3686 55.9883 32.3686C60.4829 32.3686 64.9546 32.3916 69.4492 32.3686C70.8553 32.3686 72.0308 32.8065 72.9989 33.8207C73.7365 34.6044 74.5432 35.3189 75.2808 36.1026C75.9723 36.8172 75.9953 37.6469 75.396 38.2232C74.7967 38.7994 74.0592 38.7764 73.3446 38.0849C72.5379 37.3242 71.8003 36.4945 70.9705 35.7569C70.6248 35.4572 70.1177 35.1576 69.7028 35.1576C64.9085 35.1115 60.1141 35.1345 55.3198 35.1345C55.2276 35.1345 55.1585 35.1806 55.0202 35.2267C55.0202 37.8313 55.0202 40.4129 55.0202 43.1097C56.0574 43.1097 57.0255 43.1558 57.9936 43.0867C58.2471 43.0636 58.5468 42.6948 58.6851 42.4182C59.7223 40.482 61.8429 39.4909 63.9634 39.975C65.9918 40.4359 67.5361 42.303 67.6053 44.4235C67.6744 46.498 66.2684 48.4111 64.1939 49.0335C62.0273 49.6788 59.6992 48.7108 58.7081 46.6132C58.4315 46.037 58.1088 45.8757 57.5326 45.8987C56.7028 45.9448 55.8961 45.8987 55.0202 45.8987C55.0202 49.287 55.0202 52.56 55.0202 55.9253C55.2968 55.9483 55.5503 55.9944 55.8269 55.9944C60.068 55.9944 64.3092 55.9944 68.5503 56.0175C69.1035 56.0175 69.4031 55.9022 69.6797 55.349C70.6478 53.3437 72.8145 52.3065 74.8889 52.7905C77.0787 53.2976 78.5769 55.1416 78.5769 57.3544C78.5769 59.5441 77.1248 61.388 75.0042 61.9182C72.8606 62.4483 70.6939 61.4572 69.6797 59.4288C69.4723 59.0139 69.3109 58.7373 68.7577 58.7373C64.3322 58.7604 59.9067 58.7604 55.4812 58.7604C55.3659 58.7604 55.2507 58.7834 55.0432 58.8065C55.0432 61.826 55.0432 64.8685 55.0432 67.9341C55.2968 67.9572 55.5273 68.0033 55.7578 68.0033C59.2613 68.0033 62.7648 68.0033 66.2684 68.0263C66.7985 68.0263 67.0521 67.888 67.3056 67.3809C68.389 65.1451 70.8092 64.2001 73.1372 65.0068C75.3269 65.7905 76.6177 68.0955 76.1336 70.3774C75.6496 72.6593 73.4829 74.2728 71.0858 74.0423C69.334 73.8809 68.0893 72.9359 67.2595 71.3685C67.1212 71.115 66.7755 70.7692 66.5219 70.7692C62.7648 70.7462 59.0308 70.7462 55.2737 70.7692C55.2276 70.7692 55.1585 70.8153 55.0432 70.8614C55.0432 73.2125 55.0432 75.6096 55.0432 78.1221C55.5503 78.1221 56.0574 78.1221 56.5645 78.1221C58.3393 78.1221 60.1372 78.1221 61.912 78.1221C63.1797 78.1221 64.24 78.5369 65.139 79.4359C65.9918 80.3118 66.8907 81.1646 67.7436 82.0405C68.1354 82.4554 68.4581 82.5245 69.0343 82.3862C71.5698 81.6947 74.1053 83.193 74.7737 85.6823C75.4421 88.1717 73.99 90.6841 71.4315 91.4217C69.0113 92.1132 66.4297 90.661 65.7152 88.1947C65.4156 87.1345 65.4156 86.0742 65.9457 85.06C66.1762 84.599 66.1301 84.2994 65.7383 83.9536C64.8854 83.1699 64.0787 82.294 63.2258 81.5103C62.9492 81.2568 62.5574 80.9341 62.2117 80.9341C59.8145 80.888 57.4404 80.9111 54.951 80.9111C54.951 81.7178 54.951 82.4554 54.951 83.193C54.951 89.5547 51.6088 93.6575 45.3854 94.9483C45.2932 94.9713 45.2241 95.0405 45.1319 95.0635C44.256 95.0866 43.4032 95.0866 42.5273 95.0866ZM77.9084 15.8651C77.8854 14.8278 76.9404 13.9519 75.9031 13.998C74.8428 14.0441 73.99 14.9661 74.0592 16.0034C74.1053 17.0175 74.9811 17.8243 75.9953 17.8243C77.0556 17.8012 77.9545 16.9023 77.9084 15.8651ZM60.967 44.5157C60.967 45.576 61.8198 46.4288 62.9031 46.4058C63.9173 46.4058 64.7932 45.553 64.8163 44.5618C64.8393 43.5476 63.9404 42.6257 62.9031 42.6026C61.8429 42.6026 60.967 43.4554 60.967 44.5157ZM70.0716 88.8171C71.1549 88.8632 72.0308 88.0795 72.0769 86.9962C72.123 85.9359 71.2932 85.0369 70.2329 84.9908C69.2187 84.9447 68.3429 85.7515 68.2737 86.7657C68.2046 87.849 69.0113 88.7479 70.0716 88.8171ZM75.7418 57.3774C75.7418 56.3171 74.8659 55.4412 73.8287 55.4643C72.8375 55.4643 71.9616 56.3171 71.9155 57.3313C71.8694 58.3455 72.7684 59.2905 73.8056 59.3136C74.8428 59.2905 75.7418 58.4146 75.7418 57.3774ZM73.3907 69.3402C73.3677 68.3029 72.4457 67.404 71.4315 67.4501C70.4173 67.4962 69.5645 68.349 69.5645 69.3632C69.5645 70.4004 70.4404 71.2994 71.5006 71.2763C72.5148 71.2763 73.4138 70.4004 73.3907 69.3402ZM62.6957 11.4395C61.6585 11.4165 60.7595 12.2924 60.7595 13.3527C60.7595 14.3899 61.5432 15.2197 62.5805 15.2658C63.6407 15.3119 64.5397 14.4821 64.5858 13.4218C64.6319 12.3846 63.7329 11.4626 62.6957 11.4395Z" fill="url(#paint0_linear)"/>
<defs>
<linearGradient id="paint0_linear" x1="40.6842" y1="0.682617" x2="40.6842" y2="95.0866" gradientUnits="userSpaceOnUse">
<stop stop-color="#4556CB"/>
<stop offset="1" stop-color="#922E9D"/>
</linearGradient>
</defs>
</svg>
