<?xml version="1.0" encoding="UTF-8"?>
<!DOCTYPE svg PUBLIC "-//W3C//DTD SVG 1.1//EN" "http://www.w3.org/Graphics/SVG/1.1/DTD/svg11.dtd">
<!-- Creator: CorelDRAW X7 -->
<svg xmlns="http://www.w3.org/2000/svg" xml:space="preserve" width="11.2606mm" height="9.3132mm" version="1.1" style="shape-rendering:geometricPrecision; text-rendering:geometricPrecision; image-rendering:optimizeQuality; fill-rule:evenodd; clip-rule:evenodd"
viewBox="0 0 1126 931"
 xmlns:xlink="http://www.w3.org/1999/xlink">
 <defs>
  <style type="text/css">
   <![CDATA[
    .fil0 {fill:#000000}
    .fil1 {fill:#000000;fill-rule:nonzero}
   ]]>
  </style>
 </defs>
 <g id="Слой_x0020_1">
  <metadata id="CorelCorpID_0Corel-Layer"/>
  <g id="_1310396128">
   <path class="fil0" d="M114 468l333 0c-2,6 -3,12 -3,19 0,6 1,13 3,19l-295 0 0 264 863 0 0 -264 -454 0c2,-6 3,-13 3,-19 0,-7 -1,-13 -3,-19l491 0 0 339 -938 0 0 -339z"/>
   <path class="fil0" d="M624 286c40,0 73,33 73,73 0,41 -33,73 -73,73 -41,0 -73,-32 -73,-73 0,-40 32,-73 73,-73zm0 36c20,0 37,17 37,37 0,21 -17,38 -37,38 -21,0 -38,-17 -38,-38 0,-20 17,-37 38,-37z"/>
   <path class="fil0" d="M434 137c56,0 101,46 101,102 0,56 -45,101 -101,101 -56,0 -102,-45 -102,-101 0,-56 46,-102 102,-102zm0 40c34,0 61,28 61,62 0,34 -27,62 -61,62 -34,0 -62,-28 -62,-62 0,-34 28,-62 62,-62z"/>
   <path class="fil0" d="M650 70c41,0 74,33 74,73 0,41 -33,74 -74,74 -40,0 -73,-33 -73,-74 0,-40 33,-73 73,-73zm0 35c22,0 39,17 39,38 0,22 -17,39 -39,39 -21,0 -38,-17 -38,-39 0,-21 17,-38 38,-38z"/>
   <path class="fil0" d="M515 0c27,0 48,22 48,49 0,27 -21,49 -48,49 -28,0 -49,-22 -49,-49 0,-27 21,-49 49,-49zm0 25c13,0 24,11 24,24 0,13 -11,24 -24,24 -14,0 -24,-11 -24,-24 0,-13 10,-24 24,-24z"/>
   <path class="fil0" d="M504 426c33,0 60,27 60,61 0,33 -27,60 -60,60 -33,0 -60,-27 -60,-60 0,-34 27,-61 60,-61zm-1 34c15,0 27,12 27,27 0,14 -12,26 -27,26 -14,0 -26,-12 -26,-26 0,-15 12,-27 26,-27z"/>
   <path class="fil1" d="M770 682c-2,7 -6,13 -9,18 -3,5 -7,9 -10,12 -4,3 -8,5 -13,7 -5,1 -10,1 -15,1 -2,0 -5,0 -8,0 -2,0 -5,-1 -7,-1l0 -24c3,1 5,1 7,1 3,1 5,1 7,1 3,0 5,0 8,-1 2,-1 5,-2 7,-4 2,-2 4,-5 6,-8 2,-3 4,-7 6,-12l-52 -107 27 0 37 78 32 -78 26 0 -49 117z"/>
   <path id="1" class="fil1" d="M906 677c3,-12 6,-25 10,-39l23 -73 35 0 0 153 -25 0 0 -78c0,-11 1,-24 1,-39l0 0c-2,4 -3,9 -4,15 -2,5 -4,10 -5,16l-28 86 -15 0 -28 -86c-2,-6 -3,-11 -5,-16 -1,-6 -3,-11 -4,-15l-1 0c1,14 2,27 2,39l0 78 -25 0 0 -153 34 0 23 73c4,12 8,25 11,39l1 0z"/>
   <polygon class="fil1" points="207,630 287,630 287,563 306,563 306,717 287,717 287,647 207,647 207,717 188,717 188,563 207,563 "/>
   <polygon id="1" class="fil1" points="344,700 423,700 423,717 325,717 325,563 419,563 419,580 344,580 344,630 411,630 411,647 344,647 "/>
   <path id="2" class="fil1" d="M542 563l19 0 0 154 -19 0 0 -69c0,-26 0,-45 1,-59l-1 0c-6,12 -16,25 -27,42l-61 86 -19 0 0 -154 19 0 0 78c0,20 -1,36 -2,50l1 0c7,-11 16,-25 28,-42l61 -86zm-42 -37c8,0 13,-2 18,-6 5,-4 8,-11 9,-20l17 0c0,6 -1,11 -3,16 -2,5 -5,10 -9,14 -4,3 -8,6 -13,8 -6,2 -12,3 -19,3 -7,0 -13,-1 -18,-3 -5,-2 -10,-5 -13,-8 -4,-4 -7,-9 -9,-14 -2,-5 -3,-10 -3,-16l17 0c1,9 4,16 9,20 5,4 10,6 17,6z"/>
   <path id="3" class="fil1" d="M598 717l-19 0 0 -154 43 0c6,0 12,0 18,1 5,1 10,2 15,4 9,3 16,8 20,15 5,6 8,14 8,24 0,8 -2,15 -5,21 -3,6 -8,11 -14,15 -5,4 -13,7 -21,9 -9,2 -18,3 -29,3 -5,0 -10,-1 -16,-1l0 63zm0 -80c3,0 5,0 8,0 3,1 5,1 8,1 9,0 16,-1 22,-2 7,-2 12,-4 16,-6 4,-3 6,-6 8,-10 2,-4 3,-8 3,-13 0,-6 -2,-11 -5,-15 -2,-4 -7,-7 -12,-9 -3,-1 -7,-2 -11,-2 -5,-1 -10,-1 -15,-1l-22 0 0 57z"/>
   <path class="fil1" d="M138 931l0 -6c-3,0 -6,-1 -9,-2 -3,-1 -5,-3 -6,-5 -2,-2 -4,-4 -4,-6 -1,-3 -2,-6 -2,-9 0,-3 1,-5 2,-8 1,-2 2,-4 4,-6 1,-2 4,-4 6,-5 3,-1 6,-2 9,-2l0 -6 6 0 0 6c3,0 6,1 9,2 2,1 5,3 6,5 2,2 3,4 4,6 1,3 2,5 2,8 0,3 -1,6 -2,9 -1,2 -2,4 -4,6 -2,2 -4,4 -6,5 -3,1 -6,2 -9,2l0 6 -6 0zm-15 -28c0,3 1,5 2,7 0,2 1,4 3,5 1,2 2,3 4,3 2,1 4,2 6,2l0 -33c-2,0 -4,1 -6,1 -2,1 -3,2 -4,4 -2,1 -3,3 -3,5 -1,1 -2,4 -2,6zm35 0c0,-2 0,-4 -1,-6 0,-2 -1,-4 -3,-5 -1,-2 -3,-3 -4,-4 -2,0 -4,-1 -6,-1l0 33c2,0 4,-1 6,-2 1,0 3,-1 4,-3 2,-1 3,-3 3,-5 1,-2 1,-4 1,-7z"/>
   <path id="1" class="fil1" d="M211 927l20 -48 5 0 19 48 -6 0 -6 -14 -20 0 -6 14 -6 0zm22 -40c-2,6 -4,11 -6,16l-2 5 16 0 -2 -5c-2,-5 -4,-10 -6,-16l0 0z"/>
   <path id="2" class="fil1" d="M317 898c4,0 7,1 10,1 3,1 5,2 7,3 1,1 3,3 4,5 0,1 1,3 1,5 0,2 0,3 -1,4 0,1 0,2 -1,3 -1,1 -1,3 -3,4 -1,0 -2,1 -4,2 -1,1 -3,1 -6,2 -2,0 -5,0 -8,0l-11 0 0 -48 31 0 0 6 -25 0 0 14c0,0 0,0 1,0 0,0 1,0 1,-1 1,0 1,0 2,0 1,0 1,0 2,0zm-6 24l6 0c2,0 4,0 6,0 2,-1 3,-1 4,-1 1,-1 2,-2 3,-2 1,-1 1,-2 2,-2 0,-1 0,-2 0,-2 1,-1 1,-2 1,-3 0,-1 -1,-2 -1,-3 -1,-1 -2,-2 -3,-3 -1,-1 -3,-1 -5,-2 -2,0 -4,0 -7,0 -1,0 -2,0 -2,0 -1,0 -1,0 -2,0 0,0 0,0 -1,0 0,0 -1,0 -1,0l0 18z"/>
   <path id="3" class="fil1" d="M397 927l-6 0 0 -48 13 0c2,0 4,1 6,1 2,0 3,0 4,1 3,1 6,3 7,5 1,2 2,4 2,7 0,3 0,5 -1,7 -1,1 -3,3 -4,4 -2,1 -5,2 -7,3 -3,1 -6,1 -9,1 -2,0 -3,0 -5,0l0 19zm0 -25c1,1 2,1 2,1 1,0 2,0 3,0 3,0 5,-1 7,-1 2,0 3,-1 5,-2 1,-1 2,-2 2,-3 1,-1 1,-2 1,-4 0,-2 0,-3 -1,-4 -1,-2 -2,-3 -4,-3 -1,-1 -2,-1 -4,-1 -1,0 -3,0 -4,0l-7 0 0 17z"/>
   <path id="4" class="fil1" d="M508 879l6 0 0 48 -6 0 0 -21c0,-8 0,-14 1,-18l0 0c-3,3 -5,7 -9,13l-19 26 -6 0 0 -48 6 0 0 25c0,6 0,11 0,15l0 0c2,-3 5,-7 8,-13l19 -27z"/>
   <polygon id="5" class="fil1" points="568,927 568,879 574,879 574,903 574,903 596,879 602,879 580,903 604,927 598,927 574,904 574,904 574,927 "/>
   <path id="6" class="fil1" d="M650 927l20 -48 5 0 19 48 -6 0 -6 -14 -20 0 -5 14 -7 0zm22 -40c-2,6 -4,11 -6,16l-2 5 16 0 -1 -5c-2,-5 -4,-10 -7,-16l0 0z"/>
   <path id="7" class="fil1" d="M804 928c-1,0 -3,0 -4,0l0 -6c1,1 1,1 2,1 0,0 1,0 2,0 1,0 2,0 3,-1 1,0 2,0 3,-1 1,-1 2,-2 2,-3 1,-1 2,-3 3,-5l-19 -34 7 0 15 28 0 0 12 -28 7 0 -17 36c-1,3 -2,5 -3,7 -1,1 -2,3 -4,4 -1,1 -2,1 -4,2 -2,0 -3,0 -5,0z"/>
   <path id="8" class="fil1" d="M912 927l-3 0 -12 -28c-1,-4 -3,-8 -5,-13l0 0c0,7 0,13 0,18l0 23 -5 0 0 -48 8 0 11 28c2,3 3,6 5,11l0 0c2,-5 3,-9 4,-11l11 -28 9 0 0 48 -6 0 0 -23c0,-5 0,-11 0,-18l0 0c-2,5 -3,9 -5,13l-12 28z"/>
   <path id="9" class="fil1" d="M984 927l20 -48 5 0 20 48 -7 0 -5 -14 -21 0 -5 14 -7 0zm22 -40c-2,6 -4,11 -6,16l-2 5 16 0 -1 -5c-2,-5 -4,-10 -6,-16l-1 0z"/>
  </g>
 </g>
</svg>
