<?xml version="1.0" encoding="utf-8"?>
<!-- Generator: Adobe Illustrator 22.1.0, SVG Export Plug-In . SVG Version: 6.00 Build 0)  -->
<svg version="1.1" id="Слой_1" xmlns="http://www.w3.org/2000/svg" xmlns:xlink="http://www.w3.org/1999/xlink" x="0px" y="0px"
	 viewBox="0 0 612 792" style="enable-background:new 0 0 612 792;" xml:space="preserve">
<style type="text/css">
	.st0{fill:#0F0F0F;}
	.st1{fill:#0C0C0C;}
	.st2{fill:#0E0E0E;}
	.st3{fill:#0B0B0B;}
	.st4{fill:#0D0D0D;}
	.st5{fill:#111111;}
	.st6{fill:#131313;}
	.st7{fill:#151515;}
	.st8{fill:#171717;}
	.st9{fill:#141414;}
	.st10{fill:#121212;}
	.st11{fill:#1A1A1A;}
	.st12{fill:#161616;}
	.st13{fill:#1C1C1C;}
	.st14{fill:#1B1B1B;}
	.st15{fill:#292929;}
	.st16{fill:#282828;}
	.st17{fill:#2B2B2B;}
	.st18{fill:#3B3B3B;}
	.st19{fill:#202020;}
	.st20{fill:#212121;}
	.st21{fill:#323232;}
	.st22{fill:#515151;}
	.st23{fill:#4D4D4D;}
	.st24{fill:#2A2A2A;}
	.st25{fill:#575757;}
	.st26{fill:#2C2C2C;}
	.st27{fill:#2D2D2D;}
	.st28{fill:#5A5A5A;}
	.st29{fill:#5E5E5E;}
	.st30{fill:#464646;}
	.st31{fill:#303030;}
	.st32{fill:#333333;}
	.st33{fill:#4B4B4B;}
	.st34{fill:#343434;}
	.st35{fill:#2E2E2E;}
	.st36{fill:#373737;}
	.st37{fill:#474747;}
	.st38{fill:#454545;}
	.st39{fill:#272727;}
	.st40{fill:#252525;}
	.st41{fill:#191919;}
	.st42{fill:#222222;}
	.st43{fill:#1E1E1E;}
	.st44{fill:#181818;}
	.st45{fill-rule:evenodd;clip-rule:evenodd;fill:#FEFEFE;}
	.st46{fill:#FEFEFE;}
	.st47{font-family:'Corbel-Bold';}
	.st48{font-size:149.744px;}
	.st49{letter-spacing:5.7;}
	.st50{font-family:'Corbel';}
	.st51{font-size:151.5496px;}
	.st52{letter-spacing:-7;}
	.st53{font-size:47.1825px;}
	.st54{letter-spacing:26;}
	.st55{letter-spacing:28;}
</style>
<g>
	<polygon class="st0" points="1169.8,354.6 1156.1,369.9 1169.8,420.2 1169.8,354.6 	"/>
	<polygon class="st1" points="1169.8,41.4 1134.5,81.3 1169.8,119.2 1169.8,41.4 	"/>
	<polygon class="st2" points="1156.1,369.9 1169.8,354.6 1169.8,119.2 1134.5,81.3 1156.1,369.9 	"/>
	<polygon class="st3" points="1134.5,81.3 1169.8,41.4 1169.8,-144 1124.9,-144 1134.5,81.3 	"/>
	<polygon class="st4" points="1169.8,722.4 1114.8,888.8 1169.8,832 1169.8,722.4 	"/>
	<polygon class="st4" points="1169.8,832 1114.8,888.8 1152.1,936.5 1169.8,936.5 1169.8,832 	"/>
	<polygon class="st5" points="1114.8,888.8 1169.8,722.4 1169.8,603.8 940,695.7 1114.8,888.8 	"/>
	<polygon class="st6" points="1156.1,369.9 1134.5,81.3 914.5,380.2 1156.1,369.9 	"/>
	<polygon class="st7" points="1169.8,420.2 1156.1,369.9 914.5,380.2 1169.8,554.8 1169.8,420.2 	"/>
	<polygon class="st8" points="940,695.7 1169.8,603.8 1169.8,554.8 914.5,380.2 940,695.7 	"/>
	<polygon class="st4" points="1134.5,81.3 1124.9,-144 1066.1,-144 904.6,6.6 1134.5,81.3 	"/>
	<polygon class="st9" points="914.5,380.2 1134.5,81.3 904.6,6.6 914.5,380.2 	"/>
	<polygon class="st2" points="1152.1,936.5 1114.8,888.8 927.3,936.5 1152.1,936.5 	"/>
	<polygon class="st10" points="1114.8,888.8 940,695.7 853.2,936.5 927.3,936.5 1114.8,888.8 	"/>
	<polygon class="st2" points="904.6,6.6 1066.1,-144 836.8,-144 904.6,6.6 	"/>
	<polygon class="st11" points="914.5,380.2 904.6,6.6 692.5,-30.8 914.5,380.2 	"/>
	<polygon class="st6" points="904.6,6.6 836.8,-144 740.1,-144 692.5,-30.8 904.6,6.6 	"/>
	<polygon class="st12" points="692.5,-30.8 740.1,-144 639.8,-144 692.5,-30.8 	"/>
	<polygon class="st11" points="798.2,936.5 608,853.5 673.5,936.5 798.2,936.5 	"/>
	<polygon class="st13" points="673.5,936.5 608,853.5 646.4,936.5 673.5,936.5 	"/>
	<polygon class="st14" points="853.2,936.5 940,695.7 608,853.5 798.2,936.5 853.2,936.5 	"/>
	<polygon class="st15" points="940,695.7 914.5,380.2 606.1,515.2 940,695.7 	"/>
	<polygon class="st16" points="608,853.5 940,695.7 606.1,515.2 608,853.5 	"/>
	<polygon class="st17" points="914.5,380.2 692.5,-30.8 531.4,237 914.5,380.2 	"/>
	<polygon class="st18" points="606.1,515.2 914.5,380.2 531.4,237 606.1,515.2 	"/>
	<polygon class="st19" points="646.4,936.5 608,853.5 502,936.5 646.4,936.5 	"/>
	<polygon class="st20" points="473.4,-144 405.7,87.6 615.7,-144 473.4,-144 	"/>
	<polygon class="st20" points="692.5,-30.8 639.8,-144 615.7,-144 405.7,87.6 692.5,-30.8 	"/>
	<polygon class="st21" points="531.4,237 692.5,-30.8 405.7,87.6 531.4,237 	"/>
	<polygon class="st22" points="606.1,515.2 531.4,237 386.1,361.6 606.1,515.2 	"/>
	<polygon class="st23" points="531.4,237 405.7,87.6 386.1,361.6 531.4,237 	"/>
	<polygon class="st24" points="487.4,936.5 262.3,726.9 263.6,936.5 487.4,936.5 	"/>
	<polygon class="st25" points="606.1,515.2 386.1,361.6 262.3,726.9 606.1,515.2 	"/>
	<polygon class="st18" points="608,853.5 606.1,515.2 262.3,726.9 608,853.5 	"/>
	<polygon class="st26" points="502,936.5 608,853.5 262.3,726.9 487.4,936.5 502,936.5 	"/>
	<polygon class="st27" points="405.7,87.6 473.4,-144 370.8,-144 215.2,-16.2 405.7,87.6 	"/>
	<polygon class="st28" points="262.3,726.9 386.1,361.6 172,455 262.3,726.9 	"/>
	<polygon class="st29" points="172,455 386.1,361.6 99.3,100 172,455 	"/>
	<polygon class="st22" points="386.1,361.6 405.7,87.6 99.3,100 386.1,361.6 	"/>
	<polygon class="st18" points="405.7,87.6 215.2,-16.2 99.3,100 405.7,87.6 	"/>
	<polygon class="st16" points="263.6,936.5 262.3,726.9 104.6,936.5 263.6,936.5 	"/>
	<polygon class="st30" points="262.3,726.9 172,455 46.2,704 262.3,726.9 	"/>
	<polygon class="st31" points="104.6,936.5 262.3,726.9 46.2,704 75.5,936.5 104.6,936.5 	"/>
	<polygon class="st15" points="215.2,-16.2 370.8,-144 109.1,-144 215.2,-16.2 	"/>
	<polygon class="st32" points="99.3,100 215.2,-16.2 -61.8,44 99.3,100 	"/>
	<polygon class="st24" points="215.2,-16.2 109.1,-144 -10.8,-144 -61.8,44 215.2,-16.2 	"/>
	<polygon class="st33" points="172,455 99.3,100 -77.5,309.7 172,455 	"/>
	<polygon class="st34" points="99.3,100 -61.8,44 -77.5,309.7 99.3,100 	"/>
	<polygon class="st35" points="75.5,936.5 46.2,704 -144.3,795.4 37,936.5 75.5,936.5 	"/>
	<polygon class="st36" points="-144.3,795.4 46.2,704 -189.5,428 -144.3,795.4 	"/>
	<polygon class="st37" points="46.2,704 172,455 -189.5,428 46.2,704 	"/>
	<polygon class="st38" points="172,455 -77.5,309.7 -189.5,428 172,455 	"/>
	<polygon class="st39" points="37,936.5 -144.3,795.4 -233.4,936.5 37,936.5 	"/>
	<polygon class="st40" points="-77.5,309.7 -61.8,44 -362.3,232.9 -77.5,309.7 	"/>
	<polygon class="st16" points="-189.5,428 -77.5,309.7 -362.3,232.9 -189.5,428 	"/>
	<polygon class="st20" points="-189.5,428 -362.3,232.9 -389.8,535.9 -189.5,428 	"/>
	<polygon class="st17" points="-144.3,795.4 -189.5,428 -389.8,535.9 -144.3,795.4 	"/>
	<polygon class="st41" points="-61.8,44 -10.8,-144 -339.3,-144 -397.7,-126.2 -61.8,44 	"/>
	<polygon class="st12" points="-362.3,232.9 -61.8,44 -397.7,-126.2 -362.3,232.9 	"/>
	<polygon class="st20" points="-233.4,936.5 -144.3,795.4 -375.2,936.5 -233.4,936.5 	"/>
	<polygon class="st42" points="-144.3,795.4 -389.8,535.9 -417.4,936.5 -375.2,936.5 -144.3,795.4 	"/>
	<polygon class="st0" points="-397.7,-126.2 -339.3,-144 -409.6,-144 -397.7,-126.2 	"/>
	<polygon class="st2" points="-362.3,232.9 -397.7,-126.2 -559,148.8 -559,215.4 -362.3,232.9 	"/>
	<polygon class="st43" points="-417.4,936.5 -389.8,535.9 -559,579.4 -559,688.3 -433,936.5 -417.4,936.5 	"/>
	<polygon class="st3" points="-397.7,-126.2 -409.6,-144 -559,-144 -559,-112 -397.7,-126.2 	"/>
	<polygon class="st3" points="-559,148.8 -397.7,-126.2 -559,-112 -559,148.8 	"/>
	<polygon class="st41" points="-559,579.4 -389.8,535.9 -559,431.1 -559,579.4 	"/>
	<polygon class="st44" points="-389.8,535.9 -362.3,232.9 -559,312.6 -559,431.1 -389.8,535.9 	"/>
	<polygon class="st5" points="-362.3,232.9 -559,215.4 -559,312.6 -362.3,232.9 	"/>
	<polygon class="st11" points="-433,936.5 -559,688.3 -559,880.1 -464.5,936.5 -433,936.5 	"/>
	<polygon class="st8" points="-464.5,936.5 -559,880.1 -559,936.5 -464.5,936.5 	"/>
	<path class="st45" d="M28.2,362.7h213.3c-1.3,3.8-2,8-2,12.3c0,4.2,0.7,8.3,1.9,12.1H52.6v169.8h553.3V387.1h-291
		c1.3-3.8,1.9-7.9,1.9-12.1c0-4.3-0.7-8.4-2-12.3h314.5v217.9H28.2V362.7L28.2,362.7z"/>
	<path class="st45" d="M354.9,246.5c25.8,0,46.8,20.9,46.8,46.8c0,25.8-20.9,46.8-46.8,46.8c-25.8,0-46.8-20.9-46.8-46.8
		C308.2,267.4,329.1,246.5,354.9,246.5L354.9,246.5z M354.9,269.1c13.4,0,24.2,10.8,24.2,24.2c0,13.4-10.8,24.2-24.2,24.2
		c-13.4,0-24.2-10.8-24.2-24.2C330.7,279.9,341.6,269.1,354.9,269.1L354.9,269.1z"/>
	<path class="st45" d="M233.1,150.9c36,0,65.1,29.2,65.1,65.1s-29.2,65.1-65.1,65.1c-36,0-65.1-29.2-65.1-65.1
		S197.2,150.9,233.1,150.9L233.1,150.9z M233.1,176.4c21.9,0,39.6,17.7,39.6,39.6c0,21.9-17.7,39.6-39.6,39.6s-39.6-17.7-39.6-39.6
		C193.5,194.1,211.3,176.4,233.1,176.4L233.1,176.4z"/>
	<path class="st45" d="M372.2,107.5c26.1,0,47.3,21.2,47.3,47.3c0,26.1-21.2,47.3-47.3,47.3c-26.1,0-47.3-21.2-47.3-47.3
		C324.9,128.7,346.1,107.5,372.2,107.5L372.2,107.5z M372.2,130c13.7,0,24.8,11.1,24.8,24.8c0,13.7-11.1,24.8-24.8,24.8
		c-13.7,0-24.8-11.1-24.8-24.8C347.4,141.1,358.5,130,372.2,130L372.2,130z"/>
	<path class="st45" d="M285,62.8c17.4,0,31.4,14.1,31.4,31.4c0,17.4-14.1,31.4-31.4,31.4c-17.4,0-31.4-14.1-31.4-31.4
		C253.5,76.8,267.6,62.8,285,62.8L285,62.8z M285,78.8c8.5,0,15.4,6.9,15.4,15.4c0,8.5-6.9,15.4-15.4,15.4
		c-8.5,0-15.4-6.9-15.4-15.4C269.6,85.7,276.5,78.8,285,78.8L285,78.8z"/>
	<path class="st45" d="M278.2,336.2c21.4,0,38.7,17.3,38.7,38.7c0,21.4-17.3,38.7-38.7,38.7c-21.4,0-38.7-17.3-38.7-38.7
		C239.6,353.6,256.9,336.2,278.2,336.2L278.2,336.2z M277.9,357.7c9.5,0,17.2,7.7,17.2,17.2c0,9.5-7.7,17.2-17.2,17.2
		s-17.2-7.7-17.2-17.2C260.6,365.4,268.4,357.7,277.9,357.7L277.9,357.7z"/>
	<text transform="matrix(0.8731 0 0 1 403.2465 523.0815)" class="st46 st47 st48 st49">УМ</text>
	<text transform="matrix(1 0 0 1 54.0668 522.855)" class="st46 st50 st51">Н</text>
	<text transform="matrix(1 0 0 1 148.0277 522.855)" class="st46 st50 st51 st52">ЕЙР</text>
	<text transform="matrix(1 0 0 1 28.5746 657.6519)" class="st46 st50 st53 st54">ФА</text>
	<text transform="matrix(1 0 0 1 149.2855 657.6519)" class="st46 st50 st53">Б</text>
	<text transform="matrix(1 0 0 1 206.5043 657.6519)" class="st46 st50 st53 st55">РИКА</text>
	<text transform="matrix(1 0 0 1 476.9496 657.6519)" class="st46 st50 st53 st55">УМА</text>
</g>
</svg>
