<svg xmlns="http://www.w3.org/2000/svg" xml:space="preserve" width="841mm" height="1189mm" version="1.1" style="shape-rendering:geometricPrecision; text-rendering:geometricPrecision; image-rendering:optimizeQuality; fill-rule:evenodd; clip-rule:evenodd"
viewBox="0 0 8410 11890"
 xmlns:xlink="http://www.w3.org/1999/xlink">
 <defs>
  <style type="text/css">
   <![CDATA[
    .fil71 {fill:#FEFEFE}
    .fil72 {fill:#FEFEFE;fill-rule:nonzero}
    .fil70 {fill:#023757;fill-rule:nonzero}
    .fil63 {fill:#024265;fill-rule:nonzero}
    .fil60 {fill:#02476E;fill-rule:nonzero}
    .fil66 {fill:#03395D;fill-rule:nonzero}
    .fil69 {fill:#033B5C;fill-rule:nonzero}
    .fil56 {fill:#035483;fill-rule:nonzero}
    .fil17 {fill:#042880;fill-rule:nonzero}
    .fil59 {fill:#044668;fill-rule:nonzero}
    .fil52 {fill:#044E7F;fill-rule:nonzero}
    .fil67 {fill:#053661;fill-rule:nonzero}
    .fil49 {fill:#056397;fill-rule:nonzero}
    .fil14 {fill:#061C65;fill-rule:nonzero}
    .fil68 {fill:#062856;fill-rule:nonzero}
    .fil43 {fill:#064B99;fill-rule:nonzero}
    .fil3 {fill:#071659;fill-rule:nonzero}
    .fil55 {fill:#084574;fill-rule:nonzero}
    .fil26 {fill:#09399D;fill-rule:nonzero}
    .fil10 {fill:#0B1665;fill-rule:nonzero}
    .fil54 {fill:#0B4D87;fill-rule:nonzero}
    .fil16 {fill:#0D207C;fill-rule:nonzero}
    .fil5 {fill:#0E0570;fill-rule:nonzero}
    .fil65 {fill:#0E1559;fill-rule:nonzero}
    .fil12 {fill:#0F0977;fill-rule:nonzero}
    .fil62 {fill:#0F1E5F;fill-rule:nonzero}
    .fil35 {fill:#0F4EAB;fill-rule:nonzero}
    .fil4 {fill:#100774;fill-rule:nonzero}
    .fil13 {fill:#10108A;fill-rule:nonzero}
    .fil48 {fill:#11549A;fill-rule:nonzero}
    .fil51 {fill:#1173B4;fill-rule:nonzero}
    .fil64 {fill:#12115D;fill-rule:nonzero}
    .fil1 {fill:#121161;fill-rule:nonzero}
    .fil50 {fill:#1275B8;fill-rule:nonzero}
    .fil6 {fill:#130B84;fill-rule:nonzero}
    .fil58 {fill:#142C72;fill-rule:nonzero}
    .fil53 {fill:#144789;fill-rule:nonzero}
    .fil45 {fill:#144B9D;fill-rule:nonzero}
    .fil57 {fill:#152E80;fill-rule:nonzero}
    .fil44 {fill:#1758AA;fill-rule:nonzero}
    .fil27 {fill:#1837A1;fill-rule:nonzero}
    .fil47 {fill:#185AA8;fill-rule:nonzero}
    .fil39 {fill:#1862B9;fill-rule:nonzero}
    .fil61 {fill:#1A166B;fill-rule:nonzero}
    .fil0 {fill:#1B0778;fill-rule:nonzero}
    .fil46 {fill:#1D79C2;fill-rule:nonzero}
    .fil2 {fill:#1E0970;fill-rule:nonzero}
    .fil20 {fill:#2020A6;fill-rule:nonzero}
    .fil41 {fill:#2270C3;fill-rule:nonzero}
    .fil18 {fill:#231DA3;fill-rule:nonzero}
    .fil42 {fill:#2350AD;fill-rule:nonzero}
    .fil8 {fill:#260B8E;fill-rule:nonzero}
    .fil9 {fill:#261097;fill-rule:nonzero}
    .fil11 {fill:#271480;fill-rule:nonzero}
    .fil19 {fill:#281DA7;fill-rule:nonzero}
    .fil37 {fill:#288CE1;fill-rule:nonzero}
    .fil7 {fill:#290C82;fill-rule:nonzero}
    .fil38 {fill:#2A7BD7;fill-rule:nonzero}
    .fil40 {fill:#2B41A7;fill-rule:nonzero}
    .fil15 {fill:#2D1E93;fill-rule:nonzero}
    .fil31 {fill:#2E3FB3;fill-rule:nonzero}
    .fil25 {fill:#2F22B0;fill-rule:nonzero}
    .fil22 {fill:#2F35C1;fill-rule:nonzero}
    .fil34 {fill:#313FBC;fill-rule:nonzero}
    .fil28 {fill:#364CBC;fill-rule:nonzero}
    .fil36 {fill:#3885E1;fill-rule:nonzero}
    .fil33 {fill:#3D55D3;fill-rule:nonzero}
    .fil21 {fill:#3E31BD;fill-rule:nonzero}
    .fil30 {fill:#4070DE;fill-rule:nonzero}
    .fil23 {fill:#4138B9;fill-rule:nonzero}
    .fil32 {fill:#4E79EA;fill-rule:nonzero}
    .fil24 {fill:#504CD5;fill-rule:nonzero}
    .fil29 {fill:#526EEB;fill-rule:nonzero}
   ]]>
  </style>
 </defs>
 <g id="Слой_x0020_1">
  <metadata id="CorelCorpID_0Corel-Layer"/>
  <g id="_2759Z_1886_M_P_5_Pr_All.eps">
   <polygon class="fil0" points="73258,57469 72773,58006 73258,59783 "/>
   <polygon class="fil1" points="73258,46421 72011,47828 73258,49164 "/>
   <polygon class="fil2" points="72773,58006 73258,57469 73258,49164 72011,47828 "/>
   <polygon class="fil3" points="72011,47828 73258,46421 73258,39878 71674,39878 "/>
   <polygon class="fil4" points="73258,70443 71318,76313 73258,74311 "/>
   <polygon class="fil5" points="73258,74311 71318,76313 72632,77997 73258,77997 "/>
   <polygon class="fil6" points="71318,76313 73258,70443 73258,66259 65151,69503 "/>
   <polygon class="fil7" points="72773,58006 72011,47828 64250,58372 "/>
   <polygon class="fil8" points="73258,59783 72773,58006 64250,58372 73258,64532 "/>
   <polygon class="fil9" points="65151,69503 73258,66259 73258,64532 64250,58372 "/>
   <polygon class="fil10" points="72011,47828 71674,39878 69598,39878 63903,45192 "/>
   <polygon class="fil11" points="64250,58372 72011,47828 63903,45192 "/>
   <polygon class="fil12" points="72632,77997 71318,76313 64701,77997 "/>
   <polygon class="fil13" points="71318,76313 65151,69503 62088,77997 64701,77997 "/>
   <polygon class="fil14" points="63903,45192 69598,39878 61509,39878 "/>
   <polygon class="fil15" points="64250,58372 63903,45192 56419,43874 "/>
   <polygon class="fil16" points="63903,45192 61509,39878 58100,39878 56419,43874 "/>
   <polygon class="fil17" points="56419,43874 58100,39878 54559,39878 "/>
   <polygon class="fil18" points="60147,77997 53440,75068 55749,77997 "/>
   <polygon class="fil19" points="55749,77997 53440,75068 54795,77997 "/>
   <polygon class="fil20" points="62088,77997 65151,69503 53440,75068 60147,77997 "/>
   <polygon class="fil21" points="65151,69503 64250,58372 53370,63132 "/>
   <polygon class="fil22" points="53440,75068 65151,69503 53370,63132 "/>
   <polygon class="fil23" points="64250,58372 56419,43874 50737,53320 "/>
   <polygon class="fil24" points="53370,63132 64250,58372 50737,53320 "/>
   <polygon class="fil25" points="54795,77997 53440,75068 49701,77997 "/>
   <polygon class="fil26" points="48691,39878 46302,48047 53711,39878 "/>
   <polygon class="fil27" points="56419,43874 54559,39878 53711,39878 46302,48047 "/>
   <polygon class="fil28" points="50737,53320 56419,43874 46302,48047 "/>
   <polygon class="fil29" points="53370,63132 50737,53320 45609,57713 "/>
   <polygon class="fil30" points="50737,53320 46302,48047 45609,57713 "/>
   <polygon class="fil31" points="49185,77997 41243,70601 41290,77997 "/>
   <polygon class="fil32" points="53370,63132 45609,57713 41243,70601 "/>
   <polygon class="fil33" points="53440,75068 53370,63132 41243,70601 "/>
   <polygon class="fil34" points="49701,77997 53440,75068 41243,70601 49185,77997 "/>
   <polygon class="fil35" points="46302,48047 48691,39878 45070,39878 39580,44386 "/>
   <polygon class="fil36" points="41243,70601 45609,57713 38056,61008 "/>
   <polygon class="fil37" points="38056,61008 45609,57713 35492,48487 "/>
   <polygon class="fil38" points="45609,57713 46302,48047 35492,48487 "/>
   <polygon class="fil39" points="46302,48047 39580,44386 35492,48487 "/>
   <polygon class="fil40" points="41290,77997 41243,70601 35680,77997 "/>
   <polygon class="fil41" points="41243,70601 38056,61008 33621,69795 "/>
   <polygon class="fil42" points="35680,77997 41243,70601 33621,69795 34651,77997 "/>
   <polygon class="fil43" points="39580,44386 45070,39878 35838,39878 "/>
   <polygon class="fil44" points="35492,48487 39580,44386 29809,46510 "/>
   <polygon class="fil45" points="39580,44386 35838,39878 31609,39878 29809,46510 "/>
   <polygon class="fil46" points="38056,61008 35492,48487 29255,55883 "/>
   <polygon class="fil47" points="35492,48487 29809,46510 29255,55883 "/>
   <polygon class="fil48" points="34651,77997 33621,69795 26899,73017 33294,77997 "/>
   <polygon class="fil49" points="26899,73017 33621,69795 25305,60056 "/>
   <polygon class="fil50" points="33621,69795 38056,61008 25305,60056 "/>
   <polygon class="fil51" points="38056,61008 29255,55883 25305,60056 "/>
   <polygon class="fil52" points="33294,77997 26899,73017 23758,77997 "/>
   <polygon class="fil53" points="29255,55883 29809,46510 19207,53173 "/>
   <polygon class="fil54" points="25305,60056 29255,55883 19207,53173 "/>
   <polygon class="fil55" points="25305,60056 19207,53173 18237,63864 "/>
   <polygon class="fil56" points="26899,73017 25305,60056 18237,63864 "/>
   <polygon class="fil57" points="29809,46510 31609,39878 20021,39878 17960,40505 "/>
   <polygon class="fil58" points="19207,53173 29809,46510 17960,40505 "/>
   <polygon class="fil59" points="23758,77997 26899,73017 18755,77997 "/>
   <polygon class="fil60" points="26899,73017 18237,63864 17263,77997 18755,77997 "/>
   <polygon class="fil61" points="17960,40505 20021,39878 17539,39878 "/>
   <polygon class="fil62" points="19207,53173 17960,40505 12269,50209 12269,52557 "/>
   <polygon class="fil63" points="17263,77997 18237,63864 12269,65398 12269,69239 16714,77997 "/>
   <polygon class="fil64" points="17960,40505 17539,39878 12269,39878 12269,41006 "/>
   <polygon class="fil65" points="12269,50209 17960,40505 12269,41006 "/>
   <polygon class="fil66" points="12269,65398 18237,63864 12269,60168 "/>
   <polygon class="fil67" points="18237,63864 19207,53173 12269,55986 12269,60168 "/>
   <polygon class="fil68" points="19207,53173 12269,52557 12269,55986 "/>
   <polygon class="fil69" points="16714,77997 12269,69239 12269,76007 15603,77997 "/>
   <polygon class="fil70" points="15603,77997 12269,76007 12269,77997 "/>
  </g>
  <g id="_1475258736">
   <path class="fil71" d="M32986 57752l7525 0c-45,136 -70,281 -70,432 0,150 24,294 69,429l-6664 0 0 5990 19519 0 0 -5990 -10265 0c45,-135 69,-279 69,-429 0,-151 -25,-296 -70,-432l11095 0 0 7687 -21208 0 0 -7687z"/>
   <path class="fil71" d="M44511 53655c911,0 1650,738 1650,1649 0,912 -739,1650 -1650,1650 -911,0 -1650,-738 -1650,-1650 0,-911 739,-1649 1650,-1649zm0 795c472,0 854,383 854,854 0,472 -382,855 -854,855 -472,0 -854,-383 -854,-855 0,-471 382,-854 854,-854z"/>
   <path class="fil71" d="M40214 50281c1269,0 2298,1028 2298,2297 0,1269 -1029,2298 -2298,2298 -1269,0 -2298,-1029 -2298,-2298 0,-1269 1029,-2297 2298,-2297zm0 900c772,0 1398,626 1398,1397 0,772 -626,1398 -1398,1398 -772,0 -1397,-626 -1397,-1398 0,-771 625,-1397 1397,-1397z"/>
   <path class="fil71" d="M45120 48751c921,0 1668,747 1668,1669 0,921 -747,1668 -1668,1668 -922,0 -1669,-747 -1669,-1668 0,-922 747,-1669 1669,-1669zm0 794c482,0 874,392 874,875 0,483 -392,874 -874,874 -483,0 -875,-391 -875,-874 0,-483 392,-875 875,-875z"/>
   <path class="fil71" d="M42043 47173c612,0 1108,496 1108,1108 0,613 -496,1109 -1108,1109 -613,0 -1109,-496 -1109,-1109 0,-612 496,-1108 1109,-1108zm0 566c299,0 543,243 543,543 0,299 -244,542 -543,542 -300,0 -543,-243 -543,-542 0,-300 243,-543 543,-543z"/>
   <path class="fil71" d="M41805 56821c753,0 1364,610 1364,1363 0,754 -611,1364 -1364,1364 -753,0 -1364,-610 -1364,-1364 0,-753 611,-1363 1364,-1363zm-13 756c336,0 608,272 608,607 0,336 -272,608 -608,608 -335,0 -607,-272 -607,-608 0,-335 272,-607 607,-607z"/>
   <path class="fil72" d="M47835 62602c-68,161 -138,297 -212,409 -73,112 -153,202 -240,270 -86,69 -181,119 -284,149 -103,30 -218,45 -346,45 -49,0 -103,-3 -163,-9 -61,-6 -117,-16 -170,-30l0 -539c57,16 112,27 165,34 52,7 101,11 144,11 69,0 131,-9 187,-26 56,-18 107,-48 155,-91 48,-43 94,-101 139,-175 44,-74 88,-168 134,-283l-1173 -2405 612 0 847 1765 709 -1765 599 0 -1103 2640z"/>
   <path id="1" class="fil72" d="M50893 62486c66,-272 148,-563 245,-874l521 -1650 774 0 0 3450 -553 0 0 -1748c0,-256 9,-554 27,-893l-20 0c-25,99 -55,209 -90,330 -35,123 -71,243 -108,361l-623 1950 -355 0 -623 -1950c-38,-118 -74,-238 -108,-361 -35,-121 -65,-231 -90,-330l-20 0c17,319 27,615 27,890l0 1751 -554 0 0 -3450 770 0 521 1642c87,274 169,568 245,882l14 0z"/>
   <polygon class="fil72" points="34664,61426 36488,61426 36488,59913 36915,59913 36915,63404 36488,63404 36488,61811 34664,61811 34664,63404 34237,63404 34237,59913 34664,59913 "/>
   <polygon id="1" class="fil72" points="37771,63019 39562,63019 39562,63404 37343,63404 37343,59913 39465,59913 39465,60298 37771,60298 37771,61426 39277,61426 39277,61811 37771,61811 "/>
   <path id="2" class="fil72" d="M42238 59913l429 0 0 3491 -428 0 0 -1579c0,-578 12,-1017 34,-1317l-15 0c-155,252 -365,568 -630,950l-1371 1946 -429 0 0 -3491 428 0 0 1763c0,447 -12,825 -34,1133l16 0c150,-244 359,-560 629,-950l1371 -1946zm-931 -829c161,0 294,-49 401,-148 107,-98 176,-249 205,-451l391 0c-11,133 -41,257 -88,371 -47,115 -112,214 -195,297 -82,84 -184,150 -302,197 -119,48 -258,71 -417,71 -159,0 -296,-23 -414,-71 -117,-47 -216,-113 -297,-197 -81,-83 -144,-182 -190,-297 -44,-114 -74,-238 -85,-371l391 0c29,202 97,353 202,451 106,99 238,148 398,148z"/>
   <path id="3" class="fil72" d="M43516 63404l-427 0 0 -3491 967 0c145,0 277,9 400,25 123,18 236,45 338,82 209,74 367,187 475,335 108,149 161,333 161,550 0,178 -35,334 -105,469 -70,135 -173,248 -306,339 -134,90 -296,158 -489,205 -191,46 -409,69 -652,69 -116,0 -237,-5 -362,-16l0 1433zm0 -1822c57,6 118,11 180,15 63,3 121,5 178,5 199,0 369,-16 510,-47 141,-31 256,-77 344,-136 89,-61 153,-134 193,-220 41,-86 60,-184 60,-294 0,-135 -33,-247 -98,-334 -65,-86 -158,-152 -277,-198 -75,-27 -161,-47 -258,-59 -98,-11 -211,-16 -339,-16l-493 0 0 1284z"/>
   <path class="fil72" d="M33523 68246l0 -147c-77,-6 -144,-21 -203,-47 -58,-26 -107,-60 -146,-102 -40,-43 -69,-93 -89,-149 -20,-57 -30,-119 -30,-186 0,-67 11,-129 31,-186 21,-57 51,-107 90,-149 40,-43 89,-77 147,-103 58,-26 125,-42 200,-47l0 -146 133 0 0 146c78,5 145,21 204,47 58,26 107,60 147,103 39,42 69,92 89,149 20,57 30,119 30,186 0,67 -11,129 -32,186 -20,56 -50,106 -90,149 -40,42 -89,77 -148,103 -58,26 -125,41 -200,46l0 147 -133 0zm-328 -632c0,60 8,112 24,156 17,45 39,82 68,113 29,30 64,53 104,70 40,17 84,27 132,31l0 -739c-48,4 -92,14 -132,31 -40,16 -75,40 -104,70 -29,30 -51,68 -68,112 -16,45 -24,97 -24,156zm791 0c0,-59 -8,-111 -25,-155 -16,-44 -39,-82 -68,-112 -29,-31 -64,-54 -104,-71 -40,-17 -85,-27 -133,-31l0 740c48,-4 92,-14 132,-30 41,-17 76,-41 105,-71 29,-31 52,-68 68,-113 17,-45 25,-97 25,-157z"/>
   <path id="1" class="fil72" d="M35176 68159l442 -1087 115 0 444 1087 -144 0 -128 -326 -458 0 -128 326 -143 0zm499 -919c-49,136 -96,259 -140,369l-42 104 364 0 -42 -104c-44,-113 -90,-235 -137,-369l-3 0z"/>
   <path id="2" class="fil72" d="M37572 67500c88,0 163,7 226,22 63,14 114,35 155,62 40,27 70,61 88,100 19,39 28,84 28,133 0,26 -3,52 -8,79 -6,27 -16,53 -31,78 -14,26 -34,50 -59,72 -25,22 -57,42 -95,59 -38,16 -84,30 -136,39 -53,10 -115,15 -186,15l-257 0 0 -1087 704 0 0 120 -571 0 0 314c6,0 15,-1 25,-2 11,-1 22,-1 35,-2 12,0 26,-1 40,-1 14,-1 28,-1 42,-1zm-142 539l138 0c55,0 102,-3 141,-10 39,-7 72,-16 99,-28 27,-11 48,-25 64,-39 16,-15 27,-31 36,-47 8,-16 14,-33 16,-49 3,-17 5,-32 5,-47 0,-32 -6,-60 -19,-85 -13,-26 -34,-47 -62,-64 -29,-17 -66,-30 -111,-39 -46,-9 -101,-13 -165,-13 -20,1 -36,1 -48,1 -12,0 -23,1 -32,1 -9,1 -18,2 -28,2 -8,1 -20,2 -34,4l0 413z"/>
   <path id="3" class="fil72" d="M39384 68159l-133 0 0 -1087 301 0c45,0 86,3 125,8 38,6 73,14 105,25 65,24 114,59 148,105 33,46 50,103 50,171 0,55 -11,104 -33,146 -22,42 -54,77 -95,105 -42,29 -92,50 -152,64 -60,15 -128,22 -203,22 -37,0 -74,-2 -113,-5l0 446zm0 -567c18,2 37,3 56,4 19,1 38,2 55,2 62,0 115,-5 159,-15 44,-9 80,-24 107,-42 28,-19 48,-42 60,-68 13,-27 19,-58 19,-92 0,-42 -10,-77 -31,-104 -20,-27 -49,-47 -86,-62 -23,-8 -50,-14 -80,-18 -31,-3 -66,-5 -106,-5l-153 0 0 400z"/>
   <path id="4" class="fil72" d="M41904 67072l134 0 0 1087 -133 0 0 -492c0,-179 3,-316 10,-410l-4 0c-49,79 -114,177 -197,296l-426 606 -134 0 0 -1087 133 0 0 549c0,139 -3,257 -10,353l5 0c46,-76 111,-175 196,-296l426 -606z"/>
   <polygon id="5" class="fil72" points="43267,68159 43267,67072 43400,67072 43400,67609 43402,67609 43901,67072 44034,67072 43527,67613 44064,68159 43931,68159 43402,67627 43400,67627 43400,68159 "/>
   <path id="6" class="fil72" d="M45119 68159l442 -1087 115 0 444 1087 -144 0 -128 -326 -458 0 -129 326 -142 0zm499 -919c-49,136 -96,259 -140,369l-42 104 364 0 -42 -104c-45,-113 -90,-235 -137,-369l-3 0z"/>
   <path id="7" class="fil72" d="M48595 68179c-30,0 -59,-3 -88,-9l0 -126c12,3 25,5 39,6 14,2 29,2 44,2 29,0 55,-3 78,-8 22,-7 44,-17 64,-33 20,-16 39,-38 56,-65 18,-28 36,-63 54,-106l-416 -768 148 0 334 633 5 0 284 -633 146 0 -376 810c-26,57 -52,104 -78,142 -26,38 -53,69 -82,92 -30,22 -61,39 -96,48 -34,10 -73,15 -116,15z"/>
   <path id="8" class="fil72" d="M51044 68159l-61 0 -273 -649c-38,-90 -76,-187 -114,-292l-7 0c8,151 12,290 12,415l0 526 -133 0 0 -1087 191 0 256 615c29,70 61,155 97,254l4 0c39,-110 71,-195 96,-254l256 -615 192 0 0 1087 -134 0 0 -526c0,-123 4,-261 12,-415l-7 0c-40,111 -77,209 -113,292l-274 649z"/>
   <path id="9" class="fil72" d="M52681 68159l442 -1087 114 0 444 1087 -144 0 -128 -326 -458 0 -128 326 -142 0zm498 -919c-49,136 -95,259 -139,369l-42 104 363 0 -41 -104c-45,-113 -91,-235 -138,-369l-3 0z"/>
  </g>
 </g>
</svg>
