<svg width="64" height="64" viewBox="0 0 64 64" fill="none" xmlns="http://www.w3.org/2000/svg">
    <g clip-path="url(#clip0)">
        <path d="M58.8023 31.1671C60.4442 22.2491 57.7638 9.99015 47.997 4.14835C41.8284 0.687882 34.5524 -0.227727 27.7186 1.59659C18.2525 4.12791 11.2947 10.9205 9.10668 19.7667C8.61889 21.5609 8.41212 23.42 8.49401 25.2776C8.59881 26.4301 8.81149 27.5703 9.12934 28.6831C9.55703 30.0993 9.76885 31.5719 9.75739 33.0513C9.71331 34.8123 8.50029 36.6395 7.4289 38.2517C6.26096 40.0112 5.25225 41.5306 5.83721 42.9319C6.39236 43.8817 7.36942 44.5076 8.46434 44.6149C8.52739 44.6263 8.59118 44.6328 8.65522 44.6344C8.94782 44.5986 9.24116 44.6956 9.45457 44.899C9.66799 45.1025 9.77907 45.3908 9.75739 45.6847C9.75739 47.8685 9.81183 48.9953 10.7139 49.5121C10.6352 49.6763 10.5803 49.8511 10.5507 50.0308C10.4601 50.6473 10.6821 51.2683 11.1428 51.6876C11.6009 52.1313 12.1813 52.4276 12.8094 52.5383C12.8535 52.5485 12.8956 52.5563 12.9366 52.566C12.9615 52.7223 12.9724 52.8804 12.9695 53.0387C12.962 53.4294 12.9343 53.8197 12.8864 54.2076C12.7119 55.8886 12.4728 58.191 15.8358 59.2901C16.5107 59.4787 17.2103 59.5638 17.9108 59.5425C21.0952 59.4011 24.2422 58.7978 27.2532 57.7517C28.1225 59.2676 28.6467 60.9567 28.7879 62.6987C28.7878 62.9774 28.8985 63.2447 29.0957 63.4419C29.2927 63.6389 29.56 63.7496 29.8389 63.7496H56.1105C56.5599 63.7441 56.9553 63.4514 57.0916 63.0231C57.2298 62.5888 57.0793 62.1147 56.716 61.8397C55.6287 61.0141 52.028 52.316 51.9173 49.1918C52.2346 48.4712 52.6598 47.6621 53.1632 46.7223C55.9044 41.8914 57.8108 36.6325 58.8023 31.1671ZM49.8078 49.0862C49.8345 51.5994 52.1002 58.2401 54.0467 61.648H30.8006C30.539 60.0378 30.0173 58.481 29.256 57.0383C32.3007 55.845 34.9828 54.3107 36.2702 52.6269C36.6205 52.1654 36.5316 51.5074 36.0712 51.1557C35.6108 50.8039 34.9526 50.891 34.5994 51.3502C31.6254 55.2417 19.251 58.1963 16.4883 57.2926C14.7386 56.7204 14.8083 56.0488 14.9767 54.4253C15.0325 53.9651 15.064 53.5023 15.0711 53.0389C15.0711 51.2682 14.3569 50.7396 13.2834 50.4907C13.0808 50.4618 12.8873 50.387 12.7179 50.2721C12.9242 50.075 13.1583 49.9092 13.4127 49.78C13.8513 49.5645 14.0836 49.0751 13.973 48.599C13.8624 48.123 13.4385 47.7859 12.9498 47.7855C12.5701 47.7855 12.1483 47.7855 11.9267 47.7578C11.8599 47.0689 11.8372 46.3766 11.8589 45.6849C11.8795 44.8562 11.5645 44.0544 10.9854 43.4613C10.4064 42.8682 9.6122 42.5341 8.78329 42.5348C8.02593 42.3752 7.79601 42.17 7.77655 42.1223C7.6236 41.7575 8.6365 40.2336 9.18044 39.4146C10.3473 37.6577 11.7994 35.4708 11.8589 33.1049C11.8884 31.792 11.7423 30.4811 11.4246 29.2069C12.5705 28.1985 13.9228 27.4527 15.3871 27.0218C15.9089 26.9307 16.4451 26.9683 16.949 27.1311C17.5085 27.2852 18.0869 26.9567 18.2411 26.3973C18.3953 25.8379 18.0667 25.2595 17.5074 25.1053C16.6798 24.8506 15.8025 24.8026 14.952 24.9651C13.467 25.3434 12.0791 26.0327 10.8801 26.9873C10.7365 26.3752 10.6394 25.753 10.5895 25.1262C10.5183 23.4886 10.7064 21.85 11.1468 20.2711C13.1787 12.0585 19.4162 5.99201 28.2623 3.62645C34.5462 1.94116 41.2397 2.77574 46.9173 5.95248C55.8241 11.2791 58.2501 22.5595 56.7354 30.7864C55.7909 36.0401 53.9563 41.0941 51.3107 45.7304C50.7329 46.8085 50.2341 47.7393 49.8739 48.6008C49.8131 48.755 49.7903 48.9214 49.8078 49.0862Z" fill="#4556CB"/>
        <path d="M51.8935 33.568C52.0439 31.947 50.9342 30.4785 49.3336 30.1805L47.3212 27.391C47.4446 27.1634 47.5392 26.9213 47.6028 26.6702L49.5516 25.8909C50.4517 26.9155 51.9095 27.2434 53.1614 26.7026C54.4134 26.1619 55.1742 24.8758 55.0454 23.5181C54.9166 22.1604 53.9272 21.0406 52.5958 20.7451L51.0171 17.5958C52.1245 16.4674 52.2202 14.6915 51.2402 13.4507C50.2602 12.2099 48.5105 11.8914 47.1562 12.7074L45.3957 11.2458C45.5289 10.8975 45.5986 10.5283 45.6016 10.1554C45.6044 8.86789 44.8223 7.70857 43.6274 7.22915C42.4325 6.74961 41.0659 7.04677 40.178 7.97912L37.0625 7.20033C36.6893 5.8489 35.4638 4.90977 34.0617 4.90127C32.6597 4.89278 31.4228 5.81688 31.0333 7.16363L26.8696 7.99636C25.7836 6.82522 23.991 6.65688 22.706 7.60549C21.4209 8.55398 21.0535 10.3165 21.8525 11.6994L19.8123 14.4165C18.3503 14.6807 17.273 15.9325 17.2295 17.4176C17.1861 18.9026 18.1884 20.2153 19.6324 20.5647L21.3194 24.7294C20.3938 25.638 20.1206 27.0215 20.6311 28.2139C21.1417 29.4062 22.3316 30.1632 23.6278 30.1204C24.9241 30.0775 26.0615 29.2438 26.4923 28.0203H32.1341C32.6051 29.4693 34.075 30.3466 35.5739 30.0734L39.0625 35.38C38.1675 36.3724 37.9974 37.8218 38.6383 38.9944C39.2792 40.1669 40.5912 40.8064 41.9096 40.5888C43.228 40.3712 44.2649 39.3442 44.4951 38.0279L47.0993 35.9463C47.5949 36.2587 48.1684 36.4254 48.7542 36.4274C50.3824 36.4285 51.7433 35.1892 51.8935 33.568ZM51.9069 22.7658C52.4325 22.7647 52.8781 23.1521 52.95 23.6727C53.022 24.1932 52.6983 24.687 52.1923 24.8287C51.6862 24.9703 51.1533 24.7162 50.9445 24.2339C50.9409 24.2243 50.9429 24.2143 50.9391 24.2047L50.9325 24.1945C50.8836 24.0744 50.8576 23.9463 50.856 23.8166C50.8567 23.2366 51.3268 22.7664 51.9069 22.7658ZM47.7255 15.1961C47.8264 14.7083 48.2563 14.3585 48.7544 14.3588C49.3348 14.3588 49.8053 14.8293 49.8053 15.4097C49.8053 15.9901 49.3348 16.4605 48.7544 16.4605C48.6244 16.4589 48.496 16.4329 48.3755 16.3839L48.3665 16.378C48.3573 16.3743 48.3476 16.3762 48.3381 16.3727C47.8805 16.1755 47.6246 15.684 47.7255 15.1961ZM46.6801 17.7651L44.7382 22.6206L41.334 19.8973C41.7958 19.5034 42.1332 18.9838 42.3057 18.4017L46.4693 17.5689C46.5354 17.639 46.6077 17.7013 46.6801 17.7651ZM45.5613 26.2024C45.4198 26.7078 44.9269 27.0312 44.4068 26.9595C43.8869 26.8878 43.4996 26.4434 43.5001 25.9184C43.5007 25.3383 43.9707 24.8681 44.5509 24.8676C44.6809 24.8692 44.8094 24.8952 44.9298 24.9442L44.9388 24.9501C44.9483 24.9539 44.9583 24.9523 44.9678 24.9558C45.4494 25.1646 45.7028 25.6969 45.5613 26.2024ZM42.4491 9.10458C43.0295 9.10458 43.4999 9.57501 43.4999 10.1554C43.4999 10.7358 43.0294 11.2062 42.4491 11.2062C41.8688 11.2062 41.3983 10.7358 41.3983 10.1554C41.3989 9.57525 41.869 9.10519 42.4491 9.10458ZM36.919 9.33068L39.3193 9.93078C39.3138 10.0064 39.2966 10.0786 39.2966 10.1555C39.2985 11.8959 40.7089 13.3063 42.4492 13.3081C43.0128 13.3052 43.5651 13.1496 44.0472 12.8579L45.8079 14.3195C45.6746 14.6678 45.6048 15.037 45.6018 15.4099C45.6018 15.4734 45.617 15.5329 45.6206 15.5956L42.198 16.2801C41.7689 15.2811 40.8553 14.5736 39.7807 14.408L35.9331 10.5604C36.3603 10.2403 36.6996 9.81724 36.919 9.33068ZM40.3475 17.5116C40.3475 18.092 39.877 18.5624 39.2966 18.5624C38.7165 18.5618 38.2463 18.0917 38.2458 17.5116C38.2458 16.9312 38.7162 16.4607 39.2966 16.4607C39.877 16.4607 40.3475 16.9312 40.3475 17.5116ZM34.0423 7.0028C34.6227 7.0028 35.0931 7.47323 35.0931 8.05363C35.0931 8.63403 34.6227 9.10445 34.0423 9.10445C33.4619 9.10445 32.9914 8.63403 32.9914 8.05363C32.9919 7.4736 33.4621 7.00342 34.0423 7.0028ZM34.2505 11.8503L37.4056 15.005C36.9151 15.3755 36.5438 15.8816 36.3376 16.4606H33.8486C33.6004 15.7648 33.1154 15.1785 32.4785 14.8041L34.2505 11.8503ZM27.7183 9.96982L31.1409 9.28536C31.4095 9.9048 31.8696 10.422 32.4534 10.761L30.5458 13.9404L27.2482 11.8244C27.5659 11.3256 27.7353 10.7468 27.7371 10.1554C27.7371 10.0919 27.7219 10.0324 27.7183 9.96982ZM31.9405 17.5116C31.9405 18.092 31.4701 18.5624 30.8897 18.5624C30.3095 18.5618 29.8393 18.0917 29.8388 17.5116C29.8388 16.9312 30.3093 16.4607 30.8897 16.4607C31.4701 16.4607 31.9405 16.9312 31.9405 17.5116ZM24.5845 9.10458C25.1649 9.10458 25.6353 9.57501 25.6353 10.1554C25.6353 10.7358 25.1649 11.2062 24.5845 11.2062C24.0041 11.2062 23.5336 10.7358 23.5336 10.1554C23.5341 9.57525 24.0043 9.10519 24.5845 9.10458ZM23.4407 13.0855C24.0809 13.3495 24.7937 13.3797 25.454 13.1708L28.6986 15.2526C28.3533 15.5909 28.0905 16.0043 27.9308 16.4606H23.3399C23.1105 15.8101 22.6743 15.2526 22.098 14.8737L23.4407 13.0855ZM20.3809 18.5624C19.8005 18.5624 19.3301 18.092 19.3301 17.5116C19.3307 16.9314 19.8008 16.4612 20.3809 16.4607C20.9613 16.4607 21.4317 16.9312 21.4317 17.5116C21.4317 18.092 20.9613 18.5624 20.3809 18.5624ZM23.5335 28.0202C22.9531 28.0202 22.4827 27.5496 22.4827 26.9694C22.4827 26.389 22.9531 25.9185 23.5335 25.9185C24.1139 25.9185 24.5843 26.3891 24.5843 26.9694C24.5838 27.5495 24.1137 28.0196 23.5335 28.0202ZM24.1312 23.8771C23.9344 23.8379 23.7341 23.8177 23.5335 23.8166C23.4295 23.8166 23.3312 23.8374 23.2297 23.8474L21.7977 20.3122C22.5168 19.9478 23.0686 19.3215 23.3398 18.5624H27.9307C28.1199 19.0917 28.4476 19.5605 28.8796 19.92L24.1312 23.8771ZM32.1342 25.9184H26.4924C26.3802 25.6036 26.2183 25.3088 26.0129 25.0453L31.1739 20.7444L32.9313 24.6862C32.5722 25.0283 32.2991 25.4506 32.1342 25.9184ZM33.8486 18.5624H36.3378C36.5859 19.2582 37.0709 19.8445 37.7078 20.2189L35.5229 23.8602C35.3808 23.8358 35.2373 23.8213 35.0932 23.8168C35.0118 23.8168 34.9353 23.8347 34.8554 23.8408L33.0514 19.7947C33.4105 19.4525 33.6837 19.0302 33.8486 18.5624ZM35.0931 28.0202C34.5127 28.0202 34.0423 27.5496 34.0423 26.9694C34.0423 26.389 34.5128 25.9185 35.0931 25.9185C35.6735 25.9185 36.1439 26.3891 36.1439 26.9694C36.1434 27.5495 35.6732 28.0196 35.0931 28.0202ZM39.5788 21.185L42.5135 23.5328C42.0518 23.9269 41.7143 24.4464 41.5419 25.0284L37.9945 25.7379C37.8483 25.402 37.6449 25.0943 37.3931 24.8283L39.5788 21.185ZM41.3983 38.5288C40.8179 38.5288 40.3475 38.0584 40.3475 37.478C40.3475 36.8976 40.8179 36.4272 41.3983 36.4272C41.9787 36.4272 42.4491 36.8976 42.4491 37.478C42.4486 38.0581 41.9784 38.5283 41.3983 38.5288ZM45.6017 33.2746C45.6055 33.6257 45.6687 33.9736 45.7885 34.3036L44.0146 35.7216C43.3513 34.6856 42.1276 34.1531 40.9174 34.374L37.4287 29.0674C37.7404 28.7199 37.9705 28.3072 38.1021 27.8595L41.6495 27.15C42.3258 28.7474 44.1666 29.4969 45.7663 28.8262L47.0626 30.6232C46.1545 31.1993 45.6036 32.1991 45.6017 33.2746ZM46.6252 23.5631L48.6303 18.5498C48.6723 18.5515 48.7118 18.5624 48.7543 18.5624C48.8809 18.5575 49.0071 18.5446 49.1323 18.5242L50.4046 21.0624C49.3916 21.609 48.7584 22.6657 48.7543 23.8168C48.7543 23.8594 48.7653 23.8989 48.7669 23.9411L47.354 24.506C47.1733 24.1483 46.9259 23.8282 46.6252 23.5631ZM48.7543 34.3254C48.1739 34.3254 47.7035 33.855 47.7035 33.2746C47.7041 32.6944 48.1742 32.2242 48.7543 32.2237C49.3347 32.2237 49.8052 32.6942 49.8052 33.2746C49.8052 33.855 49.3347 34.3254 48.7543 34.3254Z" fill="#4556CB"/>
    </g>
    <defs>
        <clipPath id="clip0">
            <rect width="63.0714" height="63.0714" fill="white" transform="translate(0.923584 0.678284)"/>
        </clipPath>
    </defs>
</svg>
