<svg width="76" height="76" viewBox="0 0 76 76" fill="none" xmlns="http://www.w3.org/2000/svg">
<g clip-path="url(#clip0)">
<path d="M73.1603 35.5115C72.9229 35.2216 72.5682 35.0537 72.1935 35.0537H57.1935V18.8037C57.1935 8.44849 48.7993 0.0537109 38.4435 0.0537109C28.0883 0.0537109 19.6935 8.44849 19.6935 18.8037V35.0537H4.69348C4.31812 35.0537 3.96289 35.2222 3.72547 35.5133C3.48804 35.8038 3.39344 36.1859 3.46851 36.554L10.9685 74.054C11.0875 74.6356 11.5996 75.0537 12.1935 75.0537H64.6935C65.288 75.0537 65.8 74.6356 65.9185 74.054L73.4185 36.554C73.4935 36.1847 73.3989 35.802 73.1603 35.5115ZM22.1935 18.8037C22.1935 9.8291 29.4689 2.55371 38.4435 2.55371C47.4181 2.55371 54.6935 9.8291 54.6935 18.8037V35.0537H48.3049C49.9926 33.4125 50.9441 31.1578 50.9435 28.8037V16.2286C50.941 15.5688 50.4241 15.0262 49.7649 14.9927C49.6898 14.9866 49.6141 14.9866 49.5385 14.9927C47.1654 15.2844 44.7747 14.6021 42.9137 13.1C42.849 13.0511 42.7812 13.006 42.7111 12.9651C42.1007 12.6416 41.3445 12.8748 41.021 13.4851C38.4905 18.2764 32.6006 20.1752 27.7477 17.7649C27.578 17.6721 27.387 17.6251 27.1935 17.6288C26.5032 17.6288 25.9435 18.1885 25.9435 18.8788V28.8037C25.9435 31.1578 26.895 33.4125 28.5826 35.0537H22.1935V18.8037ZM28.4435 28.8037V20.7074C33.6882 22.3975 39.4188 20.4144 42.4962 15.8435C44.2821 16.9537 46.3408 17.5458 48.4435 17.5537V28.8037C48.4398 32.254 45.6438 35.0494 42.1935 35.0537H34.6935C31.2438 35.0494 28.4478 32.254 28.4435 28.8037ZM63.6699 72.5537H13.2177L6.21875 37.5537H70.6688L63.6699 72.5537Z" fill="#FACA21"/>
<path d="M35.9435 26.3037H33.4435C32.7532 26.3037 32.1935 25.744 32.1935 25.0537C32.1935 24.3634 32.7532 23.8037 33.4435 23.8037H35.9435C36.6338 23.8037 37.1935 24.3634 37.1935 25.0537C37.1935 25.744 36.6338 26.3037 35.9435 26.3037Z" fill="#FACA21"/>
<path d="M43.4435 26.3037H40.9435C40.2532 26.3037 39.6935 25.744 39.6935 25.0537C39.6935 24.3634 40.2532 23.8037 40.9435 23.8037H43.4435C44.1338 23.8037 44.6935 24.3634 44.6935 25.0537C44.6935 25.744 44.1338 26.3037 43.4435 26.3037Z" fill="#FACA21"/>
<path d="M38.4435 61.3037C34.9919 61.3037 32.1935 58.5053 32.1935 55.0537C32.1935 51.6022 34.9919 48.8037 38.4435 48.8037C41.8956 48.8037 44.6935 51.6022 44.6935 55.0537C44.6898 58.504 41.8938 61.2994 38.4435 61.3037ZM38.4435 51.3037C36.3726 51.3037 34.6935 52.9828 34.6935 55.0537C34.6935 57.1246 36.3726 58.8037 38.4435 58.8037C40.515 58.8037 42.1935 57.1246 42.1935 55.0537C42.1935 52.9828 40.515 51.3037 38.4435 51.3037Z" fill="#FACA21"/>
</g>
<defs>
<clipPath id="clip0">
<rect width="75" height="75" fill="white" transform="translate(0.943481 0.0537109)"/>
</clipPath>
</defs>
</svg>
