<svg width="79" height="79" viewBox="0 0 79 79" fill="none" xmlns="http://www.w3.org/2000/svg">
    <g clip-path="url(#clip0)">
        <path d="M71.1131 7.12679H63.8716V4.99994C63.8716 2.4869 61.8271 0.442383 59.314 0.442383C56.801 0.442383 54.7565 2.4869 54.7565 4.99994V7.12679H29.2342V4.99994C29.2342 2.4869 27.1897 0.442383 24.6766 0.442383C22.1636 0.442383 20.1191 2.4869 20.1191 4.99994V7.183C19.9899 7.1473 19.8546 7.12679 19.7141 7.12679H13.661C9.47262 7.12679 6.06509 10.5343 6.06509 14.7227V40.5994C6.06509 41.4385 6.74539 42.1186 7.58428 42.1186C8.42317 42.1186 9.10346 41.4385 9.10346 40.5994V22.7744H63.8716C64.7105 22.7744 65.3908 22.0942 65.3908 21.2552C65.3908 20.4162 64.7105 19.736 63.8716 19.736H9.10346V14.7227C9.10346 12.2097 11.148 10.1652 13.661 10.1652H19.7141C19.8546 10.1652 19.9899 10.1445 20.1191 10.109V12.0641C20.1191 14.5772 22.1636 16.6217 24.6766 16.6217C27.1897 16.6217 29.2342 14.5772 29.2342 12.0641V10.1652H54.7565V12.0641C54.7565 14.5772 56.801 16.6217 59.314 16.6217C61.8271 16.6217 63.8716 14.5772 63.8716 12.0641V10.1652H71.1131C73.6261 10.1652 75.6706 12.2097 75.6706 14.7227V72.4508C75.6706 73.959 74.4436 75.1862 72.9352 75.1862C71.4268 75.1862 70.1997 73.959 70.1997 72.4508V68.5208C70.1997 67.6818 69.5194 67.0016 68.6805 67.0016H51.0092C50.1703 67.0016 49.4901 67.6818 49.4901 68.5208C49.4901 69.3599 50.1703 70.04 51.0092 70.04H67.1614V72.4508C67.1614 73.4399 67.4117 74.3715 67.8518 75.1862H6.69966C5.19187 75.1862 3.96513 73.9595 3.96513 72.4517V70.04H37.9683C38.8072 70.04 39.4874 69.3599 39.4874 68.5208C39.4874 67.6818 38.8072 67.0016 37.9683 67.0016H22.7892C25.4438 64.7154 27.1295 61.3337 27.1295 57.5637C27.1295 50.6947 21.5412 45.1064 14.6722 45.1064C7.80319 45.1064 2.21487 50.6947 2.21487 57.5637C2.21487 61.3337 3.90056 64.7154 6.55518 67.0016H2.44594C1.60705 67.0016 0.926758 67.6818 0.926758 68.5208V72.4517C0.926758 75.6349 3.51651 78.2246 6.69966 78.2246H72.9352C76.1188 78.2246 78.709 75.6346 78.709 72.4508V14.7227C78.709 10.5343 75.3015 7.12679 71.1131 7.12679ZM26.1958 12.0641C26.1958 12.9018 25.5143 13.5833 24.6766 13.5833C23.8389 13.5833 23.1574 12.9018 23.1574 12.0641V4.99994C23.1574 4.16226 23.8389 3.48075 24.6766 3.48075C25.5143 3.48075 26.1958 4.16226 26.1958 4.99994V12.0641ZM60.8332 12.0641C60.8332 12.9018 60.1517 13.5833 59.314 13.5833C58.4763 13.5833 57.7948 12.9018 57.7948 12.0641V4.99994C57.7948 4.16226 58.4763 3.48075 59.314 3.48075C60.1517 3.48075 60.8332 4.16226 60.8332 4.99994V12.0641ZM5.25324 57.5637C5.25324 52.3701 9.47855 48.1448 14.6722 48.1448C19.8658 48.1448 24.0911 52.3701 24.0911 57.5637C24.0911 62.7573 19.8658 66.9827 14.6722 66.9827C9.47855 66.9827 5.25324 62.7573 5.25324 57.5637Z" fill="#FACA21"/>
        <path d="M72.0715 20.1811C71.7891 19.8986 71.3971 19.736 70.9976 19.736C70.5979 19.736 70.2061 19.8986 69.9235 20.1811C69.6409 20.4637 69.4784 20.8557 69.4784 21.2552C69.4784 21.6548 69.6408 22.0467 69.9235 22.3293C70.2062 22.6118 70.5979 22.7744 70.9976 22.7744C71.3971 22.7744 71.7891 22.6118 72.0715 22.3293C72.3541 22.0467 72.5168 21.6548 72.5168 21.2552C72.5168 20.8557 72.3542 20.4637 72.0715 20.1811Z" fill="#FACA21"/>
        <path d="M46.2971 67.446C46.0147 67.1634 45.6227 67.0024 45.2232 67.0024C44.8236 67.0024 44.4317 67.1634 44.1491 67.446C43.8665 67.7301 43.704 68.1205 43.704 68.52C43.704 68.9211 43.8664 69.3115 44.1491 69.5956C44.4317 69.8782 44.8236 70.0392 45.2232 70.0392C45.6227 70.0392 46.0147 69.8782 46.2971 69.5956C46.5796 69.3115 46.7423 68.9196 46.7423 68.52C46.7423 68.1205 46.5798 67.7301 46.2971 67.446Z" fill="#FACA21"/>
        <path d="M35.2976 46.6256C32.1144 46.6256 29.5247 49.2154 29.5247 52.3985C29.5247 55.5817 32.1144 58.1714 35.2976 58.1714C38.4807 58.1714 41.0705 55.5817 41.0705 52.3985C41.0705 49.2154 38.4807 46.6256 35.2976 46.6256ZM35.2976 55.133C33.7898 55.133 32.563 53.9063 32.563 52.3985C32.563 50.8907 33.7898 49.664 35.2976 49.664C36.8053 49.664 38.0321 50.8907 38.0321 52.3985C38.0321 53.9063 36.8053 55.133 35.2976 55.133Z" fill="#FACA21"/>
        <path d="M49.4765 46.6256C46.2934 46.6256 43.7036 49.2154 43.7036 52.3985C43.7036 55.5817 46.2934 58.1714 49.4765 58.1714C52.6597 58.1714 55.2494 55.5817 55.2494 52.3985C55.2494 49.2154 52.6597 46.6256 49.4765 46.6256ZM49.4765 55.133C47.9687 55.133 46.742 53.9063 46.742 52.3985C46.742 50.8907 47.9687 49.664 49.4765 49.664C50.9843 49.664 52.211 50.8907 52.211 52.3985C52.211 53.9063 50.9843 55.133 49.4765 55.133Z" fill="#FACA21"/>
        <path d="M63.6557 46.6256C60.4725 46.6256 57.8828 49.2154 57.8828 52.3985C57.8828 55.5817 60.4725 58.1714 63.6557 58.1714C66.8388 58.1714 69.4286 55.5817 69.4286 52.3985C69.4286 49.2154 66.8388 46.6256 63.6557 46.6256ZM63.6557 55.133C62.1479 55.133 60.9211 53.9063 60.9211 52.3985C60.9211 50.8907 62.1479 49.664 63.6557 49.664C65.1634 49.664 66.3902 50.8907 66.3902 52.3985C66.3902 53.9063 65.1634 55.133 63.6557 55.133Z" fill="#FACA21"/>
        <path d="M21.1185 30.826C17.9354 30.826 15.3456 33.4158 15.3456 36.599C15.3456 39.7821 17.9354 42.3719 21.1185 42.3719C24.3017 42.3719 26.8914 39.7821 26.8914 36.599C26.8914 33.4158 24.3017 30.826 21.1185 30.826ZM21.1185 39.3335C19.6108 39.3335 18.384 38.1067 18.384 36.599C18.384 35.0912 19.6108 33.8644 21.1185 33.8644C22.6263 33.8644 23.8531 35.0912 23.8531 36.599C23.8531 38.1067 22.6263 39.3335 21.1185 39.3335Z" fill="#FACA21"/>
        <path d="M49.4765 30.826C46.2934 30.826 43.7036 33.4158 43.7036 36.599C43.7036 39.7821 46.2934 42.3719 49.4765 42.3719C52.6597 42.3719 55.2494 39.7821 55.2494 36.599C55.2494 33.4158 52.6597 30.826 49.4765 30.826ZM49.4765 39.3335C47.9687 39.3335 46.742 38.1067 46.742 36.599C46.742 35.0912 47.9687 33.8644 49.4765 33.8644C50.9843 33.8644 52.211 35.0912 52.211 36.599C52.211 38.1067 50.9843 39.3335 49.4765 39.3335Z" fill="#FACA21"/>
        <path d="M63.6557 30.826C60.4725 30.826 57.8828 33.4158 57.8828 36.599C57.8828 39.7821 60.4725 42.3719 63.6557 42.3719C66.8388 42.3719 69.4286 39.7821 69.4286 36.599C69.4286 33.4158 66.8388 30.826 63.6557 30.826ZM63.6557 39.3335C62.1479 39.3335 60.9211 38.1067 60.9211 36.599C60.9211 35.0912 62.1479 33.8644 63.6557 33.8644C65.1634 33.8644 66.3902 35.0912 66.3902 36.599C66.3902 38.1067 65.1634 39.3335 63.6557 39.3335Z" fill="#FACA21"/>
        <path d="M35.2976 30.826C32.1144 30.826 29.5247 33.4158 29.5247 36.599C29.5247 39.7821 32.1144 42.3719 35.2976 42.3719C38.4807 42.3719 41.0705 39.7821 41.0705 36.599C41.0705 33.4158 38.4807 30.826 35.2976 30.826ZM35.2976 39.3335C33.7898 39.3335 32.563 38.1067 32.563 36.599C32.563 35.0912 33.7898 33.8644 35.2976 33.8644C36.8053 33.8644 38.0321 35.0912 38.0321 36.599C38.0321 38.1067 36.8053 39.3335 35.2976 39.3335Z" fill="#FACA21"/>
        <path d="M20.0843 53.8613C19.4909 53.2681 18.5292 53.2681 17.9357 53.8613L12.9883 58.8088L11.2976 57.1181C10.7042 56.5249 9.74258 56.5249 9.14903 57.1181C8.55579 57.7114 8.55579 58.6733 9.14903 59.2667L11.9141 62.0315C12.1991 62.3163 12.5854 62.4765 12.9883 62.4765C13.3912 62.4765 13.7775 62.3163 14.0625 62.0315L20.0843 56.0097C20.6775 55.4165 20.6775 54.4546 20.0843 53.8613Z" fill="#FACA21"/>
    </g>
    <defs>
        <clipPath id="clip0">
            <rect width="77.7822" height="77.7822" fill="white" transform="translate(0.926758 0.442383)"/>
        </clipPath>
    </defs>
</svg>
