<svg width="89" height="89" viewBox="0 0 89 89" fill="none" xmlns="http://www.w3.org/2000/svg">
    <g clip-path="url(#clip0)">
        <path d="M88.0534 41.2301C88.104 41.0933 88.1332 40.95 88.1396 40.8039C88.1396 40.6499 88.1147 40.4967 88.0669 40.3505L87.9543 40.0319C86.7625 28.5129 81.0443 17.939 72.0565 10.637C71.4142 10.1138 70.7428 9.64119 70.0713 9.15648C70.0378 9.12868 70.02 9.08947 69.9836 9.0631C69.9473 9.03672 69.918 9.03957 69.8874 9.02033C62.4563 3.69349 53.5476 0.821574 44.4044 0.804466C44.028 0.804466 43.6495 0.804466 43.368 0.833691C38.4909 0.928495 33.6666 1.85658 29.1025 3.57801C25.1456 0.491542 19.7746 -0.0680149 15.2661 2.13671C10.7576 4.34144 7.90132 8.92481 7.90844 13.943C7.99612 15.6124 8.38389 17.2519 9.05464 18.7823C7.56487 20.8188 6.2533 22.9793 5.1349 25.2411C5.1128 25.276 5.09997 25.3138 5.08072 25.3501C-5.2693 46.7509 3.34289 72.5012 24.4856 83.3687C45.6276 94.2369 71.5796 86.2541 82.9589 65.3823C86.0753 59.6406 87.8467 53.2659 88.1382 46.7402C88.1838 46.0359 88.1995 45.3181 88.1995 44.5996C88.1995 43.4684 88.1411 42.3471 88.0534 41.2301ZM83.8114 33.7385C83.6261 33.5738 83.455 33.3835 83.2612 33.2317C81.3537 31.7832 79.1917 30.7033 76.8872 30.0483C74.7887 29.5215 72.5954 29.4987 70.4862 29.9813C68.692 30.3876 66.8316 30.3968 65.0331 30.0083C61.5432 29.2463 58.7854 28.6454 57.3227 26.3096C55.2277 22.9515 56.21 18.232 58.4204 16.5711C59.1489 16.0686 60.0477 15.8769 60.9181 16.038C62.4663 16.1648 64.0224 15.9025 65.4437 15.276C66.9563 14.5674 68.3 13.5445 69.3856 12.2743C69.6614 12.4874 69.953 12.6792 70.2231 12.8994C76.8109 18.2626 81.5604 25.5476 83.8114 33.7385ZM21.047 3.72414C26.6875 3.73341 31.2573 8.30324 31.2658 13.943C31.2658 18.3097 24.7073 28.3069 21.047 33.375C17.5763 28.6847 14.5604 23.6736 12.0413 18.4102C11.3549 17.0124 10.9429 15.4962 10.8281 13.943C10.8345 8.30181 15.4058 3.73056 21.047 3.72414ZM3.52893 44.5996C3.53463 41.8795 3.80907 39.1658 4.34795 36.4992C4.50406 38.5286 4.76851 40.3341 5.00516 41.9002C5.90972 47.8857 6.76438 53.5283 11.176 58.6883C13.0207 60.8624 16.1101 64.497 20.8866 65.0345C25.6631 65.5719 31.6443 62.824 33.3722 61.9687L34.0351 61.6344C34.9532 61.0563 36.0025 60.7205 37.0852 60.6578C38.9321 60.8253 40.6429 61.6992 41.8618 63.097C44.3531 65.8549 44.9853 70.4597 43.2147 72.9509C42.6473 73.6908 41.8639 74.2354 40.9722 74.5091C39.4461 75.0195 38.1488 76.0538 37.3112 77.4288C36.0773 79.6628 35.8478 82.3151 36.6804 84.728C17.4544 81.0029 3.55887 64.1834 3.52893 44.5996ZM44.4044 85.475C42.9937 85.475 41.5845 85.4023 40.181 85.2576C40.0612 85.1044 39.95 84.9447 39.8481 84.7786C38.8616 82.9538 38.8509 80.7562 39.8203 78.9222C40.3471 78.0853 41.1632 77.4716 42.1127 77.1979C43.5048 76.7182 44.7194 75.8264 45.5941 74.6417C48.1331 71.0713 47.4146 64.8855 44.0323 61.1439C42.2731 59.1324 39.7839 57.9063 37.1173 57.7381H37.0524C35.5149 57.7845 34.0166 58.2307 32.7036 59.0333L32.0806 59.3484C28.8908 60.9208 24.3523 62.4755 21.2109 62.1219C17.5856 61.7163 15.0679 58.7496 13.3978 56.7851C9.52581 52.2595 8.7681 47.252 7.89276 41.4568C6.95328 36.4992 6.91621 31.4133 7.78156 26.4422C8.56352 24.859 9.44669 23.3279 10.4268 21.8581C10.4753 21.955 10.5287 22.0541 10.5729 22.1503C10.6663 22.3356 10.7625 22.5195 10.8645 22.7049C11.0106 22.9807 11.1567 23.2566 11.3029 23.5346C11.4034 23.7213 11.5053 23.9081 11.6094 24.0963C11.764 24.3736 11.9201 24.6509 12.0777 24.9281C12.1832 25.112 12.288 25.2967 12.3949 25.4806C12.5574 25.7579 12.7199 26.0337 12.8839 26.3096C12.9915 26.4906 13.0984 26.6702 13.2075 26.8499C13.38 27.1414 13.5539 27.4144 13.7278 27.696C13.8269 27.8557 13.9246 28.0175 14.0194 28.175C14.2354 28.5214 14.4499 28.8572 14.6645 29.1972C14.7215 29.2848 14.7785 29.3768 14.8341 29.463C15.1014 29.8772 15.3666 30.2814 15.6268 30.6755C15.7258 30.8217 15.8221 30.9678 15.919 31.1139C16.0794 31.3548 16.2398 31.5958 16.3959 31.826L16.7423 32.3328C16.8678 32.5182 16.9946 32.7035 17.1173 32.8803L17.4672 33.3835C17.5756 33.5403 17.6839 33.6936 17.7873 33.8404C17.8907 33.988 18.0076 34.1548 18.1159 34.3052C18.2235 34.4556 18.297 34.5604 18.3832 34.6815L18.6747 35.0843L18.9128 35.4143L19.1452 35.7344L19.3348 35.991L19.513 36.2333L19.6192 36.3795C19.7497 36.5562 19.8487 36.6888 19.8765 36.7252C20.1517 37.093 20.5844 37.3097 21.0441 37.3097C21.5039 37.3097 21.9366 37.093 22.2117 36.7252C23.437 35.1007 34.1855 20.6905 34.1855 13.943C34.1855 13.5167 34.1591 13.0933 34.1185 12.6728C34.1057 12.543 34.085 12.4133 34.0686 12.2836C34.0308 11.9913 33.9859 11.6991 33.9232 11.4075C33.8954 11.2614 33.8648 11.1245 33.8327 10.9841C33.765 10.6919 33.6866 10.4003 33.5975 10.1081C33.5611 9.99118 33.5304 9.87285 33.492 9.75809C33.3608 9.36675 33.2132 8.9797 33.0457 8.60333C33.0137 8.53134 32.9752 8.45721 32.9417 8.39163C32.7955 8.08797 32.6501 7.78717 32.4819 7.49349C32.4092 7.36233 32.3286 7.23545 32.2502 7.10643C32.1098 6.87619 31.9637 6.64952 31.8119 6.42641C31.7213 6.29668 31.6294 6.16694 31.5346 6.03935C31.4847 5.9752 31.4426 5.90677 31.3884 5.84404C34.4257 4.82116 37.5757 4.16822 40.7698 3.89949C38.4938 8.19561 37.7503 12.1695 38.6 15.7243C39.2337 18.1051 40.4362 20.297 42.1041 22.1111C43.4777 23.8119 44.4657 25.0379 44.4044 27.0395C44.2789 31.2729 39.4981 34.797 37.689 36.1285C35.316 37.8372 32.6637 39.1181 29.8502 39.915C27.1985 40.7811 24.9111 41.5281 24.0365 44.1384C23.1719 47.5856 24.5918 51.2024 27.5713 53.1398C29.3569 54.1042 31.4612 54.2903 33.3886 53.6537C35.4999 53.1633 37.6826 53.0585 39.831 53.3458C42.6045 53.7385 44.996 54.0757 46.1301 55.6638C46.803 56.6126 46.7681 57.5934 46.6369 59.3926C46.3375 61.9394 46.5963 64.5212 47.3939 66.9583C48.0597 68.9556 49.0655 71.9715 51.4819 72.3194C51.6387 72.3443 51.7977 72.3572 51.9559 72.3572C53.6659 72.3572 54.7123 70.8474 55.8129 69.2593C56.2991 68.5572 56.8351 67.7995 57.4773 67.0389C60.4818 71.8931 63.5341 75.944 63.6759 76.1365C63.9518 76.5043 64.3845 76.7203 64.8435 76.7203C65.3033 76.7203 65.736 76.5043 66.0118 76.1365C69.1789 71.8953 72.0657 67.4502 74.6525 62.8319C76.446 63.3515 78.1539 64.1299 79.722 65.1428C72.4179 77.7339 58.9607 85.4815 44.4044 85.475ZM71.6523 45.7486C73.8214 47.6832 75.0617 50.4518 75.061 53.3586C75.061 54.4086 74.6347 56.49 72.6103 60.4432C70.2994 64.7265 67.7048 68.8494 64.8421 72.7849C63.4685 70.871 61.1048 67.4737 58.9899 63.9032C57.8109 61.9459 56.7581 59.9165 55.8365 57.8258C55.15 56.428 54.738 54.9118 54.6232 53.3586C54.6297 47.7174 59.2009 43.1462 64.8421 43.1398C65.1579 43.1398 65.4708 43.154 65.7823 43.1825C67.9649 43.38 70.025 44.281 71.6523 45.7486ZM85.2285 46.5898C84.9769 52.1426 83.5776 57.5827 81.1177 62.5674C79.5182 61.5559 77.7946 60.7533 75.9912 60.1788C77.1189 58.0682 77.7967 55.7451 77.9806 53.3586C77.9685 48.349 75.1201 43.7784 70.6273 41.5602L70.5353 41.5195C70.2089 41.362 69.8774 41.2145 69.5388 41.0819C69.3064 40.9913 69.0655 40.9208 68.8274 40.8452C68.6813 40.801 68.5502 40.7461 68.4083 40.6991C68.0319 40.5922 67.6492 40.5052 67.2642 40.4332H67.245C67.0119 40.3897 66.7753 40.3662 66.5386 40.3356C62.7849 39.8159 58.9906 40.9543 56.143 43.4541C53.2946 45.9546 51.6743 49.5693 51.7036 53.3586C51.8169 55.3046 52.308 57.2106 53.1492 58.9692C53.9675 60.8324 54.8906 62.648 55.9141 64.4065C55.0018 65.4051 54.1663 66.4708 53.4143 67.5949C53.013 68.2827 52.5062 68.9029 51.9124 69.4332C51.6202 69.389 51.0791 68.766 50.1603 66.0345C49.4903 63.961 49.28 61.7655 49.5459 59.6028C49.9251 57.6604 49.5523 55.6467 48.5038 53.9688C46.6398 51.362 43.3858 50.903 40.2195 50.4539C37.7581 50.1175 35.2562 50.2301 32.8355 50.7854C30.9679 51.1425 30.1011 51.2758 29.1096 50.6578C27.2983 49.4161 26.3931 47.2199 26.8029 45.0622C27.1928 43.8946 28.3611 43.4726 30.7448 42.69C33.8576 41.7968 36.7916 40.3712 39.4176 38.4758C41.5446 36.9155 47.1551 32.7748 47.3241 27.1257C47.4174 24.035 45.8713 22.1282 44.3766 20.2849C42.9952 18.8051 41.9901 17.0152 41.4455 15.0657C40.67 11.8131 41.6308 7.99887 44.2369 3.72414H44.4044C52.4413 3.73555 60.2979 6.11063 66.9955 10.5536C66.2221 11.4154 65.2862 12.1154 64.2405 12.6136C63.2226 13.0541 62.1099 13.2281 61.0058 13.1197C59.4704 12.9301 57.9207 13.3286 56.6669 14.2353C53.3566 16.7272 51.8732 23.082 54.8485 27.8542C56.9663 31.2365 60.5838 32.0249 64.5342 32.886C66.6605 33.335 68.8581 33.3258 70.9808 32.8582C72.6845 32.4519 74.4608 32.4569 76.1616 32.8746C78.0755 33.4263 79.8717 34.3258 81.4613 35.5269C83.1122 36.8962 84.3639 38.684 85.086 40.7034C85.2057 41.9928 85.2798 43.2859 85.2798 44.5996C85.2798 45.2525 85.267 45.9133 85.2228 46.5898H85.2285Z" fill="#FACA21"/>
        <path d="M21.047 18.3225C24.2717 18.3225 26.8863 15.7086 26.8863 12.4831C26.8863 9.25839 24.2717 6.6438 21.047 6.6438C17.8222 6.6438 15.2076 9.25839 15.2076 12.4831C15.2076 15.7086 17.8222 18.3225 21.047 18.3225ZM21.047 9.56347C22.6594 9.56347 23.9667 10.8708 23.9667 12.4831C23.9667 14.0955 22.6594 15.4028 21.047 15.4028C19.4346 15.4028 18.1273 14.0955 18.1273 12.4831C18.1273 10.8708 19.4346 9.56347 21.047 9.56347Z" fill="#FACA21"/>
        <path d="M59.0028 51.8987C59.0028 55.1242 61.6174 57.7381 64.8422 57.7381C68.0669 57.7381 70.6815 55.1242 70.6815 51.8987C70.6815 48.674 68.0669 46.0594 64.8422 46.0594C61.6174 46.0594 59.0028 48.674 59.0028 51.8987ZM67.7618 51.8987C67.7618 53.5111 66.4545 54.8184 64.8422 54.8184C63.2298 54.8184 61.9225 53.5111 61.9225 51.8987C61.9225 50.2864 63.2298 48.9791 64.8422 48.9791C66.4545 48.9791 67.7618 50.2864 67.7618 51.8987Z" fill="#FACA21"/>
    </g>
    <defs>
        <clipPath id="clip0">
            <rect width="87.4877" height="87.4877" fill="white" transform="translate(0.711914 0.722412)"/>
        </clipPath>
    </defs>
</svg>
