<svg width="140" height="140" viewBox="0 0 140 140" fill="none" xmlns="http://www.w3.org/2000/svg">
<g clip-path="url(#clip0)">
<path d="M70.1165 87.0378C69.4843 86.9995 69.0241 87.5086 69.0157 88.1088C69.001 89.2392 68.5471 90.306 67.7432 91.112C66.0442 92.8045 63.287 92.8026 61.5967 91.112C59.9042 89.4174 59.9042 86.6624 61.5989 84.9677C62.0232 84.5439 62.0232 83.8569 61.5989 83.4325C61.1748 83.0082 60.4875 83.0082 60.0634 83.4325C57.5225 85.9734 57.5203 90.109 60.0612 92.6478C61.3315 93.9181 62.9985 94.5546 64.6676 94.5525C66.3368 94.5525 68.0081 93.9181 69.2787 92.6456C70.4854 91.4367 71.164 89.8376 71.1874 88.1386C71.1961 87.5385 70.7166 87.0463 70.1165 87.0378Z" fill="#FACA21" stroke="#FACA21"/>
<path d="M62.4832 55.2663C61.2933 54.21 59.7556 53.6289 58.1566 53.6289C54.5637 53.6289 51.6411 56.5523 51.6411 60.1463C51.6411 63.7383 54.5637 66.6598 58.1566 66.6598C58.7567 66.6598 59.2424 66.174 59.2424 65.5737C59.2424 64.9733 58.7567 64.4878 58.1566 64.4878C55.7618 64.4878 53.8128 62.5399 53.8128 60.1463C53.8128 57.7499 55.7621 55.8006 58.1566 55.8006C59.2253 55.8006 60.2498 56.1878 61.0409 56.8908C61.4908 57.2864 62.1756 57.2481 62.5744 56.7996C62.9733 56.351 62.9306 55.664 62.4832 55.2663Z" fill="#FACA21" stroke="#FACA21"/>
<path d="M52.7269 70.665C50.3324 70.665 48.3832 72.6143 48.3832 75.0106C48.3832 76.7393 49.4055 78.3 50.9877 78.9914C51.1279 79.0509 51.2762 79.0805 51.4205 79.0805C51.8383 79.0805 52.2393 78.8366 52.4148 78.4274C52.6547 77.8781 52.4042 77.2397 51.853 76.9979C51.064 76.6545 50.5549 75.874 50.5549 75.0106C50.5549 73.8123 51.5286 72.8368 52.7269 72.8368C53.327 72.8368 53.8128 72.351 53.8128 71.7509C53.8128 71.1508 53.327 70.665 52.7269 70.665Z" fill="#FACA21" stroke="#FACA21"/>
<path d="M53.8658 62.0958C50.5148 61.399 47.2996 64.0353 47.2974 67.4108C47.2974 70.4024 49.7324 72.836 52.727 72.836C53.3271 72.836 53.8131 72.3503 53.8131 71.7501C53.8131 71.15 53.3274 70.6643 52.7273 70.6643C50.9307 70.6643 49.4694 69.2049 49.4694 67.4108C49.4694 65.3841 51.4037 63.8052 53.4206 64.2208C54.0166 64.3461 54.5828 63.9676 54.7058 63.38C54.8289 62.7935 54.4513 62.2178 53.8658 62.0958Z" fill="#FACA21" stroke="#FACA21"/>
<path d="M65.7575 48.9463C62.7629 48.9463 60.3282 51.3842 60.3282 54.3799C60.3282 57.3716 62.7629 59.8052 65.7575 59.8052C66.3579 59.8052 66.8437 59.3197 66.8434 58.7193C66.8434 58.1192 66.3577 57.6335 65.7573 57.6335C63.961 57.6335 62.4997 56.1741 62.4997 54.3799C62.4997 52.5815 63.961 51.118 65.7573 51.118C67.5538 51.118 69.0151 52.5815 69.0151 54.3799C69.0151 54.9801 69.5009 55.4658 70.1013 55.4658C70.7014 55.4658 71.1871 54.9801 71.1871 54.3799C71.1871 51.3842 68.7522 48.9463 65.7575 48.9463Z" fill="#FACA21" stroke="#FACA21"/>
<path d="M64.2987 75.3814C62.6532 73.7356 60.4706 72.832 58.1547 72.832C58.1547 72.832 58.1547 72.832 58.1525 72.832C55.8362 72.832 53.6561 73.7356 52.0144 75.3792C48.6253 78.7683 48.6231 84.2805 52.01 87.6676C53.6517 89.3071 55.8851 90.2148 58.1715 90.2148C58.6146 90.2148 59.058 90.1808 59.4991 90.1132C60.0908 90.02 60.4959 89.4642 60.4049 88.8725C60.3136 88.2808 59.7474 87.8863 59.1642 87.9667C57.1196 88.2914 55.0155 87.6 53.5458 86.1324C51.0051 83.5934 51.0073 79.4575 53.5501 76.9147C54.7824 75.6827 56.4176 75.0038 58.1525 75.0038H58.1547C59.8914 75.0038 61.5291 75.6827 62.7632 76.9169C63.1873 77.3412 63.8746 77.3412 64.2987 76.9169C64.7231 76.4928 64.7231 75.8057 64.2987 75.3814Z" fill="#FACA21" stroke="#FACA21"/>
<path d="M80.1408 83.4324C79.7168 83.0081 79.0297 83.0083 78.6054 83.4324C78.181 83.8565 78.181 84.5435 78.6054 84.9676C80.2976 86.6623 80.2976 89.4173 78.6054 91.112C76.917 92.8066 74.1601 92.8066 72.4589 91.1141C71.6561 90.3062 71.2024 89.2394 71.1874 88.1089C71.1769 87.5088 70.6952 87.0168 70.0866 87.038C69.4863 87.0464 69.007 87.5387 69.0155 88.1388C69.0388 89.8378 69.7177 91.4369 70.9242 92.648C72.1948 93.9183 73.8628 94.5548 75.5342 94.5548C77.2011 94.5548 78.8724 93.9183 80.1408 92.6477C82.6818 90.109 82.6818 85.9733 80.1408 83.4324Z" fill="#FACA21" stroke="#FACA21"/>
<path d="M82.045 53.6289C80.4459 53.6289 78.9105 54.21 77.7184 55.2663C77.2731 55.664 77.2307 56.351 77.6293 56.7996C78.0237 57.2481 78.7113 57.2864 79.1607 56.8908C79.9539 56.1878 80.9762 55.8006 82.045 55.8006C84.4416 55.8006 86.3887 57.7499 86.3887 60.1463C86.3887 62.5397 84.4416 64.4878 82.045 64.4878C81.447 64.4878 80.9594 64.9733 80.9594 65.5737C80.9594 66.1738 81.447 66.6595 82.045 66.6595C85.6381 66.6595 88.5607 63.738 88.5604 60.1463C88.5604 56.5526 85.6381 53.6289 82.045 53.6289Z" fill="#FACA21" stroke="#FACA21"/>
<path d="M87.4748 70.665C86.8769 70.665 86.389 71.1508 86.389 71.7509C86.389 72.351 86.8769 72.8368 87.4748 72.8368C88.6753 72.8368 89.6465 73.8123 89.6465 75.0106C89.6465 75.8737 89.1377 76.6542 88.3488 76.9979C87.797 77.2397 87.5468 77.8784 87.7886 78.4274C87.9625 78.8368 88.3656 79.0805 88.781 79.0805C88.9255 79.0805 89.0739 79.0506 89.2138 78.9914C90.796 78.3 91.8183 76.7393 91.8183 75.0106C91.8183 72.6143 89.8715 70.665 87.4748 70.665Z" fill="#FACA21" stroke="#FACA21"/>
<path d="M86.3382 62.0957C85.7527 62.2177 85.3754 62.7934 85.4982 63.3799C85.6169 63.9673 86.1896 64.346 86.7834 64.2207C88.8025 63.7988 90.7324 65.3829 90.7324 67.4107C90.7324 69.205 89.2733 70.6642 87.4748 70.6642C86.8769 70.6642 86.389 71.1499 86.389 71.75C86.389 72.3501 86.8769 72.8359 87.4748 72.8359C90.4694 72.8359 92.9041 70.4023 92.9044 67.4107C92.9044 64.0355 89.6976 61.3992 86.3382 62.0957Z" fill="#FACA21" stroke="#FACA21"/>
<path d="M74.4439 48.9463C71.4501 48.9463 69.0154 51.3842 69.0154 54.3799C69.0154 54.9801 69.5012 55.4658 70.1015 55.4658C70.7017 55.4658 71.1874 54.9801 71.1874 54.3799C71.1874 52.5815 72.6498 51.118 74.4439 51.118C76.2424 51.118 77.7015 52.5815 77.7015 54.3799C77.7015 56.1743 76.2424 57.6335 74.4439 57.6335C73.8457 57.6335 73.3581 58.1192 73.3581 58.7193C73.3581 59.3194 73.8457 59.8052 74.4439 59.8052C77.4385 59.8052 79.8732 57.3716 79.8732 54.3799C79.8732 51.3842 77.4385 48.9463 74.4439 48.9463Z" fill="#FACA21" stroke="#FACA21"/>
<path d="M88.1874 75.3792C86.5457 73.7356 84.3653 72.832 82.0493 72.832C79.7336 72.832 77.5491 73.7356 75.9031 75.3814C75.4787 75.8055 75.479 76.4925 75.9031 76.9169C76.3271 77.3412 77.0142 77.3412 77.4385 76.9169C78.673 75.6827 80.3104 75.0038 82.0493 75.0038C83.7842 75.0038 85.4218 75.6827 86.6517 76.9147C89.1969 79.4575 89.1969 83.5934 86.656 86.1302C85.1885 87.6 83.0887 88.2914 81.0398 87.9667C80.4546 87.8757 79.8904 88.2786 79.7969 88.8725C79.7081 89.4639 80.111 90.0197 80.7048 90.1132C81.146 90.1808 81.5872 90.2148 82.0281 90.2148C84.3188 90.2148 86.5498 89.3071 88.1918 87.6676C91.5808 84.2807 91.5768 78.7686 88.1874 75.3792Z" fill="#FACA21" stroke="#FACA21"/>
<path d="M88.5564 109.757H51.6368C51.0367 109.757 50.5509 110.242 50.5509 110.843V126.045C50.5509 126.334 50.6653 126.609 50.869 126.813L55.2128 131.157C55.4162 131.36 55.692 131.475 55.9805 131.475H84.2129C84.5012 131.475 84.7769 131.36 84.9807 131.157L89.3241 126.813C89.5276 126.609 89.6422 126.334 89.6422 126.045V110.843C89.6422 110.242 89.1546 109.757 88.5564 109.757ZM87.4705 125.596L83.7633 129.303H56.4301L52.7226 125.596V111.929H87.4705V125.596Z" fill="#FACA21" stroke="#FACA21"/>
<path d="M90.6689 114.1L49.4077 116.272C48.8098 116.306 48.3496 116.815 48.3814 117.415C48.411 117.994 48.8905 118.443 49.465 118.443C49.4841 118.443 49.5031 118.443 49.5224 118.443L90.7835 116.272C91.3817 116.238 91.8438 115.729 91.8099 115.129C91.7802 114.53 91.2798 114.087 90.6689 114.1Z" fill="#FACA21" stroke="#FACA21"/>
<path d="M90.6689 120.616L49.4077 122.787C48.8098 122.821 48.3496 123.33 48.3814 123.931C48.411 124.509 48.8905 124.959 49.465 124.959C49.4841 124.959 49.5031 124.959 49.5224 124.959L90.7835 122.787C91.3817 122.753 91.8438 122.244 91.8099 121.644C91.7802 121.046 91.2798 120.586 90.6689 120.616Z" fill="#FACA21" stroke="#FACA21"/>
<path d="M70.0972 35.915C49.7386 35.915 33.1765 52.4774 33.1765 72.8357C33.1765 85.6588 39.6602 97.3044 50.5509 104.111V110.842C50.5509 111.442 51.0366 111.928 51.6367 111.928H88.5563C89.1545 111.928 89.6422 111.442 89.6422 110.842V104.111C100.531 97.3066 107.017 85.6609 107.017 72.8357C107.017 52.4771 90.4526 35.915 70.0972 35.915ZM87.9964 102.575C87.6699 102.77 87.4705 103.122 87.4705 103.504V109.756H52.7231V103.504C52.7231 103.122 52.5237 102.77 52.1972 102.575C41.6477 96.212 35.3485 85.0942 35.3485 72.8354C35.3485 53.6754 50.9372 38.0868 70.0975 38.0868C89.2564 38.0868 104.845 53.6754 104.845 72.8354C104.845 85.0986 98.5459 96.2142 87.9964 102.575Z" fill="#FACA21" stroke="#FACA21"/>
<path d="M80.3614 129.426C79.8311 129.154 79.178 129.366 78.9023 129.892C78.8216 130.047 76.8533 133.646 70.0975 133.646C63.3487 133.646 61.3761 130.057 61.2913 129.894C61.0218 129.364 60.3752 129.154 59.8384 129.417C59.3019 129.684 59.0854 130.337 59.3527 130.874C59.4543 131.075 61.9189 135.818 70.0972 135.818C78.2744 135.818 80.7387 131.075 80.8409 130.874C81.1079 130.342 80.8917 129.697 80.3614 129.426Z" fill="#FACA21" stroke="#FACA21"/>
<path d="M23.4033 71.75H1.68547C1.08508 71.75 0.599609 72.2357 0.599609 72.8359C0.599609 73.4363 1.08508 73.9217 1.68547 73.9217H23.4033C24.0036 73.9217 24.4894 73.4363 24.4894 72.8359C24.4894 72.2357 24.0036 71.75 23.4033 71.75Z" fill="#FACA21" stroke="#FACA21"/>
<path d="M138.508 71.75H116.79C116.188 71.75 115.704 72.2357 115.704 72.8359C115.704 73.4363 116.188 73.9217 116.79 73.9217H138.508C139.106 73.9217 139.594 73.4363 139.594 72.8359C139.594 72.2357 139.106 71.75 138.508 71.75Z" fill="#FACA21" stroke="#FACA21"/>
<path d="M30.6017 95.6391C30.3047 95.1172 29.6389 94.9433 29.1192 95.2403L10.3066 106.099C9.78719 106.401 9.60898 107.064 9.91026 107.584C10.1094 107.932 10.4764 108.127 10.8497 108.127C11.0342 108.127 11.2208 108.08 11.3928 107.983L30.205 97.1238C30.7247 96.8225 30.9027 96.1585 30.6017 95.6391Z" fill="#FACA21" stroke="#FACA21"/>
<path d="M130.279 38.087C129.982 37.5651 129.316 37.3913 128.798 37.6893L109.994 48.5482C109.473 48.8484 109.294 49.512 109.595 50.0318C109.795 50.3808 110.164 50.5748 110.537 50.5748C110.72 50.5748 110.907 50.5281 111.08 50.4295L129.884 39.5706C130.402 39.2704 130.58 38.6064 130.279 38.087Z" fill="#FACA21" stroke="#FACA21"/>
<path d="M104.845 12.6498C104.319 12.3477 103.657 12.5268 103.36 13.0476L92.5053 31.8558C92.2043 32.3755 92.3825 33.0392 92.9041 33.3393C93.0739 33.438 93.2603 33.4847 93.4472 33.4847C93.8205 33.4847 94.1853 33.2894 94.3845 32.9416L105.239 14.1334C105.541 13.6137 105.362 12.9498 104.845 12.6498Z" fill="#FACA21" stroke="#FACA21"/>
<path d="M71.1853 4.42375C71.1853 3.82364 70.6995 3.33789 70.0994 3.33789C69.499 3.33789 69.0133 3.82472 69.0133 4.42375L69.0154 26.1377C69.0154 26.7379 69.5012 27.2236 70.1016 27.2236C70.7017 27.2236 71.1874 26.7368 71.1874 26.1377L71.1853 4.42375Z" fill="#FACA21" stroke="#FACA21"/>
<path d="M47.6943 31.8513L36.8351 13.0474C36.536 12.5256 35.8701 12.3506 35.3526 12.6497C34.8329 12.9499 34.655 13.6136 34.956 14.1333L45.8151 32.9372C46.0143 33.2863 46.3813 33.4802 46.7546 33.4802C46.939 33.4802 47.1257 33.4335 47.2976 33.3349C47.8173 33.0347 47.9953 32.371 47.6943 31.8513Z" fill="#FACA21" stroke="#FACA21"/>
<path d="M129.889 106.096L111.08 95.2364C110.559 94.9394 109.897 95.1133 109.596 95.6352C109.295 96.1546 109.473 96.8188 109.995 97.1198L128.803 107.979C128.972 108.076 129.159 108.123 129.346 108.123C129.719 108.123 130.084 107.928 130.283 107.58C130.584 107.06 130.406 106.397 129.889 106.096Z" fill="#FACA21" stroke="#FACA21"/>
<path d="M30.205 48.5392L11.399 37.6844C10.8815 37.3875 10.2156 37.5624 9.91649 38.0821C9.61548 38.6016 9.79343 39.2655 10.3131 39.5657L29.1192 50.4205C29.2911 50.5191 29.4778 50.5659 29.6622 50.5659C30.0355 50.5659 30.4023 50.3705 30.6017 50.0228C30.9027 49.5031 30.7247 48.8394 30.205 48.5392Z" fill="#FACA21" stroke="#FACA21"/>
<path d="M70.1015 53.2939C69.5011 53.2939 69.0154 53.7797 69.0154 54.3798V88.1233C69.0154 88.7234 69.5011 89.2092 70.1015 89.2092C70.7016 89.2092 71.1874 88.7234 71.1874 88.1233V54.3798C71.1874 53.7797 70.7016 53.2939 70.1015 53.2939Z" fill="#FACA21" stroke="#FACA21"/>
<path d="M73.3538 79.3506C71.9 79.3506 71.0834 77.798 71.0706 77.7746C70.8011 77.2422 70.1499 77.0262 69.6177 77.2932C69.0812 77.5603 68.8628 78.2096 69.1298 78.748C69.185 78.8627 70.5406 81.5223 73.3538 81.5223C73.9517 81.5223 74.4396 81.0366 74.4396 80.4365C74.4396 79.8361 73.9517 79.3506 73.3538 79.3506Z" fill="#FACA21" stroke="#FACA21"/>
<path d="M70.5765 77.2972C70.0462 77.0301 69.3928 77.2464 69.1192 77.7745C69.1108 77.7895 68.292 79.3505 66.8372 79.3505C66.2371 79.3505 65.7513 79.8359 65.7513 80.4363C65.7513 81.0365 66.2371 81.5222 66.8372 81.5222C69.6495 81.5222 71.0049 78.8626 71.0598 78.7479C71.3274 78.2135 71.1087 77.5686 70.5765 77.2972Z" fill="#FACA21" stroke="#FACA21"/>
<path d="M75.5257 66.3203C71.3675 66.3203 71.1936 63.3879 71.1874 63.0529C71.183 62.458 70.6973 61.9766 70.1015 61.9766C69.5012 61.9766 69.0154 62.4623 69.0154 63.0624C69.0154 64.9405 70.3748 68.492 75.5254 68.492C76.1236 68.492 76.6113 68.0063 76.6115 67.4061C76.6115 66.806 76.1236 66.3203 75.5257 66.3203Z" fill="#FACA21" stroke="#FACA21"/>
<path d="M70.0994 61.9824C69.4756 61.9357 69.0135 62.4562 69.0029 63.0533C68.9964 63.3875 68.8225 66.3207 64.6655 66.3207C64.0654 66.3207 63.5796 66.8065 63.5796 67.4066C63.5796 68.0067 64.0654 68.4924 64.6655 68.4924C69.815 68.4924 71.1747 64.9409 71.1747 63.0631C71.1747 62.4671 70.6952 61.9876 70.0994 61.9824Z" fill="#FACA21" stroke="#FACA21"/>
</g>
<defs>
<clipPath id="clip0">
<rect width="138.994" height="138.994" fill="white" transform="translate(0.599609 0.0810547)"/>
</clipPath>
</defs>
</svg>
