<svg width="119" height="115" viewBox="0 0 119 115" fill="none" xmlns="http://www.w3.org/2000/svg">
<g clip-path="url(#clip0)">
<path d="M100.602 38.1113H1.95435C1.0172 38.1113 0.252686 38.8758 0.252686 39.7883V87.1391C0.252686 88.0762 1.0172 88.8408 1.92969 88.8408H69.0099C69.9471 88.8408 70.7116 88.0762 70.7116 87.1391C70.7116 86.2019 69.9471 85.4374 69.0099 85.4374H3.63136V41.49H98.9001V45.7072C98.9001 46.6443 99.6646 47.4088 100.577 47.4088C101.514 47.4088 102.279 46.6443 102.279 45.7318V39.813C102.279 38.8758 101.539 38.1113 100.602 38.1113Z" fill="#FACA21"/>
<path d="M89.134 30.2685L10.216 12.512C9.77213 12.4134 9.32822 12.4873 8.93363 12.734C8.5637 12.9806 8.29242 13.3505 8.19377 13.7944L4.24788 31.551C4.05058 32.4635 4.61781 33.3759 5.53029 33.5732C6.44278 33.7705 7.35527 33.2033 7.55257 32.2908L11.1285 16.1866L88.3941 33.5732C88.5174 33.5979 88.6407 33.6226 88.764 33.6226C89.7012 33.6226 90.4657 32.858 90.4411 31.9209C90.4411 31.1317 89.8985 30.4412 89.134 30.2685Z" fill="#FACA21"/>
<path d="M79.5406 20.4779L32.1898 0.748405C31.376 0.403139 30.4141 0.748405 30.0196 1.56225L26.0737 9.45404C25.6297 10.2679 25.9257 11.3037 26.7642 11.7476C27.578 12.1915 28.6138 11.8956 29.0577 11.0571C29.0824 11.0324 29.0824 10.9831 29.1071 10.9584L32.3378 4.47235L78.2335 23.5853C79.0966 23.9552 80.0831 23.536 80.453 22.6728C80.823 21.8343 80.4037 20.8478 79.5406 20.4779Z" fill="#FACA21"/>
<path d="M80.749 46.0029H65.0887C64.1515 46.0029 63.387 46.7674 63.387 47.7046C63.387 48.6417 64.1515 49.4063 65.0887 49.4063H80.749C81.6861 49.4063 82.4506 48.6417 82.4506 47.7046C82.4506 46.7674 81.6615 46.0029 80.749 46.0029Z" fill="#FACA21"/>
<path d="M49.3051 46.126C39.7117 46.126 31.9432 53.8945 31.9432 63.4879C31.9432 73.0814 39.7117 80.8499 49.3051 80.8499C58.8986 80.8499 66.6671 73.0814 66.6671 63.4879C66.6671 53.8945 58.8739 46.126 49.3051 46.126ZM49.3051 77.6931C41.4627 77.6931 35.0999 71.3304 35.0999 63.4879C35.0999 55.6455 41.4627 49.2827 49.3051 49.2827C57.1476 49.2827 63.5104 55.6455 63.5104 63.4879C63.5104 71.3304 57.1476 77.6931 49.3051 77.6931Z" fill="#FACA21"/>
<path d="M96.6559 51.6504C86.1992 51.6504 74.9534 54.1166 74.9534 59.5422V106.893C74.9534 112.319 86.1992 114.785 96.6559 114.785C107.112 114.785 118.358 112.319 118.358 106.893V59.5422C118.358 54.1166 107.112 51.6504 96.6559 51.6504ZM114.412 106.868C114.116 107.953 108.198 110.839 96.6559 110.839C85.1141 110.839 79.1953 107.953 78.8993 106.893V103.786C83.0918 105.906 90.0218 106.893 96.6559 106.893C103.29 106.893 110.22 105.906 114.412 103.786V106.868ZM114.412 98.9765C114.116 100.062 108.198 102.947 96.6559 102.947C85.1141 102.947 79.1953 100.062 78.8993 99.0012V95.8938C83.0918 98.0147 90.0218 99.0012 96.6559 99.0012C103.29 99.0012 110.22 98.0147 114.412 95.8938V98.9765ZM114.412 91.0847C114.116 92.1698 108.198 95.0553 96.6559 95.0553C85.1141 95.0553 79.1953 92.1698 78.8993 91.1094V88.002C83.0918 90.1229 90.0218 91.1094 96.6559 91.1094C103.29 91.1094 110.22 90.1229 114.412 88.002V91.0847ZM114.412 83.1929C114.116 84.278 108.198 87.1635 96.6559 87.1635C85.1141 87.1635 79.1953 84.278 78.8993 83.2176V80.1102C83.0918 82.2311 90.0218 83.2176 96.6559 83.2176C103.29 83.2176 110.22 82.2311 114.412 80.1102V83.1929ZM114.412 75.3011C114.116 76.3862 108.198 79.2717 96.6559 79.2717C85.1141 79.2717 79.1953 76.3862 78.8993 75.3258V72.2184C83.0918 74.3146 90.0218 75.3258 96.6559 75.3258C103.29 75.3258 110.22 74.3393 114.412 72.2184V75.3011ZM114.412 67.4093C114.116 68.4944 108.198 71.3799 96.6559 71.3799C85.1141 71.3799 79.1953 68.4944 78.8993 67.434V64.3266C83.0918 66.4228 90.0218 67.434 96.6559 67.434C103.29 67.434 110.22 66.4475 114.412 64.3266V67.4093ZM96.6559 63.4881C85.1388 63.4881 79.2199 60.6273 78.8993 59.5668C79.2199 58.4571 85.1388 55.5963 96.6559 55.5963C108.099 55.5963 114.018 58.4324 114.412 59.5422C114.018 60.652 108.099 63.4881 96.6559 63.4881Z" fill="#FACA21"/>
<path d="M33.5215 77.5694H18.6011L11.5231 69.8256V57.0014L19.341 49.3809H33.5215C34.4587 49.3809 35.2232 48.6164 35.2232 47.6792C35.2232 46.7421 34.4587 45.9775 33.5215 45.9775H18.6504C18.2065 45.9775 17.7873 46.1502 17.4667 46.4461L8.66237 55.0531C8.34176 55.4477 8.14447 55.9163 8.14447 56.4342V70.4668C8.14447 70.886 8.29244 71.3053 8.58838 71.6012L16.6035 80.3808C16.9241 80.7261 17.368 80.9234 17.8612 80.9234H33.5215C34.4587 80.9234 35.2232 80.1589 35.2232 79.2217C35.2232 78.2846 34.434 77.5694 33.5215 77.5694Z" fill="#FACA21"/>
</g>
<defs>
<clipPath id="clip0">
<rect width="118.106" height="114.16" fill="white" transform="translate(0.252686 0.625)"/>
</clipPath>
</defs>
</svg>
