<svg width="170" height="169" viewBox="0 0 170 169" fill="none" xmlns="http://www.w3.org/2000/svg">
<g clip-path="url(#clip0)">
<path d="M96.1768 135.008C89.9865 135.008 84.9681 129.989 84.9681 123.799V110.105C88.6155 103.967 90.5508 96.963 90.5725 89.8227V64.9534C90.5725 41.7767 70.4585 22.9209 45.7378 22.9209C21.017 22.9209 0.903076 41.7767 0.903076 64.9534V89.8227C1.12024 105.254 9.83604 119.306 23.5642 126.357L26.2011 121.412C14.3027 115.331 6.72914 103.183 6.50741 89.8227V64.9534C6.50741 44.8675 24.105 28.5252 45.7378 28.5252C67.3705 28.5252 84.9681 44.8675 84.9681 64.9534V89.8227C84.7464 103.183 77.1729 115.331 65.2745 121.412L51.8689 128.563C48.0313 130.581 43.4467 130.581 39.6094 128.563L36.9698 133.508C42.4592 136.393 49.0163 136.393 54.5058 133.508L56.9464 132.205V146.216C56.9464 147.656 58.0365 148.861 59.4684 149.004L79.9242 151.05C82.7919 151.33 84.9758 153.745 84.9681 156.626V168.634H90.5725V156.626C90.5896 150.863 86.2204 146.033 80.4847 145.474L62.5508 143.694V129.216L67.9113 126.357C72.1804 124.088 76.0492 121.134 79.3638 117.615V123.799C79.3729 133.081 86.895 140.603 96.1768 140.612H110.188V135.008H96.1768Z" fill="#922E9D"/>
<path d="M28.9248 127.003V143.695L10.9909 145.489C5.26043 146.048 0.893255 150.87 0.903062 156.627V168.635H6.5074V156.627C6.49934 153.746 8.68363 151.331 11.5513 151.051L32.0071 149.02C33.4443 148.875 34.5364 147.662 34.5291 146.217V127.003H28.9248Z" fill="#922E9D"/>
<path d="M77.1389 65.4807L69.0378 63.7798L73.7314 56.9705C74.4996 55.8574 74.3626 54.354 73.4064 53.3977L65.7004 45.6918C64.7445 44.7369 63.2433 44.6003 62.1305 45.3667L55.3212 50.0604L53.6175 41.9593C53.3443 40.6622 52.1999 39.7337 50.8742 39.7344H40.6014C39.276 39.7337 38.1313 40.6622 37.8581 41.9593L36.1544 50.0604L29.3451 45.3667C28.2323 44.6003 26.731 44.7369 25.7751 45.6918L18.0692 53.3977C17.1129 54.354 16.976 55.8574 17.7441 56.9705L22.4377 63.7798L14.3367 65.4807C13.0396 65.7539 12.1111 66.8986 12.1118 68.224V78.4968C12.1111 79.8222 13.0396 80.9669 14.3367 81.2401L22.4377 82.941L17.7441 89.7503C16.976 90.8634 17.1129 92.3668 18.0692 93.3231L25.7751 101.029C26.731 101.984 28.2323 102.12 29.3451 101.354L36.1544 96.6604L37.8581 104.762C38.1313 106.059 39.2756 106.987 40.6014 106.986H50.8742C52.1996 106.987 53.3443 106.059 53.6175 104.762L55.3212 96.6604L62.1305 101.354C63.2433 102.12 64.7445 101.984 65.7004 101.029L73.4064 93.3231C74.3626 92.3668 74.4996 90.8634 73.7314 89.7503L69.0378 82.941L77.1389 81.2401C78.4359 80.9669 79.3645 79.8226 79.3638 78.4968V68.224C79.3645 66.8986 78.4359 65.7539 77.1389 65.4807ZM73.7595 76.2242L67.5415 77.53C64.6391 78.1455 62.7851 80.9967 63.4006 83.899C63.5473 84.5922 63.83 85.2493 64.2321 85.8329L67.7937 91.0141L63.3914 95.4163L58.2102 91.8547C55.7695 90.171 52.4259 90.7846 50.7421 93.2253C50.3375 93.8117 50.0538 94.4726 49.9074 95.1697L48.5988 101.382H42.8768L41.5682 95.1641C40.9555 92.2628 38.1068 90.4077 35.2058 91.0204C34.5102 91.1671 33.8506 91.4508 33.2653 91.8547L28.0841 95.4163L23.6819 91.0141L27.2435 85.8357C28.9265 83.3908 28.3086 80.0443 25.8637 78.3612C25.2798 77.9591 24.622 77.6768 23.9285 77.53L17.7161 76.2242V70.4966L23.9341 69.1908C26.8365 68.5753 28.6904 65.7241 28.075 62.8218C27.9282 62.1286 27.6456 61.4715 27.2435 60.8879L23.6819 55.7067L28.0841 51.3045L33.2653 54.8661C35.706 56.5498 39.0497 55.9362 40.7335 53.4955C41.138 52.9091 41.4217 52.2482 41.5682 51.5511L42.8768 45.3387H48.5988L49.9074 51.5567C50.52 54.458 53.3688 56.3131 56.2697 55.7004C56.9654 55.5537 57.6249 55.2699 58.2102 54.8661L63.3914 51.3045L67.7937 55.7067L64.2321 60.8851C62.549 63.33 63.1669 66.6765 65.6118 68.3596C66.1957 68.7617 66.8535 69.044 67.5471 69.1908L73.7595 70.4966V76.2242Z" fill="#922E9D"/>
<path d="M45.7378 59.3496C37.9999 59.3496 31.7269 65.6226 31.7269 73.3605C31.736 81.0944 38.0038 87.3622 45.7378 87.3713C53.4756 87.3713 59.7486 81.0983 59.7486 73.3605C59.7486 65.6226 53.4756 59.3496 45.7378 59.3496ZM45.7378 81.767C41.0949 81.767 37.3313 78.0033 37.3313 73.3605C37.3313 68.7176 41.0949 64.9539 45.7378 64.9539C50.3806 64.9539 54.1443 68.7176 54.1443 73.3605C54.1443 78.0033 50.3806 81.767 45.7378 81.767Z" fill="#922E9D"/>
<path d="M157.744 14.37C153.066 14.4373 149.328 18.284 149.396 22.9618C149.432 25.5321 150.635 27.9465 152.663 29.5252L146.518 48.14C144.51 48.1673 142.58 48.9187 141.082 50.2557L129.663 43.9368C130.511 39.4477 127.56 35.1208 123.071 34.2721C122.519 34.1677 121.958 34.1197 121.396 34.1292C116.753 34.1292 112.99 37.8928 112.99 42.5357C112.994 44.3462 113.591 46.1056 114.688 47.546L106.632 59.6289C105.963 59.4499 105.275 59.3557 104.583 59.3487C99.9405 59.3487 96.1768 63.1124 96.1768 67.7552C96.1768 72.398 99.9405 76.1617 104.583 76.1617C109.226 76.1617 112.99 72.398 112.99 67.7552C112.985 65.9439 112.388 64.1835 111.292 62.7421L119.348 50.662C120.016 50.841 120.705 50.9352 121.396 50.9422C123.439 50.9341 125.408 50.1772 126.931 48.8153L138.349 55.1595C137.544 59.7319 140.599 64.0914 145.171 64.8963C149.743 65.7012 154.103 62.6475 154.908 58.0751C155.447 55.0127 154.252 51.9026 151.8 49.9894L157.987 31.3102C162.665 31.2429 166.403 27.3963 166.335 22.7184C166.269 18.0405 162.422 14.3028 157.744 14.37ZM104.583 70.5574C103.036 70.5574 101.781 69.3027 101.781 67.7552C101.781 66.2077 103.036 64.953 104.583 64.953C106.131 64.953 107.385 66.2077 107.385 67.7552C107.385 69.3027 106.131 70.5574 104.583 70.5574ZM121.396 45.3379C119.849 45.3379 118.594 44.0832 118.594 42.5357C118.594 40.9882 119.849 39.7335 121.396 39.7335C122.944 39.7335 124.198 40.9882 124.198 42.5357C124.198 44.0832 122.944 45.3379 121.396 45.3379ZM146.616 59.3487C145.068 59.3487 143.814 58.094 143.814 56.5465C143.814 54.999 145.068 53.7444 146.616 53.7444C148.163 53.7444 149.418 54.999 149.418 56.5465C149.418 58.094 148.163 59.3487 146.616 59.3487ZM157.825 25.7227C156.277 25.7227 155.022 24.468 155.022 22.9205C155.022 21.373 156.277 20.1183 157.825 20.1183C159.372 20.1183 160.627 21.373 160.627 22.9205C160.627 24.468 159.372 25.7227 157.825 25.7227Z" fill="#922E9D"/>
<path d="M160.627 59.3496V120.997H155.022V104.184H149.418V120.997H143.814V101.382H138.209V120.997H132.605V92.9756H127.001V120.997H121.396V76.1626H115.792V120.997H110.188V109.789H104.583V120.997H98.979V126.602H166.231V123.799V120.997V59.3496H160.627Z" fill="#922E9D"/>
<path d="M96.1768 0.503906C86.895 0.513013 79.3729 8.03509 79.3638 17.3169V31.3278H84.9681V17.3169C84.9681 11.1266 89.9865 6.10824 96.1768 6.10824H110.188V0.503906H96.1768Z" fill="#922E9D"/>
<path d="M121.396 135.008H115.792V140.612H121.396V135.008Z" fill="#922E9D"/>
<path d="M169.033 135.008H127.001V140.612H169.033V135.008Z" fill="#922E9D"/>
<path d="M169.033 0.503906H118.594V6.10824H169.033V0.503906Z" fill="#922E9D"/>
</g>
<defs>
<clipPath id="clip0">
<rect width="168.13" height="168.13" fill="white" transform="translate(0.903076 0.503906)"/>
</clipPath>
</defs>
</svg>
