<svg width="63" height="63" viewBox="0 0 63 63" fill="none" xmlns="http://www.w3.org/2000/svg">
    <g clip-path="url(#clip0)">
        <path d="M14.7152 60.5538L21.2445 54.0236C21.4725 53.7957 21.7817 53.6675 22.1041 53.6675C22.1047 53.6675 22.1053 53.6675 22.1058 53.6675L25.609 53.6725C25.6167 53.6725 25.6243 53.6725 25.632 53.6725C27.5657 53.6725 29.5029 53.3169 31.316 52.6384L29.2138 51.2288C28.3533 50.6518 27.7747 49.7731 27.5845 48.7547C27.3943 47.7362 27.6168 46.7079 28.2111 45.8591C28.95 44.8038 30.14 44.2309 31.3516 44.2309C31.3713 44.2309 31.391 44.231 31.4108 44.2314L26.5686 39.3892C25.0996 37.9201 25.0996 35.5297 26.5686 34.0606C26.926 33.7032 27.3427 33.4266 27.7964 33.2396C27.4601 32.668 27.2803 32.015 27.2803 31.3343C27.2803 30.3279 27.6722 29.3816 28.3838 28.6699C29.0955 27.9582 30.0417 27.5662 31.0483 27.5662C31.729 27.5662 32.3818 27.7461 32.9536 28.0824C33.1406 27.6287 33.4171 27.2121 33.7746 26.8545C34.4863 26.1428 35.4325 25.7509 36.439 25.7509C37.4455 25.7509 38.3917 26.1428 39.1034 26.8545L40.8421 28.5931C41.027 28.1857 41.2848 27.8103 41.6107 27.4844C42.3224 26.7727 43.2686 26.3808 44.2751 26.3808C45.2816 26.3808 46.2278 26.7728 46.9395 27.4844L47.7102 28.255L50.8433 25.1396C51.7534 24.2295 51.7534 22.7486 50.8433 21.8385C49.9907 20.9859 48.6373 20.9321 47.7215 21.6768L44.6872 24.7111C44.4498 24.9486 44.1387 25.0672 43.8276 25.0672C43.5165 25.0672 43.2052 24.9485 42.9679 24.7111C42.4932 24.2364 42.4932 23.4666 42.9679 22.9918L48.2024 17.7573C49.1125 16.8471 49.1125 15.3662 48.2024 14.4561C47.2923 13.5458 45.8113 13.546 44.9012 14.4561L35.73 23.6449C35.4925 23.8824 35.1814 24.001 34.8703 24.001C34.5592 24.001 34.248 23.8822 34.0107 23.6449C33.5359 23.1702 33.5359 22.4004 34.0107 21.9256L40.9816 14.9369C41.7263 14.021 41.6724 12.6677 40.8199 11.8152C39.9097 10.9051 38.4287 10.9051 37.5187 11.8152L34.9647 14.3694C34.4898 14.8443 33.72 14.8443 33.2453 14.3694C32.7706 13.8946 32.7705 13.1248 33.2453 12.6501L35.7994 10.0959C37.6577 8.23778 40.6811 8.2379 42.5392 10.0959C43.1533 10.71 43.563 11.4516 43.7713 12.2361C44.5762 11.6552 45.5396 11.341 46.5518 11.341C47.8248 11.341 49.0216 11.8368 49.9217 12.7368C51.5944 14.4094 51.7604 17.0258 50.4219 18.8871C51.2065 19.0952 51.9484 19.5051 52.5626 20.1193C54.3162 21.873 54.4139 24.664 52.8576 26.5344C53.6249 26.7463 54.3494 27.152 54.9513 27.7539C56.8093 29.6121 56.8093 32.6355 54.9513 34.4938L54.4087 35.0364C56.4603 37.4997 57.5752 40.5732 57.5706 43.8189L57.5677 45.8327L62.556 50.8214C63.0308 51.2961 63.0308 52.0659 62.556 52.5408C62.3186 52.7781 62.0075 52.8969 61.6964 52.8969C61.3853 52.8969 61.074 52.7781 60.8367 52.5408L55.4916 47.1955C55.2631 46.9671 55.135 46.6571 55.1355 46.334L55.1391 43.8156C55.1435 40.794 53.969 37.9529 51.8323 35.8163L45.799 29.7829C45.799 29.7829 45.799 29.7828 45.7989 29.7828L45.2202 29.2041C44.9678 28.9515 44.6323 28.8126 44.2752 28.8126C43.9181 28.8126 43.5826 28.9515 43.3302 29.2041C43.0777 29.4564 42.9387 29.792 42.9387 30.1491C42.9387 30.4555 43.0418 30.746 43.2308 30.9818L44.8379 32.5889C45.3126 33.0637 45.3126 33.8335 44.8379 34.3084C44.8368 34.3095 44.8355 34.3103 44.8346 34.3114C44.8335 34.3125 44.8326 34.3136 44.8315 34.3147C44.5941 34.552 44.283 34.6708 43.9719 34.6708C43.6608 34.6708 43.3495 34.552 43.1122 34.3147L37.3844 28.5741C37.132 28.3215 36.7964 28.1826 36.4394 28.1826C36.0823 28.1826 35.7467 28.3217 35.4944 28.5741C35.0093 29.0591 34.9763 29.8272 35.3945 30.3515L41.2287 36.1984C41.7034 36.6731 41.7034 37.4429 41.2287 37.9178C40.9912 38.1551 40.6801 38.2739 40.369 38.2739C40.0579 38.2739 39.7467 38.1551 39.5094 37.9178L31.9937 30.3894C31.7414 30.1369 31.4058 29.9979 31.0487 29.9979C30.6917 29.9979 30.3561 30.137 30.1037 30.3894C29.5827 30.9105 29.5827 31.7583 30.1037 32.2794L37.632 39.7949C38.1068 40.2697 38.1069 41.0395 37.632 41.5143C37.1571 41.989 36.3873 41.9891 35.9127 41.5143L30.0657 35.6802C29.5416 35.2619 28.7735 35.2948 28.2884 35.7802C27.7673 36.3011 27.7673 37.1491 28.2884 37.67L36.4965 45.8784C37.0747 46.4565 37.1282 47.343 36.6235 47.9864C36.119 48.6297 35.2451 48.7891 34.5458 48.3652L32.0661 46.8619C31.4409 46.4827 30.6227 46.655 30.2034 47.254C29.9869 47.5632 29.9059 47.9376 29.9752 48.3087C30.0445 48.6795 30.2552 48.9994 30.5685 49.2095L36.3055 53.0566C38.1723 54.3085 40.3462 54.9697 42.5936 54.9697C42.5988 54.9697 42.6043 54.9697 42.6095 54.9697L46.5061 54.9641C46.5067 54.9641 46.5072 54.9641 46.5078 54.9641C46.8302 54.9641 47.1395 55.0923 47.3675 55.3202L52.7127 60.6655C53.1875 61.1403 53.1875 61.9101 52.7127 62.3849C52.4753 62.6222 52.1642 62.741 51.8531 62.741C51.542 62.741 51.2307 62.6222 50.9934 62.3849L46.005 57.3965L42.6129 57.4013C42.6065 57.4013 42.6003 57.4013 42.5937 57.4013C39.8625 57.4013 37.22 56.5975 34.9514 55.0762L33.7229 54.2524C31.2125 55.4638 28.4194 56.1044 25.6326 56.1044C25.624 56.1044 25.6148 56.1044 25.6061 56.1044L22.6076 56.1001L16.4345 62.2732C16.1971 62.5105 15.886 62.6293 15.5748 62.6293C15.2637 62.6293 14.9525 62.5105 14.7152 62.2732C14.2404 61.7985 14.2404 61.0286 14.7152 60.5538ZM50.2252 30.7705C50.2253 30.7707 50.2253 30.7707 50.2254 30.7708L52.7306 33.276L53.2319 32.7747C54.142 31.8645 54.142 30.3836 53.2319 29.4735C52.3792 28.6209 51.0259 28.5671 50.1101 29.3118L49.4382 29.9836L50.2252 30.7705Z" fill="#4556CB"/>
        <path d="M1.0221 46.8615C1.24823 46.6342 1.56189 46.5053 1.88164 46.5053C2.20138 46.5053 2.51504 46.6342 2.74117 46.8615C2.9673 47.0877 3.09738 47.4001 3.09738 47.7211C3.09738 48.0408 2.9673 48.3545 2.74117 48.5805C2.51504 48.8066 2.20138 48.9368 1.88164 48.9368C1.56189 48.9368 1.24823 48.8067 1.0221 48.5805C0.795974 48.3531 0.66589 48.0408 0.66589 47.7211C0.66589 47.4 0.795974 47.0877 1.0221 46.8615Z" fill="#4556CB"/>
        <path d="M4.29125 43.592L7.19518 40.688L7.18813 35.7725C7.18291 32.0587 8.27331 28.4653 10.3418 25.3807L15.6929 17.4008C16.4238 16.3107 17.5368 15.5778 18.8268 15.3368C20.117 15.0958 21.4194 15.3778 22.4944 16.1306C24.2557 17.3639 24.9561 19.5892 24.3333 21.5619L27.5107 18.3844C27.9854 17.9098 28.7552 17.9098 29.2301 18.3844C29.7048 18.8592 29.7048 19.629 29.2301 20.1039L22.4044 26.9295C21.773 27.561 20.8044 27.6195 20.1017 27.0681C19.399 26.5169 19.2249 25.5624 19.6879 24.7986L21.779 21.3493C22.4355 20.2663 22.1372 18.8488 21.0998 18.1224C20.5644 17.7476 19.9153 17.6072 19.2733 17.7272C18.6307 17.8472 18.0765 18.2123 17.7125 18.7551L12.3614 26.735C10.5632 29.4167 9.61512 32.5406 9.61974 35.7691L9.62741 41.1892C9.62789 41.5122 9.49975 41.8222 9.27131 42.0506L6.01056 45.3114C5.77312 45.5487 5.46202 45.6675 5.15091 45.6675C4.8398 45.6675 4.52857 45.5487 4.29125 45.3114C3.81651 44.8366 3.81651 44.0668 4.29125 43.592Z" fill="#4556CB"/>
        <path d="M30.369 15.5269C30.5939 15.3008 30.9076 15.1707 31.2273 15.1707C31.5483 15.1707 31.8607 15.3008 32.0881 15.5269C32.3142 15.7531 32.4443 16.0667 32.4443 16.3865C32.4443 16.7074 32.3142 17.0199 32.0881 17.246C31.8607 17.4721 31.5483 17.6022 31.2273 17.6022C30.9076 17.6022 30.5951 17.4721 30.369 17.246C30.1417 17.0199 30.0116 16.7062 30.0116 16.3865C30.0116 16.0667 30.1417 15.7531 30.369 15.5269Z" fill="#4556CB"/>
        <path d="M19.0862 34.3931C18.6115 33.9183 18.6115 33.1485 19.0862 32.6737C19.561 32.199 20.3308 32.199 20.8057 32.6737L21.336 33.204C23.6063 35.4744 23.6063 39.1685 21.336 41.4388C21.0985 41.6761 20.7874 41.7949 20.4763 41.7949C20.1652 41.7949 19.854 41.6761 19.6167 41.4388C19.1419 40.9641 19.1418 40.1943 19.6167 39.7194C20.9389 38.3971 20.9389 36.2455 19.6167 34.9233L19.0862 34.3931Z" fill="#4556CB"/>
        <path d="M4.88463 7.06042C5.65748 7.06042 6.41294 7.27975 7.06616 7.68082C7.71938 7.27975 8.47485 7.06042 9.2477 7.06042C11.5739 7.06042 13.4665 8.98763 13.4665 11.3563C13.4665 12.6987 12.5013 14.3109 10.5157 16.2853C9.17889 17.6146 7.86017 18.6263 7.80461 18.6687C7.58675 18.8354 7.32645 18.9187 7.06616 18.9187C6.80587 18.9187 6.5457 18.8354 6.32772 18.6687C6.27216 18.6263 4.95344 17.6144 3.6166 16.2853C1.63105 14.311 0.665867 12.6987 0.665867 11.3563C0.665867 8.9875 2.55842 7.06042 4.88463 7.06042ZM7.06653 16.1476C9.09828 14.4602 11.035 12.3071 11.035 11.3563C11.035 10.3282 10.2332 9.49192 9.2477 9.49192C8.75751 9.49192 8.30015 9.69507 7.95974 10.0642C7.72947 10.3136 7.4056 10.4555 7.06616 10.4555C6.72673 10.4555 6.40273 10.3136 6.17259 10.0642C5.83218 9.69519 5.37482 9.49192 4.88463 9.49192C3.89914 9.49192 3.09736 10.3282 3.09736 11.3563C3.09736 12.3047 5.03465 14.4584 7.06653 16.1476Z" fill="#4556CB"/>
        <path d="M54.3303 0.496094C55.1031 0.496094 55.8586 0.715414 56.5118 1.11649C57.165 0.715414 57.9205 0.496094 58.6933 0.496094C61.0196 0.495972 62.9121 2.42305 62.9121 4.79181C62.9121 6.13424 61.9469 7.74644 59.9614 9.72081C58.6245 11.0501 57.3057 12.062 57.2503 12.1044C57.0324 12.2711 56.7721 12.3544 56.5118 12.3544C56.2515 12.3544 55.9914 12.2711 55.7734 12.1044C55.7178 12.062 54.3991 11.0501 53.0623 9.72093C51.0767 7.74656 50.1115 6.13436 50.1115 4.79193C50.1115 2.42317 52.0041 0.496094 54.3303 0.496094ZM56.5122 9.58319C58.5441 7.89573 60.4806 5.74277 60.4806 4.79181C60.4806 3.76378 59.6788 2.92746 58.6933 2.92746C58.2032 2.92746 57.7458 3.13062 57.4054 3.49972C57.1751 3.74919 56.8512 3.89107 56.5118 3.89107C56.1724 3.89107 55.8484 3.74919 55.6182 3.49972C55.2778 3.13074 54.8205 2.92746 54.3303 2.92746C53.3448 2.92746 52.543 3.76378 52.543 4.79181C52.543 5.74009 54.4803 7.89391 56.5122 9.58319Z" fill="#4556CB"/>
    </g>
    <defs>
        <clipPath id="clip0">
            <rect width="62.2462" height="62.2462" fill="white" transform="matrix(-1 0 0 1 62.9121 0.495178)"/>
        </clipPath>
    </defs>
</svg>

