<svg width="79" height="79" viewBox="0 0 79 79" fill="none" xmlns="http://www.w3.org/2000/svg">
<g clip-path="url(#clip0)">
<path d="M9.74553 39.8164C9.03045 39.8164 8.45068 40.3962 8.45068 41.1112V61.8287C8.45068 62.5438 9.03045 63.1236 9.74553 63.1236C10.4606 63.1236 11.0404 62.5438 11.0404 61.8287V41.1112C11.0404 40.3962 10.4606 39.8164 9.74553 39.8164Z" fill="#FACA21"/>
<path d="M19.3791 29.4573C20.0942 29.4573 20.6739 28.8775 20.6739 28.1625C20.6746 28.0208 20.648 27.8799 20.5962 27.7483C20.4419 27.2489 20.0031 26.8916 19.4828 26.8417C16.3411 26.5477 13.8691 24.032 13.6301 20.8853C13.637 20.8385 13.637 20.7905 13.6301 20.743V20.6008C13.6237 20.5319 13.6237 20.4623 13.6301 20.3934V13.9192H18.939C19.6541 13.9192 20.2339 13.3394 20.2339 12.6244C20.2339 11.9093 19.6541 11.3295 18.939 11.3295H12.3352C11.6201 11.3295 11.0404 11.9093 11.0404 12.6244V18.3993C9.39653 16.9293 8.45512 14.8296 8.45069 12.6244V4.85531H23.9888C26.5285 4.85657 28.9077 6.09894 30.3593 8.18283C30.7817 8.72782 31.5562 8.84605 32.122 8.4528C32.6879 8.05954 32.8466 7.29262 32.483 6.70716C30.5477 3.92654 27.3757 2.26815 23.9888 2.26562H8.45069C7.02055 2.26562 5.86101 3.42517 5.86101 4.85531V12.6244C5.84331 16.3742 7.85448 19.8415 11.1181 21.6883C11.3919 23.6514 12.3017 25.471 13.7078 26.8676H9.74553C4.7394 26.8676 0.681641 30.9254 0.681641 35.9315V61.8284C0.681641 62.5434 1.26141 63.1232 1.97648 63.1232C2.69155 63.1232 3.27132 62.5434 3.27132 61.8284V35.9315C3.27132 32.3562 6.17018 29.4573 9.74553 29.4573H19.3791Z" fill="#FACA21"/>
<path d="M18.8094 38.21L17.8769 34.6366H22.0984C22.8135 34.6366 23.3932 34.0568 23.3932 33.3417C23.3932 32.6267 22.8135 32.0469 22.0984 32.0469H16.2198C15.8214 32.045 15.444 32.2264 15.1968 32.5388C14.9515 32.8543 14.8655 33.2652 14.9635 33.6528L16.2583 38.8322C16.4303 39.5365 17.1403 39.9683 17.8446 39.7964C18.549 39.625 18.9808 38.915 18.8094 38.21Z" fill="#FACA21"/>
<path d="M69.3083 39.8164C68.5932 39.8164 68.0134 40.3962 68.0134 41.1112V61.8287C68.0134 62.5438 68.5932 63.1236 69.3083 63.1236C70.0233 63.1236 70.6031 62.5438 70.6031 61.8287V41.1112C70.6031 40.3962 70.0233 39.8164 69.3083 39.8164Z" fill="#FACA21"/>
<path d="M73.1928 27.7483V15.214C73.1928 8.0627 67.3957 2.26562 60.2444 2.26562H57.6547C53.8372 2.27258 50.2169 3.96447 47.7619 6.88798C47.4249 7.23698 47.3111 7.74468 47.4666 8.20369C47.6222 8.6627 48.0211 8.99653 48.5004 9.0686C48.9802 9.14068 49.4595 8.93899 49.7434 8.54574C51.7078 6.21021 54.6028 4.85973 57.6547 4.85531H60.2444C65.9656 4.85531 70.6031 9.49284 70.6031 15.214V26.958C70.3097 26.958 70.0119 26.9321 69.7097 26.8803H65.3074C67.0454 25.17 68.0204 22.832 68.0134 20.3934V12.6244C68.0134 11.9093 67.4336 11.3295 66.7186 11.3295H56.9813C56.2663 11.3295 55.6865 11.9093 55.6865 12.6244C55.6865 13.3394 56.2663 13.9192 56.9813 13.9192H65.4237V20.3934C65.4389 23.7399 62.9017 26.5464 59.571 26.8676C59.0507 26.9176 58.6119 27.2748 58.4576 27.7743C58.4058 27.9058 58.3792 28.0468 58.3799 28.1884C58.3799 28.9035 58.9596 29.4832 59.6747 29.4832H63.2222L58.3021 38.3271C57.955 38.9524 58.1813 39.7414 58.8073 40.0879C59.0007 40.1979 59.2189 40.2555 59.4414 40.2561C59.9086 40.2555 60.3392 40.0032 60.5681 39.596L66.1875 29.4573H69.5934C70.2339 29.4826 70.8667 29.6046 71.4705 29.8196H71.5742C74.1209 30.7711 75.8021 33.2129 75.7825 35.9315V61.8284C75.7825 62.5434 76.3622 63.1232 77.0773 63.1232C77.7924 63.1232 78.3721 62.5434 78.3721 61.8284V35.9315C78.3696 32.4327 76.354 29.2474 73.1928 27.7483Z" fill="#FACA21"/>
<path d="M51.1805 39.8156H46.8426C48.8608 38.187 50.2783 35.9311 50.8694 33.4059C54.2437 31.6097 56.3541 28.1001 56.3598 24.2775V21.6878C56.3598 15.9666 51.7223 11.3291 46.0011 11.3291H25.2836C23.8535 11.3291 22.6939 12.4886 22.6939 13.9188V24.2775C22.6996 28.1001 24.8101 31.6097 28.1844 33.4059C28.7755 35.9311 30.193 38.187 32.2112 39.8156H27.8733C22.8672 39.8156 18.8094 43.8734 18.8094 48.8795V74.7764C18.8094 75.4914 19.3892 76.0712 20.1043 76.0712C20.8193 76.0712 21.3991 75.4914 21.3991 74.7764V48.8795C21.3991 45.3042 24.298 42.4053 27.8733 42.4053H51.1805C54.7558 42.4053 57.6547 45.3042 57.6547 48.8795V74.7764C57.6547 75.4914 58.2344 76.0712 58.9495 76.0712C59.6646 76.0712 60.2444 75.4914 60.2444 74.7764V48.8795C60.2444 43.8734 56.1866 39.8156 51.1805 39.8156ZM25.2836 24.2775V13.9188H46.0011C50.2915 13.9188 53.7702 17.3974 53.7702 21.6878V24.2775C53.7657 26.4828 52.8243 28.5825 51.1805 30.0525V20.393C51.1805 19.6779 50.6007 19.0982 49.8856 19.0982H29.1682C28.4531 19.0982 27.8733 19.6779 27.8733 20.393V30.0525C26.2295 28.5825 25.2881 26.4828 25.2836 24.2775ZM30.6185 32.4607C30.6255 32.4139 30.6255 32.3659 30.6185 32.3184C30.5376 31.8645 30.4858 31.4061 30.463 30.9458V21.6878H48.5908V30.9458C48.5718 31.4061 48.5244 31.8645 48.4485 32.3184C48.4409 32.3659 48.4409 32.4139 48.4485 32.4607C47.6443 36.7473 43.9014 39.8536 39.5395 39.8536C35.1783 39.8536 31.4354 36.7473 30.6312 32.4607H30.6185Z" fill="#FACA21"/>
<path d="M43.7225 44.9951C43.0289 44.8238 42.3278 45.2467 42.1552 45.9403L41.1069 50.1745H37.9469L36.9372 45.9789C36.8411 45.5142 36.4984 45.1392 36.0445 45.0021C35.5899 44.8642 35.0974 44.9862 34.7591 45.3201C34.4215 45.6533 34.2938 46.1445 34.4253 46.601L35.7201 51.573L34.3475 66.0881C34.3121 66.5003 34.4759 66.9044 34.7876 67.1756L38.6721 70.5682C39.1608 70.9975 39.893 70.9975 40.3817 70.5682L44.2662 67.1756C44.5779 66.9044 44.7417 66.5003 44.7063 66.0881L43.4114 51.573L44.7063 46.601C44.7992 46.2564 44.7467 45.8897 44.5602 45.5856C44.3743 45.2821 44.0709 45.0684 43.7225 44.9951ZM39.5269 67.8749L36.9372 65.7126L38.0765 52.7641H40.8736L42.1166 65.7126L39.5269 67.8749Z" fill="#FACA21"/>
<path d="M27.8733 52.7646C27.1583 52.7646 26.5785 53.3444 26.5785 54.0595V74.777C26.5785 75.492 27.1583 76.0718 27.8733 76.0718C28.5884 76.0718 29.1682 75.492 29.1682 74.777V54.0595C29.1682 53.3444 28.5884 52.7646 27.8733 52.7646Z" fill="#FACA21"/>
<path d="M51.1805 52.7646C50.4654 52.7646 49.8856 53.3444 49.8856 54.0595V74.777C49.8856 75.492 50.4654 76.0718 51.1805 76.0718C51.8955 76.0718 52.4753 75.492 52.4753 74.777V54.0595C52.4753 53.3444 51.8955 52.7646 51.1805 52.7646Z" fill="#FACA21"/>
</g>
<defs>
<clipPath id="clip0">
<rect width="77.6905" height="77.6905" fill="white" transform="translate(0.681641 0.323242)"/>
</clipPath>
</defs>
</svg>
