<svg width="61" height="62" viewBox="0 0 61 62" fill="none" xmlns="http://www.w3.org/2000/svg">
    <g clip-path="url(#clip0)">
        <path d="M48.4152 12.8275C48.4152 13.4825 48.9463 14.0135 49.6012 14.0135L53.2566 14.0134C53.9116 14.0134 54.4426 13.4823 54.4426 12.8274C54.4426 12.1724 53.9115 11.6414 53.2566 11.6414L49.6012 11.6415C48.9461 11.6415 48.4152 12.1726 48.4152 12.8275Z" fill="#4556CB"/>
        <path d="M49.4808 20.7723C49.7124 21.0038 50.0159 21.1196 50.3194 21.1196C50.6229 21.1196 50.9264 21.0038 51.158 20.7723C51.6212 20.3091 51.6212 19.5582 51.158 19.0949L48.5845 16.5213C48.1214 16.0585 47.3707 16.0583 46.9072 16.5213C46.4441 16.9844 46.4441 17.7354 46.9072 18.1987L49.4808 20.7723Z" fill="#4556CB"/>
        <path d="M47.7459 9.48098C48.0495 9.48098 48.3529 9.36511 48.5845 9.1336L51.1557 6.56248C51.6188 6.09935 51.6188 5.34838 51.1557 4.88513C50.6924 4.42212 49.9417 4.42212 49.4783 4.88513L46.9072 7.45625C46.4441 7.91938 46.4441 8.67035 46.9072 9.1336C47.1389 9.36511 47.4424 9.48098 47.7459 9.48098Z" fill="#4556CB"/>
        <path d="M7.70584 14.0134L11.3612 14.0135C12.0161 14.0135 12.5472 13.4824 12.5472 12.8275C12.5472 12.1726 12.0162 11.6415 11.3612 11.6415L7.70584 11.6414C7.05093 11.6414 6.51984 12.1725 6.51984 12.8274C6.51984 13.4823 7.05069 14.0134 7.70584 14.0134Z" fill="#4556CB"/>
        <path d="M12.3777 16.5213L9.80422 19.0949C9.34109 19.558 9.34109 20.309 9.80422 20.7723C10.0358 21.0038 10.3393 21.1196 10.6428 21.1196C10.9463 21.1196 11.2498 21.0038 11.4815 20.7723L14.0549 18.1987C14.5181 17.7355 14.5181 16.9846 14.0549 16.5213C13.5918 16.0583 12.8411 16.0583 12.3777 16.5213Z" fill="#4556CB"/>
        <path d="M12.3777 9.13363C12.6093 9.36514 12.9128 9.48101 13.2163 9.48101C13.5198 9.48101 13.8233 9.36514 14.0549 9.13363C14.5181 8.6705 14.5181 7.91953 14.0549 7.45628L11.4839 4.88528C11.0207 4.42227 10.27 4.42227 9.80659 4.88528C9.34346 5.34841 9.34346 6.09939 9.80659 6.56264L12.3777 9.13363Z" fill="#4556CB"/>
        <path d="M42.1628 48.4081C41.8509 48.4081 41.5449 48.5349 41.3243 48.7556C41.1037 48.9764 40.9768 49.2821 40.9768 49.5941C40.9768 49.9061 41.1036 50.212 41.3243 50.4325C41.5461 50.6531 41.8509 50.7801 42.1628 50.7801C42.4747 50.7801 42.7807 50.6532 43.0012 50.4325C43.2229 50.212 43.3488 49.9061 43.3488 49.5941C43.3488 49.2821 43.2229 48.9762 43.0012 48.7556C42.7807 48.535 42.4747 48.4081 42.1628 48.4081Z" fill="#4556CB"/>
        <path d="M59.6609 48.4082H53.0193V39.1575C53.0193 38.5026 52.4883 37.9715 51.8334 37.9715H43.5314V28.7208C43.5314 28.0659 43.0003 27.5348 42.3454 27.5348H18.6255C17.9706 27.5348 17.4395 28.0659 17.4395 28.7208V37.9715H9.13758C8.48267 37.9715 7.95158 38.5026 7.95158 39.1575V48.4082H1.31002C0.655111 48.4082 0.124023 48.9393 0.124023 49.5942V60.031C0.124023 60.6859 0.655111 61.217 1.31002 61.217H59.6609C60.3158 61.217 60.8469 60.6859 60.8469 60.031V49.5942C60.8469 48.9393 60.3158 48.4082 59.6609 48.4082ZM19.8115 29.9068H41.1594V37.9715H19.8115V29.9068ZM58.4749 58.845H2.49601V50.7802H37.419C38.0739 50.7802 38.605 50.2491 38.605 49.5942C38.605 48.9393 38.0739 48.4082 37.419 48.4082H10.3236V45.5618H20.9975C21.6524 45.5618 22.1835 45.0307 22.1835 44.3758C22.1835 43.7209 21.6524 43.1898 20.9975 43.1898H10.3236V40.3435H18.6255H42.3454H50.6474V48.4082H46.8917C46.2368 48.4082 45.7057 48.9393 45.7057 49.5942C45.7057 50.2491 46.2368 50.7802 46.8917 50.7802H58.4749V58.845Z" fill="#4556CB"/>
        <path d="M25.7415 43.1898C25.4296 43.1898 25.1236 43.3165 24.903 43.5373C24.6824 43.758 24.5555 44.0637 24.5555 44.3758C24.5555 44.6877 24.6823 44.9937 24.903 45.2141C25.1236 45.4347 25.4296 45.5617 25.7415 45.5617C26.0534 45.5617 26.3594 45.4348 26.5799 45.2141C26.8005 44.9937 26.9275 44.6877 26.9275 44.3758C26.9275 44.0637 26.8006 43.7579 26.5799 43.5373C26.3594 43.3167 26.0534 43.1898 25.7415 43.1898Z" fill="#4556CB"/>
        <path d="M21.4304 24.6905H39.6496C41.1538 24.6905 42.3774 23.467 42.3774 21.9628V8.41978C42.3774 6.91558 41.1538 5.69199 39.6496 5.69199H36.4349V3.25359C36.4349 1.73315 35.1979 0.496155 33.6774 0.496155H27.4029C25.8825 0.496155 24.6455 1.73315 24.6455 3.25359V5.69199H21.4304C19.9262 5.69199 18.7026 6.91558 18.7026 8.41978V21.9626C18.7026 23.4668 19.9263 24.6905 21.4304 24.6905ZM39.6496 22.3186H21.4304C21.2342 22.3186 21.0746 22.1589 21.0746 21.9628V16.3773H26.6074C27.0275 17.874 28.4035 18.9751 30.0327 18.9751H30.4845C32.1137 18.9751 33.4896 17.874 33.9098 16.3773H40.0053V21.9628C40.0054 22.1589 39.8458 22.3186 39.6496 22.3186ZM31.6705 15.4171C31.6705 16.0711 31.1385 16.6031 30.4845 16.6031H30.0327C29.3787 16.6031 28.8467 16.0711 28.8467 15.4171V13.7793H31.6705V15.4171ZM27.0174 3.25371C27.0174 3.04118 27.1903 2.86826 27.4028 2.86826H33.6773C33.8899 2.86826 34.0628 3.04118 34.0628 3.25371V5.69211H27.0174V3.25371ZM21.4304 8.06398H25.8313H35.2487H39.6494C39.8456 8.06398 40.0052 8.22362 40.0052 8.41978V14.0053H34.0424V12.5934C34.0424 11.9385 33.5113 11.4074 32.8564 11.4074H27.6605C27.0056 11.4074 26.4746 11.9385 26.4746 12.5934V14.0053H21.0746V8.41978C21.0746 8.22362 21.2342 8.06398 21.4304 8.06398Z" fill="#4556CB"/>
    </g>
    <defs>
        <clipPath id="clip0">
            <rect width="60.7229" height="60.7229" fill="white" transform="translate(0.124023 0.495178)"/>
        </clipPath>
    </defs>
</svg>

