<svg width="90" height="90" viewBox="0 0 90 90" fill="none" xmlns="http://www.w3.org/2000/svg">
    <g clip-path="url(#clip0)">
        <path d="M8.1261 80.3228H11.0918V83.2885H8.1261V80.3228Z" fill="#FACA21"/>
        <path d="M54.0942 72.9086C54.0855 70.9044 52.7381 69.153 50.802 68.6324C51.3588 67.2625 51.1966 65.7058 50.369 64.4807C49.5414 63.2556 48.1585 62.5236 46.68 62.5287H43.7143V40.286H55.5771V52.1488C55.5771 55.4244 58.2328 58.0801 61.5084 58.0801H86.7168C87.5357 58.0801 88.1996 57.4162 88.1996 56.5973V21.0091C88.1996 20.1902 87.5357 19.5262 86.7168 19.5262H76.3369V12.112C76.3369 8.83643 73.6811 6.18064 70.4055 6.18064H43.7143V4.6978C43.702 2.24618 41.7174 0.261576 39.2658 0.249268C36.8091 0.249268 34.8172 2.24111 34.8172 4.6978V57.6725C31.205 55.5663 26.5776 56.6393 24.2607 60.1205L21.5593 64.173C21.0104 64.9962 20.088 65.4915 19.099 65.4944H17.0231V64.0115C17.0231 63.1926 16.3592 62.5287 15.5403 62.5287H3.67755C2.85865 62.5287 2.1947 63.1926 2.1947 64.0115V87.737C2.1947 88.5559 2.85865 89.2198 3.67755 89.2198H15.5403C16.3592 89.2198 17.0231 88.5559 17.0231 87.737V86.2542H21.1277C25.1505 88.1997 29.56 89.2133 34.028 89.2198H45.1972C47.6538 89.2198 49.6457 87.228 49.6457 84.7713C49.6413 84.0053 49.4372 83.253 49.0527 82.5898C50.8744 81.4552 51.6144 79.173 50.8034 77.1848C52.7388 76.6635 54.0855 74.9127 54.0942 72.9086ZM14.0574 86.2542H5.16039V65.4944H14.0574V86.2542ZM70.4055 40.286C72.0433 40.286 73.3712 41.6139 73.3712 43.2517C73.3712 44.8895 72.0433 46.2174 70.4055 46.2174H61.5084C60.4644 46.2232 59.4406 46.5085 58.5427 47.0421V40.286H70.4055ZM85.2339 22.4919V55.1145H61.5084C59.8706 55.1145 58.5427 53.7866 58.5427 52.1488C58.5427 50.511 59.8706 49.1831 61.5084 49.1831H70.4055C73.6811 49.1831 76.3369 46.5273 76.3369 43.2517V22.4919H85.2339ZM73.3712 12.112V38.145C72.4734 37.6114 71.4496 37.3261 70.4055 37.3203H43.7143V9.14633H70.4055C72.0433 9.14633 73.3712 10.4742 73.3712 12.112ZM39.2658 3.21495C39.6655 3.21423 40.0485 3.37786 40.3229 3.66893C40.598 3.94045 40.7515 4.31116 40.7486 4.6978V62.5287H38.6996L37.9205 60.9705C37.8792 60.8887 37.8257 60.8221 37.7829 60.7374V4.6978C37.7829 3.8789 38.4469 3.21495 39.2658 3.21495ZM49.6457 74.3914H40.7486V77.3571H46.68C47.4989 77.3571 48.1628 78.0211 48.1628 78.84C48.1628 79.6588 47.4989 80.3228 46.68 80.3228H37.7829V83.2885H45.1972C46.016 83.2885 46.68 83.9524 46.68 84.7713C46.68 85.5902 46.016 86.2542 45.1972 86.2542H34.0346C29.9032 86.2469 25.8304 85.2825 22.1342 83.4369C21.9278 83.337 21.7012 83.2863 21.4717 83.2885H17.0231V68.46H19.099C21.0821 68.46 22.9342 67.4688 24.0341 65.8195L26.7355 61.7648C27.7144 60.2979 29.3992 59.4631 31.1587 59.5724C32.9188 59.6825 34.4871 60.7207 35.2756 62.2977L35.3914 62.5287H31.8516V65.4944H46.68C47.4989 65.4944 48.1628 66.1583 48.1628 66.9772C48.1628 67.7961 47.4989 68.46 46.68 68.46H37.7829V71.4257H49.6457C50.4646 71.4257 51.1285 72.0897 51.1285 72.9086C51.1285 73.7275 50.4646 74.3914 49.6457 74.3914Z" fill="#FACA21"/>
        <path d="M68.9227 61.0458H85.234V64.0115H68.9227V61.0458Z" fill="#FACA21"/>
        <path d="M28.8859 18.0433H31.8515V43.2517H28.8859V18.0433Z" fill="#FACA21"/>
        <path d="M28.8859 46.2174H31.8515V49.1831H28.8859V46.2174Z" fill="#FACA21"/>
    </g>
    <defs>
        <clipPath id="clip0">
            <rect width="88.9706" height="88.9706" fill="white" transform="translate(0.711914 0.249268)"/>
        </clipPath>
    </defs>
</svg>
