<svg width="78" height="77" viewBox="0 0 78 77" fill="none" xmlns="http://www.w3.org/2000/svg">
<g clip-path="url(#clip0)">
<path d="M4.31756 28.1816L40.0334 28.1816C41.6865 28.1897 43.1476 29.2579 43.6559 30.8312C44.1467 30.7664 44.6412 30.734 45.1357 30.7328L47.6869 30.7328C48.3913 30.7328 48.9624 30.1616 48.9624 29.4572L48.9624 26.7784C45.7972 24.9815 43.8464 21.6169 43.8602 17.9771L43.8602 12.001C40.7478 10.5249 38.7629 7.39012 38.7579 3.94584L38.7579 0.119137L60.4425 0.119139C62.5558 0.119139 64.2692 1.83256 64.2692 3.94584L64.2692 17.9771C64.2829 21.6169 62.3322 24.9815 59.167 26.7784L59.167 29.4572C59.167 30.1616 59.7381 30.7328 60.4425 30.7328L62.9937 30.7328C69.331 30.7396 74.4669 35.8755 74.4738 42.2129L74.4738 54.9685C74.4688 56.3531 74.0091 57.6978 73.1652 58.7952L77.0249 58.7952L77.0249 68.9998L74.4738 68.9998L74.4738 76.6532L71.9226 76.6532L71.9226 68.9998L5.59313 68.9998L5.59313 76.6532L3.04199 76.6532L3.04199 68.9998L0.490862 68.9998L0.490865 32.0083C0.490865 29.895 2.20428 28.1816 4.31756 28.1816ZM46.4113 57.5197C46.4113 58.2241 46.9824 58.7952 47.6869 58.7952L48.9624 58.7952L48.9624 53.693L47.6869 53.693C46.9824 53.693 46.4113 54.2641 46.4113 54.9685L46.4113 57.5197ZM43.8601 58.7952L44.095 58.7952C43.9436 58.3867 43.8645 57.955 43.8601 57.5197L43.8601 58.7952ZM56.6158 29.4572L56.6158 27.8602C56.5722 27.8714 55.4119 28.0913 55.2892 28.105C54.4758 28.2072 53.6524 28.2072 52.8389 28.105C52.72 28.0913 51.5559 27.8714 51.5136 27.8602L51.5136 29.4572C51.5092 31.0355 50.5369 32.4493 49.0646 33.0173C49.5473 35.3953 51.6381 37.1044 54.0647 37.1044C56.4913 37.1044 58.5821 35.3953 59.0648 33.0173C57.5924 32.4493 56.6202 31.0355 56.6158 29.4572ZM61.7181 3.94584C61.7181 3.24141 61.147 2.67027 60.4425 2.67027L41.309 2.67027L41.309 3.94584C41.3134 7.46673 44.166 10.3193 47.6869 10.3237L61.7181 10.3237L61.7181 3.94584ZM61.7181 17.9771L61.7181 12.8748L46.4113 12.8748L46.4113 17.9771C46.4119 20.3015 47.4682 22.4995 49.2832 23.9513C51.0981 25.4038 53.4742 25.9525 55.742 25.443C56.2963 25.3184 56.8344 25.1316 57.347 24.8856C60.0283 23.6343 61.7362 20.9362 61.7181 17.9771ZM71.9226 54.9685L71.9226 42.2129C71.917 37.2837 67.9228 33.2895 62.9937 33.2839L61.6035 33.2839C60.9844 36.9648 57.7973 39.6605 54.0647 39.6605C50.332 39.6605 47.145 36.9648 46.5259 33.2839L45.1357 33.2839C44.7085 33.2876 44.2824 33.3206 43.8602 33.3835L43.8601 54.9685C43.8601 52.8552 45.5736 51.1418 47.6869 51.1418L62.9937 51.1418C63.6981 51.1418 64.2692 50.5707 64.2692 49.8663L64.2692 42.2129L66.8204 42.2129L66.8204 49.8663C66.8204 51.9795 65.1069 53.693 62.9937 53.693L51.5136 53.693L51.5136 58.7952L68.0959 58.7952C70.2092 58.7952 71.9226 57.0818 71.9226 54.9685ZM3.04199 66.4486L74.4738 66.4486L74.4738 61.3464L3.04199 61.3464L3.04199 66.4486ZM34.9312 58.7952L41.309 58.7952L41.309 32.0083C41.309 31.3039 40.7379 30.7328 40.0334 30.7328L4.31756 30.7327C3.61313 30.7327 3.042 31.3039 3.042 32.0083L3.04199 58.7952L34.9312 58.7952Z" fill="#FACA21"/>
<path d="M22.1755 39.6621C24.9932 39.6621 27.2778 41.9467 27.2778 44.7644C27.2778 47.5821 24.9932 49.8666 22.1755 49.8666C19.3578 49.8666 17.0732 47.5821 17.0732 44.7644C17.0732 41.9467 19.3578 39.6621 22.1755 39.6621ZM22.1755 47.3155C23.5844 47.3155 24.7266 46.1732 24.7266 44.7644C24.7266 43.3555 23.5844 42.2132 22.1755 42.2132C20.7666 42.2132 19.6244 43.3555 19.6244 44.7644C19.6244 46.1732 20.7666 47.3155 22.1755 47.3155Z" fill="#FACA21"/>
</g>
<defs>
<clipPath id="clip0">
<rect width="76.534" height="76.534" fill="white" transform="matrix(-1 -8.74228e-08 -8.74228e-08 1 77.0249 0.119141)"/>
</clipPath>
</defs>
</svg>
