<svg width="72" height="71" viewBox="0 0 72 71" fill="none" xmlns="http://www.w3.org/2000/svg">
    <g clip-path="url(#clip0)">
        <path d="M64.1474 9.70444C63.6354 9.36795 62.9472 9.51046 62.6107 10.0227C62.2743 10.535 62.4168 11.2229 62.929 11.5593C65.9464 13.5413 67.8938 16.3734 68.5805 19.7047C68.0781 19.3247 67.5001 18.9323 66.8552 18.5665C63.573 16.7047 60.1257 16.4137 56.8857 17.7242C52.3386 19.5637 50.0905 18.5536 48.7948 17.6333C48.434 17.3774 48.0824 17.0768 47.7201 16.7143C47.2868 16.2808 46.5843 16.2806 46.1509 16.714C45.7175 17.1472 45.7173 17.8498 46.1506 18.2831C46.3479 18.4804 46.5439 18.6616 46.7406 18.833C45.5718 20.4594 42.8372 21.1769 41.2244 21.407C40.6108 20.2056 39.4308 17.4196 40.384 15.2746C42.4713 10.578 48.9108 8.91142 53.7906 8.91142C56.1067 8.91142 58.4271 9.37849 60.5007 10.2621C61.0651 10.5024 61.7163 10.24 61.9565 9.67624C62.1968 9.11238 61.9346 8.46076 61.3708 8.22038C59.0243 7.22051 56.4032 6.69211 53.7906 6.69211C44.9277 6.69211 40.0064 10.6598 38.356 14.3732C36.8747 17.7061 38.8152 21.6626 39.4713 22.8392L39.3815 23.7685C37.4004 24.0236 35.8642 25.7198 35.8642 27.7694C35.8642 29.553 37.0135 31.0681 38.6267 31.6005C38.2983 35.2938 39.9508 38.9335 42.9539 41.1156L43.1888 41.2863C39.8391 42.8361 37.5807 46.2299 37.5807 50.0564V63.2928C37.5807 63.9057 38.0773 64.4025 38.6903 64.4025H67.2807C67.8937 64.4025 68.3904 63.9057 68.3904 63.2928V50.0565C68.3904 48.1551 67.8383 46.3148 66.7932 44.7345C66.4554 44.2234 65.7669 44.0829 65.2556 44.4209C64.7445 44.7589 64.604 45.4473 64.9422 45.9585C65.7463 47.1746 66.1712 48.5916 66.1712 50.0566V56.0391H62.8513V51.8821C62.8513 51.2692 62.3546 50.7725 61.7416 50.7725C61.1286 50.7725 60.6319 51.2692 60.6319 51.8821V62.1834H45.3398V51.8821C45.3398 51.2692 44.8431 50.7725 44.2301 50.7725C43.6171 50.7725 43.1205 51.2692 43.1205 51.8821V56.0391H39.8004V50.0566C39.8004 47.1432 41.499 44.555 44.0286 43.3429C44.1941 44.3377 44.5229 45.3019 45.0047 46.187C45.206 46.5568 45.587 46.7663 45.9804 46.7663C46.1596 46.7663 46.3414 46.7228 46.5099 46.631C47.0482 46.3381 47.2468 45.6642 46.954 45.126C46.6884 44.6381 46.4849 44.1178 46.3454 43.579L48.1014 44.8547C49.5621 45.9169 51.2735 46.4477 52.9858 46.4477C54.6974 46.4477 56.4096 45.9167 57.8705 44.855L59.6295 43.5774C58.8618 46.5285 56.1748 48.7136 52.9869 48.7136C51.4148 48.7136 49.9361 48.1967 48.7105 47.2187C48.2315 46.8365 47.5331 46.9151 47.1511 47.3941C46.7688 47.8732 46.8474 48.5714 47.3265 48.9536C48.9262 50.2299 50.9365 50.9328 52.987 50.9328C57.4867 50.9328 61.2304 47.6428 61.9446 43.3427C62.2719 43.4999 62.5886 43.6813 62.8934 43.8873C63.084 44.0161 63.3001 44.078 63.5141 44.078C63.87 44.078 64.2198 43.907 64.4343 43.59C64.7775 43.0824 64.6444 42.3924 64.1368 42.0492C63.7038 41.7564 63.2515 41.503 62.7836 41.2863L63.0183 41.1159C66.0216 38.9337 67.674 35.2937 67.3453 31.6003C68.9579 31.0674 70.1067 29.5527 70.1067 27.7698C70.1067 25.721 68.5712 24.0252 66.5905 23.7694L66.4662 22.4823C66.4075 21.8722 65.8651 21.4262 65.2551 21.4843C64.6451 21.5432 64.1983 22.0854 64.2573 22.6954L65.13 31.7341C65.4143 34.6759 64.1052 37.5828 61.7138 39.3204L56.5661 43.0596C54.4241 44.6162 51.5472 44.6162 49.4063 43.0595L44.2589 39.3203C41.8673 37.5825 40.5581 34.6756 40.8424 31.7337L41.6291 23.5863C43.3285 23.3298 46.8641 22.5175 48.5747 20.0871C51.0733 21.3566 54.0789 21.2533 57.7182 19.781C60.3248 18.7264 63.011 18.9558 65.7016 20.4631C67.7935 21.6347 69.1052 23.172 69.1167 23.1857C69.3316 23.4422 69.6454 23.5826 69.9674 23.5826C70.0941 23.5826 70.2224 23.5609 70.3464 23.5158C70.7849 23.3564 71.0769 22.9395 71.0769 22.4731C71.0767 17.174 68.6158 12.6391 64.1474 9.70444ZM38.8523 29.2551C38.3862 28.926 38.084 28.3832 38.084 27.7695C38.084 27.0336 38.5248 26.4 39.1556 26.115L38.8523 29.2551ZM62.8515 58.2582H66.1715V62.1833H62.8515V58.2582ZM43.1206 58.2582V62.1833H39.8005V58.2582H43.1206ZM67.887 27.7695C67.887 28.3827 67.5851 28.925 67.1196 29.254L66.8166 26.1157C67.4468 26.4011 67.887 27.0343 67.887 27.7695Z" fill="#4556CB"/>
        <path d="M47.4034 28.8058C46.7904 28.8058 46.2938 29.3026 46.2938 29.9154V31.4196C46.2938 32.0325 46.7904 32.5293 47.4034 32.5293C48.0164 32.5293 48.5131 32.0325 48.5131 31.4196V29.9154C48.5129 29.3026 48.0163 28.8058 47.4034 28.8058Z" fill="#4556CB"/>
        <path d="M61.5027 25.4944C60.7187 24.7104 59.6764 24.2787 58.5679 24.2787C57.4593 24.2787 56.417 24.7105 55.633 25.4944C55.1997 25.9276 55.1997 26.6303 55.6332 27.0636C56.0663 27.497 56.769 27.4967 57.2022 27.0636C57.5669 26.6989 58.0519 26.4979 58.5676 26.4979C59.0833 26.4979 59.5684 26.6989 59.933 27.0636C60.1498 27.2801 60.4337 27.3884 60.7178 27.3884C61.0017 27.3884 61.2857 27.2801 61.5023 27.0636C61.936 26.6303 61.936 25.9278 61.5027 25.4944Z" fill="#4556CB"/>
        <path d="M50.3381 25.4944C49.5542 24.7104 48.5118 24.2787 47.4033 24.2787C46.2947 24.2787 45.2524 24.7105 44.4684 25.4944C44.0349 25.9276 44.0349 26.6302 44.4683 27.0634C44.9017 27.4967 45.6042 27.4967 46.0374 27.0634C46.4022 26.6986 46.8872 26.4976 47.403 26.4976C47.9188 26.4976 48.4038 26.6986 48.7684 27.0633C48.9852 27.2801 49.2691 27.3884 49.5532 27.3884C49.8371 27.3884 50.1212 27.2801 50.3377 27.0636C50.7715 26.6303 50.7715 25.9278 50.3381 25.4944Z" fill="#4556CB"/>
        <path d="M58.5679 28.8058C57.9549 28.8058 57.4582 29.3026 57.4582 29.9154V31.4196C57.4582 32.0325 57.9549 32.5293 58.5679 32.5293C59.1809 32.5293 59.6775 32.0325 59.6775 31.4196V29.9154C59.6775 29.3026 59.1807 28.8058 58.5679 28.8058Z" fill="#4556CB"/>
        <path d="M56.2085 37.3757C55.775 36.9424 55.0726 36.9424 54.6392 37.3757C53.7275 38.2875 52.2435 38.2875 51.3318 37.3757C50.8983 36.9424 50.1959 36.9424 49.7625 37.3757C49.3292 37.8091 49.3292 38.5116 49.7625 38.9448C50.6511 39.8333 51.8182 40.2776 52.9854 40.2776C54.1527 40.2776 55.3197 39.8333 56.2084 38.9448C56.6419 38.5115 56.6419 37.8088 56.2085 37.3757Z" fill="#4556CB"/>
        <path d="M53.9261 28.9312C53.3131 28.9312 52.8164 29.428 52.8164 30.0408V32.6931H52.0452C51.4323 32.6931 50.9355 33.1899 50.9355 33.8028C50.9355 34.4157 51.4322 34.9125 52.0452 34.9125H53.9261C54.5391 34.9125 55.0358 34.4157 55.0358 33.8028V30.041C55.0356 29.428 54.539 28.9312 53.9261 28.9312Z" fill="#4556CB"/>
        <path d="M26.5105 32.3498C25.7582 31.5973 24.7576 31.1829 23.6937 31.1829C22.6295 31.1829 21.6289 31.5973 20.8764 32.3498C20.443 32.7831 20.443 33.4857 20.8764 33.9189C21.3097 34.3521 22.0124 34.3521 22.4455 33.9189C22.7788 33.5855 23.2221 33.402 23.6934 33.402C24.1648 33.402 24.608 33.5855 24.9413 33.9189C25.1579 34.1354 25.442 34.2439 25.7259 34.2439C26.0098 34.2439 26.2938 34.1356 26.5104 33.9189C26.9438 33.4856 26.9438 32.7829 26.5105 32.3498Z" fill="#4556CB"/>
        <path d="M15.9575 32.3498C15.205 31.5973 14.2044 31.1829 13.1405 31.1829C12.0763 31.1829 11.0757 31.5973 10.3232 32.3498C9.88983 32.7831 9.88983 33.4857 10.3232 33.9189C10.7566 34.3521 11.4592 34.3521 11.8923 33.9189C12.2256 33.5855 12.6689 33.402 13.1402 33.402C13.6115 33.402 14.0548 33.5855 14.3881 33.9189C14.6047 34.1354 14.8888 34.2439 15.1727 34.2439C15.4566 34.2439 15.7408 34.1356 15.9573 33.9189C16.3909 33.4856 16.3909 32.7829 15.9575 32.3498Z" fill="#4556CB"/>
        <path d="M21.5066 39.6296C21.0733 39.1964 20.3706 39.1964 19.9374 39.6296C19.099 40.4681 17.7352 40.468 16.897 39.6296C16.4636 39.1964 15.761 39.1964 15.3279 39.6296C14.8945 40.063 14.8945 40.7656 15.3279 41.1987C16.1531 42.0239 17.2503 42.4784 18.4173 42.4784C19.5843 42.4784 20.6815 42.0239 21.5067 41.1987C21.9398 40.7654 21.9398 40.0629 21.5066 39.6296Z" fill="#4556CB"/>
        <path d="M19.1682 34.789H17.6669C17.0541 34.789 16.5572 35.2858 16.5572 35.8986C16.5572 36.5114 17.054 37.0083 17.6669 37.0083H19.1682C19.7809 37.0083 20.2778 36.5115 20.2778 35.8986C20.2777 35.2858 19.7809 34.789 19.1682 34.789Z" fill="#4556CB"/>
        <path d="M35.8462 30.0956C35.8462 28.6103 35.0054 27.3182 33.775 26.6679L35.2148 24.693C35.8868 23.7713 36.0119 22.5984 35.5496 21.5555C35.0873 20.5127 34.134 19.8179 32.9997 19.6971C32.3915 19.6323 31.8438 20.0733 31.7789 20.6828C31.714 21.2923 32.1551 21.8388 32.7646 21.9036C33.2497 21.9554 33.4551 22.3065 33.521 22.4551C33.5868 22.6036 33.7091 22.9917 33.4217 23.3858L31.0182 26.6829C30.7308 27.0768 30.3243 27.0792 30.1626 27.0622C30.001 27.0451 29.6039 26.9566 29.4062 26.5109L27.7107 22.6868C28.0896 22.3477 28.3963 21.9302 28.6061 21.46L29.7371 21.5806C29.7772 21.5848 29.8169 21.587 29.8562 21.587C30.4162 21.587 30.8974 21.1643 30.9581 20.5951C31.023 19.9856 30.5819 19.439 29.9724 19.3741L28.8429 19.2537C28.5011 17.6118 27.0433 16.3743 25.3015 16.3743C25.173 16.3743 25.0462 16.3813 24.9209 16.3944L23.2255 12.5721C22.7631 11.5295 21.8098 10.8348 20.6756 10.714C19.5411 10.5927 18.4633 11.0713 17.7914 11.9932L15.3881 15.2908C14.7163 16.2126 14.5913 17.3855 15.0538 18.4282C15.5161 19.4709 16.4696 20.1657 17.6039 20.2865L21.76 20.7294C21.8198 21.0167 21.9137 21.2917 22.0373 21.5498C19.2205 24.3116 14.4449 27.0165 7.1595 25.385C8.18606 22.1168 10.6029 19.4074 13.8252 18.0446C14.3896 17.806 14.6537 17.1548 14.415 16.5904C14.1762 16.026 13.5252 15.7618 12.9608 16.0007C8.64808 17.8245 5.55046 21.6793 4.66052 26.226C2.6174 26.3313 0.987549 28.0269 0.987549 30.0957C0.987549 31.8619 2.16086 33.3545 3.78605 33.82C3.56004 37.6044 5.28215 41.2825 8.3684 43.5245L9.2452 44.1615C5.99523 45.6113 3.79563 48.8751 3.79563 52.5592V54.9653C3.79563 55.5781 4.29242 56.075 4.90529 56.075C5.51816 56.075 6.01494 55.5782 6.01494 54.9653V52.5592C6.01494 49.8565 7.57429 47.4517 9.9053 46.3017C10.6176 50.3564 14.1624 53.448 18.4181 53.448C21.9001 53.448 25.0269 51.3755 26.3839 48.1678C26.6227 47.6035 26.3587 46.9525 25.7943 46.7136C25.2302 46.4748 24.5789 46.7386 24.3401 47.3032C23.3312 49.688 21.0068 51.2287 18.4181 51.2287C15.3861 51.2287 12.8396 49.1177 12.167 46.2839L13.4243 47.1974C14.9176 48.2824 16.6677 48.8249 18.4177 48.8249C20.1678 48.8249 21.9178 48.2824 23.4112 47.1974L25.3913 45.7587C28.549 46.471 30.8205 49.2974 30.8205 52.5589V62.1832H27.8038V54.2844C27.8038 53.6717 27.307 53.1748 26.6941 53.1748C26.0813 53.1748 25.5845 53.6716 25.5845 54.2844V62.1832H11.2505V54.2844C11.2505 53.6717 10.7538 53.1748 10.1409 53.1748C9.52802 53.1748 9.03124 53.6716 9.03124 54.2844V62.1832H6.01467V59.0237C6.01467 58.4109 5.51788 57.914 4.90501 57.914C4.29214 57.914 3.79536 58.4108 3.79536 59.0237V63.2928C3.79536 63.9055 4.29214 64.4025 4.90501 64.4025H31.9297C32.5425 64.4025 33.0394 63.9057 33.0394 63.2928V52.559C33.0394 48.8748 30.8397 45.6112 27.5898 44.1613L28.4663 43.5244C31.5529 41.2819 33.275 37.6039 33.0487 33.8192C34.6735 33.3528 35.8462 31.861 35.8462 30.0956ZM4.02397 31.5257C3.53321 31.2381 3.20672 30.705 3.20672 30.0957C3.20672 29.3592 3.69023 28.7343 4.35621 28.5198L4.02397 31.5257ZM25.3012 18.5936C26.0721 18.5936 26.6993 19.2207 26.6993 19.9917C26.6993 20.7626 26.0722 21.3898 25.3012 21.3898C24.5303 21.3898 23.9032 20.7626 23.9032 19.9917C23.9032 19.2207 24.5303 18.5936 25.3012 18.5936ZM21.9968 18.5228L17.8388 18.0798C17.3538 18.0282 17.1483 17.6771 17.0823 17.5286C17.0163 17.38 16.8942 16.9921 17.1814 16.5978L19.5847 13.3001C19.8721 12.906 20.2789 12.9035 20.4403 12.9207C20.6018 12.9378 20.999 13.026 21.1968 13.472L22.8929 17.2958C22.5137 17.6348 22.2068 18.0524 21.9968 18.5228ZM27.1619 41.7292L22.1066 45.4023C19.8999 47.0056 16.9348 47.0054 14.7283 45.4023L9.67286 41.7292C7.07833 39.8442 5.68558 36.6929 6.03794 33.5055L6.68846 27.6204C6.69078 27.5988 6.6942 27.5776 6.69681 27.5561C8.40509 27.9386 9.99483 28.1116 11.4678 28.1116C15.6503 28.1116 18.9031 26.745 21.3463 25.0145C21.9865 25.7951 23.0554 26.8852 24.5821 27.7631C25.1591 28.0949 25.8962 27.8577 26.1615 27.2471C26.3879 26.7264 26.1816 26.1227 25.6897 25.8393C24.4548 25.128 23.5851 24.2378 23.0758 23.621C23.2432 23.4685 23.4053 23.3153 23.5622 23.1618C24.0786 23.4463 24.6714 23.6088 25.3016 23.6088C25.4303 23.6088 25.5576 23.6017 25.6829 23.5885L27.3776 27.4104C27.8399 28.453 28.7932 29.1477 29.9274 29.2688C30.0435 29.2811 30.1587 29.2872 30.2735 29.2872C30.2928 29.2872 30.3118 29.2859 30.331 29.2856L30.7975 33.5052C31.1494 36.6929 29.7566 39.844 27.1619 41.7292ZM32.8108 31.5248L32.4787 28.5205C33.1441 28.7356 33.6271 29.3601 33.6271 30.0957C33.6271 30.7044 33.301 31.237 32.8108 31.5248Z" fill="#4556CB"/>
    </g>
    <defs>
        <clipPath id="clip0">
            <rect width="70.0895" height="70.0895" fill="white" transform="translate(0.987549 0.502625)"/>
        </clipPath>
    </defs>
</svg>
