<svg width="156" height="159" viewBox="0 0 156 159" fill="none" xmlns="http://www.w3.org/2000/svg">
<g clip-path="url(#clip0)">
<path d="M74.7886 0.539063C77.6769 1.19375 80.5652 1.96396 83.0299 3.73545C87.9978 7.27844 90.8475 12.0538 91.1556 18.2155C91.1556 18.5236 91.1941 18.8317 91.2712 19.3708C92.8886 19.3708 94.5061 19.4478 96.1235 19.3323C96.4701 19.2938 96.8167 18.7161 97.0478 18.2925C98.7037 15.0961 101.939 13.4787 105.52 14.0563C108.832 14.5955 111.412 17.2527 111.913 20.6417C112.452 24.2617 110.295 27.8047 106.868 29.0755C103.248 30.3849 99.2044 29.0755 97.4329 25.6866C96.6627 24.2232 95.8154 23.8381 94.352 23.9921C93.3893 24.1076 92.4265 23.9921 91.3482 23.9921C91.3482 29.114 91.3482 34.1204 91.3482 39.2038C91.8488 39.2424 92.2724 39.2809 92.7346 39.2809C98.2416 39.2809 103.71 39.3579 109.217 39.2424C110.18 39.2424 111.335 38.7417 112.067 38.087C114.724 35.5838 117.227 32.9651 119.808 30.3079C117.959 26.9189 118.036 23.607 120.693 20.6417C123.197 17.8304 127.433 17.2912 130.668 19.3323C133.864 21.3349 135.135 25.417 133.71 28.9215C132.285 32.3874 128.434 34.4285 124.776 33.5428C123.736 33.2732 123.158 33.5813 122.503 34.236C120.077 36.7006 117.613 39.0883 115.225 41.553C113.646 43.1319 111.836 43.9021 109.564 43.9021C104.057 43.8636 98.5882 43.9021 93.0812 43.9021C92.542 43.9021 91.9644 43.9021 91.3482 43.9021C91.3482 47.1371 91.3482 50.1794 91.3482 53.4528C91.9258 53.4528 92.465 53.4528 93.0042 53.4528C100.514 53.4528 107.985 53.4913 115.494 53.4528C117.844 53.4528 119.808 54.1845 121.425 55.879C122.657 57.1884 124.005 58.3822 125.238 59.6916C126.393 60.8854 126.431 62.2718 125.43 63.2345C124.429 64.1973 123.197 64.1588 122.003 63.0035C120.655 61.7326 119.423 60.3462 118.036 59.1139C117.458 58.6133 116.611 58.1126 115.918 58.1126C107.908 58.0356 99.8976 58.0741 91.8873 58.0741C91.7333 58.0741 91.6178 58.1511 91.3867 58.2281C91.3867 62.5799 91.3867 66.8931 91.3867 71.3988C93.1197 71.3988 94.7371 71.4758 96.3546 71.3603C96.7782 71.3218 97.2788 70.7056 97.5099 70.2435C99.2429 67.0086 102.786 65.3526 106.329 66.1614C109.718 66.9316 112.298 70.0509 112.414 73.5939C112.529 77.0599 110.18 80.2563 106.714 81.2961C103.094 82.3744 99.2044 80.7569 97.5484 77.2524C97.0863 76.2897 96.5471 76.0201 95.5844 76.0586C94.198 76.1356 92.8501 76.0586 91.3867 76.0586C91.3867 81.7197 91.3867 87.1882 91.3867 92.8108C91.8488 92.8493 92.2724 92.9263 92.7346 92.9263C99.8205 92.9263 106.907 92.9263 113.993 92.9648C114.917 92.9648 115.417 92.7723 115.88 91.848C117.497 88.4976 121.117 86.7646 124.583 87.5733C128.241 88.4206 130.745 91.5014 130.745 95.1984C130.745 98.857 128.319 101.938 124.776 102.824C121.194 103.709 117.574 102.053 115.88 98.6644C115.533 97.9712 115.263 97.5091 114.339 97.5476C106.945 97.5861 99.551 97.5861 92.1569 97.5861C91.9644 97.5861 91.7333 97.6246 91.4252 97.6631C91.4252 102.708 91.4252 107.791 91.4252 112.913C91.8488 112.952 92.2339 113.029 92.619 113.029C98.4727 113.029 104.326 113.029 110.18 113.067C111.066 113.067 111.489 112.836 111.913 111.989C113.723 108.254 117.767 106.675 121.656 108.023C125.315 109.332 127.471 113.183 126.663 116.996C125.854 120.808 122.234 123.504 118.229 123.119C115.302 122.849 113.222 121.27 111.836 118.651C111.605 118.228 111.027 117.65 110.604 117.65C104.326 117.612 98.0876 117.612 91.8103 117.65C91.7333 117.65 91.6178 117.727 91.4252 117.804C91.4252 121.732 91.4252 125.737 91.4252 129.935C92.2724 129.935 93.1197 129.935 93.9669 129.935C96.9322 129.935 99.9361 129.935 102.901 129.935C105.02 129.935 106.791 130.628 108.293 132.13C109.718 133.594 111.22 135.019 112.645 136.482C113.299 137.175 113.838 137.291 114.801 137.06C119.037 135.904 123.274 138.407 124.39 142.567C125.507 146.726 123.081 150.923 118.806 152.156C114.763 153.311 110.45 150.885 109.256 146.764C108.755 144.993 108.755 143.221 109.641 141.527C110.026 140.757 109.949 140.256 109.294 139.678C107.869 138.369 106.521 136.906 105.097 135.596C104.634 135.173 104.018 134.787 103.402 134.633C102.824 134.479 102.17 134.556 101.554 134.556C98.1646 134.556 94.8142 134.556 91.2327 134.556C91.2327 136.559 91.2712 138.407 91.2327 140.256C90.8475 151.578 80.7577 159.858 69.5896 157.932C63.7745 156.931 59.3843 153.85 56.4575 148.728C56.0338 147.958 55.6487 147.496 54.6089 147.496C43.7489 147.419 35.7387 139.986 34.7759 129.165C34.7759 129.049 34.7374 128.972 34.6604 128.741C33.3895 128.741 32.0802 128.78 30.7323 128.741C29.1148 128.664 28.1906 127.817 28.2291 126.431C28.2291 125.083 29.1533 124.081 30.7708 124.159C34.7759 124.313 38.3189 123.119 41.5538 120.77C42.8247 119.845 44.211 120.153 44.9427 121.232C45.6744 122.349 45.3664 123.658 44.057 124.544C42.9017 125.352 41.6693 126.123 40.3985 126.777C39.5897 127.201 39.2817 127.663 39.3587 128.549C39.8208 134.633 42.7861 139.062 48.2932 141.527C53.6462 143.915 58.8066 143.183 63.5434 139.717C64.0056 139.37 64.3907 138.985 64.8528 138.639C66.0466 137.791 67.3175 137.907 68.1647 138.908C68.9734 139.909 68.9349 141.296 67.7411 142.182C65.8156 143.606 63.736 144.8 61.6949 146.071C61.3868 146.264 61.0402 146.341 60.7321 146.495C62.3111 150.577 67.8951 153.735 73.0941 153.581C78.4471 153.388 83.8001 149.807 85.1865 145.339C84.2237 145.339 83.338 145.378 82.4137 145.339C80.8733 145.262 79.9875 144.454 79.949 143.144C79.9105 141.835 80.7577 140.911 82.2597 140.795C83.646 140.718 84.9939 140.757 86.4958 140.757C86.4958 135.019 86.4958 129.473 86.4958 123.966C83.6075 123.966 80.7577 123.696 78.0235 124.043C74.9041 124.39 72.709 127.124 72.3624 130.282C72.3239 130.59 72.3239 130.898 72.2469 131.206C71.9388 132.554 70.899 133.363 69.7437 133.209C68.5113 133.055 67.7411 132.092 67.7411 130.705C67.6641 126.123 70.9375 121.386 75.3662 119.999C77.3688 119.383 79.6024 119.306 81.7205 119.152C83.2994 119.037 84.8784 119.114 86.5343 119.114C86.5343 108.485 86.5343 98.0482 86.5343 87.3808C85.9182 87.3808 85.302 87.3808 84.7243 87.3808C73.3252 87.3808 61.926 87.3808 50.5268 87.3808C49.9491 87.3808 49.3715 87.4193 48.8323 87.3423C47.6385 87.1497 46.8298 86.341 46.9453 85.2627C47.0223 84.4539 47.754 83.6067 48.4087 83.0291C48.7938 82.6825 49.564 82.7595 50.1802 82.7595C61.6179 82.7595 73.0941 82.7595 84.5318 82.7595C85.148 82.7595 85.7641 82.7595 86.4573 82.7595C86.4573 69.8199 86.4573 56.9573 86.4573 43.9021C85.8797 43.9021 85.3405 43.9021 84.8014 43.9021C79.2943 43.9021 73.8258 43.9407 68.3188 43.8636C61.3483 43.7866 55.9953 38.8572 55.6872 32.3104C55.6102 30.5389 56.3034 29.5376 57.6898 29.3836C59.1532 29.2296 60.0775 30.1538 60.27 31.9638C60.7321 36.123 63.4279 39.0498 67.356 39.1653C73.6718 39.3579 79.9875 39.2038 86.4188 39.2038C86.4188 34.1204 86.4188 29.0755 86.4188 23.8381C85.1094 23.8381 83.7616 23.8766 82.4522 23.8381C80.8348 23.7995 79.872 22.9138 79.8335 21.6044C79.795 20.218 80.7962 19.2938 82.4907 19.2553C83.1454 19.2168 83.8386 19.2553 84.4933 19.2553C85.1094 19.2553 85.7256 19.2553 86.3033 19.2553C87.112 13.9023 82.7603 7.70206 77.0222 5.89205C70.5139 3.81247 63.4279 6.50823 60.6936 11.9382C62.8888 13.3631 65.1994 14.557 67.1634 16.2129C71.3611 19.7559 73.5562 24.4157 73.8258 29.9228C73.9413 31.8483 73.1711 32.9651 71.7077 33.0806C70.2828 33.1962 69.3586 32.1179 69.2045 30.1923C68.7424 23.9151 65.623 19.4863 59.8849 17.0217C50.3342 12.9395 39.3202 20.2566 39.2817 30.6545C39.2817 31.4247 39.3587 32.1949 39.3587 32.9651C39.3202 34.8521 38.2034 35.6609 36.3548 35.4683C34.0442 35.1987 31.618 34.7751 29.3459 35.0447C20.4499 36.2 14.4807 46.2128 17.6001 54.0305C20.7965 53.6068 23.9159 53.1062 27.0352 52.8366C28.3831 52.7211 29.3844 53.7224 29.3844 54.9547C29.3844 56.2641 28.6912 57.0728 27.4204 57.3039C26.9582 57.3809 26.4961 57.3809 26.034 57.4579C23.6463 57.9586 21.1046 58.1511 18.871 59.0754C10.8607 62.3873 6.0854 68.472 5.19966 77.0984C4.31391 85.9174 7.81839 92.8878 15.2125 97.8557C15.328 97.9327 15.482 97.9712 15.2895 97.8942C17.4846 96.0457 19.4871 94.2357 21.6437 92.6182C23.1842 91.4629 24.6476 91.694 25.4178 92.8878C26.188 94.1201 25.7644 95.391 24.1469 96.4693C18.6399 100.051 16.0212 105.096 17.0995 111.643C17.4461 113.684 18.5629 115.648 19.4101 117.573C19.6797 118.189 20.1803 118.651 20.5654 119.229C21.3357 120.384 21.2201 121.463 20.1803 122.387C19.2561 123.234 17.8312 123.042 16.9069 121.963C14.6733 119.422 13.2099 116.418 12.5167 113.106C11.9005 109.987 11.939 106.867 12.9788 103.825C13.4024 102.554 13.0944 102.015 12.0546 101.245C3.23561 94.9289 -0.576955 86.1484 0.886453 75.2884C1.92624 67.7788 5.81583 61.9252 12.0161 57.5735C12.4782 57.2654 12.9403 56.9188 13.441 56.5722C11.2073 49.6402 12.0546 43.209 16.5988 37.5479C21.1816 31.8868 27.2663 29.6147 34.2368 30.3464C35.0455 27.6506 35.4691 24.9164 36.6629 22.5287C40.2444 15.2502 46.2906 11.5531 54.3779 11.3221C55.1866 11.2836 55.7643 11.245 56.2649 10.3978C59.1917 4.9678 63.7745 1.84843 69.7822 0.770127C70.0132 0.731616 70.2443 0.616084 70.5139 0.539062C71.9388 0.539063 73.3637 0.539063 74.7886 0.539063ZM126.162 29.191C127.933 29.3066 129.474 27.9587 129.589 26.1872C129.705 24.4927 128.28 22.9138 126.508 22.7983C124.853 22.7212 123.312 24.0691 123.158 25.7251C123.043 27.4966 124.39 29.0755 126.162 29.191ZM104.48 76.9829C106.213 76.9829 107.754 75.4424 107.715 73.748C107.677 72.092 106.213 70.6671 104.519 70.6286C102.747 70.5901 101.284 72.0535 101.245 73.7865C101.245 75.558 102.709 76.9829 104.48 76.9829ZM116.496 147.804C118.306 147.881 119.808 146.572 119.885 144.8C119.962 143.029 118.575 141.527 116.804 141.45C115.109 141.373 113.646 142.721 113.53 144.415C113.376 146.225 114.724 147.727 116.496 147.804ZM125.969 95.1984C125.931 93.427 124.429 92.0021 122.657 92.0791C121.001 92.1561 119.538 93.6195 119.538 95.2755C119.538 96.9699 121.078 98.5104 122.811 98.4719C124.544 98.4333 126.008 96.9314 125.969 95.1984ZM122.041 115.301C122.041 113.568 120.462 112.066 118.768 112.143C117.073 112.182 115.648 113.645 115.648 115.301C115.61 117.034 117.112 118.536 118.845 118.536C120.578 118.536 122.041 117.034 122.041 115.301ZM100.937 21.6429C100.899 23.4144 102.285 24.8393 104.095 24.8778C105.867 24.9164 107.369 23.4529 107.369 21.72C107.369 20.064 105.905 18.6006 104.249 18.5236C102.478 18.4851 100.976 19.91 100.937 21.6429Z" fill="#922E9D"/>
<path d="M150.346 80.7958C150.231 83.6841 148.69 86.1488 145.648 87.4966C142.606 88.806 139.679 88.3439 137.214 86.0718C134.788 83.7996 134.056 80.9498 135.173 77.7919C135.481 76.9062 135.366 76.4056 134.711 75.7894C133.594 74.7496 132.516 73.6328 131.438 72.516C130.244 71.2836 130.128 69.9358 131.053 68.973C132.015 67.9332 133.402 68.0487 134.711 69.2811C135.789 70.3209 136.868 71.3221 137.869 72.439C138.485 73.1321 139.063 73.2862 139.987 72.9781C145.109 71.1681 150.385 74.9807 150.346 80.7958ZM145.725 80.2951C145.687 78.5236 144.262 77.1373 142.452 77.1758C140.719 77.2143 139.332 78.6007 139.332 80.2951C139.294 82.0281 140.796 83.4915 142.567 83.4915C144.339 83.4915 145.725 82.1051 145.725 80.2951Z" fill="#922E9D"/>
<path d="M31.6949 69.281C29.9619 69.358 28.9221 68.6648 28.8066 67.2784C28.6526 65.738 29.6153 64.8908 31.7334 64.6597C36.3932 64.1591 39.7051 61.1167 40.4368 56.7265C41.3226 51.4505 37.3945 46.3671 32.0415 45.8665C31.5794 45.828 31.1172 45.828 30.6551 45.7124C29.3072 45.4044 28.614 44.4031 28.8066 43.1322C29.0377 41.8229 29.8849 41.1682 31.1943 41.2067C36.1621 41.3222 40.1673 43.4403 42.863 47.561C48.8322 56.765 42.632 68.7418 31.6949 69.281Z" fill="#922E9D"/>
<path d="M47.0991 104.596C44.1723 104.596 41.2455 104.558 38.3187 104.596C33.8514 104.635 31.2712 106.907 30.655 111.335C30.6165 111.605 30.578 111.836 30.501 112.106C30.1544 113.453 29.2301 114.147 27.9208 113.916C26.5729 113.685 26.0337 112.799 26.0337 111.528C25.9567 105.79 30.8091 100.321 36.5857 100.129C43.5176 99.8977 50.4495 100.013 57.3815 100.013C58.8834 100.013 59.7691 100.938 59.7691 102.247C59.7691 103.595 58.8449 104.558 57.2659 104.596C53.877 104.635 50.4881 104.596 47.0991 104.596Z" fill="#922E9D"/>
<path d="M155.237 108.023C155.237 112.375 151.81 115.841 147.42 115.841C143.068 115.841 139.525 112.375 139.525 108.062C139.525 103.787 143.068 100.205 147.381 100.205C151.656 100.167 155.199 103.71 155.237 108.023ZM147.343 111.181C149.114 111.219 150.577 109.756 150.577 108.023C150.577 106.29 149.076 104.827 147.343 104.827C145.687 104.865 144.185 106.29 144.146 107.946C144.108 109.679 145.571 111.181 147.343 111.181Z" fill="#922E9D"/>
<path d="M139.602 56.6874C135.25 56.6489 131.746 53.1444 131.784 48.8312C131.823 44.518 135.404 41.0136 139.679 41.0521C144.031 41.0906 147.497 44.5951 147.458 48.9083C147.497 53.26 143.954 56.7259 139.602 56.6874ZM139.602 52.0661C141.373 52.1046 142.875 50.6797 142.875 48.9468C142.914 47.2138 141.45 45.7504 139.679 45.7504C137.984 45.7504 136.521 47.1368 136.444 48.7927C136.367 50.4872 137.83 52.0276 139.602 52.0661Z" fill="#922E9D"/>
<path d="M137.445 124.351C141.759 124.389 145.263 127.932 145.186 132.207C145.147 136.482 141.566 140.025 137.291 139.986C132.978 139.948 129.474 136.443 129.474 132.169C129.474 127.817 133.017 124.312 137.445 124.351ZM140.526 132.207C140.565 130.436 139.14 129.011 137.33 129.011C135.558 129.011 134.21 130.32 134.133 132.053C134.056 133.825 135.481 135.326 137.253 135.365C138.986 135.403 140.526 133.94 140.526 132.207Z" fill="#922E9D"/>
<path d="M59.6536 121.655C59.6536 127.856 54.6087 133.016 48.447 133.209C47.0221 133.247 45.9823 132.4 45.8283 131.129C45.7127 129.858 46.5215 128.818 47.9849 128.664C50.1415 128.433 52.067 127.74 53.4919 125.969C56.4957 122.156 54.7243 116.533 50.0645 115.185C49.3713 114.993 48.6396 114.954 47.9464 114.839C46.56 114.608 45.7513 113.684 45.8283 112.451C45.9053 111.18 46.9066 110.256 48.3315 110.256C53.4919 110.218 58.6138 114.531 59.4226 119.653C59.4996 120.346 59.5766 121.039 59.6536 121.655Z" fill="#922E9D"/>
<path d="M82.0668 66.0073C81.8742 71.3217 77.6381 75.8275 72.4006 76.0586C70.6291 76.1356 69.6278 75.4424 69.5123 74.056C69.3968 72.6311 70.2055 71.6683 71.9385 71.5143C74.4417 71.2447 76.1746 70.0509 76.9834 67.6632C78.0617 64.5439 75.9821 61.1549 72.7472 60.6158C72.2851 60.5387 71.8229 60.5002 71.3993 60.3847C70.0514 60.0766 69.3583 59.1138 69.5508 57.843C69.7434 56.4951 70.6676 55.956 71.9385 55.9175C75.8666 55.8019 79.9487 58.6517 81.2581 62.4643C81.6047 63.5811 81.7972 64.8134 82.0668 66.0073Z" fill="#922E9D"/>
<path d="M46.4444 74.2872C45.5587 73.8251 44.4419 73.517 43.8642 72.7853C42.7474 71.3219 43.9027 69.7044 46.0208 69.2808C47.9464 68.8957 49.9874 68.5491 51.6819 67.6633C55.0708 65.9304 56.9964 62.965 57.574 59.1525C57.6511 58.6518 57.7281 58.1512 57.7666 57.612C57.9592 55.9176 58.9219 54.9548 60.2698 55.1088C61.6177 55.2244 62.4649 56.3027 62.3879 57.9971C62.2724 60.924 61.5021 63.6582 59.8462 66.1229C56.7653 70.8212 52.3751 73.5555 46.4444 74.2872Z" fill="#922E9D"/>
<path d="M31.9259 87.4583C28.8065 87.5739 25.7641 87.4583 22.9914 85.7638C19.1403 83.4147 17.1762 79.9487 16.9067 75.52C16.8296 74.1336 17.7924 73.0553 19.0248 72.9783C20.2571 72.9013 21.2584 73.787 21.4509 75.2119C22.2597 80.6034 24.8784 82.837 30.3469 82.837C32.0029 82.837 33.6203 82.7985 35.2763 82.837C37.0478 82.8755 38.0876 83.8383 38.0491 85.2632C38.0106 86.6111 36.9708 87.4198 35.2378 87.4583C34.198 87.4583 33.0812 87.4583 31.9259 87.4583Z" fill="#922E9D"/>
<path d="M55.3019 20.179C55.4174 20.179 55.8796 20.1405 56.3417 20.256C57.497 20.5641 58.0362 21.4114 57.9976 22.5282C57.9206 23.8375 57.1119 24.6077 55.8025 24.6848C52.3366 24.8388 50.2955 26.4948 49.7564 29.9993C49.5638 31.3086 48.3315 32.0788 47.1761 31.8478C45.8283 31.5782 45.0966 30.4999 45.2891 28.9595C45.8283 24.0686 49.9489 20.3331 55.3019 20.179Z" fill="#922E9D"/>
<path d="M71.746 100.012C73.2479 100.012 74.7113 99.9737 76.2133 100.012C77.7152 100.051 78.6779 100.936 78.6394 102.246C78.6009 103.632 77.7537 104.518 76.4443 104.557C73.2094 104.634 69.9745 104.672 66.7396 104.557C65.2762 104.518 64.429 103.44 64.583 102.092C64.7371 100.667 65.6228 100.051 66.9707 100.012C68.5496 99.9737 70.1671 100.012 71.746 100.012Z" fill="#922E9D"/>
</g>
<defs>
<clipPath id="clip0">
<rect width="154.659" height="157.701" fill="white" transform="translate(0.578125 0.539062)"/>
</clipPath>
</defs>
</svg>
