<svg width="78" height="78" viewBox="0 0 78 78" fill="none" xmlns="http://www.w3.org/2000/svg">
<g clip-path="url(#clip0)">
<path d="M77.0035 18.5346C76.7385 17.5491 76.0919 16.7089 75.2073 16.1996C74.322 15.6877 73.2694 15.5492 72.2821 15.8143C71.2959 16.0799 70.4557 16.7258 69.9464 17.6105L69.3048 18.727C68.6952 18.3767 67.9165 18.5829 67.56 19.1893L64.3008 24.7447L63.1843 24.1031C62.8886 23.9321 62.5365 23.8857 62.207 23.9747C61.8768 24.0643 61.5961 24.2811 61.4263 24.578C61.0786 25.1914 61.2904 25.9708 61.9012 26.3229L63.0177 26.9644L52.1112 45.8647L49.4166 53.0634L48.1334 55.4624C47.3822 56.7693 47.4624 58.3939 48.3389 59.62L45.4519 63.1611L44.6437 61.1343C44.2791 60.2308 43.4352 59.6118 42.4647 59.536C41.4936 59.4596 40.5632 59.9395 40.0626 60.7746L39.6009 61.5572L39.1648 56.4247C39.0646 55.2105 38.1241 54.2344 36.915 54.0878C35.7052 53.9418 34.5599 54.6667 34.1733 55.822L31.0169 65.2912C30.7964 65.961 31.1572 66.6827 31.8251 66.9083C31.9504 66.9666 32.0851 67.0016 32.2229 67.0104C32.7743 67.0123 33.2655 66.6608 33.4422 66.1383L36.5854 56.6691L37.0346 61.878C37.1274 62.9894 37.9262 63.9135 39.0126 64.1654C40.0989 64.4172 41.2229 63.9386 41.7949 62.9819L42.2698 62.1987L43.0655 64.2136C43.4032 65.0626 44.1669 65.6684 45.071 65.8031C45.9751 65.9378 46.8823 65.5813 47.4537 64.8677L50.4434 61.0829C50.7742 61.1694 51.1151 61.2126 51.4571 61.2113C52.8323 61.222 54.1092 60.4977 54.8059 59.3117L56.089 57.169L60.9777 51.2284L71.9995 32.0969L73.116 32.7385C73.4135 32.9089 73.6303 33.1902 73.7187 33.5216C73.8076 33.8505 73.7613 34.2014 73.5909 34.4965L68.4584 43.3887C68.2648 43.6807 68.199 44.039 68.2767 44.3811C68.3544 44.7226 68.568 45.0176 68.8688 45.1975C69.1645 45.3691 69.5166 45.4155 69.8461 45.3265C70.1763 45.2369 70.457 45.0202 70.6268 44.7232L75.7592 35.831C76.2711 34.9457 76.4096 33.8931 76.1439 32.9057C75.8783 31.9196 75.2323 31.0794 74.3477 30.5701L73.2312 29.9285L76.439 24.3725C76.7892 23.7629 76.5831 22.9848 75.9773 22.6277L76.6188 21.5112C77.1445 20.6122 77.2836 19.5383 77.0035 18.5346ZM72.1661 18.8936C72.3359 18.5966 72.6179 18.3792 72.9493 18.2909C73.2788 18.2094 73.6272 18.2552 73.9242 18.4193C74.2218 18.5891 74.4385 18.8711 74.5275 19.2019C74.609 19.5314 74.5632 19.8798 74.3991 20.1767L73.7575 21.2932L71.5246 20.0101L72.1661 18.8936ZM54.6775 54.7187L54.0359 54.3465L52.1369 53.2426L53.9588 48.367L58.0005 50.7021L54.6775 54.7187ZM50.8281 58.4264C50.2862 58.0487 50.1195 57.3219 50.4434 56.7455L51.085 55.6297L53.3173 56.9128L52.6757 58.0161C52.4959 58.3281 52.1939 58.5499 51.8424 58.6282C51.491 58.7059 51.1232 58.6332 50.8281 58.4264ZM59.4634 48.5982L55.0239 46.032L65.2888 28.2476L69.7284 30.8138L59.4634 48.5982ZM71.0115 28.594L66.5719 26.0278L69.1382 21.5883L73.5777 24.1545L71.0115 28.594Z" fill="#FACA21"/>
<path d="M20.3923 57.7861L15.8507 62.3158L13.1304 59.5954C12.6298 59.098 11.8215 59.098 11.321 59.5954C11.0779 59.8366 10.9413 60.1643 10.9413 60.5064C10.9413 60.8485 11.0779 61.1768 11.321 61.4174L14.0413 64.1377C14.5225 64.6151 15.1728 64.8826 15.8507 64.882C16.5324 64.8858 17.1883 64.6182 17.6726 64.1377L22.2017 59.5954C22.6378 59.0861 22.6084 58.3274 22.1347 57.8537C21.6604 57.3794 20.9017 57.35 20.3923 57.7861Z" fill="#FACA21"/>
<path d="M5.27754 61.2372C5.27754 67.2612 10.1606 72.1437 16.184 72.1437C22.2074 72.1437 27.0905 67.2612 27.0905 61.2372C27.0905 60.5286 26.516 59.9541 25.8074 59.9541C25.0988 59.9541 24.5243 60.5286 24.5243 61.2372C24.5243 65.8434 20.7902 69.5774 16.184 69.5774C11.5778 69.5774 7.84377 65.8434 7.84377 61.2372C7.84377 56.631 11.5778 52.8969 16.184 52.8969C17.9897 52.8919 19.747 53.4777 21.188 54.5654C21.755 54.9908 22.5595 54.8755 22.9843 54.3085C23.4097 53.7415 23.295 52.9377 22.728 52.5123C19.4231 50.0337 15.0011 49.6353 11.3066 51.4823C7.61133 53.3299 5.27754 57.1065 5.27754 61.2372Z" fill="#FACA21"/>
<path d="M46.3372 10.5545C47.0458 10.5545 47.6203 9.98062 47.6203 9.2714C47.6203 8.5628 47.0458 7.98828 46.3372 7.98828H12.9762C12.2676 7.98828 11.6931 8.5628 11.6931 9.2714V14.4039C11.6931 15.1131 12.2676 15.687 12.9762 15.687H46.3372C47.0458 15.687 47.6203 15.1131 47.6203 14.4039C47.6203 13.6953 47.0458 13.1207 46.3372 13.1207H14.2593V10.5545H46.3372Z" fill="#FACA21"/>
<path d="M16.8256 18.2529C16.117 18.2529 15.5425 18.8274 15.5425 19.536C15.5425 20.2453 16.117 20.8192 16.8256 20.8192H42.4879C43.1965 20.8192 43.771 20.2453 43.771 19.536C43.771 18.8274 43.1965 18.2529 42.4879 18.2529H16.8256Z" fill="#FACA21"/>
<path d="M50.1866 27.2344H21.958C21.2494 27.2344 20.6749 27.8089 20.6749 28.5175C20.6749 29.2267 21.2494 29.8006 21.958 29.8006H50.1866C50.8952 29.8006 51.4697 29.2267 51.4697 28.5175C51.4697 27.8089 50.8952 27.2344 50.1866 27.2344Z" fill="#FACA21"/>
<path d="M37.3554 36.2167C37.3554 35.5081 36.7809 34.9336 36.0723 34.9336H10.41C9.7014 34.9336 9.12688 35.5081 9.12688 36.2167C9.12688 36.9259 9.7014 37.4998 10.41 37.4998H36.0723C36.7809 37.4998 37.3554 36.9259 37.3554 36.2167Z" fill="#FACA21"/>
<path d="M50.1866 34.9336H41.2048C40.4962 34.9336 39.9216 35.5081 39.9216 36.2167C39.9216 36.9259 40.4962 37.4998 41.2048 37.4998H50.1866C50.8952 37.4998 51.4697 36.9259 51.4697 36.2167C51.4697 35.5081 50.8952 34.9336 50.1866 34.9336Z" fill="#FACA21"/>
<path d="M23.2411 43.9149C23.9497 43.9149 24.5243 43.341 24.5243 42.6317C24.5243 41.9232 23.9497 41.3486 23.2411 41.3486H10.41C9.7014 41.3486 9.12688 41.9232 9.12688 42.6317C9.12688 43.341 9.7014 43.9149 10.41 43.9149H23.2411Z" fill="#FACA21"/>
<path d="M28.3736 43.9149H37.3554C38.064 43.9149 38.6385 43.341 38.6385 42.6317C38.6385 41.9232 38.064 41.3486 37.3554 41.3486H28.3736C27.665 41.3486 27.0905 41.9232 27.0905 42.6317C27.0905 43.341 27.665 43.9149 28.3736 43.9149Z" fill="#FACA21"/>
<path d="M57.8852 59.3133C57.1766 59.3133 56.6021 59.8878 56.6021 60.5964V73.4276C56.6021 74.1368 56.0276 74.7107 55.319 74.7107H3.99442C3.28583 74.7107 2.71131 74.1368 2.71131 73.4276V4.13938C2.71131 3.43079 3.28583 2.85627 3.99442 2.85627H55.319C56.0276 2.85627 56.6021 3.43079 56.6021 4.13938V28.2366C56.6021 28.9452 57.1766 29.5197 57.8852 29.5197C58.5938 29.5197 59.1683 28.9452 59.1683 28.2366V4.13938C59.1683 2.0136 57.4448 0.290039 55.319 0.290039H3.99442C1.86864 0.290039 0.145081 2.0136 0.145081 4.13938V73.4276C0.145081 75.554 1.86864 77.2769 3.99442 77.2769H55.319C57.4448 77.2769 59.1683 75.554 59.1683 73.4276V60.5964C59.1683 59.8878 58.5938 59.3133 57.8852 59.3133Z" fill="#FACA21"/>
</g>
<defs>
<clipPath id="clip0">
<rect width="77" height="77" fill="white" transform="translate(0.145081 0.276367)"/>
</clipPath>
</defs>
</svg>
