<svg width="135" height="95" viewBox="0 0 135 95" fill="none" xmlns="http://www.w3.org/2000/svg">
    <g clip-path="url(#clip0)" filter="url(#filter0_d)">
        <path d="M113.062 25.9958C110.43 25.9958 109.195 24.8643 107.633 23.4318C105.893 21.8359 103.92 20.0271 100.044 20.0271C96.1673 20.0271 94.1947 21.8359 92.4542 23.4318C90.8922 24.8643 89.6583 25.9958 87.0258 25.9958C84.3933 25.9958 83.1594 24.8643 81.5974 23.4318C79.8569 21.8359 77.8845 20.0271 74.0079 20.0271C70.1314 20.0271 68.159 21.8359 66.4185 23.432C64.8566 24.8645 63.6227 25.9958 60.9904 25.9958C58.3583 25.9958 57.1246 24.8643 55.5626 23.432C53.8223 21.8361 51.8498 20.0271 47.9735 20.0271C44.0971 20.0271 42.1247 21.8359 40.3842 23.4318C38.8224 24.8643 37.5885 25.9958 34.9562 25.9958C32.3239 25.9958 31.09 24.8643 29.528 23.4318C27.7875 21.8361 25.815 20.0271 21.9387 20.0271C21.0555 20.0271 20.34 20.743 20.34 21.6258C20.34 22.5085 21.0555 23.2244 21.9387 23.2244C24.571 23.2244 25.8049 24.3559 27.3667 25.7882C29.107 27.3841 31.0797 29.1931 34.9562 29.1931C38.8325 29.1931 40.805 27.3843 42.5455 25.7886C44.1073 24.3561 45.3412 23.2246 47.9735 23.2246C50.6056 23.2246 51.8393 24.3561 53.4013 25.7884C55.1417 27.3843 57.1141 29.1933 60.9904 29.1933C64.8668 29.1933 66.8392 27.3846 68.5797 25.7887C70.1417 24.3563 71.3756 23.2248 74.0079 23.2248C76.6402 23.2248 77.8741 24.3563 79.4361 25.7886C81.1766 27.3845 83.1493 29.1935 87.0256 29.1935C90.9019 29.1935 92.8746 27.3848 94.6151 25.7889C96.1774 24.3564 97.4112 23.225 100.044 23.225C102.676 23.225 103.91 24.3564 105.473 25.7889C107.213 27.3848 109.186 29.1935 113.062 29.1935C113.945 29.1935 114.661 28.4776 114.661 27.5948C114.661 26.7117 113.945 25.9958 113.062 25.9958Z" fill="url(#paint0_linear)"/>
    </g>
    <defs>
        <filter id="filter0_d" x="0.339844" y="-15.9663" width="134.321" height="134.321" filterUnits="userSpaceOnUse" color-interpolation-filters="sRGB">
            <feFlood flood-opacity="0" result="BackgroundImageFix"/>
            <feColorMatrix in="SourceAlpha" type="matrix" values="0 0 0 0 0 0 0 0 0 0 0 0 0 0 0 0 0 0 127 0"/>
            <feOffset dy="4"/>
            <feGaussianBlur stdDeviation="10"/>
            <feColorMatrix type="matrix" values="0 0 0 0 0.979167 0 0 0 0 0.792472 0 0 0 0 0.130556 0 0 0 1 0"/>
            <feBlend mode="normal" in2="BackgroundImageFix" result="effect1_dropShadow"/>
            <feBlend mode="normal" in="SourceGraphic" in2="effect1_dropShadow" result="shape"/>
        </filter>
        <linearGradient id="paint0_linear" x1="67.5004" y1="20.0271" x2="67.5004" y2="29.1935" gradientUnits="userSpaceOnUse">
            <stop stop-color="#FFC702"/>
            <stop offset="1" stop-color="#FACA21"/>
        </linearGradient>
        <clipPath id="clip0">
            <rect width="94.3211" height="94.3211" fill="white" transform="translate(20.3398 0.0336914)"/>
        </clipPath>
    </defs>
</svg>
