<svg width="41" height="69" viewBox="0 0 41 69" fill="none" xmlns="http://www.w3.org/2000/svg">
<path d="M11.7892 5.71721C11.7892 8.87152 9.22486 11.4344 6.06884 11.4344C2.91282 11.4344 0.348633 8.87152 0.348633 5.71721C0.348633 2.5629 2.91282 0 6.06884 0C9.22486 0 11.7892 2.5629 11.7892 5.71721Z" fill="white" fill-opacity="0.3"/>
<path d="M35.0649 11.4344C38.2242 11.4344 40.7853 8.87472 40.7853 5.71721C40.7853 2.55969 38.2242 0 35.0649 0C31.9057 0 29.3447 2.55969 29.3447 5.71721C29.3447 8.87472 31.9057 11.4344 35.0649 11.4344Z" fill="white" fill-opacity="0.3"/>
<path d="M11.7892 34.5014C11.7892 37.6557 9.22486 40.2186 6.06884 40.2186C2.91282 40.2186 0.348633 37.6557 0.348633 34.5014C0.348633 31.3471 2.91282 28.7842 6.06884 28.7842C9.22486 28.7842 11.7892 31.3471 11.7892 34.5014Z" fill="white" fill-opacity="0.3"/>
<path d="M40.7853 34.5014C40.7853 37.6557 38.221 40.2186 35.0649 40.2186C31.9089 40.2186 29.3447 37.6557 29.3447 34.5014C29.3447 31.3471 31.9089 28.7842 35.0649 28.7842C38.221 28.7842 40.7853 31.3471 40.7853 34.5014Z" fill="white" fill-opacity="0.3"/>
<path d="M11.7892 63.2826C11.7892 66.437 9.22486 68.9998 6.06884 68.9998C2.91282 68.9998 0.348633 66.437 0.348633 63.2826C0.348633 60.1283 2.91282 57.5654 6.06884 57.5654C9.22486 57.5654 11.7892 60.1283 11.7892 63.2826Z" fill="white" fill-opacity="0.3"/>
<path d="M40.7853 63.2826C40.7853 66.437 38.221 68.9998 35.0649 68.9998C31.9089 68.9998 29.3447 66.437 29.3447 63.2826C29.3447 60.1283 31.9089 57.5654 35.0649 57.5654C38.221 57.5654 40.7853 60.1283 40.7853 63.2826Z" fill="white" fill-opacity="0.3"/>
</svg>
