<svg width="27" height="44" viewBox="0 0 27 44" fill="none" xmlns="http://www.w3.org/2000/svg">
<path d="M7.99817 4.48259C7.99817 6.44419 6.40348 8.03798 4.44082 8.03798C2.47816 8.03798 0.883545 6.44419 0.883545 4.48259C0.883545 2.52099 2.47816 0.927185 4.44082 0.927185C6.40348 0.927185 7.99817 2.52099 7.99817 4.48259Z" fill="white" fill-opacity="0.3"/>
<path d="M22.4728 8.03798C24.4375 8.03798 26.0302 6.44618 26.0302 4.48259C26.0302 2.519 24.4375 0.927185 22.4728 0.927185C20.5081 0.927185 18.9155 2.519 18.9155 4.48259C18.9155 6.44618 20.5081 8.03798 22.4728 8.03798Z" fill="white" fill-opacity="0.3"/>
<path d="M7.99817 22.3822C7.99817 24.3438 6.40348 25.9376 4.44082 25.9376C2.47816 25.9376 0.883545 24.3438 0.883545 22.3822C0.883545 20.4206 2.47816 18.8268 4.44082 18.8268C6.40348 18.8268 7.99817 20.4206 7.99817 22.3822Z" fill="white" fill-opacity="0.3"/>
<path d="M26.0302 22.3822C26.0302 24.3438 24.4355 25.9376 22.4728 25.9376C20.5101 25.9376 18.9155 24.3438 18.9155 22.3822C18.9155 20.4206 20.5101 18.8268 22.4728 18.8268C24.4355 18.8268 26.0302 20.4206 26.0302 22.3822Z" fill="white" fill-opacity="0.3"/>
<path d="M7.99817 40.2818C7.99817 42.2434 6.40348 43.8372 4.44082 43.8372C2.47816 43.8372 0.883545 42.2434 0.883545 40.2818C0.883545 38.3202 2.47816 36.7264 4.44082 36.7264C6.40348 36.7264 7.99817 38.3202 7.99817 40.2818Z" fill="white" fill-opacity="0.3"/>
<path d="M26.0302 40.2818C26.0302 42.2434 24.4355 43.8372 22.4728 43.8372C20.5101 43.8372 18.9155 42.2434 18.9155 40.2818C18.9155 38.3202 20.5101 36.7264 22.4728 36.7264C24.4355 36.7264 26.0302 38.3202 26.0302 40.2818Z" fill="white" fill-opacity="0.3"/>
</svg>
