<svg width="19" height="32" viewBox="0 0 19 32" fill="none" xmlns="http://www.w3.org/2000/svg">
<path d="M5.29743 2.80757C5.29743 4.25958 4.11701 5.43934 2.66421 5.43934C1.2114 5.43934 0.0310364 4.25958 0.0310364 2.80757C0.0310364 1.35555 1.2114 0.175781 2.66421 0.175781C4.11701 0.175781 5.29743 1.35555 5.29743 2.80757Z" fill="white" fill-opacity="0.3"/>
<path d="M16.0119 5.43934C17.4661 5.43934 18.6451 4.26106 18.6451 2.80757C18.6451 1.35408 17.4661 0.175781 16.0119 0.175781C14.5576 0.175781 13.3787 1.35408 13.3787 2.80757C13.3787 4.26106 14.5576 5.43934 16.0119 5.43934Z" fill="white" fill-opacity="0.3"/>
<path d="M5.29737 16.0576C5.29737 17.5096 4.11695 18.6894 2.66414 18.6894C1.21134 18.6894 0.0309753 17.5096 0.0309753 16.0576C0.0309753 14.6055 1.21134 13.4258 2.66414 13.4258C4.11695 13.4258 5.29737 14.6055 5.29737 16.0576Z" fill="white" fill-opacity="0.3"/>
<path d="M18.6451 16.0576C18.6451 17.5096 17.4647 18.6894 16.0119 18.6894C14.5591 18.6894 13.3787 17.5096 13.3787 16.0576C13.3787 14.6055 14.5591 13.4258 16.0119 13.4258C17.4647 13.4258 18.6451 14.6055 18.6451 16.0576Z" fill="white" fill-opacity="0.3"/>
<path d="M5.29737 29.3066C5.29737 30.7586 4.11695 31.9384 2.66414 31.9384C1.21134 31.9384 0.0309753 30.7586 0.0309753 29.3066C0.0309753 27.8546 1.21134 26.6748 2.66414 26.6748C4.11695 26.6748 5.29737 27.8546 5.29737 29.3066Z" fill="white" fill-opacity="0.3"/>
<path d="M18.6451 29.3066C18.6451 30.7586 17.4647 31.9384 16.0119 31.9384C14.5591 31.9384 13.3787 30.7586 13.3787 29.3066C13.3787 27.8546 14.5591 26.6748 16.0119 26.6748C17.4647 26.6748 18.6451 27.8546 18.6451 29.3066Z" fill="white" fill-opacity="0.3"/>
</svg>
