<svg width="1871" height="1285" viewBox="0 0 1871 1285" fill="none" xmlns="http://www.w3.org/2000/svg">
<g opacity="0.3">
<path d="M1418.68 612.085C1422.79 612.085 1426.13 608.751 1426.13 604.638C1426.13 600.525 1422.79 597.191 1418.68 597.191C1414.57 597.191 1411.23 600.525 1411.23 604.638C1411.23 608.751 1414.57 612.085 1418.68 612.085Z" fill="white"/>
<path d="M1456.17 612.085C1460.29 612.085 1463.62 608.751 1463.62 604.638C1463.62 600.525 1460.29 597.191 1456.17 597.191C1452.06 597.191 1448.73 600.525 1448.73 604.638C1448.73 608.751 1452.06 612.085 1456.17 612.085Z" fill="white"/>
<path d="M1493.67 612.085C1497.78 612.085 1501.11 608.751 1501.11 604.638C1501.11 600.525 1497.78 597.191 1493.67 597.191C1489.55 597.191 1486.22 600.525 1486.22 604.638C1486.22 608.751 1489.55 612.085 1493.67 612.085Z" fill="white"/>
<path d="M1418.68 649.578C1422.79 649.578 1426.13 646.244 1426.13 642.131C1426.13 638.018 1422.79 634.684 1418.68 634.684C1414.57 634.684 1411.23 638.018 1411.23 642.131C1411.23 646.244 1414.57 649.578 1418.68 649.578Z" fill="white"/>
<path d="M1456.17 649.578C1460.29 649.578 1463.62 646.244 1463.62 642.131C1463.62 638.018 1460.29 634.684 1456.17 634.684C1452.06 634.684 1448.73 638.018 1448.73 642.131C1448.73 646.244 1452.06 649.578 1456.17 649.578Z" fill="white"/>
<path d="M1493.67 649.578C1497.78 649.578 1501.11 646.244 1501.11 642.131C1501.11 638.018 1497.78 634.684 1493.67 634.684C1489.55 634.684 1486.22 638.018 1486.22 642.131C1486.22 646.244 1489.55 649.578 1493.67 649.578Z" fill="white"/>
<path d="M1418.68 687.071C1422.79 687.071 1426.13 683.737 1426.13 679.624C1426.13 675.511 1422.79 672.177 1418.68 672.177C1414.57 672.177 1411.23 675.511 1411.23 679.624C1411.23 683.737 1414.57 687.071 1418.68 687.071Z" fill="white"/>
<path d="M1456.17 687.071C1460.29 687.071 1463.62 683.737 1463.62 679.624C1463.62 675.511 1460.29 672.177 1456.17 672.177C1452.06 672.177 1448.73 675.511 1448.73 679.624C1448.73 683.737 1452.06 687.071 1456.17 687.071Z" fill="white"/>
<path d="M1493.67 687.071C1497.78 687.071 1501.11 683.737 1501.11 679.624C1501.11 675.511 1497.78 672.177 1493.67 672.177C1489.55 672.177 1486.22 675.511 1486.22 679.624C1486.22 683.737 1489.55 687.071 1493.67 687.071Z" fill="white"/>
<path d="M1820.83 525.544C1820.83 529.652 1817.49 532.991 1813.38 532.991C1809.27 532.991 1805.93 529.652 1805.93 525.544C1805.93 521.435 1809.27 518.096 1813.38 518.096C1817.49 518.096 1820.83 521.435 1820.83 525.544Z" fill="white"/>
<path d="M1851.13 532.991C1855.24 532.991 1858.58 529.657 1858.58 525.544C1858.58 521.431 1855.24 518.096 1851.13 518.096C1847.02 518.096 1843.68 521.431 1843.68 525.544C1843.68 529.657 1847.02 532.991 1851.13 532.991Z" fill="white"/>
<path d="M1820.83 563.037C1820.83 567.145 1817.49 570.484 1813.38 570.484C1809.27 570.484 1805.93 567.145 1805.93 563.037C1805.93 558.928 1809.27 555.589 1813.38 555.589C1817.49 555.589 1820.83 558.928 1820.83 563.037Z" fill="white"/>
<path d="M1858.58 563.037C1858.58 567.145 1855.24 570.484 1851.13 570.484C1847.02 570.484 1843.68 567.145 1843.68 563.037C1843.68 558.928 1847.02 555.589 1851.13 555.589C1855.24 555.589 1858.58 558.928 1858.58 563.037Z" fill="white"/>
<path d="M1820.83 600.529C1820.83 604.638 1817.49 607.976 1813.38 607.976C1809.27 607.976 1805.93 604.638 1805.93 600.529C1805.93 596.42 1809.27 593.082 1813.38 593.082C1817.49 593.082 1820.83 596.42 1820.83 600.529Z" fill="white"/>
<path d="M1858.58 600.529C1858.58 604.638 1855.24 607.976 1851.13 607.976C1847.02 607.976 1843.68 604.638 1843.68 600.529C1843.68 596.42 1847.02 593.082 1851.13 593.082C1855.24 593.082 1858.58 596.42 1858.58 600.529Z" fill="white"/>
<path d="M384.033 1001.14C388.146 1001.14 391.48 997.803 391.48 993.69C391.48 989.577 388.146 986.243 384.033 986.243C379.92 986.243 376.586 989.577 376.586 993.69C376.586 997.803 379.92 1001.14 384.033 1001.14Z" fill="white"/>
<path d="M421.526 1001.14C425.639 1001.14 428.973 997.803 428.973 993.69C428.973 989.577 425.639 986.243 421.526 986.243C417.413 986.243 414.079 989.577 414.079 993.69C414.079 997.803 417.413 1001.14 421.526 1001.14Z" fill="white"/>
<path d="M466.466 993.69C466.466 997.799 463.128 1001.14 459.019 1001.14C454.91 1001.14 451.572 997.799 451.572 993.69C451.572 989.581 454.91 986.243 459.019 986.243C463.128 986.243 466.466 989.581 466.466 993.69Z" fill="white"/>
<path d="M391.224 1031.18C391.224 1035.29 387.885 1038.63 383.776 1038.63C379.668 1038.63 376.329 1035.29 376.329 1031.18C376.329 1027.07 379.668 1023.74 383.776 1023.74C387.885 1023.99 391.224 1027.07 391.224 1031.18Z" fill="white"/>
<path d="M428.973 1031.18C428.973 1035.29 425.635 1038.63 421.526 1038.63C417.417 1038.63 414.079 1035.29 414.079 1031.18C414.079 1027.07 417.417 1023.74 421.526 1023.74C425.635 1023.99 428.973 1027.07 428.973 1031.18Z" fill="white"/>
<path d="M466.466 1031.18C466.466 1035.29 463.128 1038.63 459.019 1038.63C454.91 1038.63 451.572 1035.29 451.572 1031.18C451.572 1027.07 454.91 1023.74 459.019 1023.74C463.128 1023.99 466.466 1027.07 466.466 1031.18Z" fill="white"/>
<path d="M391.224 1068.93C391.224 1073.04 387.885 1076.38 383.776 1076.38C379.668 1076.38 376.329 1073.04 376.329 1068.93C376.329 1064.82 379.668 1061.49 383.776 1061.49C387.885 1061.49 391.224 1064.82 391.224 1068.93Z" fill="white"/>
<path d="M428.973 1068.93C428.973 1073.04 425.635 1076.38 421.526 1076.38C417.417 1076.38 414.079 1073.04 414.079 1068.93C414.079 1064.82 417.417 1061.49 421.526 1061.49C425.635 1061.49 428.973 1064.82 428.973 1068.93Z" fill="white"/>
<path d="M466.466 1068.93C466.466 1073.04 463.128 1076.38 459.019 1076.38C454.91 1076.38 451.572 1073.04 451.572 1068.93C451.572 1064.82 454.91 1061.49 459.019 1061.49C463.128 1061.49 466.466 1064.82 466.466 1068.93Z" fill="white"/>
<path d="M1012.17 196.583C1012.17 200.692 1008.83 204.03 1004.72 204.03C1000.61 204.03 997.272 200.692 997.272 196.583C997.272 192.474 1000.61 189.136 1004.72 189.136C1008.83 189.136 1012.17 192.474 1012.17 196.583Z" fill="white"/>
<path d="M1049.66 196.583C1049.66 200.692 1046.32 204.03 1042.21 204.03C1038.1 204.03 1034.76 200.692 1034.76 196.583C1034.76 192.474 1038.1 189.136 1042.21 189.136C1046.32 189.136 1049.66 192.474 1049.66 196.583Z" fill="white"/>
<path d="M1087.15 196.583C1087.15 200.692 1083.81 204.03 1079.7 204.03C1075.6 204.03 1072.26 200.692 1072.26 196.583C1072.26 192.474 1075.6 189.136 1079.7 189.136C1083.81 189.136 1087.15 192.474 1087.15 196.583Z" fill="white"/>
<path d="M1012.17 234.076C1012.17 238.185 1008.83 241.523 1004.72 241.523C1000.61 241.523 997.272 238.185 997.272 234.076C997.272 229.967 1000.61 226.629 1004.72 226.629C1008.83 226.629 1012.17 229.967 1012.17 234.076Z" fill="white"/>
<path d="M1042.21 241.523C1046.32 241.523 1049.66 238.189 1049.66 234.076C1049.66 229.963 1046.32 226.629 1042.21 226.629C1038.1 226.629 1034.76 229.963 1034.76 234.076C1034.76 238.189 1038.1 241.523 1042.21 241.523Z" fill="white"/>
<path d="M1087.15 234.076C1087.15 238.185 1083.81 241.523 1079.7 241.523C1075.6 241.523 1072.26 238.185 1072.26 234.076C1072.26 229.967 1075.6 226.629 1079.7 226.629C1083.81 226.629 1087.15 229.967 1087.15 234.076Z" fill="white"/>
<path d="M1012.17 271.569C1012.17 275.677 1008.83 279.016 1004.72 279.016C1000.61 279.016 997.272 275.677 997.272 271.569C997.272 267.46 1000.61 264.121 1004.72 264.121C1008.83 264.121 1012.17 267.46 1012.17 271.569Z" fill="white"/>
<path d="M1042.21 279.016C1046.32 279.016 1049.66 275.682 1049.66 271.569C1049.66 267.456 1046.32 264.121 1042.21 264.121C1038.1 264.121 1034.76 267.456 1034.76 271.569C1034.76 275.682 1038.1 279.016 1042.21 279.016Z" fill="white"/>
<path d="M1087.15 271.569C1087.15 275.677 1083.81 279.016 1079.7 279.016C1075.6 279.016 1072.26 275.677 1072.26 271.569C1072.26 267.46 1075.6 264.121 1079.7 264.121C1083.81 264.121 1087.15 267.46 1087.15 271.569Z" fill="white"/>
<path d="M17.0661 56.8837C21.1791 56.8837 24.5133 53.5494 24.5133 49.4365C24.5133 45.3235 21.1791 41.9893 17.0661 41.9893C12.9531 41.9893 9.6189 45.3235 9.6189 49.4365C9.6189 53.5494 12.9531 56.8837 17.0661 56.8837Z" fill="white"/>
<path d="M54.5589 56.8837C58.6719 56.8837 62.0061 53.5494 62.0061 49.4365C62.0061 45.3235 58.6719 41.9893 54.5589 41.9893C50.4459 41.9893 47.1117 45.3235 47.1117 49.4365C47.1117 53.5494 50.4459 56.8837 54.5589 56.8837Z" fill="white"/>
<path d="M99.4989 49.4365C99.4989 53.5453 96.1605 56.8837 92.0517 56.8837C87.9429 56.8837 84.6045 53.5453 84.6045 49.4365C84.6045 45.3277 87.9429 41.9893 92.0517 41.9893C96.1605 41.9893 99.4989 45.3277 99.4989 49.4365Z" fill="white"/>
<path d="M17.0661 94.3766C21.1791 94.3766 24.5133 91.0424 24.5133 86.9294C24.5133 82.8164 21.1791 79.4822 17.0661 79.4822C12.9531 79.4822 9.6189 82.8164 9.6189 86.9294C9.6189 91.0424 12.9531 94.3766 17.0661 94.3766Z" fill="white"/>
<path d="M54.5589 94.3766C58.6719 94.3766 62.0061 91.0424 62.0061 86.9294C62.0061 82.8164 58.6719 79.4822 54.5589 79.4822C50.4459 79.4822 47.1117 82.8164 47.1117 86.9294C47.1117 91.0424 50.4459 94.3766 54.5589 94.3766Z" fill="white"/>
<path d="M99.4989 86.9294C99.4989 91.0382 96.1605 94.3766 92.0517 94.3766C87.9429 94.3766 84.6045 91.0382 84.6045 86.9294C84.6045 82.8206 87.9429 79.4822 92.0517 79.4822C96.1605 79.4822 99.4989 82.8206 99.4989 86.9294Z" fill="white"/>
<path d="M17.0661 131.869C21.1791 131.869 24.5133 128.535 24.5133 124.422C24.5133 120.309 21.1791 116.975 17.0661 116.975C12.9531 116.975 9.6189 120.309 9.6189 124.422C9.6189 128.535 12.9531 131.869 17.0661 131.869Z" fill="white"/>
<path d="M54.5589 131.869C58.6719 131.869 62.0061 128.535 62.0061 124.422C62.0061 120.309 58.6719 116.975 54.5589 116.975C50.4459 116.975 47.1117 120.309 47.1117 124.422C47.1117 128.535 50.4459 131.869 54.5589 131.869Z" fill="white"/>
<path d="M99.4989 124.422C99.4989 128.531 96.1605 131.869 92.0517 131.869C87.9429 131.869 84.6045 128.531 84.6045 124.422C84.6045 120.313 87.9429 116.975 92.0517 116.975C96.1605 116.975 99.4989 120.313 99.4989 124.422Z" fill="white"/>
<path d="M1730.95 1159.84C1730.95 1163.95 1727.61 1167.29 1723.5 1167.29C1719.39 1167.29 1716.05 1163.95 1716.05 1159.84C1716.05 1155.73 1719.39 1152.39 1723.5 1152.39C1727.61 1152.39 1730.95 1155.73 1730.95 1159.84Z" fill="white"/>
<path d="M1761.25 1167.29C1765.36 1167.29 1768.7 1163.95 1768.7 1159.84C1768.7 1155.73 1765.36 1152.39 1761.25 1152.39C1757.14 1152.39 1753.8 1155.73 1753.8 1159.84C1753.8 1163.95 1757.14 1167.29 1761.25 1167.29Z" fill="white"/>
<path d="M1798.74 1167.29C1802.86 1167.29 1806.19 1163.95 1806.19 1159.84C1806.19 1155.73 1802.86 1152.39 1798.74 1152.39C1794.63 1152.39 1791.3 1155.73 1791.3 1159.84C1791.3 1163.95 1794.63 1167.29 1798.74 1167.29Z" fill="white"/>
<path d="M1730.95 1197.33C1730.95 1201.44 1727.61 1204.78 1723.5 1204.78C1719.39 1204.78 1716.05 1201.44 1716.05 1197.33C1716.05 1193.22 1719.39 1189.89 1723.5 1189.89C1727.61 1189.89 1730.95 1193.22 1730.95 1197.33Z" fill="white"/>
<path d="M1761.25 1204.78C1765.36 1204.78 1768.7 1201.45 1768.7 1197.33C1768.7 1193.22 1765.36 1189.89 1761.25 1189.89C1757.14 1189.89 1753.8 1193.22 1753.8 1197.33C1753.8 1201.45 1757.14 1204.78 1761.25 1204.78Z" fill="white"/>
<path d="M1798.74 1204.78C1802.86 1204.78 1806.19 1201.45 1806.19 1197.33C1806.19 1193.22 1802.86 1189.89 1798.74 1189.89C1794.63 1189.89 1791.3 1193.22 1791.3 1197.33C1791.3 1201.45 1794.63 1204.78 1798.74 1204.78Z" fill="white"/>
<path d="M1730.95 1234.83C1730.95 1238.93 1727.61 1242.27 1723.5 1242.27C1719.39 1242.27 1716.05 1238.93 1716.05 1234.83C1716.05 1230.72 1719.39 1227.38 1723.5 1227.38C1727.61 1227.63 1730.95 1230.97 1730.95 1234.83Z" fill="white"/>
<path d="M1761.25 1242.27C1765.36 1242.27 1768.7 1238.94 1768.7 1234.83C1768.7 1230.71 1765.36 1227.38 1761.25 1227.38C1757.14 1227.38 1753.8 1230.71 1753.8 1234.83C1753.8 1238.94 1757.14 1242.27 1761.25 1242.27Z" fill="white"/>
<path d="M1798.74 1242.27C1802.86 1242.27 1806.19 1238.94 1806.19 1234.83C1806.19 1230.71 1802.86 1227.38 1798.74 1227.38C1794.63 1227.38 1791.3 1230.71 1791.3 1234.83C1791.3 1238.94 1794.63 1242.27 1798.74 1242.27Z" fill="white"/>
<path d="M1303.87 569.814C1305.98 556.794 1297.14 544.527 1284.12 542.414C1271.1 540.301 1258.83 549.142 1256.72 562.162C1254.6 575.182 1263.45 587.449 1276.47 589.562C1289.49 591.675 1301.75 582.834 1303.87 569.814Z" stroke="white" stroke-width="3" stroke-miterlimit="10"/>
<path d="M1679.33 1085.37C1679.33 1098.72 1668.55 1109.25 1655.45 1109.25C1642.1 1109.25 1631.57 1098.46 1631.57 1085.37C1631.57 1072.27 1642.35 1061.49 1655.45 1061.49C1668.55 1061.49 1679.33 1072.01 1679.33 1085.37Z" stroke="white" stroke-width="3" stroke-miterlimit="10"/>
<path d="M1321.28 1184.08C1330.61 1174.75 1330.61 1159.63 1321.28 1150.31C1311.95 1140.98 1296.83 1140.98 1287.51 1150.31C1278.18 1159.63 1278.18 1174.75 1287.51 1184.08C1296.83 1193.41 1311.95 1193.41 1321.28 1184.08Z" stroke="white" stroke-width="3" stroke-miterlimit="10"/>
<path d="M527.841 565.861C541.031 565.861 551.724 555.169 551.724 541.979C551.724 528.789 541.031 518.096 527.841 518.096C514.651 518.096 503.959 528.789 503.959 541.979C503.959 555.169 514.651 565.861 527.841 565.861Z" stroke="white" stroke-width="3" stroke-miterlimit="10"/>
<path d="M273.48 324.514C285.984 320.317 292.718 306.778 288.521 294.274C284.324 281.77 270.785 275.036 258.281 279.233C245.777 283.43 239.043 296.969 243.24 309.473C247.437 321.977 260.976 328.711 273.48 324.514Z" stroke="white" stroke-width="3" stroke-miterlimit="10"/>
<path d="M490.286 196.548C515.523 185.95 527.39 156.899 516.792 131.661C506.193 106.424 477.142 94.5567 451.905 105.155C426.667 115.754 414.8 144.805 425.399 170.042C435.997 195.28 465.048 207.147 490.286 196.548Z" stroke="white" stroke-width="3" stroke-miterlimit="10"/>
<path d="M107.46 1000.11C107.46 1006.27 102.324 1011.41 96.1605 1011.41C89.9973 1011.41 84.8613 1006.27 84.8613 1000.11C84.8613 993.947 89.9973 988.811 96.1605 988.811C102.324 988.811 107.46 993.947 107.46 1000.11Z" stroke="white" stroke-width="3" stroke-miterlimit="10"/>
<path d="M118.502 467.507C118.502 473.67 113.366 478.806 107.203 478.806C101.04 478.806 95.9037 473.67 95.9037 467.507C95.9037 461.344 101.04 456.208 107.203 456.208C113.623 456.208 118.502 461.344 118.502 467.507Z" stroke="white" stroke-width="3" stroke-miterlimit="10"/>
<path d="M1552.99 178.607C1573.98 178.607 1590.99 161.591 1590.99 140.6C1590.99 119.61 1573.98 102.594 1552.99 102.594C1532 102.594 1514.98 119.61 1514.98 140.6C1514.98 161.591 1532 178.607 1552.99 178.607Z" stroke="white" stroke-width="3" stroke-miterlimit="10"/>
<path d="M963.374 506.797C963.374 512.96 958.238 518.096 952.075 518.096C945.912 518.096 940.776 512.96 940.776 506.797C940.776 500.634 945.912 495.498 952.075 495.498C958.238 495.498 963.374 500.634 963.374 506.797Z" stroke="white" stroke-width="3" stroke-miterlimit="10"/>
<path d="M1768.96 706.331C1768.96 712.494 1763.82 717.63 1757.66 717.63C1751.49 717.63 1746.36 712.494 1746.36 706.331C1746.36 700.168 1751.49 695.032 1757.66 695.032C1763.82 695.032 1768.96 700.168 1768.96 706.331Z" stroke="white" stroke-width="3" stroke-miterlimit="10"/>
<path d="M1802.6 124.422C1802.6 130.585 1797.46 135.721 1791.3 135.721C1785.13 135.721 1780 130.585 1780 124.422C1780 118.259 1785.13 113.123 1791.3 113.123C1797.46 113.123 1802.6 118.259 1802.6 124.422Z" stroke="white" stroke-width="3" stroke-miterlimit="10"/>
<path d="M745.094 86.9291C745.094 93.0923 739.958 98.2283 733.795 98.2283C727.632 98.2283 722.496 93.0923 722.496 86.9291C722.496 80.7659 727.632 75.6299 733.795 75.6299C739.958 75.6299 745.094 80.7659 745.094 86.9291Z" stroke="white" stroke-width="3" stroke-miterlimit="10"/>
<path d="M604.881 765.395C604.881 771.558 599.745 776.694 593.582 776.694C587.419 776.694 582.283 771.558 582.283 765.395C582.283 759.232 587.419 754.096 593.582 754.096C599.745 754.096 604.881 759.232 604.881 765.395Z" stroke="white" stroke-width="3" stroke-miterlimit="10"/>
<path d="M1008.57 842.178C1008.57 848.341 1003.43 853.477 997.272 853.477C991.108 853.477 985.972 848.341 985.972 842.178C985.972 836.015 991.108 830.879 997.272 830.879C1003.43 830.879 1008.57 836.015 1008.57 842.178Z" stroke="white" stroke-width="3" stroke-miterlimit="10"/>
<path d="M767.436 311.629C767.436 317.792 762.3 322.928 756.136 322.928C749.973 322.928 744.837 317.792 744.837 311.629C744.837 305.466 749.973 300.33 756.136 300.33C762.556 300.587 767.436 305.466 767.436 311.629Z" stroke="white" stroke-width="3" stroke-miterlimit="10"/>
<path d="M353.474 1138.01C353.474 1144.17 348.338 1149.31 342.175 1149.31C336.012 1149.31 330.876 1144.17 330.876 1138.01C330.876 1131.85 336.012 1126.71 342.175 1126.71C348.338 1126.71 353.474 1131.85 353.474 1138.01Z" stroke="white" stroke-width="3" stroke-miterlimit="10"/>
<path d="M316.752 904.324C316.752 932.315 293.896 955.17 265.905 955.17C237.914 955.17 215.059 932.315 215.059 904.324" stroke="white" stroke-width="3" stroke-miterlimit="10"/>
<path d="M1638.5 579.729C1648.26 579.729 1655.96 587.433 1655.96 597.191C1655.96 606.949 1648.26 614.653 1638.5 614.653" stroke="white" stroke-width="2" stroke-miterlimit="10"/>
<path d="M281.056 489.335C290.815 489.335 298.519 497.039 298.519 506.797C298.519 516.556 290.815 524.26 281.056 524.26" stroke="white" stroke-width="2" stroke-miterlimit="10"/>
<path d="M1417.4 1021.17C1427.15 1021.17 1434.86 1028.87 1434.86 1038.63C1434.86 1048.39 1427.15 1056.09 1417.4 1056.09" stroke="white" stroke-width="2" stroke-miterlimit="10"/>
<path d="M1304.4 406.132C1304.4 378.141 1327.26 355.285 1355.25 355.285C1383.24 355.285 1406.1 378.141 1406.1 406.132" stroke="white" stroke-width="3" stroke-miterlimit="10"/>
<path d="M989.568 1049.16C989.568 1021.17 1012.42 998.312 1040.41 998.312C1068.41 998.312 1091.26 1021.17 1091.26 1049.16" stroke="white" stroke-width="3" stroke-miterlimit="10"/>
<path d="M658.041 960.397C660.915 942.759 648.946 926.131 631.308 923.257C613.67 920.384 597.042 932.353 594.169 949.991C591.295 967.628 603.264 984.256 620.902 987.13C638.54 990.003 655.168 978.034 658.041 960.397Z" stroke="white" stroke-width="3" stroke-miterlimit="10"/>
<path d="M1549.91 893.025C1577.99 893.025 1600.75 870.26 1600.75 842.178C1600.75 814.096 1577.99 791.332 1549.91 791.332C1521.82 791.332 1499.06 814.096 1499.06 842.178C1499.06 870.26 1521.82 893.025 1549.91 893.025Z" stroke="white" stroke-width="3" stroke-miterlimit="10"/>
<path d="M1718.11 431.555C1746.19 431.555 1768.96 408.79 1768.96 380.708C1768.96 352.627 1746.19 329.862 1718.11 329.862C1690.03 329.862 1667.26 352.627 1667.26 380.708C1667.26 408.79 1690.03 431.555 1718.11 431.555Z" stroke="white" stroke-width="3" stroke-miterlimit="10"/>
</g>
</svg>
