<svg width="84" height="9" viewBox="0 0 84 9" fill="none" xmlns="http://www.w3.org/2000/svg">
<path d="M81.7381 5.82011C79.4304 5.82011 78.3486 4.82825 76.9792 3.57252C75.4536 2.17354 73.7244 0.587891 70.3262 0.587891C66.928 0.587891 65.1988 2.17354 63.6731 3.57252C62.3038 4.82825 61.2222 5.82011 58.9145 5.82011C56.6068 5.82011 55.5252 4.82825 54.1559 3.57252C52.6302 2.17354 50.9011 0.587891 47.5029 0.587891C44.1047 0.587891 42.3757 2.17354 40.8499 3.57268C39.4808 4.82841 38.3992 5.82011 36.0917 5.82011C33.7843 5.82011 32.7029 4.82825 31.3336 3.57268C29.808 2.1737 28.079 0.587891 24.6809 0.587891C21.2829 0.587891 19.5538 2.17354 18.0281 3.57252C16.659 4.82825 15.5774 5.82011 13.2698 5.82011C10.9623 5.82011 9.8807 4.82825 8.51144 3.57252C6.9857 2.17371 5.25664 0.587891 1.85861 0.587891C1.08443 0.587891 0.457214 1.21543 0.457214 1.98929C0.457214 2.76314 1.08443 3.39068 1.85861 3.39068C4.16611 3.39068 5.24776 4.38254 6.61686 5.63811C8.14244 7.03708 9.87165 8.6229 13.2698 8.6229C16.6679 8.6229 18.3969 7.03724 19.9227 5.63843C21.2918 4.3827 22.3734 3.39084 24.6809 3.39084C26.9883 3.39084 28.0698 4.3827 29.439 5.63827C30.9646 7.03724 32.6936 8.62306 36.0917 8.62306C39.4897 8.62306 41.2188 7.03757 42.7445 5.6386C44.1138 4.38286 45.1954 3.391 47.5029 3.391C49.8104 3.391 50.8921 4.38286 52.2613 5.63843C53.7871 7.03741 55.5163 8.62322 58.9143 8.62322C62.3124 8.62322 64.0416 7.03773 65.5673 5.63876C66.9369 4.38302 68.0184 3.39116 70.3262 3.39116C72.6339 3.39116 73.7157 4.38302 75.0851 5.63876C76.6107 7.03773 78.3399 8.62322 81.7381 8.62322C82.5123 8.62322 83.1395 7.99568 83.1395 7.22182C83.1397 6.44765 82.5123 5.82011 81.7381 5.82011Z" fill="white"/>
</svg>
