<svg width="95" height="10" viewBox="0 0 95 10" fill="none" xmlns="http://www.w3.org/2000/svg">
<path d="M92.9562 6.35396C90.3237 6.35396 89.0896 5.22249 87.5274 3.79C85.7871 2.1941 83.8145 0.385254 79.9379 0.385254C76.0614 0.385254 74.0888 2.1941 72.3483 3.79C70.7863 5.22249 69.5524 6.35396 66.9199 6.35396C64.2874 6.35396 63.0535 5.22249 61.4915 3.79C59.751 2.1941 57.7785 0.385254 53.902 0.385254C50.0255 0.385254 48.0531 2.1941 46.3126 3.79018C44.7507 5.22267 43.5168 6.35396 40.8845 6.35396C38.2524 6.35396 37.0187 5.22249 35.4567 3.79018C33.7164 2.19429 31.7439 0.385254 27.8676 0.385254C23.9912 0.385254 22.0188 2.1941 20.2783 3.79C18.7165 5.22249 17.4826 6.35396 14.8503 6.35396C12.218 6.35396 10.9841 5.22249 9.42207 3.79C7.68157 2.19429 5.70913 0.385254 1.83279 0.385254C0.949639 0.385254 0.234131 1.10113 0.234131 1.98391C0.234131 2.86669 0.949639 3.58256 1.83279 3.58256C4.4651 3.58256 5.699 4.71404 7.26081 6.14635C9.00113 7.74224 10.9738 9.55127 14.8503 9.55127C18.7266 9.55127 20.6991 7.74242 22.4396 6.14671C24.0014 4.71422 25.2353 3.58275 27.8676 3.58275C30.4997 3.58275 31.7334 4.71422 33.2954 6.14653C35.0357 7.74242 37.0082 9.55145 40.8845 9.55145C44.7609 9.55145 46.7333 7.74279 48.4738 6.1469C50.0358 4.71441 51.2697 3.58293 53.902 3.58293C56.5343 3.58293 57.7682 4.71441 59.3302 6.14671C61.0707 7.74261 63.0434 9.55164 66.9197 9.55164C70.796 9.55164 72.7687 7.74297 74.5092 6.14708C76.0715 4.71459 77.3053 3.58312 79.9379 3.58312C82.5704 3.58312 83.8045 4.71459 85.3667 6.14708C87.107 7.74297 89.0796 9.55164 92.9562 9.55164C93.8393 9.55164 94.5548 8.83576 94.5548 7.95298C94.555 7.06983 93.8393 6.35396 92.9562 6.35396Z" fill="url(#paint0_linear)"/>
<defs>
<linearGradient id="paint0_linear" x1="47.3945" y1="0.385254" x2="47.3945" y2="9.55164" gradientUnits="userSpaceOnUse">
<stop stop-color="#FFC702"/>
<stop offset="1" stop-color="#FFC702"/>
</linearGradient>
</defs>
</svg>
