<svg width="166" height="17" viewBox="0 0 166 17" fill="none" xmlns="http://www.w3.org/2000/svg">
<path d="M162.952 11.3267C158.337 11.3267 156.174 9.34298 153.435 6.83153C150.384 4.03359 146.925 0.862305 140.129 0.862305C133.332 0.862305 129.874 4.03359 126.823 6.83153C124.084 9.34298 121.921 11.3267 117.305 11.3267C112.69 11.3267 110.527 9.34298 107.788 6.83153C104.737 4.03359 101.279 0.862305 94.4824 0.862305C87.6861 0.862305 84.228 4.03359 81.1765 6.83185C78.4383 9.3433 76.275 11.3267 71.66 11.3267C67.0454 11.3267 64.8824 9.34298 62.1439 6.83185C59.0928 4.03392 55.6347 0.862305 48.8386 0.862305C42.0426 0.862305 38.5845 4.03359 35.5331 6.83153C32.7949 9.34298 30.6316 11.3267 26.0166 11.3267C21.4016 11.3267 19.2383 9.34298 16.4998 6.83153C13.4484 4.03392 9.99026 0.862305 3.19422 0.862305C1.64588 0.862305 0.391449 2.11739 0.391449 3.66508C0.391449 5.21278 1.64588 6.46786 3.19422 6.46786C7.80921 6.46786 9.9725 8.45157 12.7107 10.9627C15.7618 13.7606 19.2202 16.9322 26.0166 16.9322C32.8126 16.9322 36.2707 13.7609 39.3222 10.9633C42.0604 8.45189 44.2237 6.46818 48.8386 6.46818C53.4533 6.46818 55.6163 8.45189 58.3548 10.963C61.4059 13.7609 64.864 16.9326 71.66 16.9326C78.4561 16.9326 81.9142 13.7616 84.9656 10.9637C87.7041 8.45221 89.8674 6.4685 94.4824 6.4685C99.0974 6.4685 101.261 8.45221 103.999 10.9633C107.051 13.7613 110.509 16.9329 117.305 16.9329C124.101 16.9329 127.56 13.7619 130.611 10.964C133.35 8.45254 135.513 6.46882 140.129 6.46882C144.744 6.46882 146.908 8.45254 149.647 10.964C152.698 13.7619 156.156 16.9329 162.952 16.9329C164.501 16.9329 165.755 15.6778 165.755 14.1301C165.756 12.5818 164.501 11.3267 162.952 11.3267Z" fill="url(#paint0_linear)"/>
<defs>
<linearGradient id="paint0_linear" x1="83.0733" y1="0.862305" x2="83.0733" y2="16.9329" gradientUnits="userSpaceOnUse">
<stop stop-color="#FFC702"/>
<stop offset="1" stop-color="#FFC702"/>
</linearGradient>
</defs>
</svg>
